<svg width="70" height="24" fill="none" xmlns="http://www.w3.org/2000/svg"><path d="M9.5 24h-.014a.452.452 0 0 1-.075-.007c-1.374-.168-8.36-3.338-9.285-11.91A9.952 9.952 0 0 1 0 10.52l.017-.647c-.052-3.424.027-5.265.1-6.198.043-.536.414-.962.928-1.133L7.995.238A4.681 4.681 0 0 1 9.5 0a4.682 4.682 0 0 1 1.505.238l6.95 2.303c.514.17.885.597.927 1.133.074.933.153 2.774.101 6.198l.017.647c0 .528-.044 1.05-.126 1.565-.925 8.571-7.911 11.741-9.285 11.909a.452.452 0 0 1-.075.007H9.5Z" fill="#20DF9E"/><path fill-rule="evenodd" clip-rule="evenodd" d="M9.5 22.868c.195-.04.714-.204 1.452-.594a12.68 12.68 0 0 0 2.667-1.904c1.866-1.729 3.692-4.426 4.122-8.406l.007-.055a8.94 8.94 0 0 0 .112-1.376l-.016-.632v-.046c.051-3.405-.028-5.208-.098-6.094a.128.128 0 0 0-.031-.076.266.266 0 0 0-.123-.077l-6.95-2.304a3.527 3.527 0 0 0-1.134-.179h-.016a3.527 3.527 0 0 0-1.134.18l-6.95 2.303a.265.265 0 0 0-.123.077.128.128 0 0 0-.03.076c-.07.886-.15 2.69-.098 6.094v.046l-.017.632a8.846 8.846 0 0 0 .12 1.431c.43 3.98 2.255 6.677 4.12 8.406a12.679 12.679 0 0 0 2.668 1.904c.738.39 1.257.553 1.452.594ZM0 10.519l.017-.647c-.052-3.424.027-5.265.1-6.198.043-.536.414-.962.928-1.133L7.995.238A4.681 4.681 0 0 1 9.5 0a4.682 4.682 0 0 1 1.505.238l6.95 2.303c.514.17.885.597.927 1.133.074.933.153 2.774.101 6.198l.017.647c0 .528-.044 1.05-.126 1.565-.925 8.571-7.911 11.741-9.285 11.909a.452.452 0 0 1-.075.007h-.028a.452.452 0 0 1-.075-.007c-1.374-.168-8.36-3.338-9.285-11.91A9.952 9.952 0 0 1 0 10.52Z" fill="#20A690"/><path opacity=".1" d="M9.5 24c0-4.5-.072-19.12 0-24a4.682 4.682 0 0 1 1.505.238l6.95 2.303c.514.17.885.597.927 1.133.074.933.153 2.774.101 6.198l.017.647c0 .528-.044 1.05-.126 1.565-.925 8.571-7.911 11.741-9.285 11.909a.452.452 0 0 1-.075.007H9.5Z" fill="#000"/><ellipse cx="9.5" cy="12.375" rx="6.84" ry="6.75" fill="#18AA79"/><ellipse cx="9.5" cy="11.25" rx="6.84" ry="6.75" fill="#4FFFA8"/><path d="M3.8 11.249c0-.498.067-.994.2-1.475.22.463.538.863.755 1.338.28.611 1.031.442 1.363.977.295.475-.02 1.076.2 1.573.16.36.538.44.799.703.266.266.26.63.301.977a8.794 8.794 0 0 0 .225 1.219C5.407 15.79 3.8 13.7 3.8 11.249Zm5.736 5.626c-.32 0-.64-.026-.956-.078.004-.08.005-.154.013-.206.073-.466.31-.921.631-1.27.317-.344.752-.577 1.02-.967.262-.38.34-.894.232-1.339-.159-.658-1.07-.877-1.561-1.234-.282-.205-.534-.522-.904-.548-.171-.011-.314.025-.484-.018-.155-.04-.277-.122-.443-.1-.309.04-.504.364-.836.32-.315-.042-.64-.404-.712-.698-.092-.379.213-.501.54-.535.137-.014.29-.03.422.02.172.063.254.228.409.312.29.157.35-.093.305-.346-.067-.38-.144-.534.2-.795.24-.18.444-.31.405-.633-.022-.19-.128-.276-.03-.465.076-.144.281-.274.416-.36.346-.221 1.483-.205 1.018-.825-.136-.182-.388-.507-.627-.552-.299-.055-.431.272-.64.416-.215.15-.634.319-.85.088-.289-.31.193-.412.3-.629.049-.1 0-.241-.083-.373a5.15 5.15 0 0 1 .328-.124c.07.05.153.08.24.088.2.012.388-.094.562.04.194.146.333.332.59.377.249.045.512-.097.574-.347.037-.152 0-.312-.036-.469a5.78 5.78 0 0 1 3.137.944c-.06-.022-.131-.02-.22.02-.18.083-.438.293-.459.502-.024.237.332.27.501.27.254 0 .511-.111.43-.399-.036-.125-.085-.255-.163-.333.188.128.367.266.538.414l-.008.008c-.172.176-.372.315-.49.53a.47.47 0 0 1-.344.26c-.093.022-.199.03-.276.09-.217.168-.094.569.111.69.26.152.644.08.839-.137.153-.17.243-.465.517-.465.121 0 .237.046.323.13.114.115.091.223.116.367.043.256.273.117.413-.012.102.178.194.362.276.55-.154.218-.277.455-.647.201-.222-.152-.359-.373-.638-.441-.243-.059-.493.002-.733.043-.274.046-.598.067-.805.27-.2.196-.307.458-.52.654-.412.381-.587.797-.32 1.336.257.518.795.799 1.375.762.57-.037 1.161-.362 1.145.45-.006.288.055.487.145.754.084.246.078.485.097.739.018.297.066.592.141.88a5.707 5.707 0 0 1-2.005 1.6 5.82 5.82 0 0 1-2.519.573Z" fill="#00B7FF"/><path d="M7.22 15.75c3.778 0 6.84-3.022 6.84-6.75 0-1.287-.365-2.49-.999-3.514 1.966 1.185 3.279 3.323 3.279 5.764 0 3.728-3.062 6.75-6.84 6.75a6.855 6.855 0 0 1-5.841-3.236 6.876 6.876 0 0 0 3.561.986Z" fill="#000" opacity=".1"/><path fill-rule="evenodd" clip-rule="evenodd" d="M9.5 16.688c3.043 0 5.51-2.435 5.51-5.438 0-3.003-2.467-5.438-5.51-5.438-3.043 0-5.51 2.435-5.51 5.438 0 3.003 2.467 5.438 5.51 5.438ZM9.5 18c3.778 0 6.84-3.022 6.84-6.75S13.278 4.5 9.5 4.5s-6.84 3.022-6.84 6.75S5.722 18 9.5 18Z" fill="#342B53"/><g filter="url(#a)"><ellipse cx="15.39" cy="8.063" rx="2.85" ry="2.813" fill="#FF5E5C"/><path fill-rule="evenodd" clip-rule="evenodd" d="M16.249 7.64h.214a.15.15 0 0 1 .15.148v1.438a.15.15 0 0 1-.15.149h-2.146a.15.15 0 0 1-.15-.149V7.788a.15.15 0 0 1 .15-.149h.215v-.417c0-.468.384-.847.858-.847s.859.38.859.847v.417Zm-1.288 0h.858v-.418a.426.426 0 0 0-.429-.423c-.237 0-.43.19-.43.423v.417Zm.427 1.154a.33.33 0 0 0 .333-.328.33.33 0 0 0-.333-.328.33.33 0 0 0-.332.328.33.33 0 0 0 .332.328Z" fill="#fff"/></g><path d="m31.13 16.823 3.836-9.8h1.736l-3.962 9.8h-1.61Zm-.168 0L27 7.023h1.722l3.836 9.8h-1.596Zm9.278.167c-.68 0-1.287-.153-1.82-.461a3.342 3.342 0 0 1-1.245-1.302c-.3-.55-.448-1.186-.448-1.904 0-.719.154-1.354.462-1.904.308-.55.728-.98 1.26-1.288.532-.318 1.148-.476 1.848-.476.616 0 1.176.163 1.68.49.504.317.9.78 1.19 1.386.298.606.448 1.33.448 2.17h-1.582c.009-.607-.061-1.106-.21-1.498-.14-.392-.346-.681-.616-.868a1.603 1.603 0 0 0-.966-.294c-.392 0-.728.088-1.008.266-.271.177-.481.438-.63.784-.15.336-.224.76-.224 1.274 0 .457.088.85.266 1.176.177.326.415.579.714.756.308.168.648.252 1.022.252.41 0 .75-.093 1.022-.28.27-.196.48-.444.63-.742l1.442.616a3.69 3.69 0 0 1-.742.98c-.3.28-.658.494-1.078.644-.42.15-.892.224-1.414.224Zm-2.49-3.29.014-1.245h5.04V13.7H37.75Zm10.252 3.29c-.681 0-1.288-.153-1.82-.461a3.343 3.343 0 0 1-1.246-1.302c-.299-.55-.448-1.186-.448-1.904 0-.719.154-1.354.462-1.904.308-.55.728-.98 1.26-1.288.532-.318 1.148-.476 1.848-.476.616 0 1.176.163 1.68.49.504.317.9.78 1.19 1.386.299.606.448 1.33.448 2.17h-1.582c.01-.607-.06-1.106-.21-1.498-.14-.392-.345-.681-.616-.868a1.603 1.603 0 0 0-.966-.294c-.392 0-.728.088-1.008.266-.27.177-.48.438-.63.784-.15.336-.224.76-.224 1.274 0 .457.089.85.266 1.176.177.326.415.579.714.756a2.1 2.1 0 0 0 1.022.252c.41 0 .751-.093 1.022-.28.27-.196.48-.444.63-.742l1.442.616a3.67 3.67 0 0 1-.742.98c-.299.28-.658.494-1.078.644-.42.15-.891.224-1.414.224ZM45.51 13.7l.014-1.245h5.04V13.7H45.51Zm8.811-.265v-1.498h2.17c.467 0 .85-.159 1.148-.476.299-.318.448-.728.448-1.232 0-.346-.08-.644-.238-.896a1.6 1.6 0 0 0-.63-.616c-.27-.15-.583-.22-.938-.21h-1.96V7.023l1.988-.014c.672 0 1.265.14 1.778.42a3 3 0 0 1 1.204 1.134c.29.476.434 1.031.434 1.666 0 .616-.135 1.167-.406 1.652-.27.485-.648.868-1.134 1.148-.476.27-1.031.406-1.666.406h-2.198Zm-1.47 3.388v-9.8h1.624v9.8h-1.624Zm15.101 0-6.51-8.904 1.302-.896 6.496 8.876-1.288.924Zm-6.888 0v-9.8h1.68l-.056 1.4v8.4h-1.624Zm6.888 0v-9.8h1.624v9.8h-1.624Z" fill="#303C48"/><defs><filter id="a" x="10.54" y="3.25" width="9.7" height="9.625" filterUnits="userSpaceOnUse" color-interpolation-filters="sRGB"><feFlood flood-opacity="0" result="BackgroundImageFix"/><feColorMatrix in="SourceAlpha" values="0 0 0 0 0 0 0 0 0 0 0 0 0 0 0 0 0 0 127 0" result="hardAlpha"/><feOffset/><feGaussianBlur stdDeviation="1"/><feComposite in2="hardAlpha" operator="out"/><feColorMatrix values="0 0 0 0 0 0 0 0 0 0 0 0 0 0 0 0 0 0 0.2 0"/><feBlend in2="BackgroundImageFix" result="effect1_dropShadow_6218_3860"/><feBlend in="SourceGraphic" in2="effect1_dropShadow_6218_3860" result="shape"/></filter></defs></svg>