<svg width="52" height="52" fill="none" xmlns="http://www.w3.org/2000/svg"><path d="m26 0 2.294 2.713L31.072.5l1.72 3.108 3.158-1.629 1.08 3.384 3.415-.981.4 3.53 3.54-.297-.297 3.54 3.53.4-.981 3.414 3.384 1.081-1.629 3.157 3.108 1.72-2.213 2.78L52 26l-2.713 2.294 2.213 2.778-3.108 1.72 1.629 3.158-3.384 1.08.981 3.415-3.53.4.297 3.54-3.54-.297-.4 3.53-3.414-.981-1.081 3.384-3.157-1.629-1.72 3.108-2.78-2.213L26 52l-2.294-2.713-2.778 2.213-1.72-3.108-3.158 1.629-1.08-3.384-3.415.981-.4-3.53-3.54.297.297-3.54-3.53-.4.981-3.414-3.384-1.081 1.629-3.157L.5 31.073l2.213-2.78L0 26l2.713-2.294L.5 20.928l3.108-1.72-1.629-3.158 3.384-1.08-.981-3.415 3.53-.4-.297-3.54 3.54.297.4-3.53 3.414.981 1.081-3.384 3.157 1.629L20.927.5l2.78 2.213L26 0Z" fill="#20DF9E"/><circle cx="26" cy="26" r="22" fill="#20DF9E"/><path d="M18.937 28.264c-.91 0-1.73-.132-2.464-.396-.733-.279-1.35-.667-1.848-1.166a4.234 4.234 0 0 1-1.012-1.804l2.772-.814c.102.176.242.396.418.66.176.25.418.462.726.638s.711.264 1.21.264c.733 0 1.313-.198 1.738-.594.44-.41.66-.939.66-1.584 0-.44-.11-.829-.33-1.166-.22-.337-.58-.594-1.078-.77-.484-.19-1.122-.286-1.914-.286h-.924V19.2h.814c.88 0 1.709.11 2.486.33.777.205 1.46.513 2.046.924.601.396 1.07.88 1.408 1.452.337.557.506 1.195.506 1.914 0 .924-.242 1.723-.726 2.398a4.677 4.677 0 0 1-1.914 1.518 6.265 6.265 0 0 1-2.574.528Zm-2.046-7.568v-1.914h.924c1.026 0 1.79-.176 2.288-.528.499-.352.748-.836.748-1.452 0-.352-.088-.667-.264-.946a1.826 1.826 0 0 0-.748-.66 2.478 2.478 0 0 0-1.122-.242c-.279 0-.565.051-.858.154a2.163 2.163 0 0 0-.814.462c-.235.205-.426.506-.572.902l-2.728-.814a3.986 3.986 0 0 1 1.056-1.804 4.96 4.96 0 0 1 1.826-1.122 6.154 6.154 0 0 1 2.178-.396c.953 0 1.811.183 2.574.55.763.352 1.364.843 1.804 1.474.44.63.66 1.357.66 2.178 0 .704-.169 1.313-.506 1.826-.337.513-.8.946-1.386 1.298a6.685 6.685 0 0 1-1.958.792c-.733.161-1.496.242-2.288.242h-.814Zm15.217 7.568c-1.247 0-2.347-.337-3.3-1.012-.954-.69-1.702-1.628-2.244-2.816-.543-1.203-.814-2.581-.814-4.136 0-1.555.27-2.926.814-4.114.542-1.203 1.283-2.141 2.221-2.816.954-.69 2.054-1.034 3.3-1.034 1.247 0 2.347.345 3.3 1.034.968.675 1.724 1.613 2.267 2.816.542 1.188.813 2.56.813 4.114 0 1.555-.27 2.933-.814 4.136-.542 1.188-1.29 2.127-2.244 2.816-.953.675-2.053 1.012-3.3 1.012Zm0-2.728c.66 0 1.246-.22 1.76-.66.527-.455.938-1.07 1.231-1.848.294-.792.44-1.701.44-2.728 0-1.027-.146-1.936-.44-2.728-.293-.792-.703-1.408-1.231-1.848a2.606 2.606 0 0 0-1.782-.682c-.66 0-1.247.227-1.76.682-.514.44-.917 1.056-1.21 1.848-.28.792-.418 1.701-.418 2.728 0 1.027.139 1.936.418 2.728.293.777.696 1.393 1.21 1.848a2.71 2.71 0 0 0 1.782.66ZM17.448 41v-1.536c.384 0 .74-.068 1.068-.204.328-.136.612-.324.852-.564.248-.24.44-.52.576-.84a2.73 2.73 0 0 0 .204-1.056c0-.376-.068-.724-.204-1.044a2.508 2.508 0 0 0-.576-.852 2.597 2.597 0 0 0-.852-.564 2.76 2.76 0 0 0-1.068-.204V32.6c.856 0 1.612.18 2.268.54.664.36 1.18.856 1.548 1.488.376.624.564 1.348.564 2.172 0 .816-.188 1.54-.564 2.172a4.012 4.012 0 0 1-1.548 1.488c-.656.36-1.412.54-2.268.54Zm-1.74 0v-1.536h1.74V41h-1.74Zm-.948 0v-8.4h1.644V41H14.76Zm.948-6.864V32.6h1.74v1.536h-1.74ZM28.982 41l-3.216-8.4h1.644l3.312 8.4h-1.74Zm-6.636 0 3.312-8.4h1.644L24.086 41h-1.74Zm1.56-1.848V37.7h5.268v1.452h-5.268Zm11.133-1.62-1.548-.396 2.7-4.536h1.872l-3.024 4.932ZM33.443 41v-4.032h1.644V41h-1.644Zm.048-3.468L30.467 32.6h1.872l2.7 4.536-1.548.396Z" fill="#fff"/></svg>