<svg xmlns="http://www.w3.org/2000/svg" width="28" height="28" fill="none"><path fill="#20DF9E" d="m14 0 1.235 1.46L16.731.27l.927 1.674 1.7-.877.582 1.822 1.838-.529.215 1.901L23.9 4.1l-.16 1.907 1.9.215-.528 1.838 1.822.582-.877 1.7 1.674.927-1.192 1.496L28 14l-1.46 1.235 1.191 1.496-1.674.927.877 1.7-1.822.582.529 1.838-1.901.215.16 1.907-1.907-.16-.215 1.9-1.838-.528-.582 1.822-1.7-.877-.927 1.674-1.496-1.192L14 28l-1.235-1.46-1.496 1.191-.927-1.674-1.7.877-.582-1.822-1.838.529-.215-1.901-1.906.16.16-1.907-1.902-.215.529-1.838-1.822-.582.877-1.7-1.674-.927 1.192-1.496L0 14l1.46-1.235L.27 11.269l1.674-.927-.877-1.7 1.822-.582-.529-1.838 1.901-.215L4.1 4.1l1.907.16.215-1.902 1.838.529.582-1.822 1.7.877.927-1.674 1.496 1.192L14 0Z"/><circle cx="14" cy="14" r="12" fill="#20DF9E"/><path fill="#fff" d="M10.626 14.744c-.496 0-.944-.072-1.344-.216a2.819 2.819 0 0 1-1.008-.636 2.31 2.31 0 0 1-.552-.984l1.512-.444c.056.096.132.216.228.36.096.136.228.252.396.348.168.096.388.144.66.144.4 0 .716-.108.948-.324.24-.224.36-.512.36-.864 0-.24-.06-.452-.18-.636s-.316-.324-.588-.42c-.264-.104-.612-.156-1.044-.156H9.51V9.8h.444c.48 0 .932.06 1.356.18.424.112.796.28 1.116.504.328.216.584.48.768.792.184.304.276.652.276 1.044 0 .504-.132.94-.396 1.308-.264.36-.612.636-1.044.828-.432.192-.9.288-1.404.288ZM9.51 10.616V9.572h.504c.56 0 .976-.096 1.248-.288a.917.917 0 0 0 .408-.792.946.946 0 0 0-.552-.876 1.351 1.351 0 0 0-.612-.132c-.152 0-.308.028-.468.084a1.18 1.18 0 0 0-.444.252 1.186 1.186 0 0 0-.312.492l-1.488-.444c.112-.392.304-.72.576-.984.28-.272.612-.476.996-.612.384-.144.78-.216 1.188-.216.52 0 .988.1 1.404.3.416.192.744.46.984.804.24.344.36.74.36 1.188 0 .384-.092.716-.276.996-.184.28-.436.516-.756.708a3.646 3.646 0 0 1-1.068.432c-.4.088-.816.132-1.248.132H9.51ZM17.81 14.744c-.68 0-1.28-.184-1.8-.552-.52-.376-.928-.888-1.224-1.536-.296-.656-.444-1.408-.444-2.256 0-.848.148-1.596.444-2.244.296-.656.7-1.168 1.212-1.536.52-.376 1.12-.564 1.8-.564.68 0 1.28.188 1.8.564.528.368.94.88 1.236 1.536.296.648.444 1.396.444 2.244 0 .848-.148 1.6-.444 2.256-.296.648-.704 1.16-1.224 1.536-.52.368-1.12.552-1.8.552Zm0-1.488c.36 0 .68-.12.96-.36.288-.248.512-.584.672-1.008.16-.432.24-.928.24-1.488 0-.56-.08-1.056-.24-1.488-.16-.432-.384-.768-.672-1.008a1.422 1.422 0 0 0-.972-.372c-.36 0-.68.124-.96.372-.28.24-.5.576-.66 1.008-.152.432-.228.928-.228 1.488 0 .56.076 1.056.228 1.488.16.424.38.76.66 1.008.288.24.612.36.972.36ZM10.018 21.944v-.768c.192 0 .37-.034.534-.102.164-.068.306-.162.426-.282.124-.12.22-.26.288-.42.068-.164.102-.34.102-.528a1.32 1.32 0 0 0-.39-.948 1.299 1.299 0 0 0-.426-.282 1.38 1.38 0 0 0-.534-.102v-.768c.428 0 .806.09 1.134.27.332.18.59.428.774.744.188.312.282.674.282 1.086 0 .408-.094.77-.282 1.086a2.006 2.006 0 0 1-.774.744c-.328.18-.706.27-1.134.27Zm-.87 0v-.768h.87v.768h-.87Zm-.474 0v-4.2h.822v4.2h-.822Zm.474-3.432v-.768h.87v.768h-.87ZM15.785 21.944l-1.608-4.2H15l1.656 4.2h-.87Zm-3.318 0 1.656-4.2h.822l-1.608 4.2h-.87Zm.78-.924v-.726h2.634v.726h-2.634ZM18.814 20.21l-.774-.198 1.35-2.268h.936l-1.512 2.466Zm-.798 1.734v-2.016h.822v2.016h-.822Zm.024-1.734-1.512-2.466h.936l1.35 2.268-.774.198Z"/></svg>