<svg xmlns="http://www.w3.org/2000/svg" width="311" height="230" fill="none"><path stroke="#CAD6F8" stroke-linecap="round" stroke-linejoin="round" stroke-miterlimit="10" d="M282.832 211.049H37.938"/><path fill="#969DC8" stroke="#30334E" stroke-linecap="round" stroke-miterlimit="10" d="M242.863 204.053H79.926V101.256a3.937 3.937 0 0 1 3.933-3.934H238.93a3.936 3.936 0 0 1 3.933 3.934v102.797Z"/><path fill="#fff" stroke="#30334E" stroke-linecap="round" stroke-miterlimit="10" d="M238.757 201.237H83.997v-97.866a2.37 2.37 0 0 1 2.37-2.371h150.019a2.37 2.37 0 0 1 2.371 2.371v97.866Z"/><path fill="#8AA4F1" stroke="#4F5576" d="M233.023 182.806v11.293l-.807-.806-.353.354.353-.354a1.338 1.338 0 0 0-.949-.392h-75.125a.922.922 0 0 1-.923-.921v-9.179c0-.508.412-.922.923-.922h75.952c.511 0 .929.419.929.927ZM233.023 142.209v8.44l-.807-.805a1.335 1.335 0 0 0-.949-.393h-75.125a.922.922 0 0 1-.923-.921v-6.326c0-.509.412-.922.923-.922h75.952c.511 0 .929.419.929.927Z"/><path fill="#CAD6F8" stroke="#4F5576" d="m91.307 175.138-.807.806v-15.518a.93.93 0 0 1 .929-.926h75.952c.511 0 .923.413.923.921v13.404a.922.922 0 0 1-.923.921H92.256c-.358 0-.696.139-.95.392l.339.339-.338-.339ZM91.307 132.138l-.807.806v-18.518a.93.93 0 0 1 .929-.926h75.952c.511 0 .923.413.923.921v16.404a.922.922 0 0 1-.923.921H92.256c-.358 0-.696.139-.95.392l.346.346-.345-.346Z"/><rect width="101" height="25" x="112.035" y="169.077" fill="#E84E58" rx="3.5" transform="rotate(-30 112.035 169.077)"/><path fill="#fff" d="M145.121 169.193c-.707.408-1.426.611-2.157.608a4.031 4.031 0 0 1-2.057-.586c-.64-.388-1.172-.949-1.596-1.684-.424-.734-.642-1.472-.654-2.213a3.958 3.958 0 0 1 .51-2.068c.36-.642.893-1.167 1.599-1.575a4.1 4.1 0 0 1 1.549-.533 3.85 3.85 0 0 1 1.548.089c.506.124.963.341 1.373.649l-1.038 1.251a2.501 2.501 0 0 0-.852-.395 2.363 2.363 0 0 0-.923-.063 2.279 2.279 0 0 0-.907.301c-.422.244-.738.57-.946.977a2.49 2.49 0 0 0-.271 1.306c.031.471.187.949.467 1.434s.622.861 1.025 1.127c.399.259.827.4 1.283.423.453.016.894-.1 1.324-.348.297-.172.536-.384.714-.634.182-.262.308-.548.379-.857.078-.312.1-.635.066-.966l1.595-.284a3.909 3.909 0 0 1-.1 1.555 3.922 3.922 0 0 1-.684 1.406 4.15 4.15 0 0 1-1.247 1.08Zm6.47-3.735c-.513.296-1.032.443-1.559.443a2.96 2.96 0 0 1-1.494-.427c-.457-.28-.84-.688-1.148-1.221-.308-.533-.466-1.071-.473-1.611a2.916 2.916 0 0 1 .404-1.508c.273-.472.672-.86 1.199-1.164.45-.26.936-.379 1.457-.356.524.012 1.038.181 1.541.51.5.321.94.811 1.32 1.469l-1.393.804c-.257-.462-.516-.797-.775-1.007-.257-.222-.51-.339-.758-.353-.252-.021-.5.039-.742.179-.27.156-.467.344-.59.562a1.205 1.205 0 0 0-.132.756c.038.273.161.59.369.951.18.311.392.535.637.671s.503.199.775.19c.268-.016.526-.096.776-.24.27-.156.454-.341.552-.555.106-.218.149-.446.131-.685l1.577-.245a2.97 2.97 0 0 1-.134 1.088c-.108.34-.29.658-.545.953-.254.294-.586.56-.995.796Zm-3.097-1.357-.608-1.077 3.658-2.112.618 1.071-3.668 2.118Zm6.431-.734-3-5.196 1.288-.744.636.908 2.448 4.24-1.372.792Zm3.44-1.986-1.536-2.661 1.191-1.103 1.716 2.972-1.371.792Zm-1.536-2.661c-.204-.353-.404-.603-.599-.749-.188-.15-.379-.224-.573-.223a1.095 1.095 0 0 0-.587.159c-.357.197-.569.462-.635.796-.059.329.038.713.29 1.149l-.458.264c-.32-.554-.51-1.068-.571-1.541-.057-.484.001-.91.176-1.279a1.99 1.99 0 0 1 .849-.906c.631-.364 1.224-.448 1.781-.252.559.185 1.065.678 1.518 1.479l-1.191 1.103Zm6.018.239a3.404 3.404 0 0 1-1.02.395 2.85 2.85 0 0 1-1.021.007 2.35 2.35 0 0 1-.927-.406l.862-1.219c.2.107.426.17.678.191.248.014.49-.048.726-.184.228-.132.387-.265.476-.399.084-.141.091-.274.019-.399a.326.326 0 0 0-.312-.18 1.508 1.508 0 0 0-.495.078l-.55.151c-.575.157-1.09.177-1.545.061-.452-.127-.786-.378-1.002-.752-.308-.533-.377-1.044-.205-1.531.178-.491.583-.918 1.213-1.282.326-.188.655-.314.988-.377a2.5 2.5 0 0 1 .962-.014c.301.057.555.178.764.362l-.833 1.174c-.129-.111-.31-.153-.546-.129a1.483 1.483 0 0 0-.639.189c-.187.108-.308.234-.364.377a.445.445 0 0 0 .04.406c.052.09.145.138.278.145.129-.001.295-.032.5-.095l.771-.223c.387-.113.736-.134 1.045-.063.311.06.578.178.8.355.225.166.4.356.524.571.18.312.246.643.199.993-.044.34-.187.667-.43.983a3.146 3.146 0 0 1-.956.815Zm5.34-3.083c-.527.304-1.064.462-1.612.474a2.987 2.987 0 0 1-1.524-.409c-.465-.277-.851-.682-1.159-1.215-.308-.534-.466-1.071-.473-1.612a2.812 2.812 0 0 1 .404-1.508c.273-.471.672-.859 1.199-1.163.533-.308 1.072-.462 1.617-.463a2.825 2.825 0 0 1 1.508.404c.465.277.851.682 1.159 1.216.308.533.466 1.07.473 1.611a2.895 2.895 0 0 1-.398 1.519c-.27.46-.668.842-1.194 1.146Zm-.732-1.267c.256-.148.445-.341.567-.577a1.42 1.42 0 0 0 .153-.768 1.931 1.931 0 0 0-.272-.854 1.861 1.861 0 0 0-.598-.653 1.464 1.464 0 0 0-.768-.249 1.406 1.406 0 0 0-.783.203c-.25.144-.439.336-.568.577a1.486 1.486 0 0 0-.157.783c.013.279.102.561.266.845.164.284.365.505.604.662.235.151.489.231.762.24.273.008.537-.061.794-.209Zm3.644-4.225c-.324-.561-.484-1.087-.482-1.578.01-.496.133-.931.368-1.307.243-.38.551-.679.925-.895l.768 1.331a4.01 4.01 0 0 0-.838.636 1.733 1.733 0 0 0-.46.764 1.04 1.04 0 0 0 .125.815l-.406.234Zm.612 3.291-3-5.196 1.372-.792 3 5.196-1.372.792Zm6.358-3.504c-.513.296-1.032.443-1.559.443a2.96 2.96 0 0 1-1.494-.427c-.457-.281-.84-.688-1.148-1.221-.308-.534-.466-1.071-.473-1.611a2.922 2.922 0 0 1 .404-1.509c.273-.471.672-.859 1.199-1.163.45-.26.936-.379 1.457-.356.524.011 1.038.181 1.541.509.5.322.94.811 1.32 1.47l-1.393.804c-.257-.462-.515-.797-.775-1.008-.257-.221-.51-.338-.758-.352-.252-.021-.5.039-.742.179-.27.156-.467.343-.59.562a1.205 1.205 0 0 0-.132.756c.038.273.161.59.369.95.18.312.392.536.637.672s.503.199.775.19c.268-.016.526-.096.776-.24.27-.156.454-.341.552-.555.106-.218.149-.446.131-.685l1.577-.245a2.97 2.97 0 0 1-.134 1.088c-.108.34-.29.658-.545.952a3.807 3.807 0 0 1-.995.797Zm-3.097-1.357-.608-1.077 3.658-2.112.618 1.071-3.668 2.118Zm10.131-2.87-.631-.925-3.642-6.308 1.372-.792 4.2 7.275-1.299.75Zm-1.56 1.066c-.478.276-.958.406-1.439.388a2.565 2.565 0 0 1-1.357-.478c-.43-.297-.805-.722-1.125-1.276-.324-.562-.505-1.099-.543-1.613a2.56 2.56 0 0 1 .265-1.414c.225-.425.577-.776 1.055-1.052.436-.252.868-.353 1.294-.304.432.046.846.227 1.242.544.391.31.749.745 1.073 1.307.32.554.518 1.081.595 1.582.076.501.026.95-.15 1.348-.17.394-.474.716-.91.968Zm-.373-1.461a1.23 1.23 0 0 0 .516-.547c.115-.233.16-.49.136-.772a2.04 2.04 0 0 0-.282-.848 2.045 2.045 0 0 0-.594-.669 1.35 1.35 0 0 0-.73-.257c-.252-.021-.5.039-.742.179-.25.144-.432.332-.547.565-.119.226-.17.481-.153.767.017.286.108.571.272.855.164.284.365.505.604.662.239.158.488.245.747.262.266.013.524-.053.773-.197Z"/><rect width="101" height="25" x="112.035" y="169.077" stroke="#4F5576" rx="3.5" transform="rotate(-30 112.035 169.077)"/><path fill="#C0C9ED" stroke="#30334E" stroke-linecap="round" stroke-miterlimit="10" d="M248.624 209.908H71.66a5.298 5.298 0 0 1-5.3-5.301v-.554h187.57v.554a5.31 5.31 0 0 1-5.306 5.301Z"/><path fill="#30334E" d="M176.302 205.421H146.72a.84.84 0 1 0 0 1.682h29.582a.842.842 0 0 0 0-1.682Z"/><g clip-path="url(#a)"><path fill="#fff" d="m57.3 48.842-16.915 6.156a1 1 0 0 0-.598 1.282l1.026 2.819 14.096-5.13a1 1 0 0 1 1.282.597l3.762 10.337 2.819-1.026a1 1 0 0 0 .598-1.282L58.58 49.439a1 1 0 0 0-1.282-.597Z" opacity=".2"/><path stroke="#fff" stroke-linecap="round" stroke-linejoin="round" d="m54.909 53.968-16.915 6.157a1 1 0 0 0-.597 1.282l4.788 13.155a1 1 0 0 0 1.282.598l16.914-6.156a1 1 0 0 0 .598-1.282L56.19 54.566a1 1 0 0 0-1.282-.598Z"/><path stroke="#fff" stroke-linecap="round" stroke-linejoin="round" d="m40.813 59.099-1.026-2.82a1 1 0 0 1 .598-1.281L57.3 48.842a1 1 0 0 1 1.281.597l4.788 13.156a1 1 0 0 1-.597 1.282l-2.82 1.026M38.422 64.226l18.794-6.84"/><path fill="#fff" stroke="#4887FE" stroke-width="1.5" d="m66.373 71.354.637.395.396-.637.528-.85.395-.636-.637-.396-30.25-18.787-.637-.396-.395.637-.528.85-.395.637.637.396 30.25 18.787Z"/></g><g clip-path="url(#b)"><path fill="#fff" d="m248.148 54.766 6.548-1.755a.997.997 0 0 1 1.225.707l2.271 8.48 4.385-1.173a.999.999 0 0 1 1.224.707l1.082 4.048 5.129-8.883a1.001 1.001 0 0 0-.366-1.366l-15.589-9a.998.998 0 0 0-1.366.366l-4.543 7.87Z" opacity=".2"/><path stroke="#fff" stroke-linecap="round" stroke-linejoin="round" d="m269.646 55.531-15.589-9a1 1 0 0 0-1.366.366l-7 12.125a1 1 0 0 0 .366 1.366l15.589 9a1 1 0 0 0 1.366-.367l7-12.124a1 1 0 0 0-.366-1.366Z"/><path fill="#fff" d="M261.881 57.977a1.5 1.5 0 1 0 1.5-2.597 1.5 1.5 0 0 0-1.5 2.597Z"/><path stroke="#fff" stroke-linecap="round" stroke-linejoin="round" d="m248.148 54.766 6.547-1.755a1.002 1.002 0 0 1 1.226.707l2.271 8.48 4.384-1.173a1 1 0 0 1 1.225.707l1.082 4.048"/><path stroke="#fff" stroke-linecap="round" stroke-linejoin="round" d="m259.047 67.888-1.5 2.598a1 1 0 0 1-1.366.366l-15.588-9a.997.997 0 0 1-.366-1.366l7-12.125a.999.999 0 0 1 1.366-.366l2.598 1.5"/><path fill="#fff" stroke="#4A89FE" stroke-width="1.5" d="m237.964 63.508-.701.266-.266-.7-.356-.935-.267-.701.701-.267 33.279-12.668.701-.267.267.701.356.935.267.7-.701.267-33.28 12.669Z"/></g><g clip-path="url(#c)"><path fill="#fff" d="m148.149 31.1.868 4.924a.998.998 0 0 0 1.159.811l11.869-2.093 5.567 3.08-2.778-15.756a1 1 0 0 0-1.159-.811l-4.924.868 1.042 5.909a1 1 0 0 1-.811 1.158l-10.833 1.91Z" opacity=".2"/><path stroke="#fff" stroke-linecap="round" stroke-linejoin="round" d="m147.114 31.283-4.178 4.798-2.778-15.757a1.001 1.001 0 0 1 .811-1.158l15.757-2.779a1 1 0 0 1 1.159.812l1.91 10.833a1 1 0 0 1-.811 1.158l-11.87 2.093Z"/><path stroke="#fff" stroke-linecap="round" stroke-linejoin="round" d="m148.149 31.1.868 4.924a.998.998 0 0 0 1.159.811l11.869-2.093 5.567 3.08-2.778-15.756a1 1 0 0 0-1.159-.811l-4.924.868"/><path fill="#fff" stroke="#4A89FE" stroke-width="1.5" d="m163.359 41.652.384.644-.644.384-.858.513-.644.384-.385-.644-18.254-30.573-.385-.644.644-.385.859-.513.644-.384.384.644 18.255 30.574Z"/></g><defs><clipPath id="a"><path fill="#fff" d="m29.875 52.438 30.07-10.945 10.945 30.07-30.07 10.945z"/></clipPath><clipPath id="b"><path fill="#fff" d="m249.262 36.835 27.713 16-16 27.713-27.713-16z"/></clipPath><clipPath id="c"><path fill="#fff" d="m135.176 15.11 31.514-5.557 5.557 31.514-31.514 5.557z"/></clipPath></defs></svg>