<svg xmlns="http://www.w3.org/2000/svg" width="311" height="230" fill="none"><path stroke="#CAD6F8" stroke-linecap="round" stroke-linejoin="round" stroke-miterlimit="10" d="M282.832 211.049H37.938"/><path fill="#9AB3FF" stroke="#30334E" stroke-linecap="round" stroke-miterlimit="10" d="m174.561 66.829-.315.14c-.233.098-.146.06-.374.174-4.265 2.062-7.461 7.705-8.638 12.295l-5.773 22.507h13.461l2.952-16.272-1.313-18.844Z"/><path fill="#799AFF" stroke="#30334E" stroke-linecap="round" stroke-linejoin="round" stroke-miterlimit="10" d="M175.645 65.814s-14.709-4.465-7.455-36.798l23.217 12.778 5.643 25.957-20.613.884-.792-2.82Z"/><path fill="#fff" d="M182.498 61.56s2.333 4.254 2.827 5.307c0 0 4.704.005 8.561-1.498 0 0 3.75-.9 6.604-2.262 0 0-3.093-7.542-2.621-13.489 0 0-.022-3.473 1.552-7.276 0 0 2.479-7.309-.396-14.297 0 0-1.308-7.694-9.284-7.314 0 0-3.586.125-6.619.955-3.028.835-.212.049-.212.049s-.868.846-9.104-.022c0 0-4.634-.25-5.372 3.527 0 0-1.66 4.883 3.44 7.162l.559.255.103 3.055s-1.465.016-1.373.835c0 0 .45.776 1.433.917 0 0-.201 4.58-.31 4.873 0 0-.483 4.2-1.177 5.387-.695 1.189-1.319 4.205-1.069 7.054 0 0 .629 3.966 4.509 5.377 0 0 3 1.14 7.091.83.011-.005.462-.146.858.575Z"/><path stroke="#30334E" stroke-linecap="round" stroke-linejoin="round" stroke-miterlimit="10" d="M172.529 37.871c-.038 3.342-.298 7.173-1.329 9.658-1.78 4.286-3.277 12.707 7.379 13.429 10.657.722 12.127-4.997 14.08-9.919 1.943-4.92-3.662 1.086-5.339.993-1.665-.092-3.082-2.485-7.786-1.334-4.704 1.16-7.477.103-8.665-1.9M172.56 35.717c-.022-1.562-.076-2.729-.103-3.054"/><path stroke="#30334E" stroke-linecap="round" stroke-linejoin="round" stroke-miterlimit="10" d="M175.985 38.191c.63-1.248-3.38-2.626-4.308-2.577-.928.049-.38 1.394 1.042 2.268.797.5 2.805 1.237 3.266.31Z"/><path stroke="#3E3C52" stroke-linecap="round" stroke-linejoin="round" stroke-miterlimit="10" d="M180.525 36.688c.51-1.253 3.516-.054 5.067 1.52 1.552 1.573-.179 1.703-1.286 1.145-1.112-.56-4.232-1.541-3.781-2.665Z"/><path stroke="#30334E" stroke-linecap="round" stroke-linejoin="round" stroke-miterlimit="10" d="M180.902 41.729c.131.342.196.504.537.955M173.863 40.882s.163.684.716 1.14M177.164 49.754c-1.036-.103-3.96-.874-1.616-2.637 1.725-1.302 1.426-5.562 1.074-7.76M182.411 53.004s-1.025.255-4.313 2.55"/><path stroke="#30334E" stroke-linecap="round" stroke-linejoin="round" stroke-miterlimit="10" d="M182.011 60.958h.017c.423.277 2.859 4.965 3.293 5.914 0 0 6.603.147 15.165-3.76-.07-.092-4.557-10.694-1.66-18.947 2.892-8.236 1.628-12.816-.874-18.87-.982-2.42-2.826-3.642-4.953-4.179a.51.51 0 0 0-.223-.06c-.195-.037-.363-.086-.559-.124a18.252 18.252 0 0 0-1.009-.125h-.038c-2.838-.255-5.919.38-8.253.944-4.698 1.161-12.631-2.246-14.345 3.071-1.357 4.265 1.161 6.913 4.248 7.982a9.2 9.2 0 0 0 2.393.51c3.966.347 11.454.238 13.337 3.45 1.882 3.207 4.704 6.104 5.539 4.835.874-1.362 4.634-.494 3.31 2.892-1.4 3.613-3.722 3.027-3.722 3.027"/><path fill="#9AB3FF" d="M214.565 93.85c.32 10.699 2.355 39.434 2.393 40.265.288 5.919-46.727 1.009-46.727 1.009a10.759 10.759 0 0 1-.266-1.091v-.005c-1.302-9.794-.705-49.033-.195-58.279.124-2.263.83-4.2 1.834-5.833 1.318-2.154 3.288-3.841 5.556-4.959 2.588-1.27 5.897-2.105 6.19-1.937 2.876 2.008 4.743 2.366 6.62 2.501 5.334.386 9.739-4.503 9.739-4.503s13.57 5.062 14.498 5.388c0 0 2.35 1.231 3.473 2.116"/><path stroke="#30334E" stroke-linecap="round" stroke-miterlimit="10" d="M214.565 93.85c.32 10.699 2.355 39.434 2.393 40.265.288 5.919-46.727 1.009-46.727 1.009a10.759 10.759 0 0 1-.266-1.091v-.005c-1.302-9.794-.705-49.033-.195-58.279.124-2.263.83-4.2 1.834-5.833 1.318-2.154 3.288-3.841 5.556-4.959 2.588-1.27 5.897-2.105 6.19-1.937 2.876 2.008 4.743 2.366 6.62 2.501 5.334.386 9.739-4.503 9.739-4.503s13.57 5.062 14.498 5.388c0 0 2.35 1.231 3.473 2.116"/><path stroke="#30334E" stroke-miterlimit="10" d="M214.565 93.85c.32 10.699 2.355 39.434 2.393 40.265.288 5.919-46.727 1.009-46.727 1.009a10.759 10.759 0 0 1-.266-1.091v-.005c-1.302-9.794-.705-49.033-.195-58.279.124-2.263.83-4.2 1.834-5.833 1.318-2.154 3.288-3.841 5.556-4.959 2.588-1.27 5.897-2.105 6.19-1.937 2.876 2.008 4.743 2.366 6.62 2.501 5.334.386 9.739-4.503 9.739-4.503s13.57 5.062 14.498 5.388c0 0 2.35 1.231 3.473 2.116"/><path fill="#9AB3FF" d="M193.481 65.521s-.005-14.926-7.27-21.72c0 0-7.759-6.928-14.873-10.672-.737-.385-1.427-.852-2.007-1.432a20.217 20.217 0 0 1-1.72-1.97c-1.861-2.425.396-6.099 3.098-7.526 1.628-.862 3.988-1.644 7.385-1.99 0 0 15.214-4.016 26.586 2.712 0 0-1.335 2.447-1.069 4.4.093.657.185 1.308.179 1.97-.048 2.962-.347 10.499-2.203 16.201-1.394 4.292-1.502 8.883-.629 13.315.25 1.254.374 2.388.792 3.099"/><path stroke="#30334E" stroke-linecap="round" stroke-miterlimit="10" d="M193.481 65.521s-.005-14.926-7.27-21.72c0 0-7.759-6.928-14.873-10.672-.737-.385-1.427-.852-2.007-1.432a20.217 20.217 0 0 1-1.72-1.97c-1.861-2.425.396-6.099 3.098-7.526 1.628-.862 3.988-1.644 7.385-1.99 0 0 15.214-4.016 26.586 2.712 0 0-1.335 2.447-1.069 4.4.093.657.185 1.308.179 1.97-.048 2.962-.347 10.499-2.203 16.201-1.394 4.292-1.502 8.883-.629 13.315.25 1.254.374 2.388.792 3.099"/><path stroke="#30334E" stroke-miterlimit="10" d="M193.481 65.521s-.005-14.926-7.27-21.72c0 0-7.759-6.928-14.873-10.672-.737-.385-1.427-.852-2.007-1.432a20.217 20.217 0 0 1-1.72-1.97c-1.861-2.425.396-6.099 3.098-7.526 1.628-.862 3.988-1.644 7.385-1.99 0 0 15.214-4.016 26.586 2.712 0 0-1.335 2.447-1.069 4.4.093.657.185 1.308.179 1.97-.048 2.962-.347 10.499-2.203 16.201-1.394 4.292-1.502 8.883-.629 13.315.25 1.254.374 2.388.792 3.099"/><path fill="#234097" d="m172.682 34.317-.336 1.08s-1.992.37-.5 1.65l.776.78-.097 3.663-.402 3.185s-.418 2.366-.901 3.115c0 0 20.141 1.812 22.328 15.675 0 0-.689-11.622-5.497-17.83 0 0-3.201-3.418-9.066-7.785 0 .016-6.327-4.949-6.305-3.533Z" opacity=".5"/><path fill="#969DC8" stroke="#30334E" stroke-linecap="round" stroke-miterlimit="10" d="M242.863 204.053H79.926V101.256a3.937 3.937 0 0 1 3.933-3.934H238.93a3.936 3.936 0 0 1 3.933 3.934v102.797Z"/><path fill="#fff" stroke="#30334E" stroke-linecap="round" stroke-miterlimit="10" d="M238.769 201.047H84.008v-97.865a2.37 2.37 0 0 1 2.37-2.371h150.02a2.37 2.37 0 0 1 2.371 2.371v97.865Z"/><path fill="#C0C9ED" stroke="#30334E" stroke-linecap="round" stroke-miterlimit="10" d="M248.624 209.908H71.66a5.298 5.298 0 0 1-5.3-5.301v-.554h187.57v.554a5.31 5.31 0 0 1-5.306 5.301Z"/><path fill="#30334E" d="M176.302 205.421H146.72a.84.84 0 1 0 0 1.682h29.582a.842.842 0 0 0 0-1.682Z"/><path stroke="#30334E" stroke-linecap="round" stroke-miterlimit="10" d="m199.498 114.696-3.169-2.963a17.852 17.852 0 0 0-5.757-3.614l-2.279-.884a1.329 1.329 0 0 0-1.768.922 1.332 1.332 0 0 0 .553 1.417l5.827 3.884-1.069-.32a11.126 11.126 0 0 0-3.374-.466l-1.927.027a1.636 1.636 0 0 0-.157 3.261l4.84.537a4.455 4.455 0 0 1 2.642 1.275l.217.217-6.939 1.432a1.52 1.52 0 0 0-1.205 1.634c.082.83.809 1.437 1.639 1.372l6.918-.559-5.182 3.723a1.199 1.199 0 0 0-.309 1.627 1.2 1.2 0 0 0 1.584.407l5.486-2.995a8.861 8.861 0 0 0 5.68-.298l.608-.244-2.859-9.392Z"/><path fill="#9AB3FF" stroke="#30334E" stroke-linecap="round" stroke-miterlimit="10" d="M213.575 66.509a11.687 11.687 0 0 1 7.9 6.647l12.68 28.854c2.876 6.544-.515 14.14-7.303 16.37l-23.781 7.808-.266-.304a14.11 14.11 0 0 1-2.881-13.435l20.103-5.756-14.222-30.776a6.781 6.781 0 0 1 .662-6.815 6.797 6.797 0 0 1 7.108-2.593Z"/><path fill="#fff" stroke="#30334E" stroke-linecap="round" stroke-miterlimit="10" d="m152.324 97.013-.223-.152a1.59 1.59 0 0 0-2.425 1.774l.656 2.138a1.152 1.152 0 0 0 2.247-.429l-.255-3.331Z"/><path fill="#fff" stroke="#30334E" stroke-linecap="round" stroke-miterlimit="10" d="M155.179 95.021a1.807 1.807 0 0 0-1.617-.081l-.515.228a1.803 1.803 0 0 0-1.026 2.061l.814 3.484a1.345 1.345 0 0 0 2.654-.385l-.31-5.307ZM158.016 95.195a1.802 1.802 0 0 1 1.579-.358l.548.136a1.808 1.808 0 0 1 1.367 1.855l-.206 3.576a1.347 1.347 0 0 1-1.33 1.27 1.344 1.344 0 0 1-1.351-1.194l-.607-5.285Z"/><path fill="#fff" stroke="#30334E" stroke-linecap="round" stroke-miterlimit="10" d="M156.52 93.73a1.795 1.795 0 0 1 1.877 1.867l-.184 5.013a1.378 1.378 0 0 1-1.379 1.329c-.694 0-1.28-.515-1.367-1.199l-.651-4.97a1.805 1.805 0 0 1 1.704-2.04Z"/><path fill="#FFDC60" stroke="#30334E" stroke-miterlimit="10" d="m192.252 135.813-.016 16.554-64.193-.06.016-20.319c0-1.59 1.14-2.881 2.545-2.876l27.01.027c1.405 0 2.539 1.291 2.539 2.881v.982l29.641.027c1.362.006 2.458 1.248 2.458 2.784Z"/><path fill="#fff" stroke="#30334E" stroke-miterlimit="10" d="M189.919 136.122H130.75v14.796h59.169v-14.796Z"/><path fill="#FFDC60" stroke="#30334E" stroke-miterlimit="10" d="m192.22 142.601-.038 38.48c0 1.53-1.204 2.772-2.685 2.772l-58.789-.054c-1.487 0-2.686-1.243-2.681-2.778l.033-34.053c0-1.53 1.204-2.772 2.686-2.772l27.509.027.841-2.534c.341-1.042 1.291-1.736 2.354-1.736l28.236.027c1.4.005 2.534 1.177 2.534 2.621Z"/><g clip-path="url(#a)"><path fill="#D9DBE9" d="M178.996 178.5a7.5 7.5 0 1 0 0-15 7.5 7.5 0 0 0 0 15Z"/><path fill="#A0A3BD" d="M178.997 163.5a7.5 7.5 0 0 0-7.293 9.254 7.506 7.506 0 0 0 2.277 3.823 5.623 5.623 0 0 1 5.016-3.077 3.121 3.121 0 0 1-2.888-1.929 3.127 3.127 0 0 1 4.083-4.083 3.12 3.12 0 0 1 1.93 2.887 3.126 3.126 0 0 1-3.125 3.125 5.63 5.63 0 0 1 5.015 3.076 7.497 7.497 0 0 0 1.987-8.262 7.5 7.5 0 0 0-7.002-4.814Z"/><path stroke="#30334E" stroke-linecap="round" stroke-linejoin="round" d="M173.98 176.576a5.634 5.634 0 0 1 5.016-3.079 5.631 5.631 0 0 1 5.016 3.079"/><path stroke="#30334E" stroke-linecap="round" stroke-linejoin="round" d="M178.996 178.5a7.5 7.5 0 1 0 0-15 7.5 7.5 0 0 0 0 15Z"/><path stroke="#30334E" stroke-linecap="round" stroke-linejoin="round" d="M178.996 173.5a3.125 3.125 0 1 0 0-6.25 3.125 3.125 0 0 0 0 6.25Z"/></g><g clip-path="url(#b)"><path fill="#fff" d="m44.296 86.405-17.32 10a1 1 0 0 0-.367 1.366l7 12.124a1 1 0 0 0 1.366.366l17.32-10a1 1 0 0 0 .367-1.366l-7-12.124a1 1 0 0 0-1.366-.366Zm-4.16 12.794a2.5 2.5 0 1 1-2.5-4.329 2.5 2.5 0 0 1 2.5 4.329Z" opacity=".2"/><path stroke="#fff" stroke-linecap="round" stroke-linejoin="round" d="m44.296 86.405-17.32 10a1 1 0 0 0-.367 1.366l7 12.124a1 1 0 0 0 1.366.366l17.32-10a1 1 0 0 0 .367-1.366l-7-12.124a1 1 0 0 0-1.366-.366ZM31.305 93.905l-2-3.465a5 5 0 0 1 1.83-6.83c2.095-1.209 4.787-.78 6.33.965"/><path stroke="#fff" stroke-linecap="round" stroke-linejoin="round" d="M40.134 99.199a2.5 2.5 0 1 0-2.5-4.33 2.5 2.5 0 0 0 2.5 4.33ZM40.133 99.199l1.5 2.598"/></g><g clip-path="url(#c)"><path fill="#fff" d="M263.412 56.73a9 9 0 1 1 5 5l-1.646 1.646h-3v3h-3v3h-5v-5l7.646-7.646Z" opacity=".2"/><path stroke="#fff" stroke-linecap="round" stroke-linejoin="round" d="M263.412 56.73a9 9 0 1 1 5 5l-1.646 1.646h-3v3h-3v3h-5v-5l7.646-7.646Z"/><path fill="#fff" d="M274.266 52.377a1.5 1.5 0 1 0 0-3.001 1.5 1.5 0 0 0 0 3Z"/></g><g clip-path="url(#d)"><path stroke="#fff" stroke-linecap="round" stroke-linejoin="round" d="M99.514 50.058c-.159-1.777.924-3.528 2.733-4.187 1.809-.658 3.764-.013 4.785 1.451"/><path fill="#fff" d="M102.246 45.871a3 3 0 1 0-2.051-5.638 3 3 0 0 0 2.051 5.638Z" opacity=".2"/><path stroke="#fff" stroke-linecap="round" stroke-linejoin="round" d="M102.246 45.871a3 3 0 1 0-2.051-5.638 3 3 0 0 0 2.051 5.638Z"/><path stroke="#fff" stroke-linecap="round" stroke-linejoin="round" d="m94.132 49.89-9.397 3.42a1 1 0 0 1-1.282-.598L77.64 36.737a1 1 0 0 1 .598-1.282l6.264-2.28a1 1 0 0 1 .632-.017l4.148 1.257a1 1 0 0 0 .632-.017l10.023-3.648a1.001 1.001 0 0 1 1.282.598l1.368 3.758"/></g><defs><clipPath id="a"><path fill="#fff" d="M168.996 161h20v20h-20z"/></clipPath><clipPath id="b"><path fill="#fff" d="m16.277 89.878 27.713-16 16 27.713-27.713 16z"/></clipPath><clipPath id="c"><path fill="#fff" d="M251.766 41.377h32v32h-32z"/></clipPath><clipPath id="d"><path fill="#fff" d="m71.144 30.587 30.07-10.944 10.945 30.07-30.07 10.945z"/></clipPath></defs></svg>