<svg xmlns="http://www.w3.org/2000/svg" width="311" height="230" fill="none"><path stroke="#CAD6F8" stroke-linecap="round" stroke-linejoin="round" stroke-miterlimit="10" d="M282.832 211.049H37.938"/><path fill="#969DC8" stroke="#30334E" stroke-linecap="round" stroke-miterlimit="10" d="M242.863 204.053H79.926V101.256a3.937 3.937 0 0 1 3.933-3.934H238.93a3.936 3.936 0 0 1 3.933 3.934v102.797Z"/><path fill="#293A53" stroke="#30334E" stroke-linecap="round" stroke-miterlimit="10" d="M238.757 201.237H83.997v-97.866a2.37 2.37 0 0 1 2.37-2.371h150.019a2.37 2.37 0 0 1 2.371 2.371v97.866Z"/><path fill="#FF2533" d="m95 193.5-4-2.5v5l4-2.5Z"/><path fill="#fff" d="M168.077 149.678a1.961 1.961 0 1 1 3.923-.001 1.961 1.961 0 0 1-3.923.001Z"/><path fill="#fff" d="M151.999 149.678a1.961 1.961 0 1 1 3.923-.001 1.961 1.961 0 0 1-3.923.001Z" opacity=".2"/><path fill="#fff" d="M154.354 143.994a1.961 1.961 0 1 1 3.923 0 1.961 1.961 0 0 1-3.923 0Z" opacity=".4"/><path fill="#fff" d="M160.038 157.718a1.961 1.961 0 1 1 3.922 0 1.961 1.961 0 0 1-3.922 0Z" opacity=".05"/><path fill="#fff" d="M160.038 141.641a1.961 1.961 0 1 1 3.923-.001 1.961 1.961 0 0 1-3.923.001Z" opacity=".6"/><path fill="#fff" d="M154.354 155.365a1.961 1.961 0 1 1 3.923-.001 1.961 1.961 0 0 1-3.923.001Z" opacity=".1"/><path fill="#fff" d="M165.721 143.994a1.962 1.962 0 1 1 3.924.002 1.962 1.962 0 0 1-3.924-.002Z" opacity=".8"/><path fill="#fff" d="M99 193h133v1H99z" opacity=".3"/><path fill="#fff" d="M99 193h44v1H99z"/><path fill="#C0C9ED" stroke="#30334E" stroke-linecap="round" stroke-miterlimit="10" d="M248.624 209.908H71.66a5.298 5.298 0 0 1-5.3-5.301v-.554h187.57v.554a5.31 5.31 0 0 1-5.306 5.301Z"/><path fill="#30334E" d="M176.302 205.421H146.72a.84.84 0 1 0 0 1.682h29.582a.842.842 0 0 0 0-1.682Z"/><g clip-path="url(#a)"><path fill="#fff" d="M67.46 60.721a3.5 3.5 0 1 0-2.394-6.578 3.5 3.5 0 0 0 2.394 6.578ZM53.792 69.952a3.5 3.5 0 1 0-2.393-6.578 3.5 3.5 0 0 0 2.393 6.578Z" opacity=".2"/><path stroke="#fff" stroke-linecap="round" stroke-linejoin="round" d="M67.46 60.721a3.5 3.5 0 1 0-2.394-6.578 3.5 3.5 0 0 0 2.394 6.578ZM53.792 69.952a3.5 3.5 0 1 0-2.393-6.578 3.5 3.5 0 0 0 2.393 6.578ZM65.617 45.429l-13.667 9.23"/><path stroke="#fff" stroke-linecap="round" stroke-linejoin="round" d="m55.885 65.466-5.986-16.444 13.667-9.231 5.986 16.444"/></g><g clip-path="url(#b)"><path fill="#fff" d="m272.131 63.076 3.488-10.13a6.494 6.494 0 0 1-9.357 3.402l-2.371-1.37 1.571 7.807a3.499 3.499 0 0 0 6.669.291Z" opacity=".2"/><path stroke="#fff" stroke-linecap="round" stroke-linejoin="round" d="m267.098 49.902 2.598 1.5M258.438 44.902l3.464 2M261.172 44.17l-2 3.464M259.111 52.217l-7.546 2.543a3.5 3.5 0 0 1-3.586-5.63l7.029-8.086a6.504 6.504 0 0 1 8.22-1.461l9.538 5.507a6.498 6.498 0 0 1 2.379 8.879 6.5 6.5 0 0 1-8.879 2.379l-7.155-4.13Z"/><path stroke="#fff" stroke-linecap="round" stroke-linejoin="round" d="m263.891 54.979 1.571 7.806a3.499 3.499 0 0 0 6.669.291l3.488-10.13"/></g><g clip-path="url(#c)"><path fill="#fff" d="m167.181 16.67-19.696 3.472a2 2 0 0 0-1.622 2.317l2.431 13.787a2.001 2.001 0 0 0 2.317 1.623l19.696-3.473a2 2 0 0 0 1.622-2.317l-2.431-13.787a2 2 0 0 0-2.317-1.623Zm-9.56 14.886-1.389-7.879 6.603 2.898-5.214 4.98Z" opacity=".2"/><path stroke="#fff" stroke-linecap="round" stroke-linejoin="round" d="m150.612 37.869 19.696-3.473a2 2 0 0 0 1.622-2.317l-2.431-13.787a2 2 0 0 0-2.317-1.623l-19.696 3.473a2 2 0 0 0-1.622 2.317l2.431 13.788a2 2 0 0 0 2.317 1.622ZM165.093 39.377l-7.878 1.39"/><path stroke="#fff" stroke-linecap="round" stroke-linejoin="round" d="m162.838 26.575-6.604-2.898 1.39 7.879 5.214-4.982Z"/></g><defs><clipPath id="a"><path fill="#fff" d="m37.766 44.924 30.07-10.944L78.78 64.05 48.71 74.994z"/></clipPath><clipPath id="b"><path fill="#fff" d="m257.145 29.144 27.713 16-16 27.712-27.713-16z"/></clipPath><clipPath id="c"><path fill="#fff" d="m140.535 15.275 31.514-5.556 5.557 31.514-31.514 5.556z"/></clipPath></defs></svg>