<svg xmlns="http://www.w3.org/2000/svg" width="311" height="230" fill="none"><path stroke="#CAD6F8" stroke-linecap="round" stroke-linejoin="round" stroke-miterlimit="10" d="M282.832 211.049H37.938"/><path fill="#969DC8" stroke="#30334E" stroke-linecap="round" stroke-miterlimit="10" d="M242.863 204.053H79.926V101.256a3.937 3.937 0 0 1 3.933-3.934H238.93a3.936 3.936 0 0 1 3.933 3.934v102.797Z"/><path fill="#fff" stroke="#30334E" stroke-linecap="round" stroke-miterlimit="10" d="M238.757 201.237H83.997v-97.866a2.37 2.37 0 0 1 2.37-2.371h150.019a2.37 2.37 0 0 1 2.371 2.371v97.866Z"/><path fill="#D9DBE9" d="M103 121h28v36h-28zM138 121h52v4h-52zM138 127h41v4h-41zM138 139h63v2h-63zM138 143h60v2h-60zM138 147h54v2h-54zM138 151h60v2h-60zM138 155h47v2h-47zM103 169h113v2H103zM103 173h108v2H103zM103 177h97v2h-97z"/><path fill="#D9DBE9" d="M103 177h97v2h-97zM103 181h108v2H103zM103 189h108v2H103zM103 185h84v2h-84z"/><path fill="#C0C9ED" stroke="#30334E" stroke-linecap="round" stroke-miterlimit="10" d="M248.624 209.908H71.66a5.298 5.298 0 0 1-5.3-5.301v-.554h187.57v.554a5.31 5.31 0 0 1-5.306 5.301Z"/><path fill="#30334E" d="M176.302 205.421H146.72a.84.84 0 1 0 0 1.682h29.582a.842.842 0 0 0 0-1.682Z"/><rect width="160" height="29" x="150.5" y="82.5" fill="#fff" rx="7.5"/><g clip-path="url(#a)"><path stroke="#30334E" stroke-linecap="round" stroke-linejoin="round" stroke-width="1.5" d="M167.082 99.084a2.772 2.772 0 0 1 3.839 0M165.227 97.224a5.402 5.402 0 0 1 7.546 0"/><path stroke="#30334E" stroke-linecap="round" stroke-linejoin="round" stroke-width="1.5" d="M163.371 95.37a8.016 8.016 0 0 1 11.255 0"/><path fill="#30334E" d="M169 102a.75.75 0 1 0 0-1.5.75.75 0 0 0 0 1.5Z"/></g><path fill="#30334E" d="M181.284 101v-6.6c0-.64.164-1.136.492-1.488.328-.36.828-.54 1.5-.54.232 0 .476.04.732.12.264.08.504.176.72.288l-.588 1.14a2.312 2.312 0 0 0-.348-.144.985.985 0 0 0-.288-.048c-.216 0-.376.076-.48.228-.104.144-.156.38-.156.708V101h-1.584Zm-.996-4.728V95h4.056v1.272h-4.056Zm6.223 1.572c0-.648.124-1.184.372-1.608.256-.424.58-.74.972-.948.4-.208.816-.312 1.248-.312v1.536c-.368 0-.716.044-1.044.132-.32.088-.58.232-.78.432-.2.2-.3.456-.3.768h-.468ZM185.395 101v-6h1.584v6h-1.584Zm7.259.144c-.592 0-1.116-.132-1.572-.396a2.954 2.954 0 0 1-1.08-1.116c-.256-.472-.384-1.016-.384-1.632 0-.616.132-1.16.396-1.632.272-.472.64-.84 1.104-1.104.472-.272 1.012-.408 1.62-.408.52 0 1 .14 1.44.42.448.272.808.676 1.08 1.212.272.528.408 1.172.408 1.932h-1.608c.008-.528-.048-.948-.168-1.26-.112-.32-.272-.548-.48-.684a1.254 1.254 0 0 0-.732-.216c-.312 0-.576.064-.792.192-.216.128-.38.324-.492.588-.104.256-.156.592-.156 1.008 0 .36.072.66.216.9.144.24.336.424.576.552.24.12.504.18.792.18.312 0 .564-.068.756-.204.2-.136.352-.312.456-.528l1.488.576a2.974 2.974 0 0 1-.66.876c-.264.24-.58.424-.948.552a3.825 3.825 0 0 1-1.26.192Zm-2.004-2.724.012-1.236h4.224v1.236h-4.236Zm8.648 2.724c-.592 0-1.116-.132-1.572-.396a2.954 2.954 0 0 1-1.08-1.116c-.256-.472-.384-1.016-.384-1.632 0-.616.132-1.16.396-1.632.272-.472.64-.84 1.104-1.104.472-.272 1.012-.408 1.62-.408.52 0 1 .14 1.44.42.448.272.808.676 1.08 1.212.272.528.408 1.172.408 1.932h-1.608c.008-.528-.048-.948-.168-1.26-.112-.32-.272-.548-.48-.684a1.254 1.254 0 0 0-.732-.216c-.312 0-.576.064-.792.192-.216.128-.38.324-.492.588-.104.256-.156.592-.156 1.008 0 .36.072.66.216.9.144.24.336.424.576.552.24.12.504.18.792.18.312 0 .564-.068.756-.204.2-.136.352-.312.456-.528l1.488.576a2.974 2.974 0 0 1-.66.876c-.264.24-.58.424-.948.552a3.825 3.825 0 0 1-1.26.192Zm-2.004-2.724.012-1.236h4.224v1.236h-4.236Zm5.901-.312v-1.356h3.6v1.356h-3.6Zm10.55 2.892 1.992-6h1.608l-2.04 6h-1.56Zm-3.984 0 1.92-6h1.38l-1.896 6h-1.404Zm-.156 0-2.04-6h1.608l1.908 6h-1.476Zm4.14 0-1.872-6h1.368l1.908 6h-1.404Zm4.5 0v-6h1.584v6h-1.584Zm.792-6.972a.893.893 0 0 1-.636-.264.887.887 0 0 1-.276-.648c0-.248.092-.46.276-.636a.874.874 0 0 1 1.272 0 .848.848 0 0 1 .276.636.887.887 0 0 1-.276.648.867.867 0 0 1-.636.264Zm2.216 4.08v-1.356h3.6v1.356h-3.6Zm5.535 2.892v-6.6c0-.64.164-1.136.492-1.488.328-.36.828-.54 1.5-.54.232 0 .476.04.732.12.264.08.504.176.72.288l-.588 1.14a2.312 2.312 0 0 0-.348-.144.985.985 0 0 0-.288-.048c-.216 0-.376.076-.48.228-.104.144-.156.38-.156.708V101h-1.584Zm-.996-4.728V95h4.056v1.272h-4.056Zm5.203 4.728v-6h1.584v6h-1.584Zm.792-6.972a.893.893 0 0 1-.636-.264.887.887 0 0 1-.276-.648c0-.248.092-.46.276-.636a.874.874 0 0 1 1.272 0 .848.848 0 0 1 .276.636.887.887 0 0 1-.276.648.867.867 0 0 1-.636.264Z"/><path fill="#01A26A" d="M251.85 100.62c-.68 0-1.283-.153-1.81-.46a3.36 3.36 0 0 1-1.24-1.28c-.3-.547-.45-1.173-.45-1.88 0-.707.15-1.33.45-1.87.3-.547.71-.973 1.23-1.28.527-.313 1.13-.47 1.81-.47.48 0 .927.087 1.34.26a3.21 3.21 0 0 1 1.08.71c.313.3.553.647.72 1.04l-1.27.47a2.081 2.081 0 0 0-.45-.64 1.97 1.97 0 0 0-.64-.43c-.24-.107-.5-.16-.78-.16-.407 0-.77.103-1.09.31-.313.2-.56.477-.74.83-.173.353-.26.763-.26 1.23 0 .467.09.88.27 1.24.18.353.43.633.75.84.32.2.687.3 1.1.3.287 0 .547-.053.78-.16.24-.113.45-.267.63-.46.187-.193.337-.417.45-.67l1.27.46a3.273 3.273 0 0 1-.72 1.08 3.259 3.259 0 0 1-1.08.73 3.46 3.46 0 0 1-1.35.26Zm6.316 0c-.507 0-.96-.11-1.36-.33a2.498 2.498 0 0 1-.93-.93c-.22-.393-.33-.847-.33-1.36 0-.513.11-.967.33-1.36.22-.393.527-.7.92-.92.393-.227.843-.34 1.35-.34.513 0 .967.113 1.36.34.393.22.7.527.92.92.22.393.33.847.33 1.36 0 .513-.11.967-.33 1.36-.22.393-.527.703-.92.93-.387.22-.833.33-1.34.33Zm0-1.22c.247 0 .463-.06.65-.18s.33-.283.43-.49c.107-.213.16-.457.16-.73 0-.273-.053-.513-.16-.72a1.217 1.217 0 0 0-.45-.5 1.175 1.175 0 0 0-.65-.18c-.24 0-.457.06-.65.18-.187.12-.333.287-.44.5-.107.207-.16.447-.16.72 0 .273.053.517.16.73a1.224 1.224 0 0 0 1.11.67Zm3.461 1.1v-5h1.24l.08.92v4.08h-1.32Zm3.31 0v-2.56l1.32-.3v2.86h-1.32Zm0-2.56c0-.34-.04-.603-.12-.79a.76.76 0 0 0-.32-.4.913.913 0 0 0-.49-.13c-.34-.007-.604.097-.79.31-.18.213-.27.53-.27.95h-.44c0-.533.076-.983.23-1.35.16-.373.38-.657.66-.85.28-.2.61-.3.99-.3.606 0 1.07.187 1.39.56.326.367.486.933.48 1.7l-1.32.3Zm2.373 2.56v-5h1.24l.08.92v4.08h-1.32Zm3.31 0v-2.56l1.32-.3v2.86h-1.32Zm0-2.56c0-.34-.04-.603-.12-.79a.755.755 0 0 0-.32-.4.91.91 0 0 0-.49-.13c-.34-.007-.603.097-.79.31-.18.213-.27.53-.27.95h-.44c0-.533.077-.983.23-1.35.16-.373.38-.657.66-.85.28-.2.61-.3.99-.3.607 0 1.07.187 1.39.56.327.367.487.933.48 1.7l-1.32.3Zm4.634 2.68c-.494 0-.93-.11-1.31-.33a2.464 2.464 0 0 1-.9-.93c-.214-.393-.32-.847-.32-1.36 0-.513.11-.967.33-1.36.226-.393.533-.7.92-.92.393-.227.843-.34 1.35-.34.433 0 .833.117 1.2.35.373.227.673.563.9 1.01.226.44.34.977.34 1.61h-1.34c.006-.44-.04-.79-.14-1.05-.094-.267-.227-.457-.4-.57a1.047 1.047 0 0 0-.61-.18c-.26 0-.48.053-.66.16a1 1 0 0 0-.41.49c-.087.213-.13.493-.13.84 0 .3.06.55.18.75.12.2.28.353.48.46.2.1.42.15.66.15.26 0 .47-.057.63-.17a1.11 1.11 0 0 0 .38-.44l1.24.48a2.49 2.49 0 0 1-.55.73c-.22.2-.484.353-.79.46-.307.107-.657.16-1.05.16Zm-1.67-2.27.01-1.03h3.52v1.03h-3.53Zm7.357 2.27c-.52 0-.983-.11-1.39-.33a2.453 2.453 0 0 1-.95-.93c-.227-.4-.34-.853-.34-1.36 0-.513.113-.967.34-1.36.227-.393.54-.7.94-.92.4-.227.86-.34 1.38-.34.5 0 .957.123 1.37.37.413.247.713.603.9 1.07l-1.24.44a1.043 1.043 0 0 0-.44-.46c-.193-.12-.41-.18-.65-.18-.247 0-.463.06-.65.18a1.18 1.18 0 0 0-.44.48c-.107.207-.16.447-.16.72 0 .273.053.513.16.72.107.2.257.36.45.48s.413.18.66.18c.24 0 .457-.063.65-.19.2-.127.347-.293.44-.5l1.25.44a2.28 2.28 0 0 1-.91 1.1 2.49 2.49 0 0 1-1.37.39Zm5.109 0c-.553 0-.973-.137-1.26-.41-.28-.273-.42-.663-.42-1.17v-5.1h1.32v4.81c0 .213.047.377.14.49.093.107.23.16.41.16.067 0 .14-.013.22-.04.08-.033.163-.08.25-.14l.46.99c-.16.12-.34.217-.54.29-.193.08-.387.12-.58.12Zm-2.49-4V95.5h3.38v1.12h-3.38Zm6.625 4c-.493 0-.93-.11-1.31-.33a2.464 2.464 0 0 1-.9-.93c-.213-.393-.32-.847-.32-1.36 0-.513.11-.967.33-1.36.227-.393.534-.7.92-.92.394-.227.844-.34 1.35-.34.434 0 .834.117 1.2.35.374.227.674.563.9 1.01.227.44.34.977.34 1.61h-1.34c.007-.44-.04-.79-.14-1.05-.093-.267-.226-.457-.4-.57a1.043 1.043 0 0 0-.61-.18c-.26 0-.48.053-.66.16-.18.107-.316.27-.41.49-.086.213-.13.493-.13.84 0 .3.06.55.18.75.12.2.28.353.48.46.2.1.42.15.66.15.26 0 .47-.057.63-.17.167-.113.294-.26.38-.44l1.24.48c-.14.28-.323.523-.55.73-.22.2-.483.353-.79.46-.306.107-.656.16-1.05.16Zm-1.67-2.27.01-1.03h3.52v1.03h-3.53Zm8.508 2.15-.07-.93V93.5h1.32v7h-1.25Zm-1.57.12c-.46 0-.86-.107-1.2-.32a2.126 2.126 0 0 1-.78-.91c-.187-.393-.28-.857-.28-1.39 0-.54.093-1.003.28-1.39.186-.393.446-.697.78-.91.34-.213.74-.32 1.2-.32.42 0 .773.107 1.06.32.293.213.516.517.67.91.153.387.23.85.23 1.39 0 .533-.077.997-.23 1.39-.154.393-.377.697-.67.91-.287.213-.64.32-1.06.32Zm.34-1.21c.226 0 .426-.06.6-.18.18-.12.32-.287.42-.5a1.7 1.7 0 0 0 .15-.73 1.7 1.7 0 0 0-.15-.73c-.1-.213-.24-.377-.42-.49a1.047 1.047 0 0 0-.61-.18c-.24 0-.45.06-.63.18-.18.113-.324.277-.43.49-.107.213-.16.457-.16.73 0 .273.053.517.16.73.106.213.25.38.43.5.186.12.4.18.64.18Z"/><rect width="160" height="29" x="150.5" y="82.5" stroke="#000" rx="7.5"/><g clip-path="url(#b)"><path fill="#fff" d="m50.296 65.405-17.32 10a1 1 0 0 0-.367 1.366l7 12.124a1 1 0 0 0 1.366.366l17.32-10a1 1 0 0 0 .367-1.366l-7-12.124a1 1 0 0 0-1.366-.366Zm-4.16 12.794a2.5 2.5 0 1 1-2.5-4.329 2.5 2.5 0 0 1 2.5 4.329Z" opacity=".2"/><path stroke="#fff" stroke-linecap="round" stroke-linejoin="round" d="m50.296 65.405-17.32 10a1 1 0 0 0-.367 1.366l7 12.124a1 1 0 0 0 1.366.366l17.32-10a1 1 0 0 0 .367-1.366l-7-12.124a1 1 0 0 0-1.366-.366ZM37.305 72.905l-2-3.465a5 5 0 0 1 1.83-6.83c2.095-1.209 4.787-.78 6.33.965"/><path stroke="#fff" stroke-linecap="round" stroke-linejoin="round" d="M46.134 78.199a2.5 2.5 0 1 0-2.5-4.33 2.5 2.5 0 0 0 2.5 4.33ZM46.133 78.199l1.5 2.598"/></g><defs><clipPath id="a"><path fill="#fff" d="M162 90h14v14h-14z"/></clipPath><clipPath id="b"><path fill="#fff" d="m22.277 68.878 27.713-16 16 27.713-27.713 16z"/></clipPath></defs></svg>