<svg xmlns="http://www.w3.org/2000/svg" width="311" height="230" fill="none"><path stroke="#CAD6F8" stroke-linecap="round" stroke-linejoin="round" stroke-miterlimit="10" d="M282.832 211.049H37.938"/><path fill="#969DC8" stroke="#30334E" stroke-linecap="round" stroke-miterlimit="10" d="M242.863 204.053H79.926V101.256a3.937 3.937 0 0 1 3.933-3.934H238.93a3.936 3.936 0 0 1 3.933 3.934v102.797Z"/><path fill="#fff" stroke="#30334E" stroke-linecap="round" stroke-miterlimit="10" d="M238.757 201.237H83.997v-97.866a2.37 2.37 0 0 1 2.37-2.371h150.019a2.37 2.37 0 0 1 2.371 2.371v97.866Z"/><path fill="#C0C9ED" stroke="#30334E" stroke-linecap="round" stroke-miterlimit="10" d="M248.624 209.908H71.66a5.298 5.298 0 0 1-5.3-5.301v-.554h187.57v.554a5.31 5.31 0 0 1-5.306 5.301Z"/><path fill="#30334E" d="M176.302 205.421H146.72a.84.84 0 1 0 0 1.682h29.582a.842.842 0 0 0 0-1.682Z"/><g clip-path="url(#a)"><path fill="#fff" d="m210.237 37.456-18.793-6.84a1 1 0 0 0-1.282.598l-4.788 13.155a1 1 0 0 0 .597 1.282l18.794 6.84a1.001 1.001 0 0 0 1.282-.597l4.788-13.156a1 1 0 0 0-.598-1.282Zm-12.475 5.037a2.506 2.506 0 0 1-1.642-2.24 2.5 2.5 0 1 1 1.642 2.24Z" opacity=".2"/><path stroke="#fff" stroke-linecap="round" stroke-linejoin="round" d="m210.237 37.456-18.793-6.84a1 1 0 0 0-1.282.598l-4.788 13.155a1 1 0 0 0 .597 1.282l18.794 6.84a1 1 0 0 0 1.282-.597l4.788-13.156a1 1 0 0 0-.598-1.282Z"/><path stroke="#fff" stroke-linecap="round" stroke-linejoin="round" d="m196.141 32.326 1.368-3.759a4.997 4.997 0 0 1 6.408-2.988c2.273.827 3.675 3.165 3.331 5.469M197.76 42.493a2.5 2.5 0 1 0 1.71-4.7 2.5 2.5 0 0 0-1.71 4.7ZM197.762 42.493l-1.026 2.82"/></g><path fill="#fff" d="M231.865 106H91.135c-1.18 0-2.135.854-2.135 1.908v87.184c0 1.054.956 1.908 2.135 1.908h140.73c1.179 0 2.135-.854 2.135-1.908v-87.184c0-1.054-.956-1.908-2.135-1.908Z"/><mask id="b" width="145" height="91" x="89" y="106" maskUnits="userSpaceOnUse" style="mask-type:alpha"><path fill="#fff" d="M231.865 106H91.135c-1.18 0-2.135.854-2.135 1.908v87.184c0 1.054.956 1.908 2.135 1.908h140.73c1.179 0 2.135-.854 2.135-1.908v-87.184c0-1.054-.956-1.908-2.135-1.908Z"/></mask><g mask="url(#b)"><rect width="81.704" height="64.053" x="120.41" y="134.228" fill="#EFF0F6" rx="2"/><rect width="30.109" height="62.378" x="204.637" y="134.346" fill="#EFF0F6" rx="2"/><rect width="30.057" height="66.598" x="89.082" y="134.228" fill="#EFF0F6" rx="2"/><rect width="145.495" height="25.503" x="89.082" y="105.807" fill="#EFF0F6" rx="2"/><rect width="139.417" height="19.794" x="91.742" y="108.852" fill="#ED4C5C" rx="2"/><rect width="23.933" height="21.697" x="207.605" y="137.782" fill="#ED4C5C" rx="2"/><rect width="23.933" height="21.697" x="92.117" y="137.782" fill="#D9DBE9" rx="2"/><rect width="23.933" height="21.697" x="207.605" y="163.285" fill="#ED4C5C" rx="2"/><rect width="23.933" height="21.697" x="207.605" y="188.977" fill="#ED4C5C" rx="2"/><rect width="23.933" height="21.697" x="92.117" y="163.285" fill="#D9DBE9" rx="2"/><rect width="23.933" height="21.697" x="92.117" y="188.948" fill="#D9DBE9" rx="2"/><rect width="46.725" height="1.523" x="123.652" y="137.02" fill="#D9DBE9" rx=".761"/><rect width="36.469" height="1.523" x="143.406" y="168.233" fill="#D9DBE9" rx=".761"/><rect width="56.222" height="1.523" x="123.652" y="171.278" fill="#D9DBE9" rx=".761"/><rect width="56.222" height="1.523" x="123.652" y="174.324" fill="#D9DBE9" rx=".761"/><rect width="74.077" height="1.523" x="123.652" y="140.827" fill="#D9DBE9" rx=".761"/><rect width="74.077" height="1.523" x="123.652" y="180.04" fill="#D9DBE9" rx=".761"/><rect width="74.077" height="1.523" x="123.652" y="143.872" fill="#D9DBE9" rx=".761"/><rect width="74.077" height="1.523" x="123.652" y="183.086" fill="#D9DBE9" rx=".761"/><rect width="74.077" height="1.523" x="123.652" y="146.917" fill="#D9DBE9" rx=".761"/><rect width="74.077" height="1.523" x="123.652" y="186.131" fill="#D9DBE9" rx=".761"/><rect width="74.077" height="1.523" x="123.652" y="149.962" fill="#D9DBE9" rx=".761"/><rect width="74.077" height="1.523" x="123.652" y="189.176" fill="#D9DBE9" rx=".761"/><rect width="74.077" height="1.523" x="123.652" y="153.007" fill="#D9DBE9" rx=".761"/><rect width="74.077" height="1.523" x="123.652" y="192.221" fill="#D9DBE9" rx=".761"/><rect width="74.077" height="1.523" x="123.652" y="156.053" fill="#D9DBE9" rx=".761"/><rect width="74.077" height="1.523" x="123.652" y="195.266" fill="#D9DBE9" rx=".761"/><rect width="17.854" height="9.516" x="123.652" y="160.24" fill="#D9DBE9" rx="2"/><rect width="15.195" height="16.368" x="182.531" y="159.478" fill="#D9DBE9" rx="2"/><path fill="#fff" d="M100.97 120.52v-1.25h1.4c.207 0 .39-.043.55-.13a.97.97 0 0 0 .39-.36.93.93 0 0 0 .15-.52c0-.3-.11-.543-.33-.73-.213-.187-.49-.28-.83-.28h-1.33V116l1.39-.01c.493-.007.93.09 1.31.29.38.193.677.46.89.8.213.34.32.733.32 1.18 0 .44-.113.833-.34 1.18-.22.34-.523.607-.91.8-.387.187-.827.28-1.32.28h-1.34ZM99.76 123v-7h1.37v7h-1.37Zm3.85 0-1.62-2.81 1.05-.75 2.12 3.56h-1.55Zm2.595 0v-7h1.37v7h-1.37Zm1.04 0v-1.25h3.43V123h-3.43Zm0-2.94v-1.22h2.97v1.22h-2.97Zm0-2.81V116h3.39v1.25h-3.39Zm7.939 5.87c-.68 0-1.283-.153-1.81-.46a3.358 3.358 0 0 1-1.24-1.28c-.3-.547-.45-1.173-.45-1.88 0-.707.15-1.33.45-1.87.3-.547.71-.973 1.23-1.28.527-.313 1.13-.47 1.81-.47.48 0 .927.087 1.34.26a3.21 3.21 0 0 1 1.08.71c.313.3.553.647.72 1.04l-1.27.47a2.078 2.078 0 0 0-.45-.64c-.187-.187-.4-.33-.64-.43-.24-.107-.5-.16-.78-.16-.407 0-.77.103-1.09.31-.313.2-.56.477-.74.83-.173.353-.26.763-.26 1.23 0 .467.09.88.27 1.24.18.353.43.633.75.84.32.2.687.3 1.1.3.287 0 .547-.053.78-.16.24-.113.45-.267.63-.46.187-.193.337-.417.45-.67l1.27.46a3.267 3.267 0 0 1-.72 1.08 3.263 3.263 0 0 1-1.08.73 3.46 3.46 0 0 1-1.35.26Zm7.356 0c-.707 0-1.333-.153-1.88-.46a3.393 3.393 0 0 1-1.27-1.28c-.307-.547-.46-1.17-.46-1.87 0-.713.153-1.34.46-1.88a3.326 3.326 0 0 1 1.26-1.28c.54-.307 1.16-.46 1.86-.46.707 0 1.327.157 1.86.47.54.307.963.733 1.27 1.28.307.54.46 1.163.46 1.87 0 .7-.153 1.323-.46 1.87-.3.54-.72.967-1.26 1.28-.533.307-1.147.46-1.84.46Zm0-1.25c.427 0 .8-.1 1.12-.3.327-.207.58-.487.76-.84.187-.353.28-.76.28-1.22 0-.467-.093-.877-.28-1.23a2.106 2.106 0 0 0-1.91-1.14 2.097 2.097 0 0 0-1.9 1.14c-.187.353-.28.763-.28 1.23 0 .46.093.867.28 1.22.187.353.447.633.78.84.333.2.717.3 1.15.3Zm8.201-.55-3.47-5.05.64-.19.79-.08 2.73 4.05-.69 1.27Zm-3.53 1.68v-7h1.37v7h-1.37Zm3.53-1.68-.69-1.27 2.73-4.05.79.08.62.17-3.45 5.07Zm2.16 1.68v-7h1.36v7h-1.36Zm6.414-1.68-3.47-5.05.64-.19.79-.08 2.73 4.05-.69 1.27Zm-3.53 1.68v-7h1.37v7h-1.37Zm3.53-1.68-.69-1.27 2.73-4.05.79.08.62.17-3.45 5.07Zm2.16 1.68v-7h1.36v7h-1.36Zm2.885 0v-7h1.37v7h-1.37Zm1.04 0v-1.25h3.43V123h-3.43Zm0-2.94v-1.22h2.97v1.22h-2.97Zm0-2.81V116h3.39v1.25h-3.39Zm9.698 5.75-4.53-6.25 1.11-.75 4.51 6.22-1.09.78Zm-4.85 0v-7h1.43l-.06 1.21v5.8l-1.37-.01Zm4.85 0v-7h1.36v7h-1.36Zm5.125 0v-1.28c.32 0 .616-.057.89-.17.273-.113.51-.27.71-.47a2.132 2.132 0 0 0 .65-1.58 2.21 2.21 0 0 0-.17-.87 2.113 2.113 0 0 0-.48-.71c-.2-.2-.437-.357-.71-.47a2.31 2.31 0 0 0-.89-.17V116c.713 0 1.343.15 1.89.45.553.3.983.713 1.29 1.24.313.52.47 1.123.47 1.81 0 .68-.157 1.283-.47 1.81a3.35 3.35 0 0 1-1.29 1.24c-.547.3-1.177.45-1.89.45Zm-1.45 0v-1.28h1.45V123h-1.45Zm-.79 0v-7h1.37v7h-1.37Zm.79-5.72V116h1.45v1.28h-1.45Zm6.212 5.72v-7h1.37v7h-1.37Zm1.04 0v-1.25h3.43V123h-3.43Zm0-2.94v-1.22h2.97v1.22h-2.97Zm0-2.81V116h3.39v1.25h-3.39Zm7.088 5.75v-1.28c.32 0 .617-.057.89-.17.274-.113.51-.27.71-.47.207-.2.367-.433.48-.7.114-.273.17-.567.17-.88a2.192 2.192 0 0 0-1.36-2.05 2.306 2.306 0 0 0-.89-.17V116c.714 0 1.344.15 1.89.45.554.3.984.713 1.29 1.24.314.52.47 1.123.47 1.81 0 .68-.156 1.283-.47 1.81-.313.527-.743.94-1.29 1.24-.546.3-1.176.45-1.89.45Zm-1.45 0v-1.28h1.45V123h-1.45Zm-.79 0v-7h1.37v7h-1.37Zm.79-5.72V116h1.45v1.28h-1.45Zm8.595 5.72v-7h1.37v7h-1.37Zm1.1-2.82v-1.25h2.87v1.25h-2.87Zm0-2.93V116h3.39v1.25h-3.39Zm7.637 5.87c-.707 0-1.333-.153-1.88-.46a3.393 3.393 0 0 1-1.27-1.28c-.307-.547-.46-1.17-.46-1.87 0-.713.153-1.34.46-1.88a3.326 3.326 0 0 1 1.26-1.28c.54-.307 1.16-.46 1.86-.46.707 0 1.327.157 1.86.47.54.307.963.733 1.27 1.28.307.54.46 1.163.46 1.87 0 .7-.153 1.323-.46 1.87-.3.54-.72.967-1.26 1.28-.533.307-1.147.46-1.84.46Zm0-1.25c.427 0 .8-.1 1.12-.3.327-.207.58-.487.76-.84.187-.353.28-.76.28-1.22 0-.467-.093-.877-.28-1.23a2.106 2.106 0 0 0-1.91-1.14 2.097 2.097 0 0 0-1.9 1.14c-.187.353-.28.763-.28 1.23 0 .46.093.867.28 1.22.187.353.447.633.78.84.333.2.717.3 1.15.3Zm5.881-1.35v-1.25h1.4c.207 0 .39-.043.55-.13a.97.97 0 0 0 .39-.36.93.93 0 0 0 .15-.52c0-.3-.11-.543-.33-.73-.213-.187-.49-.28-.83-.28h-1.33V116l1.39-.01c.494-.007.93.09 1.31.29.38.193.677.46.89.8.214.34.32.733.32 1.18 0 .44-.113.833-.34 1.18-.22.34-.523.607-.91.8a2.99 2.99 0 0 1-1.32.28h-1.34Zm-1.21 2.48v-7h1.37v7h-1.37Zm3.85 0-1.62-2.81 1.05-.75 2.12 3.56h-1.55Zm8.098-2.89-1.29-.33 2.25-3.78h1.56l-2.52 4.11Zm-1.33 2.89v-3.36h1.37V123h-1.37Zm.04-2.89-2.52-4.11h1.56l2.25 3.78-1.29.33Zm7.845 3.01c-.707 0-1.333-.153-1.88-.46a3.393 3.393 0 0 1-1.27-1.28c-.307-.547-.46-1.17-.46-1.87 0-.713.153-1.34.46-1.88a3.326 3.326 0 0 1 1.26-1.28c.54-.307 1.16-.46 1.86-.46.707 0 1.327.157 1.86.47.54.307.963.733 1.27 1.28.307.54.46 1.163.46 1.87 0 .7-.153 1.323-.46 1.87-.3.54-.72.967-1.26 1.28-.533.307-1.147.46-1.84.46Zm0-1.25c.427 0 .8-.1 1.12-.3.327-.207.58-.487.76-.84.187-.353.28-.76.28-1.22 0-.467-.093-.877-.28-1.23a2.106 2.106 0 0 0-1.91-1.14 2.097 2.097 0 0 0-1.9 1.14c-.187.353-.28.763-.28 1.23 0 .46.093.867.28 1.22.187.353.447.633.78.84.333.2.717.3 1.15.3Zm7.411 1.27c-.58 0-1.083-.113-1.51-.34a2.425 2.425 0 0 1-.99-.95c-.227-.413-.34-.9-.34-1.46h1.37c0 .3.06.563.18.79.127.22.3.39.52.51.227.12.49.18.79.18.3 0 .56-.06.78-.18.227-.12.4-.29.52-.51.127-.227.19-.49.19-.79h1.37c0 .56-.12 1.047-.36 1.46a2.414 2.414 0 0 1-1 .95c-.427.227-.933.34-1.52.34Zm-2.84-2.75V116h1.37v4.39h-1.37Zm4.35 0V116h1.37v4.39h-1.37ZM217.695 150.978h-3.028l-.68 1.889h-.983l2.76-7.238h.834l2.766 7.238h-.978l-.691-1.889Zm-2.74-.786h2.457l-1.231-3.385-1.226 3.385ZM220.443 152.867v-7.238h2.041c.629 0 1.185.139 1.668.418.483.278.856.674 1.117 1.188.265.513.399 1.103.402 1.769v.463c0 .682-.132 1.281-.397 1.794a2.759 2.759 0 0 1-1.127 1.183c-.487.275-1.054.416-1.703.423h-2.001Zm.954-6.452v5.671h1.002c.735 0 1.306-.228 1.713-.686.411-.457.616-1.108.616-1.953v-.423c0-.822-.194-1.459-.581-1.914-.384-.457-.93-.689-1.638-.695h-1.112ZM217.695 176.481h-3.028l-.68 1.889h-.983l2.76-7.237h.834l2.766 7.237h-.978l-.691-1.889Zm-2.74-.785h2.457l-1.231-3.385-1.226 3.385ZM220.443 178.37v-7.237h2.041c.629 0 1.185.139 1.668.417.483.278.856.674 1.117 1.188.265.514.399 1.104.402 1.77v.462c0 .683-.132 1.281-.397 1.795a2.764 2.764 0 0 1-1.127 1.183c-.487.275-1.054.416-1.703.422h-2.001Zm.954-6.452v5.672h1.002c.735 0 1.306-.229 1.713-.686.411-.458.616-1.109.616-1.954v-.422c0-.822-.194-1.46-.581-1.914-.384-.457-.93-.689-1.638-.696h-1.112ZM217.695 202.174h-3.028l-.68 1.889h-.983l2.76-7.238h.834l2.766 7.238h-.978l-.691-1.889Zm-2.74-.785h2.457l-1.231-3.386-1.226 3.386ZM220.443 204.063v-7.238h2.041c.629 0 1.185.139 1.668.418.483.278.856.674 1.117 1.188.265.513.399 1.103.402 1.769v.463c0 .682-.132 1.281-.397 1.794a2.759 2.759 0 0 1-1.127 1.183c-.487.275-1.054.416-1.703.423h-2.001Zm.954-6.452v5.671h1.002c.735 0 1.306-.228 1.713-.686.411-.457.616-1.108.616-1.953v-.423c0-.822-.194-1.459-.581-1.913-.384-.458-.93-.69-1.638-.696h-1.112Z"/></g><g clip-path="url(#c)"><path fill="#fff" d="M124.039 38.912a6.003 6.003 0 0 1-6-6 6.003 6.003 0 0 1-6-6 12.003 12.003 0 0 0-11.086 7.408 12.001 12.001 0 0 0 21.064 11.26 12.004 12.004 0 0 0 2.022-6.668Z" opacity=".2"/><path fill="#fff" d="M115.539 45.912a1.5 1.5 0 1 0 0-3 1.5 1.5 0 0 0 0 3ZM107.539 44.912a1.5 1.5 0 1 0 0-3 1.5 1.5 0 0 0 0 3ZM106.539 37.912a1.5 1.5 0 1 0 0-3 1.5 1.5 0 0 0 0 3ZM112.539 39.912a1.5 1.5 0 1 0 0-3 1.5 1.5 0 0 0 0 3Z"/><path stroke="#fff" stroke-linecap="round" stroke-linejoin="round" d="M124.039 38.912a6.003 6.003 0 0 1-6-6 6.003 6.003 0 0 1-6-6 12.003 12.003 0 0 0-11.086 7.408 12.001 12.001 0 0 0 21.064 11.26 12.004 12.004 0 0 0 2.022-6.668Z"/></g><g clip-path="url(#d)"><path stroke="#fff" stroke-linecap="round" stroke-linejoin="round" d="M269.113 82.543c1.26-1.265 3.297-1.561 4.964-.599 1.667.963 2.43 2.875 1.964 4.599"/><path fill="#fff" d="M274.079 81.944a3 3 0 1 0 3-5.197 3 3 0 0 0-3 5.197Z" opacity=".2"/><path stroke="#fff" stroke-linecap="round" stroke-linejoin="round" d="M274.079 81.944a3 3 0 1 0 3-5.197 3 3 0 0 0-3 5.197Z"/><path stroke="#fff" stroke-linecap="round" stroke-linejoin="round" d="m265.784 78.31-8.66-5a1 1 0 0 1-.366-1.366l8.5-14.722a.998.998 0 0 1 1.366-.366l5.773 3.333c.187.108.335.274.42.473l1.703 3.986a1 1 0 0 0 .419.473l9.237 5.333a.997.997 0 0 1 .366 1.366l-2 3.464"/></g><g clip-path="url(#e)"><path fill="#fff" d="m53.518 67.514-16.914 6.157a1 1 0 0 0-.598 1.281l7.525 20.674a1 1 0 0 0 1.281.597l16.915-6.156a1 1 0 0 0 .597-1.282L54.8 68.112a1 1 0 0 0-1.282-.598Zm-2.643 19.053a4 4 0 1 1-2.736-7.517 4 4 0 0 1 2.736 7.517Z" opacity=".2"/><path stroke="#fff" stroke-linecap="round" stroke-linejoin="round" d="M50.874 86.567a4 4 0 1 0-2.736-7.517 4 4 0 0 0 2.736 7.517Z"/><path stroke="#fff" stroke-linecap="round" stroke-linejoin="round" d="M46.26 91.438a7.5 7.5 0 0 1 11.277-4.104"/><path stroke="#fff" stroke-linecap="round" stroke-linejoin="round" d="m62.324 88.785-7.525-20.673a1 1 0 0 0-1.282-.598l-16.914 6.157a1 1 0 0 0-.598 1.281l7.525 20.674a1 1 0 0 0 1.281.597l16.915-6.156a1 1 0 0 0 .598-1.282ZM42.668 75.72l7.517-2.737"/></g><defs><clipPath id="a"><path fill="#fff" d="m189.566 18.227 30.07 10.945-10.944 30.07-30.07-10.944z"/></clipPath><clipPath id="c"><path fill="#fff" d="M96.04 22.912h32v32h-32z"/></clipPath><clipPath id="d"><path fill="#fff" d="m265.793 48.294 27.713 16-16 27.713-27.713-16z"/></clipPath><clipPath id="e"><path fill="#fff" d="m28.656 72.306 30.07-10.945 10.945 30.07-30.07 10.945z"/></clipPath></defs></svg>