<svg xmlns="http://www.w3.org/2000/svg" width="311" height="230" fill="none"><g clip-path="url(#a)"><path fill="#fff" d="m125.6 116.224 14.805 3.701s-.958 32.354-8.952 41.246c0 0-5.445 10.319-14.887 4.048 0 0-4.956-3.732-15.917-24.176l-13.307-26.838-3.181-3.762s-4.324-1.54-8.474-8.219c0 0-2.539-3.243-.142-3.793 0 0-3.253-4.517-.286-4.548 0 0-3.12-3.834.642-4.2 0 0-3.09-2.336-1.917-3.651 0 0 1.928-.887 4.976 3.334 0 0 3.172-1.336 9.595 4.66l1.785 1.132s-.357-.775.601-.663c0 0 1.204-.857 2.366 6.913 0 0 .877 3.192.214 5.782l.938 1.387 2.61 4.945 20.506 28.948 8.025-26.246Z"/><path fill="#fff" stroke="#192447" stroke-miterlimit="10" d="M148.542 80.821s2.845 5.18 3.447 6.465c0 0 5.741.01 10.441-1.825 0 0 4.568-1.091 8.045-2.753 0 0-3.762-9.198-3.191-16.448 0 0-.021-4.231 1.886-8.87 0 0 3.029-8.902-.479-17.427 0 0-1.591-9.38-11.318-8.912 0 0-4.375.153-8.066 1.163-3.691 1.02-.255.061-.255.061s-1.05 1.04-11.084-.01c0 0-5.648-.306-6.546 4.303 0 0-2.019 5.955 4.201 8.728l.683.306.123 3.722s-1.785.02-1.672 1.02c0 0 .55.948 1.743 1.11 0 0-.245 5.589-.377 5.946 0 0-.592 5.118-1.438 6.566-.846 1.448-1.601 5.13-1.305 8.596 0 0 .765 4.843 5.496 6.556 0 0 3.65 1.387 8.647 1.01 0-.01.55-.184 1.019.693Z"/><path stroke="#30334E" stroke-linecap="round" stroke-linejoin="round" stroke-miterlimit="10" d="M136.42 51.424c-.041 4.069-.388 9.259-1.642 12.287-2.172 5.221-3.997 15.5 8.994 16.376 12.99.877 14.785-6.087 17.161-12.093 2.375-5.996-4.477 1.325-6.506 1.213-2.039-.112-3.762-3.038-9.493-1.631-5.73 1.417-9.116.122-10.553-2.315M136.427 49.314a70.116 70.116 0 0 0-.122-3.722"/><path stroke="#30334E" stroke-linecap="round" stroke-linejoin="round" stroke-miterlimit="10" d="M141.179 50.078c-.031-1.692-5.139-.917-6.108-.336-.979.57.377 1.723 2.417 1.866 1.121.082 3.711-.265 3.691-1.53ZM146.146 50.507c.622-1.53 4.282-.062 6.179 1.855 1.897 1.917-.224 2.08-1.57 1.397-1.367-.693-5.17-1.896-4.609-3.252ZM146.82 55.972c.102.428.153.642.51 1.234M138.109 55.044s.092.857.694 1.489M142.046 66.424c-1.265-.123-4.824-1.06-1.968-3.212 2.1-1.58 1.743-6.781 1.315-9.453M148.441 70.39s-1.56 2.223-5.261 3.1"/><path stroke="#30334E" stroke-linecap="round" stroke-linejoin="round" stroke-miterlimit="10" d="M147.951 80.087h.02c.52.337 3.488 6.057 4.018 7.21 0 0 8.045.172 18.486-4.58-.081-.111-5.557-13.04-2.029-23.095 3.528-10.043 1.978-15.62-1.07-23.003-1.204-2.947-3.447-4.436-6.037-5.099a.554.554 0 0 0-.275-.07c-.235-.052-.439-.103-.673-.154a21.621 21.621 0 0 0-1.234-.153h-.041c-3.456-.306-7.219.459-10.054 1.152-5.72 1.418-15.397-2.743-17.487 3.743-1.652 5.2 1.417 8.422 5.17 9.727.948.337 1.937.54 2.916.622 4.844.428 13.959.296 16.254 4.201 2.294 3.905 5.73 7.444 6.75 5.894 1.07-1.662 5.649-.612 4.038 3.528-1.713 4.405-4.538 3.701-4.538 3.701"/><path stroke="#CAD6F8" stroke-miterlimit="10" d="M131.79 165.219s-3.008 25.614-3.681 31.518M184.914 166.086s4.487 13.184.999 32.343"/><path fill="#fff" d="M180.003 193.892c2.63-2.468 3.834-6.811 6.342-8.963 0 0 16.182-15.835 22.269-24.401 6.516-9.166 3.6-12.847-6.281-40.521-4.313 4.262-12.083 7.076-14.887 8.066.286.479.857 1.468.857 1.468 4.772 8.198 7.698 18.191 7.311 22.453-.735 7.953-14.785 26.195-14.785 26.195-1.856 1.468-3.977 3.079-6.017 4.283"/><path stroke="#30334E" stroke-linecap="round" stroke-linejoin="round" stroke-miterlimit="10" d="M180.003 193.892c2.63-2.468 3.834-6.811 6.342-8.963 0 0 16.182-15.835 22.269-24.401 6.516-9.166 3.6-12.847-6.281-40.521-4.313 4.262-12.083 7.076-14.887 8.066.286.479.857 1.468.857 1.468 4.772 8.198 7.698 18.191 7.311 22.453-.735 7.953-14.785 26.195-14.785 26.195-1.856 1.468-3.977 3.079-6.017 4.283"/><path stroke="#2E55C6" stroke-miterlimit="10" d="M186.332 111.687c.673 10.716.275 32.496.265 36.534-.01 4.038-1.305 16.427-1.285 17.385.123 6.812-53.818-.448-53.818-.448-.877-3.1-.55-47.496 4.14-63.576"/><path fill="#799AFF" stroke="#30334E" stroke-miterlimit="10" d="m77.166 85.838.653 3.161.01.01.153.765c.51-.03.979-.01 1.336.082 1.61.428 5.027 2.957 4.792 3.466-.234.51-1.703.857-3.936-.071-.652-.265-1.173-.408-1.56-.459l.316 1.52c1.091.193 2.396.897 3.355 1.457 1.794 1.061 2.478 1.968 2.57 2.499.06.346-.888.52-1.581.51-1.112-.01-2.315-.602-3.508-1.143-.05-.02-.092-.04-.142-.06l.326 1.58c1.703.57 3.579 1.509 4.395 2.559.356.469-.837.622-1.591.653-.653.03-1.53-.184-2.203-.459-.01 0-.01-.01-.02-.01l.704 3.375a1.609 1.609 0 0 0 1.998 1.223l6.77-1.825a1.61 1.61 0 0 0 1.163-1.856l-1.254-6.689-2.192-11.552a1.604 1.604 0 0 0-1.713-1.306l-7.403.643a1.611 1.611 0 0 0-1.438 1.927Z"/><path stroke="#30334E" stroke-linecap="round" stroke-linejoin="round" stroke-miterlimit="10" d="M89.894 96.137c.419-2.468 1.183-2.335 1.703-.398.643 2.386 1.102 5.047 1.836 8.545.255 1.223.102 2.131-.194 2.794-.56 1.233-1.642 1.621-1.642 1.621M77.82 88.999c-.112-.153-1.907-2.641-3.467-2.865-.347-.051-.49 1.04-.275 1.54.285.662.968 1.58 1.712 2.487"/><path stroke="#2E55C6" stroke-linecap="round" stroke-linejoin="round" stroke-miterlimit="10" d="m79.613 97.574.327 1.58"/><path stroke="#30334E" stroke-linecap="round" stroke-linejoin="round" stroke-miterlimit="10" d="M79.941 99.155c1.703.57 3.58 1.509 4.395 2.559.357.469-.836.622-1.59.653-.653.03-1.53-.184-2.203-.459-.01 0-.01-.01-.02-.01M78.934 94.311c1.09.194 2.396.898 3.354 1.458 1.795 1.061 2.478 1.968 2.57 2.499.061.346-.887.52-1.58.51-1.112-.01-2.315-.602-3.508-1.143-.051-.02-.092-.04-.143-.06M78.617 92.792c.397.061.907.194 1.56.459 2.233.918 3.701.571 3.936.071.234-.51-3.182-3.038-4.793-3.466-.357-.092-.826-.123-1.336-.082M75.373 94.291s-.01-.01-.02-.03c-.214-.276-1.672-2.234-1.499-3.009.082-.377.918-.805 1.948-1.1a10.113 10.113 0 0 1 2.182-.388M78.617 92.792c-.173-.03-.326-.03-.448-.03-.582.01-.755.214-.755.214"/><path stroke="#30334E" stroke-linecap="round" stroke-linejoin="round" stroke-miterlimit="10" d="M75.668 98.635s-.04-.072-.133-.204c-.468-.734-1.865-3.028-1.182-3.752.183-.194.53-.327.989-.419.867-.173 2.141-.153 3.436.031.04.01.092.02.143.03"/><path stroke="#30334E" stroke-linecap="round" stroke-linejoin="round" stroke-miterlimit="10" d="M79.614 97.574c-1.183-.479-2.763-.459-3.395-.459M75.107 101.245c-.183-.336-.367-.856-.388-1.091-.07-.897.306-1.325.959-1.509.55-.153 1.295-.112 2.141-.01.581.071 1.346.255 2.131.52M80.521 101.908c-.693-.265-2.763-.551-2.763-.551M93.37 107.302l1.897 3.09 2.865 4.537 19.455 27.531s4.436-14.459 7.617-25.767l7.403 3.661c-1.438 15.335-1.713 33.618-1.438 41.327l-.143.142s-3.711 7.077-12.073 4.854c-8.361-2.223-29.06-47.21-29.06-47.21l-2.498-5.18-.061-.082c-.245-.245-2.519-3.355-2.519-3.355-3.355-.795-8.229-6.831-9.717-9.595"/><path fill="#9AB3FF" d="m186.057 129.225.184 1.692c.673 10.707.326 13.327.316 17.365-.01 4.038-1.305 16.427-1.285 17.386.122 6.811-53.818-.449-53.818-.449-.122-.439-.224-1.672-.285-3.548-.276-7.709 0-25.982 1.437-41.328l-8.524-4.211c1.744-6.189 3.446-12.307 4.507-16.427 3.008-11.624 11.757-14.703 11.757-14.703 3.599-1.356 8.697-3.314 8.697-3.314 1.989 2.886 4.324 3.406 8.77 3.436 6.587.051 11.899-4.415 11.899-4.415s8.912 3.66 14.775 6.903l.01.01s8.117.398 18.487 29.734c.255.714.744 2.1.744 2.1.459.48-12.97 9.524-18.976 9.636l-2.896-13.867"/><path stroke="#30334E" stroke-linecap="round" stroke-miterlimit="10" d="m186.057 129.225.184 1.692c.673 10.707.326 13.327.316 17.365-.01 4.038-1.305 16.427-1.285 17.386.122 6.811-53.818-.449-53.818-.449-.122-.439-.224-1.672-.285-3.548-.276-7.709 0-25.982 1.437-41.328l-8.524-4.211c1.744-6.189 3.446-12.307 4.507-16.427 3.008-11.624 11.757-14.703 11.757-14.703 3.599-1.356 8.697-3.314 8.697-3.314 1.989 2.886 4.324 3.406 8.77 3.436 6.587.051 11.899-4.415 11.899-4.415s8.912 3.66 14.775 6.903l.01.01s8.117.398 18.487 29.734c.255.714.744 2.1.744 2.1.459.48-12.97 9.524-18.976 9.636l-2.896-13.867"/><path stroke="#30334E" stroke-miterlimit="10" d="M135.593 101.643c-1.315 4.517-2.294 11.257-2.988 18.7"/><path stroke="#CAD6F8" stroke-linecap="square" stroke-linejoin="round" stroke-miterlimit="10" d="M173.598 180.453s6.271 14.714 9.044 17.365"/><path fill="#fff" stroke="#30334E" stroke-miterlimit="10" d="M95.734 55.289c0 5.322-3.038 9.942-7.474 12.215l-2.314 4.008-3.692 6.403-3.69-6.403-2.152-3.722c-4.762-2.152-8.076-6.944-8.076-12.501 0-7.576 6.138-13.704 13.704-13.704 7.566 0 13.694 6.138 13.694 13.704Z"/><g clip-path="url(#b)"><path fill="#A0A3BD" d="M82.301 47.25a8.25 8.25 0 0 0-5.517 14.384 6.188 6.188 0 0 1 5.517-3.384 3.438 3.438 0 1 1 0-6.875 3.438 3.438 0 0 1 0 6.875 6.187 6.187 0 0 1 5.517 3.383 8.25 8.25 0 0 0-5.517-14.383Z"/><path stroke="#30334E" stroke-linecap="round" stroke-linejoin="round" d="M76.785 61.633a6.187 6.187 0 0 1 11.035 0"/><path stroke="#30334E" stroke-linecap="round" stroke-linejoin="round" d="M82.3 63.75a8.25 8.25 0 1 0 0-16.5 8.25 8.25 0 0 0 0 16.5Z"/><path stroke="#30334E" stroke-linecap="round" stroke-linejoin="round" d="M82.3 58.25a3.437 3.437 0 1 0 0-6.875 3.437 3.437 0 0 0 0 6.875Z"/></g><path fill="#C0C9ED" stroke="#30334E" stroke-linecap="round" stroke-linejoin="round" stroke-miterlimit="10" stroke-width=".8" d="m232.626 180.756-32.231 8.894.675 2.447 32.231-8.893-.675-2.448Z"/><path fill="#DDE1F5" stroke="#30334E" stroke-linecap="round" stroke-linejoin="round" stroke-miterlimit="10" stroke-width=".8" d="m218.469 187.284 40.164-11.083 1.295-31.844-40.164 11.083-1.295 31.844Z"/><path fill="#6A6684" d="M240.524 169.573a3.06 3.06 0 1 0-.001-6.12 3.06 3.06 0 0 0 .001 6.12Z"/><path fill="#ECEEF9" stroke="#30334E" stroke-miterlimit="10" stroke-width=".75" d="M86.984 189.864c-3.355 2.6-6.067-.581-6.067-.581-2.59-2.274 1.234-11.155 1.57-11.532.327-.378-.04-.602-.04-.602l-.194-.173a4.388 4.388 0 0 1-3.008-1.102 4.435 4.435 0 0 1-1.489-2.844l-6.27-5.496a4.388 4.388 0 0 1-3.009-1.102 4.435 4.435 0 0 1-1.489-2.845l-.214-.193c-.346-.296-.815.112-.815.112-5.609 3.701-8.27 3.579-8.27 3.579-5.547-.398-4.619-4.976-4.619-4.976.214-3.814 9.218-9.932 9.218-9.932 4.67-3.507 7.892-4.823 7.892-4.823l2.773-.989.398.245.316-.357s1.652.367 2.386 1.02c0 0 2.417 1.978 1.917 2.539l-.306.346c.163.153.245.245.245.245l.071.755 15.224 13.357.53-.04c.102.081.214.163.316.234l.398-.459c.49-.561 2.763 1.571 2.763 1.571.745.652 1.326 2.233 1.326 2.233l-.326.377c.224.296.275.428.275.428l-.642 2.906a7.252 7.252 0 0 1-.684 2.101l-2.967 6.25c-4.497 8.545-7.209 9.748-7.209 9.748Z"/><path stroke="#30334E" stroke-miterlimit="10" stroke-width=".75" d="m82.264 176.986.194.173s.367.225.04.602c-.183.214-1.468 3.089-2.1 5.985-.5 2.274-.54 4.517.54 5.557 0 0 2.56 3.008 5.792.786a7.44 7.44 0 0 1 .48-.317c.264-.173.784-.55 1.529-1.345 1.244-1.326 3.11-3.783 5.465-8.28l1.754-3.498a27.754 27.754 0 0 0 2.539-7.749s-.449-1.162-4.752-4.395l-.224.01a.758.758 0 0 1-.54-.183l-1.724-1.519-11.39-9.983-1.651-1.448a.744.744 0 0 1-.255-.489l-.041-.459s-2.61-2.641-4.966-4.048a25.463 25.463 0 0 0-6.597 2.977 62.409 62.409 0 0 0-4.068 2.835s-4.813 3.263-7.485 6.515c-.989 1.193-1.682 2.387-1.733 3.416 0 0-.765 3.437 2.733 4.609 1.11.378 2.314.378 3.446.072 1.377-.367 3.61-1.244 6.72-3.294 0 0 .469-.408.815-.112l.214.194M77.767 173.04l-6.27-5.496"/><path fill="#fff" stroke="#30334E" stroke-miterlimit="10" stroke-width=".75" d="M70.425 158.968a5.24 5.24 0 1 0 0-10.482 5.24 5.24 0 0 0 0 10.482ZM91.573 177.516a5.24 5.24 0 1 0 0-10.481 5.24 5.24 0 0 0 0 10.481Z"/><path fill="#969DC8" stroke="#30334E" stroke-miterlimit="10" stroke-width=".75" d="M89.881 175.905a1.346 1.346 0 1 0 0-2.692 1.346 1.346 0 0 0 0 2.692ZM93.42 171.48a1.346 1.346 0 1 0 0-2.692 1.346 1.346 0 0 0 0 2.692ZM89.576 171.786a1.346 1.346 0 1 0 0-2.692 1.346 1.346 0 0 0 0 2.692ZM93.846 175.334a1.346 1.346 0 1 0 0-2.692 1.346 1.346 0 0 0 0 2.692Z"/><path fill="#fff" d="M70.17 158.968a4.194 4.194 0 0 0-1.764 1.193 4.21 4.21 0 1 0 6.25-.091c-.02-.031-.05-.051-.07-.082-.021-.02-.042-.051-.072-.071l-.061-.061c-.031-.031-.072-.062-.102-.092-.031-.031-.072-.061-.102-.092-.02-.02-.051-.041-.072-.061-.02-.021-.05-.041-.071-.061-.03-.021-.061-.041-.082-.062a4.195 4.195 0 0 0-2.05-.754"/><path stroke="#30334E" stroke-miterlimit="10" stroke-width=".75" d="M70.17 158.968a4.194 4.194 0 0 0-1.764 1.193 4.21 4.21 0 1 0 6.25-.091c-.02-.031-.05-.051-.07-.082-.021-.02-.042-.051-.072-.071l-.061-.061c-.031-.031-.072-.062-.102-.092-.031-.031-.072-.061-.102-.092-.02-.02-.051-.041-.072-.061-.02-.021-.05-.041-.071-.061-.03-.021-.061-.041-.082-.062a4.195 4.195 0 0 0-2.05-.754"/><path fill="#30334E" stroke="#30334E" stroke-miterlimit="10" stroke-width=".75" d="M71.405 165.719a2.835 2.835 0 1 0 0-5.67 2.835 2.835 0 0 0 0 5.67Z"/><path fill="#fff" d="M86.413 171.347a4.151 4.151 0 0 0-1-1.845c-.02-.031-.05-.051-.07-.082-.011-.02-.032-.031-.052-.051l-.02-.02-.061-.062c-.031-.03-.072-.061-.102-.091-.031-.031-.072-.062-.102-.092-.02-.021-.051-.041-.072-.061l-.02-.021a.199.199 0 0 1-.051-.041c-.03-.02-.051-.04-.082-.061a4.21 4.21 0 0 0-5.21 6.598 4.21 4.21 0 0 0 6.872-2.223"/><path stroke="#30334E" stroke-miterlimit="10" stroke-width=".75" d="M86.413 171.347a4.151 4.151 0 0 0-1-1.845c-.02-.031-.05-.051-.07-.082-.011-.02-.032-.031-.052-.051l-.02-.02-.061-.062c-.031-.03-.072-.061-.102-.091-.031-.031-.072-.062-.102-.092-.02-.021-.051-.041-.072-.061l-.02-.021a.199.199 0 0 1-.051-.041c-.03-.02-.051-.04-.082-.061a4.21 4.21 0 0 0-5.21 6.598 4.21 4.21 0 0 0 6.872-2.223"/><path fill="#30334E" stroke="#30334E" stroke-miterlimit="10" stroke-width=".75" d="M82.284 175.252a2.835 2.835 0 1 0 0-5.669 2.835 2.835 0 0 0 0 5.669Z"/><path fill="#969DC8" stroke="#30334E" stroke-miterlimit="10" stroke-width=".75" d="m86.587 165.576-8.861-7.77a1.678 1.678 0 0 1-.153-2.366l2.294-2.62 11.39 9.982-2.294 2.621a1.69 1.69 0 0 1-2.376.153Z"/><path fill="#969DC8" stroke="#30334E" stroke-linejoin="bevel" stroke-miterlimit="10" stroke-width=".75" d="m98.243 168.502.449-.51s-.408-1.784-1.152-2.437c0 0-2.254-2.161-2.907-1.417l-.57.551s2.6 1.774 4.18 3.813ZM73.34 146.6l.418-.469s1.774.234 2.508.877c0 0 2.427 1.958 1.825 2.651l-.367.52s-2.192-2.254-4.384-3.579Z"/><path fill="#969DC8" stroke="#30334E" stroke-miterlimit="10" stroke-width=".75" d="m68.446 154.472 1.285-.082a.193.193 0 0 1 .204.173l.091 1.295a.453.453 0 0 1-.112.337l-.969 1.101a.474.474 0 0 1-.683.041l-1.06-.928a.474.474 0 0 1-.041-.683l.969-1.101a.427.427 0 0 1 .316-.153ZM72.394 153.034l-1.284.082a.193.193 0 0 1-.204-.174l-.092-1.295a.451.451 0 0 1 .112-.336l.969-1.101a.474.474 0 0 1 .683-.041l1.06.928a.474.474 0 0 1 .041.683l-.968 1.101a.488.488 0 0 1-.317.153ZM71.18 155.828l-.082-1.285a.192.192 0 0 1 .174-.204l1.295-.092a.451.451 0 0 1 .336.113l1.102.968a.474.474 0 0 1 .04.683l-.927 1.061a.475.475 0 0 1-.684.041l-1.101-.969a.47.47 0 0 1-.153-.316ZM69.64 151.719l.081 1.284a.192.192 0 0 1-.173.204l-1.295.092a.455.455 0 0 1-.337-.112l-1.101-.969a.474.474 0 0 1-.04-.683l.927-1.06a.474.474 0 0 1 .683-.041l1.102.968a.45.45 0 0 1 .153.317Z"/><path fill="#CAD6F8" stroke="#30334E" stroke-linecap="round" stroke-linejoin="round" stroke-miterlimit="10" stroke-width=".8" d="m188.657 71.573 17.803-26.96a1.373 1.373 0 0 1 1.887-.388l40.154 26.522c.622.418.795 1.254.388 1.886l-17.804 26.96a1.372 1.372 0 0 1-1.886.388l-40.155-26.522a1.363 1.363 0 0 1-.387-1.886Z"/><path fill="#fff" stroke="#30334E" stroke-miterlimit="10" stroke-width=".8" d="m191.215 71.695 16.366-24.777a.797.797 0 0 1 1.122-.225l35.831 23.667a.796.796 0 0 1 .224 1.121L228.392 96.26a.796.796 0 0 1-1.121.224L191.44 72.817a.815.815 0 0 1-.225-1.122Z"/><path stroke="#30334E" stroke-linecap="round" stroke-linejoin="round" stroke-miterlimit="10" stroke-width=".8" d="m240.087 82.891-3.028 4.599"/><path fill="#3FC99A" stroke="#0E9667" stroke-miterlimit="10" stroke-width=".8" d="M211.14 82.82a18.29 18.29 0 0 1 .847-18.854l2.141-3.222 10.645 1.57 5.568 9.208-2.142 3.222a18.303 18.303 0 0 1-17.059 8.076Z"/><path fill="#B2EAD7" stroke="#0E9667" stroke-miterlimit="10" stroke-width=".8" d="M212.528 80.73a14.587 14.587 0 0 1 .673-15.02l1.702-2.57 8.474 1.255 4.435 7.331-1.702 2.57c-2.978 4.496-8.209 6.964-13.582 6.434Z"/><path stroke="#30334E" stroke-miterlimit="10" stroke-width=".8" d="m215.882 70.564-.081 4.761 7.219-4.884"/></g><defs><clipPath id="a"><path fill="#fff" d="M31 31h250v168H31z"/></clipPath><clipPath id="b"><path fill="#fff" d="M71.3 44.5h22v22h-22z"/></clipPath></defs></svg>