<svg xmlns="http://www.w3.org/2000/svg" width="311" height="230" fill="none"><path fill="#fff" stroke="#30334E" stroke-linecap="round" stroke-linejoin="round" stroke-miterlimit="10" d="M231.354 91.89s3.092 5.623 3.746 7.017c0 0 6.239.011 11.346-1.976 0 0 4.966-1.188 8.742-2.994 0 0-4.094-9.973-3.47-17.842 0 0-.03-4.587 2.05-9.62 0 0 3.287-9.663-.518-18.913 0 0-1.732-10.18-12.294-9.668 0 0-4.754.165-8.76 1.264-4.011 1.106-.271.065-.271.065s-1.154 1.111-12.058-.03c0 0-6.144-.329-7.116 4.67 0 0-2.197 6.457 4.565 9.468l.743.335.135 4.034s-1.944.024-1.82 1.106c0 0 .601 1.029 1.897 1.211 0 0-.265 6.057-.413 6.451 0 0-.636 5.552-1.561 7.122-.925 1.57-1.743 5.563-1.414 9.321 0 0 .831 5.251 5.979 7.116 0 0 3.971 1.505 9.396 1.094-.018 0 .577-.183 1.096.77Z"/><path stroke="#30334E" stroke-linecap="round" stroke-linejoin="round" stroke-miterlimit="10" d="M218.177 59.994c-.047 4.41-.418 10.05-1.785 13.331-2.368 5.663-4.347 16.813 9.779 17.766 14.114.953 16.069-6.61 18.656-13.114 2.58-6.504-4.86 1.435-7.075 1.311-2.215-.123-4.088-3.293-10.315-1.77-6.232 1.535-9.908.13-11.475-2.51M218.182 57.706c-.023-2.076-.1-3.61-.135-4.034"/><path stroke="#30334E" stroke-linecap="round" stroke-linejoin="round" stroke-miterlimit="10" d="M223.35 58.53c-.029-1.841-5.578-.995-6.638-.365-1.061.623.406 1.864 2.621 2.023 1.231.082 4.047-.288 4.017-1.659ZM228.747 58.988c.683-1.664 4.659-.07 6.715 2.011 2.056 2.082-.241 2.259-1.708 1.512-1.479-.735-5.608-2.04-5.007-3.523ZM229.48 64.928c.112.47.171.694.56 1.34M220.02 63.916s.106.93.754 1.612M224.298 76.266c-1.378-.13-5.248-1.153-2.138-3.488 2.285-1.717 1.891-7.356 1.431-10.256M231.243 80.565s-1.696 2.41-5.72 3.37"/><path stroke="#30334E" stroke-linecap="round" stroke-linejoin="round" stroke-miterlimit="10" d="M230.712 91.085h.024c.565.37 3.788 6.575 4.365 7.822 0 0 8.742.188 20.087-4.97-.088-.117-6.044-14.143-2.203-25.058 3.835-10.897 2.156-16.948-1.161-24.958-1.307-3.193-3.746-4.816-6.562-5.527a.79.79 0 0 0-.3-.083l-.736-.17c-.436-.065-.872-.13-1.338-.17h-.047c-3.758-.336-7.846.5-10.933 1.252-6.22 1.535-16.735-2.97-19.003 4.058-1.797 5.64 1.537 9.144 5.625 10.55 1.025.364 2.109.594 3.17.682 5.26.464 15.174.323 17.666 4.557 2.491 4.234 6.232 8.08 7.339 6.393 1.161-1.806 6.139-.659 4.389 3.822-1.856 4.781-4.93 4.01-4.93 4.01"/><path stroke="#CAD6F8" stroke-miterlimit="10" d="M277.008 187.853s2.026 13.191-1.809 21.147"/><path fill="#fff" stroke="#30334E" stroke-linecap="round" stroke-linejoin="round" stroke-miterlimit="10" d="M189.833 166.006c-.242.017-11.24 2.428-11.24 2.428l-5.26 2.535-1.614 2.517.171 6.281.889-1.006s1.85 3.211 2.026 3.046c.177-.164.26-2.334.26-2.334l1.773.782-.195-2.741s3.099-1.099 3.205-1.117c.106-.018 3.104-.288 3.446-.294.342-.006 4.783-.976 4.783-.976l1.826-2.635 2.922-1.452-2.992-5.034Zm-10.38 8.297-2.032-.105 1.143-2.982s2.462.494 2.639.565c.171.07.642 1.117.642 1.117l-2.392 1.405Z"/><path stroke="#30334E" stroke-linecap="round" stroke-linejoin="round" stroke-miterlimit="10" stroke-width="1.5" d="M190.385 165.988s-3.599.171-7.841 1.294c-4.241 1.123-8.011 2.517-9.855 4.31-1.844 1.794-.931 8.233-.554 8.61.43.429.908-1.982 1.503-5.61.6-3.629 6.155-4.235 7.439-3.235 1.285 1 1.208 2.017-.642 2.758-1.407.559-2.886.412-3.587.7-.707.288-1.325 1.188-1.178 1.7.124.447 1.001.711 1.384.694 1.225-.059 3.122-1.03 4.312-1.106 1.502-.1 6.716.888 9.107-4.111l2.351-.952-2.439-5.052Z"/><path stroke="#30334E" stroke-linecap="round" stroke-linejoin="round" stroke-miterlimit="10" d="M172.879 178.626s.901 2.052 1.673 2.981c.772.929.766-1.252.448-3.099-.26-1.523-.619-3.234.176-4.228 1.815-2.264 3.723-3.34 3.723-3.34"/><path stroke="#30334E" stroke-linecap="round" stroke-linejoin="round" stroke-miterlimit="10" d="M174.965 178.285s.665 1.141 1.137 1.493c.471.353 1.49 1.376.771-1.252-.241-.882-.5-1.453-.5-1.453M176.855 174.815c0-.259 1.815-3.864 1.815-3.864"/><path fill="#9AB3FF" stroke="#30334E" stroke-linecap="round" stroke-miterlimit="10" d="M220.893 98.507c-22.255 16.389.012 49.18-23.78 61.036-8.642 4.305-9.785 4.828-9.785 4.828l4.436 7.974s5.237.988 22.956-4.357c17.584-5.305 18.986-21.612 19.598-40.819.613-19.206-2.126-36.984-13.425-28.662Z"/><path fill="#C0C9ED" stroke="#30334E" stroke-linecap="round" stroke-linejoin="round" stroke-miterlimit="10" stroke-width=".8" d="M207.875 183.689h-58v2.747h58v-2.747Z"/><path fill="#DDE1F5" stroke="#30334E" stroke-linecap="round" stroke-linejoin="round" stroke-miterlimit="10" stroke-width=".8" d="M176.548 186.441h-72.285l-16.865-52.579h72.285l16.865 52.579Z"/><path fill="#6A6684" d="M130.726 166.335a4.344 4.344 0 0 0 4.348-4.34 4.344 4.344 0 0 0-4.348-4.34 4.343 4.343 0 0 0-4.347 4.34 4.343 4.343 0 0 0 4.347 4.34Z"/><path fill="#9AB3FF" d="M273.832 134.597c.424 14.149 3.122 52.156 3.175 53.256.383 7.827-61.911 1.329-61.911 1.329-.13-.394-.242-.876-.354-1.447v-.006c-1.726-12.949-.931-64.858-.253-77.079a16.371 16.371 0 0 1 2.427-7.715c1.749-2.852 4.359-5.081 7.363-6.557 3.434-1.688 7.811-2.794 8.2-2.558 3.805 2.652 6.385 2.734 8.877 2.746 8.577.03 12.795-5.393 12.795-5.393s17.978 6.687 19.209 7.116c0 0 3.111 1.635 4.601 2.799"/><path stroke="#30334E" stroke-linecap="round" stroke-miterlimit="10" d="M273.832 134.597c.424 14.149 3.122 52.156 3.175 53.256.383 7.827-61.911 1.329-61.911 1.329-.13-.394-.242-.876-.354-1.447v-.006c-1.726-12.949-.931-64.858-.253-77.079a16.371 16.371 0 0 1 2.427-7.715c1.749-2.852 4.359-5.081 7.363-6.557 3.434-1.688 7.811-2.794 8.2-2.558 3.805 2.652 6.385 2.734 8.877 2.746 8.577.03 12.795-5.393 12.795-5.393s17.978 6.687 19.209 7.116c0 0 3.111 1.635 4.601 2.799"/><path stroke="#30334E" stroke-linecap="round" stroke-linejoin="round" stroke-miterlimit="10" d="M198.732 170.093s-1.332.794-4.289-2.552c-2.957-3.352-.271 4.293-.271 4.293"/><path fill="#fff" stroke="#30334E" stroke-linecap="round" stroke-linejoin="round" stroke-miterlimit="10" d="M209.855 179.402c-3.322.477-9.596 1.4-10.55 1.588-4.318.888-8.983-2.97-10.273-1.288-1.291 1.694-6.097 4.493-6.197 3.787-.077-.6 1.643-3.187 2.904-4.875.011 0 .017-.012.029-.023.212-.283.418-.541.595-.765.495-.606 2.074-2.07 4.088-3.564a32.197 32.197 0 0 1 3.723-2.428c1.384-.771 2.792-1.371 4.094-1.653.165-.041.318-.07.471-.088a5.838 5.838 0 0 1 1.591-.047c4.123.529 8.865-.306 10.026-.541l-.501 9.897Z"/><path stroke="#30334E" stroke-linecap="round" stroke-linejoin="round" stroke-miterlimit="10" d="M185.746 178.62s2.91-2.035 4.442-2.288c1.531-.252 3.063-.435 3.063-.435M190.445 174.257c.189-.142 3.77-.824 5.06-.688"/><path fill="#9AB3FF" stroke="#30334E" stroke-linecap="round" stroke-miterlimit="10" d="M270.846 102.323c-9.69 6.328-1.708 55.068-33.559 61.53-22.308 4.523-32.623 5.54-32.623 5.54l.56 11.05s31.144 3.287 51.119-3.517c19.97-6.804 25.177-21.276 29.289-42.976 4.111-21.7-1.126-40.542-14.786-31.627Z"/><path stroke="#CAD6F8" stroke-miterlimit="10" d="M214.809 189.058s-12.394 7.263-16.247 10.315"/><path fill="#30334E" stroke="#30334E" stroke-miterlimit="10" d="M248.655 62.916s1.09-22.576-17.413-23.358l-2.562.147c18.95 2.7 18.208 23.211 18.208 23.211h1.767Z"/><path fill="#fff" stroke="#30334E" stroke-linecap="round" stroke-linejoin="round" stroke-miterlimit="10" d="M247.935 74.554c3.41 0 6.174-2.759 6.174-6.163a6.168 6.168 0 0 0-6.174-6.163 6.168 6.168 0 0 0-6.173 6.163 6.168 6.168 0 0 0 6.173 6.163Z"/><path stroke="#30334E" stroke-linecap="round" stroke-linejoin="round" stroke-miterlimit="10" d="M247.937 74.554s-.819 7.075-11.339 7.063"/><path fill="#30334E" d="M235.39 82.817c.986 0 1.785-.519 1.785-1.159s-.799-1.158-1.785-1.158c-.985 0-1.785.518-1.785 1.158 0 .64.8 1.159 1.785 1.159Z"/><path fill="#fff" stroke="#30334E" stroke-miterlimit="10" d="M189.498 106.693v13.725c0 .224-.271.335-.424.177l-1.479-1.476a.957.957 0 0 0-.683-.283h-86.104a1.63 1.63 0 0 1-1.632-1.629v-10.52c0-.9.73-1.629 1.632-1.629h87.052a1.64 1.64 0 0 1 1.638 1.635ZM189.498 68.186v10.456c0 .223-.271.335-.424.176l-1.479-1.476a.959.959 0 0 0-.683-.282h-86.104a1.63 1.63 0 0 1-1.632-1.63v-7.25c0-.9.73-1.63 1.632-1.63h87.052a1.64 1.64 0 0 1 1.638 1.636Z"/><path fill="#CAD6F8" stroke="#30334E" d="m26.55 97.63-1.05 1.047v-12.62a1.14 1.14 0 0 1 1.138-1.135h87.052a1.13 1.13 0 0 1 1.132 1.13v10.02a1.13 1.13 0 0 1-1.132 1.13H27.586c-.391 0-.76.151-1.037.427l.354.354-.354-.354ZM26.55 58.987l-1.05 1.048v-21.4a1.14 1.14 0 0 1 1.138-1.135h87.052a1.13 1.13 0 0 1 1.132 1.129v18.8a1.13 1.13 0 0 1-1.132 1.13H27.586c-.391 0-.76.152-1.037.428l.354.354-.354-.354Z"/></svg>