<svg xmlns="http://www.w3.org/2000/svg" width="311" height="230" fill="none"><g clip-path="url(#a)"><mask id="b" width="244" height="181" x="34" y="25" maskUnits="userSpaceOnUse" style="mask-type:luminance"><path fill="#fff" d="M277.89 25H34v180.53h243.89V25Z"/></mask><g mask="url(#b)"><path stroke="#CAD6F8" stroke-linecap="round" stroke-linejoin="round" stroke-miterlimit="10" d="M277.39 166.51v-26.5c0-1.98-1.57-3.67-3.55-3.68h-.77M167.141 136.75c1.07-.27 2.2-.42 3.36-.42h18.62M156.77 164.44v-14.38c0-4.18 1.89-7.94 4.86-10.46M41.422 162.22v39.24"/><path fill="#fff" d="m133.079 203.94-.28 1.09h-7.17l2.85-3.95 4.6 2.86ZM195.729 149.07s-9.12 18.7-19.81 12.76c0 0-5.18-3.07-9.59-12.36l-4.64-10.89-3.73.99-1.12-3.06s-1.54-.81-1.97-2.85c0 0-1.29-2.04-.82-4.01l.39-2.24-.56-1.13s-3.16-1-.72-1.77l5.22.65s4.52 3.07 5.07 4.77c0 0 8.74 16.46 10.96 17.63 0 0 3.4 6.15 5.7 2.25 0 0 6.19-5.8 6.83-9.16.01 0 9.68 2.53 8.79 8.42ZM256.39 135.86h-11.41l.73-11.24s30.03 4.06 28.88 9.19c0 0-2.36 7.15-19.99 10.79 0 0-1.51 16.99-2.9 18.6 0 0-3.85-4.04-3.49-10.03l1.05-9.61 7.13-7.7ZM224.598 117.38c.68 1.22.86 2.31.86 2.31-.09.19-.19.39-.28.57-2.23 2.02-4.1 3.99-7.01 3.56-.95-.14-2.44-.72-3.63-1.7-.2-.87-.63-4.61-.63-4.61l-.11-.44-.07-.27c-4.03.1-7.13-2.54-7.43-2.8-.01 0-.02-.02-.02-.02-1.89-3.08-.13-6.33.55-7.39.15-.23.25-.36.25-.36 1.39-1.35 2.6-7.16 2.6-7.16l-.1-.42-.13-.46-.14-.55c-.11-.2-.04-.4.1-.58.14-.18.36-.33.57-.44.23-.13.44-.22.44-.22l.12-1.5.01-.15-1.09-.98c-3.17-3.18-.07-6.1-.07-6.1 2.21-2.02 9.29.9 9.29.9 1.59-.44 6.67.14 7.13.18.01 0 .01 0 .03.01.25.07.49.16.72.24.13.06.26.12.39.17.05.01.11.04.16.08 3.66 1.99 3.3 7.52 3.3 7.52 2.15 6.8-3.13 10.72-3.13 10.72-3.69 5.27-2.68 9.89-2.68 9.89Z"/><path fill="#9AB3FF" stroke="#30334E" stroke-linecap="round" stroke-miterlimit="10" d="M192.772 168.25s6.43 1.51 18.08 10.24c0 0 6.86 6.78 15.41 6.55 0 0 2.13-9.42 3.31-11.3 0 0 4.2-16.4 4.04-19.6l1.59-7.28s.81-4.68 9.17-7.92l1.05-15.92s-12.59-.69-19.55-4.04c0 0-3.6 5.87-6.9 4.89 0 0-4.29.77-4.74-2.63l-.75-2.9s-13.14 2.14-14.54 3.87c0 0-3.79 2.76-7.08 9.93l-5.01 7.75s6.32 1.84 9.95 8.95l-.3 3.44c0 .01-.47 11.61-3.73 15.97Z"/><path stroke="#30334E" stroke-linecap="round" stroke-linejoin="round" stroke-miterlimit="10" d="M261.089 132.14c-.32.16-10.88 9.38-11.9 12.53-1.02 3.15-1.29 8.49-1.44 9.75-.16 1.26 1.84 6.36 3.36 8.2 1.53 1.84 2.42-7.73 2.42-7.73l1.18-9.83s2.05-1.02 7.72-2.36c5.67-1.34 15.37-8.44 11.27-11.2s-27.98-7.26-27.98-7.26M256.391 136.33h-11.86M198.509 135.1c-.09.37-.17.78-.25 1.24-1.05 5.75-1.83 17.57-2.35 22.61-.55 5.44-3.55 9.31-3.55 9.31M224.199 185.27c1.28.06 1.96-.19 2.05-.22.24-.08.55-3.39 2.92-10.09 2.36-6.7 4.73-24.92 6.31-28.94 1.58-4.02 8.87-6.78 8.87-6.78l.1-1.51.09-1.39.88-13.3s-6.74-.08-12.93-2.01c-5.99-1.87-7.66-3.09-7.76-3.16"/><path fill="#CAD6F8" d="M155.599 130.5c-.07-.21-.13-.43-.19-.64-.16-.56-.33-1.12-.49-1.66-.18-.63-.36-1.25-.53-1.85-.19-.65-.36-1.26-.53-1.82-.32-1.11-.58-2.01-.74-2.55-.09-.3.12-.61.43-.65l2.83-.33c.24-.03.48.12.55.36l1.27 4.17.16.51c.08.27-.07.57-.35.64-.08.02-.16.05-.25.07-1.26.34-2 .06-2.13.61-.13.55 1.06 1.5 2.3 1.31 0 0 .22-.03.41-.07.17-.04.35.02.48.15.12.12.27.28.43.44.06.06.11.14.13.22l.53 1.72c.05.64.2 1.47.65 2.35.06.12.11.22.17.33l1.19 3.92c.08.27-.07.55-.33.64-.07.02-.15.05-.23.07-.69.23-1.79.64-2.45.89-.3.12-.62-.04-.73-.34-.17-.48-.43-1.26-.73-2.24-.06-.2-.01-.43.16-.55.17-.12.29-.31.24-.52-.04-.19-.11-.34-.21-.46-.09-.12-.24-.17-.4-.17a.835.835 0 0 1-.35-.11l-1.29-4.44Z"/><path stroke="#30334E" stroke-linecap="round" stroke-linejoin="round" stroke-miterlimit="10" stroke-width=".7" d="M155.341 130.5c-.07-.21-.13-.43-.19-.64-.16-.56-.33-1.12-.49-1.66-.18-.63-.36-1.25-.53-1.85-.19-.65-.36-1.26-.53-1.82-.32-1.11-.58-2.01-.74-2.55-.09-.3.12-.61.43-.65l2.83-.33c.24-.03.48.12.55.36l1.27 4.17.16.51c.08.27-.07.57-.35.64-.08.02-.16.05-.25.07-1.26.34-2 .06-2.13.61-.13.55 1.06 1.5 2.3 1.31 0 0 .22-.03.41-.07.17-.04.35.02.48.15.12.12.27.28.43.44.06.06.11.14.13.22l.53 1.72c.05.64.2 1.47.65 2.35.06.12.11.22.17.33l1.19 3.92c.08.27-.07.55-.33.64-.07.02-.15.05-.23.07-.69.23-1.79.64-2.45.89-.3.12-.62-.04-.73-.34-.17-.48-.43-1.26-.73-2.24-.06-.2-.01-.43.16-.55.17-.12.29-.31.24-.52-.04-.19-.11-.34-.21-.46-.09-.12-.24-.17-.4-.17a.835.835 0 0 1-.35-.11"/><path stroke="#30334E" stroke-linecap="round" stroke-linejoin="round" stroke-miterlimit="10" stroke-width=".7" d="M154.13 126.35c-.93-.17-2.14-.76-2.02-1.12.06-.19.49-.62 1.5-.71M161.381 135.43s-.17-.03-1.03-1.71c0 0-.82-1.44-.81-2.68-.06-.81.07-1.32.07-1.32-.17-.09-.92-.84-1.15-1.06M155.422 127.19c.61-.15 3.54-.59 4.05-.03.67.75 1.91 1.71 2.04 1.75M155.201 129.96c-.08.42.42 1.01.67 1.56.16.33.16.75 0 .99-.11.16-.29.25-.55.19-.55-.13-.63-.57-.92-1a1.33 1.33 0 0 0-.19-.24c-.46-.49-.44-.83-.2-1.74.15-.58.43-1.14.61-1.48"/><path stroke="#30334E" stroke-linecap="round" stroke-linejoin="round" stroke-miterlimit="10" stroke-width=".7" d="M156.032 132.01s-.08.38.08.7c.17.32 1.16.87 1.47 1.42.22.37-.01.81-.39.92M156.562 134.91c-.38-.23-.94-.49-1.34-.78-.27-.2-.47-.41-.48-.64-.03-.56-.39-1.87-.39-1.87M155.281 134.27s.14.76.25 1.11c.12.36.77.67 1.15.9.12.07.25.08.39.06"/><path stroke="#CAD6F8" stroke-linecap="round" stroke-linejoin="round" stroke-miterlimit="10" d="M277.391 166.51v38.52h-46V180.7c0-7.8 7.16-14.19 15.91-14.19h30.09ZM244.98 205.03v-33.78M150.999 166.84c-.57-.22-1.18-.33-1.82-.33l-19.72.04s-7.74-.8-7.74 6.61v26.32"/><path stroke="#30334E" stroke-linecap="round" stroke-linejoin="round" stroke-miterlimit="10" d="M161.16 138.57c.16.35.29.62.48 1.03 1.58 3.36 4.12 8.75 6.37 13.36 3.58 7.31 9.38 11.04 14.53 10.14 5.15-.89 13.84-14.22 13.84-14.22"/><path stroke="#30334E" stroke-linecap="round" stroke-linejoin="round" stroke-miterlimit="10" d="M158.078 125.49c4.28 1.87 4.4 3.72 6.21 6.62.92 1.48 1.89 3.05 2.85 4.64.93 1.52 1.85 3.07 2.74 4.59 1.81 3.12 7.08 11.4 9.55 9.67 2.47-1.73 7.93-10.36 7.93-10.36"/><path stroke="#CAD6F8" stroke-linecap="round" stroke-linejoin="round" stroke-miterlimit="10" d="M128.48 200.2c.8 1.1 3.04 2.77 5.15 3.74M136.442 193.64c1.07-3.39 2.18-6.18 3.36-7.65 4.1-5.12 13.79-4.65 13.79-4.65s.12-.02.86.26c.63.25 1.71.72 3.55 1.63 1.7.84 4.03 2.05 7.26 3.79 3.31 1.79 8.04 3.22 13.3 4.31 5.49 1.14 11.57 1.9 17.25 2.31h16.74c3.12-.37 5.41-1.25 7.09-2.31 4.02-2.53 4.57-6.06 4.57-6.06-2.05-.09-5.65-.98-10.8-4.87-8.36-6.31-17.02-11.59-21.04-12.14 0 0-24.45-5.97-35.59-3.81-.86.17-1.65.39-2.34.66-1.19.47-2.33 1.05-3.43 1.75-6.92 4.34-12.49 13.04-20.5 26.8"/><path stroke="#CAD6F8" stroke-linecap="round" stroke-linejoin="round" stroke-miterlimit="10" d="M231.388 193.64h-44.51c-1.98.2-4 .6-5.63 1.34-4.56 2.08-22.98 5.16-26.81 5.8-.46.07-.7.1-.7.1-.45 1.12-.95 2.55-1.5 4.14M133.352 205.03c.1-.36.18-.72.28-1.1.9-3.54 1.83-7.17 2.81-10.3M128.48 200.19c-.63-.87-.91-1.51-.91-1.51.76-1.31 1.5-2.58 2.21-3.83.25-.4.48-.81.71-1.21v-.01"/><path stroke="#30334E" stroke-linecap="round" stroke-linejoin="round" stroke-miterlimit="10" stroke-width=".8" d="M248.84 155.06c.05.37.42 4.36.42 4.36M250.41 154.8s0 4.51.79 7.42M251.711 154.61s.24 5.89.67 6.92"/><path stroke="#30334E" stroke-linecap="round" stroke-linejoin="round" stroke-miterlimit="10" d="M213.751 118.33s-10.83.83-13.93 2.82c-3.1 2-5.46 5.78-8.3 10.99-2.84 5.21-5.04 8.31-4.94 8.15.1-.16 7.51 1.15 10.12 9.55"/><path stroke="#30334E" stroke-linecap="round" stroke-linejoin="round" stroke-miterlimit="10" stroke-width=".8" d="M209.832 98.29c-.53 2.38-1.37 5.38-2.49 7-1.92 2.79-4.26 8.59 3.25 10.72 7.51 2.12 9.43-1.74 11.56-4.96 2.13-3.22-2.79.22-3.97-.1-1.18-.32-1.83-2.25-5.37-2.13-3.54.12-5.36-1.06-5.9-2.67M210.09 97.05c.22-1.12.36-1.96.39-2.2"/><path stroke="#30334E" stroke-linecap="round" stroke-linejoin="round" stroke-miterlimit="10" stroke-width=".8" d="M212.791 98.08c.19-1-2.9-1.17-3.54-.95-.64.22.01 1.05 1.18 1.39.65.19 2.22.31 2.36-.44ZM215.64 98.95c.56-.82 2.52.49 3.39 1.85.87 1.36-.39 1.19-1.09.62-.71-.57-2.79-1.74-2.3-2.47ZM215.569 102.25c-.13.23-.19.35-.26.76M210.601 100.62s-.27.44-.22.96M211.27 107.78c-.73-.23-2.7-1.22-.76-2.13 1.43-.67 1.86-3.76 1.94-5.38M214.529 110.89s-1.19 1.11-3.47 1.17"/><path stroke="#30334E" stroke-linecap="round" stroke-linejoin="round" stroke-miterlimit="10" stroke-width=".8" d="M223.492 108.54s1.57.76 3.12-1.62c1.45-2.22-1.11-3.41-1.94-2.57-.78.79-2.36-1.71-3.23-4.28-.86-2.57-6.23-3.63-9.02-4.48-2.79-.85-5.48-3.52-3.45-7.07 2.03-3.55 7.18.09 10.72-.03 3.54-.12 9.33.08 10.2 4.8.87 4.72 2.38 9.22-2.21 13.63-4.6 4.41-3.15 10.44-3.11 10.52.04.08 1.09 1.19.72 2.06-.36.84-1.86 2.22-2.73 3.11-1.21 1.24-3.27 1.3-5.88.88-.92-.15-2.07-1.21-2.35-2.06 0 0-.31-4.09-1.1-4.82"/><path fill="#fff" stroke="#30334E" stroke-miterlimit="10" stroke-width=".8" d="M102.868 139.35h-61.3l-5.36-26.08c-.49-2.37 1.06-4.66 3.15-4.66h54.65c1.49 0 2.8 1.2 3.14 2.9l5.72 27.84Z"/><path fill="#CAD6F8" stroke="#30334E" stroke-linecap="round" stroke-linejoin="round" stroke-miterlimit="10" stroke-width=".8" d="M100.49 147.76H45.85c-1.5 0-2.8-1.2-3.15-2.9l-1.13-5.51h61.3l.77 3.75c.49 2.37-1.05 4.66-3.15 4.66Z"/><path fill="#799AFF" stroke="#30334E" stroke-linecap="round" stroke-linejoin="round" stroke-miterlimit="10" stroke-width=".8" d="M61.121 157.34h17.51l1.91-9.58h-17.51l-1.91 9.58Z"/><path fill="#30334E" d="M75.891 143.75c0 1.13-.83 1.97-1.86 1.97-1.03 0-2.01-.84-2.21-1.97-.22-1.25.59-2.37 1.82-2.37 1.25 0 2.25 1.12 2.25 2.37Z"/><path fill="#fff" stroke="#30334E" stroke-linecap="round" stroke-linejoin="round" stroke-miterlimit="10" stroke-width=".8" d="M57.179 158.78a.758.758 0 0 1-.05-.3c0-.36.18-.69.47-.92.29-.23.69-.38 1.13-.38h22.5c.88 0 1.59.59 1.59 1.3 0 .12 0 .18-.04.29l-25.6.01Z"/><path fill="#30334E" d="M91.422 123.89c-.12-.92-.36-1.79-.78-2.62-1.12-2.24-2.89-3.72-5.29-4.41-.61-.18-1.22-.27-1.85-.31-.04 0-.07-.01-.1-.01h-.76l-.34.03c-1.69.14-3.19.73-4.51 1.79a8.61 8.61 0 0 0-2.14 2.51c-.07.15-.15.29-.23.45-.01-.12-.01-.23-.03-.33-.09-.79-.4-1.5-.85-2.14a4.977 4.977 0 0 0-2.06-1.71c-.49-.22-1-.33-1.54-.33h-7.68v16.64h.05c2.4.01 4.8.01 7.2 0 1.2 0 2.26-.43 3.16-1.21.79-.67 1.34-1.5 1.61-2.51.08-.3.13-.6.13-.93.03.04.04.05.05.07.88 1.66 2.13 2.95 3.81 3.8.77.4 1.59.64 2.44.77.81.12 1.6.14 2.4.03a8.25 8.25 0 0 0 4.01-1.66c1.57-1.21 2.6-2.77 3.11-4.69.17-.63.26-1.27.25-1.93-.01-.43 0-.87-.06-1.3Zm-20.86 5.4c-.21.19-.45.29-.73.29h-2.27v-2.81h.09c.72 0 1.42 0 2.13-.01.52 0 .86.27 1.08.71.32.61.18 1.38-.3 1.82Zm.04-6.28c-.21.21-.46.32-.76.32-.73.01-1.48 0-2.21 0h-.06v-2.81h.1c.69 0 1.38.01 2.07 0 .57-.01.94.27 1.18.76.25.59.12 1.3-.32 1.73Zm2.35 1.98c.32-.07.61-.22.88-.4.28-.17.53-.37.74-.6-.02.36-.04.73-.05 1.11-.01.37.01.75.08 1.13-.44-.55-.96-1.01-1.65-1.24Zm10.08 4.25c-2.34 0-4.23-1.89-4.23-4.22a4.22 4.22 0 0 1 4.23-4.24c2.34-.01 4.23 1.89 4.24 4.23.01 2.32-1.89 4.23-4.24 4.23ZM50.191 125.49v-8.69h4.66v6.19h2.93v-6.19H62.191c.11 0 .11 0 .11.11v16.53h-4.53v-6.45h-2.93v6.45h-4.64v-.11c0-2.57 0-5.14-.01-7.7v-.14Z"/><path fill="#30334E" d="M86.37 125a3.329 3.329 0 1 1-3.32-3.33c1.83 0 3.32 1.49 3.32 3.33Z"/><path fill="#CAD6F8" stroke="#30334E" stroke-linecap="round" stroke-linejoin="round" stroke-miterlimit="10" stroke-width=".8" d="M188.502 100.13h-94.24V46.75h97.24v53.38h-3Z"/><path fill="#fff" stroke="#30334E" stroke-linecap="round" stroke-linejoin="round" stroke-miterlimit="10" stroke-width=".8" d="M186.859 95.13h-90.41V49.15h92.87v45.98h-2.46Z"/><path fill="#30334E" d="M142.878 98.72c1.37 0 2.48-.46 2.48-1.03 0-.57-1.11-1.03-2.48-1.03-1.37 0-2.48.46-2.48 1.03 0 .57 1.11 1.03 2.48 1.03Z"/><path fill="#E84E58" stroke="#30334E" stroke-miterlimit="10" stroke-width=".5" d="M111.27 81.5c0-.11.01-.21.01-.32V64.41h.34c.65 0 1.3.01 1.96 0 .18 0 .26.05.32.22.72 2.03 1.45 4.06 2.17 6.09.37 1.02.73 2.04 1.1 3.07.03.07.06.14.14.2v-9.55h2.62v15.98c-.95.11-1.9.22-2.87.34-1-2.96-2-5.89-3-8.83-.02 0-.04.01-.05.01v9.19c-.49.06-.95.12-1.41.19-.39.06-.77.13-1.16.2-.07-.02-.12-.02-.17-.02ZM174.312 81.5c-.45-.08-.9-.17-1.35-.25-.44-.08-.88-.15-1.32-.21-.16-.02-.22-.11-.27-.24l-1.71-4.44c-.03-.08-.07-.16-.12-.3-.14.33-.26.6-.38.88-.5 1.16-1 2.31-1.49 3.47-.06.14-.12.19-.29.17-.76-.1-1.52-.18-2.28-.26-.11-.01-.21-.03-.34-.05.04-.1.07-.19.11-.28 1.06-2.43 2.12-4.85 3.19-7.28.08-.19.09-.34.01-.53-.97-2.48-1.93-4.97-2.89-7.45-.04-.09-.06-.18-.1-.29h2.85c.57 1.47 1.15 2.94 1.74 4.48.06-.14.1-.22.14-.31.55-1.32 1.1-2.64 1.64-3.97.06-.16.14-.23.32-.22.87.01 1.75.01 2.66.01-.04.1-.06.18-.1.26-1.05 2.54-2.1 5.08-3.16 7.61-.08.19-.08.35 0 .54 1.06 2.79 2.11 5.58 3.16 8.38.04.1.06.2.09.31-.04-.03-.08-.03-.11-.03ZM122.578 64.42h7.33v2.63h-4.68v3.6h3.51v2.65h-3.52v4.01c1.55-.1 3.1-.19 4.67-.29.01.09.03.14.03.2 0 .72 0 1.43.01 2.15 0 .18-.07.22-.23.23l-4.59.36-2.17.18c-.11.01-.23.01-.36.02V64.42ZM144.19 73.13v6.07h-2.6V64.42h7.42v2.64h-4.8v3.42h3.6v2.65h-3.62ZM134.441 67.06h-2.75v-2.64h8.14v2.64h-2.75v12.28h-2.64V67.06ZM153.351 76.86l4.51.24v2.61l-7.15-.36V64.41h2.64v12.45ZM160.18 64.42h2.57V80.1l-2.57-.18v-15.5Z"/><path stroke="#CAD6F8" stroke-linecap="round" stroke-linejoin="round" stroke-miterlimit="10" stroke-width=".75" d="m118.34 154.19 5.22-10.24M99.77 143.95l5.22 10.24"/><path fill="#30334E" d="M101.391 148.03c-.13 0 .01-.01-.05-.14l-1.81-3.69a.35.35 0 0 1 .17-.48c.18-.09.4-.01.49.16l1.87 3.68c.09.18.18.07.01.17-.05.03-.62.3-.68.3Z"/><path fill="#CAD6F8" stroke="#30334E" stroke-linecap="round" stroke-linejoin="round" stroke-miterlimit="10" d="M135.6 159.09H34.5v3h101.1v-3Z"/><path stroke="#CAD6F8" stroke-linecap="round" stroke-linejoin="round" stroke-miterlimit="10" d="M41.809 174.71h79.25M129.461 162.1v4.45"/><path fill="#fff" stroke="#30334E" stroke-linecap="round" stroke-linejoin="round" stroke-miterlimit="10" stroke-width=".75" d="M75.292 91.61c0 3-1.71 5.6-4.21 6.89l-1.31 2.26-2.08 3.61-2.08-3.61-1.21-2.1a7.732 7.732 0 0 1-4.55-7.05c0-4.27 3.46-7.73 7.72-7.73s7.72 3.46 7.72 7.73Z"/><path fill="#20DF9E" d="M67.68 95.95a5.78 5.78 0 0 1-3.07-5.09v-1.22l3.07-1.44 3.07 1.44v1.22c0 2.13-1.18 4.09-3.07 5.09Z"/><path fill="#fff" stroke="#30334E" stroke-linecap="round" stroke-linejoin="round" stroke-miterlimit="10" stroke-width=".75" d="M118.669 135.11c0 2.31-1.32 4.31-3.24 5.3l-1.01 1.74-1.6 2.78-1.6-2.78-.93-1.61a5.935 5.935 0 0 1-3.5-5.42 5.94 5.94 0 0 1 5.94-5.94c3.28-.02 5.94 2.64 5.94 5.93Z"/><path fill="#20DF9E" d="M112.821 138.47a4.444 4.444 0 0 1-2.36-3.92v-.94l2.36-1.11 2.36 1.11v.94c0 1.65-.9 3.16-2.36 3.92Z"/><path fill="#fff" stroke="#30334E" stroke-linecap="round" stroke-linejoin="round" stroke-miterlimit="10" stroke-width=".75" d="M149.891 32.38c0 2.72-1.55 5.08-3.82 6.25l-1.19 2.05-1.89 3.27-1.89-3.27-1.1-1.9a7.006 7.006 0 0 1-4.13-6.39c0-3.87 3.13-7.01 7-7.01 3.88 0 7.02 3.13 7.02 7Z"/><path fill="#20DF9E" d="M142.991 36.23a5.229 5.229 0 0 1-2.78-4.62v-1.1l2.78-1.31 2.78 1.31v1.11c0 1.93-1.07 3.71-2.78 4.61Z"/><path fill="#fff" stroke="#30334E" stroke-linecap="round" stroke-linejoin="round" stroke-miterlimit="10" stroke-width=".75" d="M122.18 159.07h-21.91v-2.12c0-1.36 1.1-2.47 2.47-2.47h16.97c1.36 0 2.47 1.1 2.47 2.47v2.12Z"/><path stroke="#30334E" stroke-linecap="round" stroke-linejoin="round" stroke-miterlimit="10" stroke-width=".5" d="M103.042 157.36c.24 0 .44-.2.44-.44s-.2-.44-.44-.44-.44.2-.44.44c0 .25.2.44.44.44ZM105.081 157.36c.24 0 .44-.2.44-.44s-.2-.44-.44-.44-.44.2-.44.44c0 .25.2.44.44.44ZM107.112 157.36c.24 0 .44-.2.44-.44s-.2-.44-.44-.44-.44.2-.44.44c0 .25.2.44.44.44Z"/><path fill="#30334E" d="M119.06 156.93c0 .24-.2.44-.44.44h-4.93c-.24 0-.44-.2-.44-.44s.19-.44.44-.44h4.93c.24 0 .44.19.44.44Z"/></g></g><defs><clipPath id="a"><path fill="#fff" d="M33 25h245v180H33z"/></clipPath></defs></svg>