<svg xmlns="http://www.w3.org/2000/svg" width="311" height="230" fill="none"><path fill="#2E55C6" stroke="#30334E" stroke-miterlimit="10" d="M155.906 209c48.549 0 87.906-39.399 87.906-88s-39.357-88-87.906-88C107.357 33 68 72.399 68 121s39.357 88 87.906 88Z"/><path fill="#3FC99A" stroke="#30334E" stroke-miterlimit="10" d="M74.427 94.725a6.815 6.815 0 0 1-.67-1c-.37-.681-.744-1.691-.387-2.666 4.824-13.244 12.055-23.138 18.08-29.724 3.014-3.294 5.727-5.763 7.69-7.411a57.755 57.755 0 0 1 2.324-1.86 34.986 34.986 0 0 1 .788-.578l.012-.009.032-.023.013-.01c1.062-.805 2.748-1.11 4.415-1.197 1.694-.089 3.486.043 4.855.2 1.633.18 3.225.667 4.69 1.42.322.165.619.314.899.446 1.849.873 3.952.971 5.95.41 1.214-.342 2.127-.311 2.757-.177.314.067.553.158.719.238.08.038.143.073.19.101 3.802 1.012 6.449.72 7.843.392h.001l.115.487c1.11-.265 2.303.083 3.036.952l-63.352 40.01Zm0 0c-.495 2.174-.154 3.675.372 4.66.27.504.582.859.831 1.09a3.15 3.15 0 0 0 .416.326l.031.02.008.004m-1.657-6.1 1.66 6.102m0 0 .004.002.002.001v.001l.246-.436-.255.43m.003.002-.003-.002m.003.002-.003-.002m39.366 85.74-.494.076v-.002l-.001-.005-.003-.018-.009-.064c-.007-.057-.018-.139-.03-.247-.024-.215-.056-.53-.085-.939a36.352 36.352 0 0 1-.064-3.506c.08-2.999.509-7.241 1.904-12.231l.003-.01-1.221 16.946Zm0 0-.494.076.006.037.011.035v.001l.001.004.005.015.019.062.071.243a56.843 56.843 0 0 1 1.002 4.041c.527 2.524.99 5.66.784 8.217l-.027.335.3.151.226-.446-.226.447h.001l.003.002.013.006.049.025.189.093c.165.082.407.2.717.348.619.295 1.508.709 2.589 1.185 2.163.95 5.101 2.148 8.198 3.135l.205.065.189-.104-.242-.438.242.437h.001l.002-.001.005-.003.01-.006.029-.018a1.893 1.893 0 0 0 .325-.275c.184-.195.396-.492.547-.918.305-.858.341-2.166-.432-4.111l-.001-.001c-.38-.952-.305-2.016.182-2.946m-14.499-9.693 14.499 9.693m0 0c.369-.695.628-1.639.571-2.865v-.001a.858.858 0 0 1 .628-.857h.001l-.139-.48m-1.061 4.203 9.336-9.905m-8.275 5.702c2.002-.56 6.141-2.14 7.818-5.906m-7.818 5.906a1.356 1.356 0 0 0-.989 1.361l.989-1.361Zm7.818-5.906.457.204m-.457-.204.457.204m-.457-.204c.695-1.557 1.586-3.017 2.817-4.196a39.464 39.464 0 0 1 2.183-1.936m-4.543 6.336c.678-1.521 1.537-2.919 2.706-4.039l.001-.001c.579-.558 1.295-1.2 2.155-1.911m-.319-.385.318.386.001-.001m-.319-.385a14.75 14.75 0 0 1 1.881-1.316l-1.562 1.701m-.319-.385.319.385M99.32 112.566l.002.001-.118.486.115-.487Zm0 0c-.844-.204-2.173-.735-2.793-2.079-.616-1.337-.621-3.68 1.677-7.736l.017-.031 1.099 9.846Zm-1.086-9.878Zm0 0Zm-20.83-7.835-.452-.212.39.312.055-.065a.688.688 0 0 1 .01-.04l.004-.01-.002.005-.002.005-.001.003-.001.001v.001Zm.8.437.007.042.007.02.003.01.476-.154-.494.082Zm16.185 21.702.487-.113-.49.095.002.017.001.003v-.002Zm13.299 18.771h-.001l.332.375-.331-.375Zm-.387 15.815-.398.303.001.001.397-.304Zm8.082 11.284h.001l.188-.463-.189.463Zm-7.674-9.145.001.001v.002l.49-.1-.491.097Zm1.837-24.353v.001l.437-.244-.437.243Zm-9.246-7.968.001.001v.001l.489-.103-.49.101Zm-18-15.602-.402.298.402-.298Zm1.027 5.505-.405.293.405-.293Z"/><path fill="#3FC99A" stroke="#30334E" stroke-linejoin="bevel" stroke-miterlimit="10" d="M185.282 144.377c7.895 2.253 10.519 5.766 11.345 8.316.491 1.508.303 3.154-.379 4.634-.741 1.592-.881 3.012-.833 4.041.024.514.096.93.162 1.221.034.146.066.261.091.342l.03.095.01.027.003.009.001.003.001.001v.001l.468-.177m-10.899-18.513 35.221 10.823c-.37-3.319.755-6.669 3.187-8.945.055-.054.112-.105.171-.158a5.714 5.714 0 0 0 1.506-6.708c-.733-1.618-2.032-3.644-4.237-6.132 0 0-3.029-3.947-3.815-6.737m-32.033 17.857h-.002l-.01-.003-.043-.012-.162-.048a19.861 19.861 0 0 1-.596-.188 29.914 29.914 0 0 1-2.059-.774c-1.666-.696-3.826-1.772-5.764-3.284-1.936-1.511-3.683-3.483-4.465-5.979-.787-2.512-.574-5.485 1.284-8.938.144-.275.278-.529.389-.787.378-.888 1.498-3.26 3.48-5.427 1.985-2.17 4.872-4.171 8.766-4.207h.002a5.978 5.978 0 0 0 3.255-.975v-.001c.916-.603 2.181-1.259 3.453-1.313.648-.028 1.309.101 1.918.48.607.379 1.124.985 1.528 1.848v.001c.785 1.682 2.345 2.872 4.168 3.142h.001c1.06.16 2.404.22 4.126.094h.001a26.928 26.928 0 0 1 5.164.123m-24.434 26.248 24.374-25.751m-13.475 44.264-.468.177.007.016.461-.193Zm0 0-.461.193v.001l.001.003.005.012.021.049.078.19a135.093 135.093 0 0 1 1.213 3.059c.713 1.87 1.521 4.125 1.929 5.735.479 1.896 1.586 3.623 3.214 4.75l.001.001c1.531 1.051 3.658 1.704 6.315.69 2.261-.862 4.017-2.667 4.971-4.857l2.16-4.929.001-.002c.404-.931.777-1.868 1.147-2.806v-.001c.291-.741.831-1.834 1.712-2.661l.001-.001c1.769-1.666 2.774-4.01 2.58-6.457-.015-.236-.039-.47-.07-.717-.353-3.174.725-6.363 3.033-8.522l.012-.012c.045-.045.084-.079.134-.123l.112-.101c2.025-1.8 2.658-4.733 1.533-7.201-.758-1.673-2.085-3.736-4.307-6.244l-.022-.029-.095-.127a37.854 37.854 0 0 1-1.461-2.118c-.853-1.331-1.77-2.962-2.141-4.281l-.482.136m0 0c-.264-.946.922-1.603 1.609-.9.854.869 2.138 2.397 4.079 5.066m-5.688-4.166.482-.135a.413.413 0 0 1 .209-.497.45.45 0 0 1 .561.081v.001c.829.844 2.096 2.349 4.031 5.01m.405-.294-.405.294m.405-.294c.702.968 1.548 1.83 2.545 2.495l-2.545-2.495Zm-.405.294c.731 1.007 1.619 1.914 2.673 2.617v.001c.68.452 1.504.881 2.362 1.03.877.151 1.802.008 2.599-.703l.001-.001a7.191 7.191 0 0 1 2.083-1.301h.001c.977-.4 2.253-1.02 3.269-1.852m-12.988.209 12.988-.209m0 0c1.84-1.504 1.581-4.416-.443-5.632l.443 5.632Zm-25.87-12.642-.06.497m.06-.497-.06.497m.06-.497c1.638.196 3.655.269 5.01-.25m-5.07.747c1.639.196 3.769.287 5.25-.28m-.18-.467h-.001l.181.467m-.18-.467c.624-.241.867-.814.776-1.384-.093-.573-.514-1.072-1.196-1.137-1.6-.155-3.834-.622-5.598-1.993m6.018 4.514h.001l.179.467m0 0-6.198-4.981m0 0 .306-.395m-.306.395 5.646 1.495c-1.563-.151-3.686-.605-5.34-1.89m-.306.395c-.875-.676-1.877-1.166-2.949-1.507m2.949 1.507-.001-.001.307-.394m0 0c-.929-.719-1.986-1.233-3.104-1.588m-22.804-4.651a11.453 11.453 0 0 1 1.745-.65s2.379.008 1.994-2.049c-.151-.809-.151-1.641.113-2.427.537-1.596 1.949-3.97 5.643-5.596 1.163-.506 2.462-.658 3.693-.34.476.121.959.318 1.382.612.643.447 1.481.303 1.866-.378.393-.703.967-1.429 1.753-1.8m-18.189 12.628 20.069-15.485c-.06 1.225-.778 2.336-1.88 2.858m-18.189 12.627c-3.391 1.634-1.178 6.919 2.326 5.543m-2.326-5.543 2.326 5.543m15.863-18.17-.214-.452m.214.452-.214-.452m0 0c.929-.44 1.543-1.383 1.595-2.431.059-1.19-.022-2.483-.448-3.43v-.001c-.273-.611-.841-.898-1.434-.875a1.662 1.662 0 0 0-1.467.994c-.318.72-.867 1.522-1.804 1.984-.946.465-2.198.54-3.831-.02-2.906-1-3.648-4.733-1.304-6.742.51-.439 1.13-.877 1.879-1.333l.022-.013h.001l.001-.001.019-.011a4.972 4.972 0 0 0 .443-.31 8.833 8.833 0 0 0 1.239-1.191c.989-1.137 2.215-3.019 3.101-5.972h.001c.506-1.674 1.553-3.18 3.024-4.172.974-.656 2.218-1.154 3.649-.983 1.434.171 2.963 1.004 4.525 2.826.486.564 1.047 1.07 1.658 1.529l.002.001c.598.454 1.364 1.141 1.825 1.995.476.88.633 1.96-.054 3.08-.437.715-.522 1.59-.19 2.323.19.416.411.612.651.648.264.04.774-.074 1.627-.837a8.005 8.005 0 0 0 1.704-2.22l.001-.002c.793-1.48 2.457-4.487 4.303-6.602.914-1.047 1.932-1.947 2.966-2.282.533-.172 1.087-.2 1.628-.003.538.196 1.009.595 1.412 1.179 9.466 13.677 13.364 27.564 14.897 38.029.766 5.233.942 9.613.926 12.688a60.438 60.438 0 0 1-.117 3.578 35.903 35.903 0 0 1-.097 1.195l-.006.062-.001.008m-42.346-32.688 34.061 31.486a4.569 4.569 0 0 1-.699-.496 1.267 1.267 0 0 1-.063-.061l.027-.007c.269-.075.741-.129 1.506-.125l.029.004a25.73 25.73 0 0 1 .834.135c.548.097 1.291.242 2.07.435.782.193 1.588.431 2.27.712.701.289 1.192.592 1.423.879l.065-.052a.859.859 0 0 0 .325.238l.35-.731a.885.885 0 0 1 .149.255l-.001.016m-42.346-32.688c-.921.434-1.56 1.264-1.975 2.006-.224.395-.716.51-1.144.213a4.75 4.75 0 0 0-1.544-.686c-1.352-.349-2.765-.18-4.017.366h-.002c-3.832 1.688-5.337 4.177-5.915 5.894-.298.889-.293 1.811-.131 2.679h.001c.078.418.008.676-.09.843-.102.175-.27.308-.483.408-.214.1-.448.153-.636.18a2.39 2.39 0 0 1-.28.026h-.013l-.14.02c-.703.203-1.303.432-1.821.679l-.002.001c-1.988.958-2.313 3.003-1.667 4.544.323.77.898 1.451 1.666 1.839.778.394 1.722.47 2.727.075l-.183-.465m15.649-18.622-.623 17.297m42.969 15.391v.005-.005Zm-57.995-14.066c1.949-.764 3.611-2.82 4.676-4.431 1.209-1.83 3.867-1.906 5.159-.136.687.937 1.239 1.996 1.601 2.767m0 0-.453.212.001.001.452-.213Zm0 0c.605 1.293 2.417 1.429 3.165.212m0 0 .424.265.001-.002m-.425-.263c.302-.484.484-1.081.597-1.633.128-.635.921-.847 1.359-.378 1.534 1.656 2.909 2.389 3.921 2.707m-5.877-.696.426.262-.001.001m0 0 5.301.909m0 0 .001.001.15-.477m-.151.476h-.001l.152-.476m28.362 13.062v.003-.003Zm-.041.196a.052.052 0 0 1-.012.009c-.001 0 .003-.004.012-.009Z"/><path stroke="#fff" stroke-dasharray="2 2" d="M112.999 151S111.5 112 154 97.5c44.252-15.098 69.499 18 69.499 18M210.5 149s-8.5 27.5-33.5 34.5c-24.781 6.939-49.5-7-49.5-7"/><path stroke="#fff" stroke-dasharray="2 2" d="M126.501 175s-8.288-16.942-3.5-26c4.414-8.351 21-12 21-12M143.5 139s11.042-24.375 33.5-23c24.5 1.5 33.5 31.5 33.5 31.5M212 145s15 3.5 19-7c6.286-16.5-6.5-22-6.5-22M225 112.5s10-18.143-1.5-28c-11.009-9.436-28.5-1-28.5-1M106.5 66.5s25.5-31 57-22c24.781 7.08 31 38.5 31 38.5M88 100.5s-13.233 11.219-4 31c7 15 29.502 17.5 29.502 17.5"/><path stroke="#fff" stroke-dasharray="2 2" d="M105 64.5s49.5-2.5 60 44.5c12.163 54.443-37.5 65.5-37.5 65.5"/><path fill="#fff" stroke="#30334E" stroke-miterlimit="10" d="M113.191 53.096c-.248-1.154-.688-2.225-1.397-3.177-1.297-1.742-3.044-2.658-5.188-2.85a7.534 7.534 0 0 0-1.869.08c-.847.14-1.65.411-2.396.84-1.426.826-2.42 2.027-3.062 3.538-.389.93-.594 1.904-.691 2.91a8.902 8.902 0 0 0 .306 3.25c.306 1.106.727 2.163 1.203 3.201.717 1.555 1.549 3.048 2.439 4.508a66.453 66.453 0 0 0 2.597 3.952c.277.39.558.776.85 1.183.04-.047.065-.08.087-.112a68.22 68.22 0 0 0 2.881-4.226c1.095-1.745 2.119-3.527 2.976-5.406.49-1.07.918-2.163 1.21-3.306.17-.668.288-1.342.288-2.038a10.383 10.383 0 0 0-.234-2.347Zm-7.201 4.933a3.63 3.63 0 0 1-3.627-3.632 3.63 3.63 0 0 1 3.627-3.631 3.63 3.63 0 0 1 3.628 3.631 3.628 3.628 0 0 1-3.628 3.632Z"/><path fill="#3FC99A" stroke="#30334E" stroke-linejoin="bevel" stroke-miterlimit="10" d="M224.028 110.766a2.655 2.655 0 0 0 2.653-2.656 2.654 2.654 0 1 0-5.306 0 2.655 2.655 0 0 0 2.653 2.656Z"/><path fill="#fff" stroke="#30334E" stroke-miterlimit="10" d="M228.277 107.334c-.146-.678-.405-1.307-.822-1.867-.762-1.024-1.789-1.562-3.049-1.674a4.433 4.433 0 0 0-1.098.046c-.498.083-.97.242-1.408.494-.839.485-1.423 1.191-1.8 2.079a5.866 5.866 0 0 0-.407 1.711c-.059.65.005 1.284.18 1.909.18.651.428 1.272.708 1.882.421.914.91 1.791 1.433 2.65a39.69 39.69 0 0 0 1.526 2.323l.5.695a40.112 40.112 0 0 0 1.745-2.55c.643-1.026 1.245-2.073 1.749-3.177a11.59 11.59 0 0 0 .711-1.943c.099-.393.169-.789.169-1.198a6.144 6.144 0 0 0-.137-1.38Zm-4.233 2.9a2.134 2.134 0 0 1 0-4.269c1.178 0 2.132.956 2.132 2.134a2.131 2.131 0 0 1-2.132 2.135ZM117.058 141.649c-.146-.679-.404-1.308-.821-1.868-.763-1.023-1.79-1.562-3.049-1.674a4.391 4.391 0 0 0-1.099.047 4.13 4.13 0 0 0-1.408.494c-.839.485-1.423 1.191-1.8 2.079a5.865 5.865 0 0 0-.406 1.71c-.06.651.004 1.285.18 1.91.18.651.427 1.272.707 1.882.421.913.91 1.791 1.433 2.649.481.793.991 1.567 1.527 2.323.163.229.328.456.499.695a40.415 40.415 0 0 0 1.745-2.549c.644-1.026 1.245-2.073 1.749-3.177.288-.63.54-1.272.711-1.944.1-.392.17-.788.17-1.197a6.133 6.133 0 0 0-.138-1.38Zm-4.232 2.899a2.133 2.133 0 0 1-2.132-2.134 2.132 2.132 0 1 1 4.264 0 2.132 2.132 0 0 1-2.132 2.134Z"/><path stroke="#fff" stroke-dasharray="2 2" d="M112.5 149.5s-13.5 15-6.002 24.5c7.103 9 21.502 2.5 21.502 2.5"/><path fill="#ECEEF9" stroke="#30334E" stroke-miterlimit="10" d="M147.422 132.554c-.136-.62-.37-1.195-.748-1.701-.695-.93-1.631-1.422-2.779-1.528a3.727 3.727 0 0 0-1.005.046 3.719 3.719 0 0 0-1.284.453c-.763.439-1.299 1.082-1.639 1.898-.212.499-.317 1.021-.37 1.558a4.81 4.81 0 0 0 .166 1.739c.166.59.393 1.157.642 1.716.385.832.831 1.634 1.307 2.412.438.726.906 1.43 1.39 2.118.151.211.302.416.453.635a.257.257 0 0 0 .045-.061 32.857 32.857 0 0 0 1.541-2.268c.589-.938 1.133-1.89 1.594-2.896.264-.575.491-1.157.649-1.769.091-.356.151-.719.151-1.089a4.987 4.987 0 0 0-.113-1.263Zm-3.852 2.646a1.94 1.94 0 0 1-1.941-1.943 1.94 1.94 0 1 1 3.882 0 1.947 1.947 0 0 1-1.941 1.943Z"/><path fill="#2E55C6" stroke="#30334E" stroke-miterlimit="10" d="M141.629 133.257c0 1.074.869 1.944 1.941 1.944a1.946 1.946 0 0 0 1.941-1.944 1.941 1.941 0 1 0-3.882 0Z"/><path fill="#fff" stroke="#30334E" stroke-miterlimit="10" d="M91.43 96.585a3.182 3.182 0 0 0-.535-1.225c-.499-.673-1.171-1.02-1.995-1.096a2.841 2.841 0 0 0-.717.03 2.686 2.686 0 0 0-.922.325c-.551.318-.929.779-1.178 1.361a3.782 3.782 0 0 0-.264 1.12c-.038.423 0 .838.12 1.247.121.423.28.832.461 1.232.28.598.597 1.172.937 1.732.317.522.65 1.028.997 1.52.106.151.212.295.325.453a.156.156 0 0 0 .03-.045 25.66 25.66 0 0 0 1.11-1.626 18.63 18.63 0 0 0 1.148-2.08 7.78 7.78 0 0 0 .469-1.27c.068-.257.113-.514.113-.786a4.547 4.547 0 0 0-.098-.892Zm-2.771 1.898a1.4 1.4 0 0 1 0-2.798 1.4 1.4 0 0 1 0 2.798ZM132.734 167.102c-.174-.801-.476-1.55-.974-2.215-.899-1.21-2.123-1.853-3.611-1.981a5.405 5.405 0 0 0-1.307.053 5.036 5.036 0 0 0-1.669.582c-.997.574-1.684 1.414-2.13 2.465a6.93 6.93 0 0 0-.483 2.026c-.068.772.007 1.52.211 2.261.211.771.506 1.505.838 2.231a30.813 30.813 0 0 0 1.7 3.138 46.442 46.442 0 0 0 1.813 2.752c.189.272.393.537.589.824.023-.03.045-.053.06-.075a46.103 46.103 0 0 0 2.01-2.942c.762-1.217 1.472-2.457 2.069-3.765.34-.749.642-1.505.846-2.306a5.62 5.62 0 0 0 .204-1.422c0-.544-.053-1.089-.166-1.626Zm-5.016 3.433a2.532 2.532 0 0 1-2.53-2.533 2.525 2.525 0 0 1 2.53-2.525 2.53 2.53 0 1 1 0 5.058Z"/><path fill="#3FC99A" stroke="#30334E" stroke-miterlimit="10" d="M127.718 170.535a2.532 2.532 0 0 1-2.53-2.533 2.525 2.525 0 0 1 2.53-2.525 2.53 2.53 0 1 1 0 5.058Z"/><path fill="#fff" stroke="#30334E" stroke-miterlimit="10" d="M216.227 138.437c-.197-.899-.536-1.731-1.088-2.472-1.004-1.354-2.364-2.064-4.033-2.216a5.878 5.878 0 0 0-1.458.061 5.39 5.39 0 0 0-1.858.65c-1.111.643-1.881 1.573-2.38 2.752-.302.726-.46 1.483-.536 2.261a6.952 6.952 0 0 0 .234 2.526c.242.862.567 1.679.937 2.488a35.014 35.014 0 0 0 1.896 3.508 51.852 51.852 0 0 0 2.017 3.07c.211.302.438.605.657.915.03-.038.053-.061.068-.091a51.339 51.339 0 0 0 2.243-3.289c.854-1.353 1.647-2.745 2.311-4.204.378-.832.718-1.679.944-2.571.129-.514.227-1.044.227-1.58a8.2 8.2 0 0 0-.181-1.808Zm-5.597 3.834a2.827 2.827 0 0 1-2.825-2.828 2.82 2.82 0 0 1 2.825-2.82 2.825 2.825 0 1 1 0 5.648ZM198.586 76.523c-.128-.597-.355-1.157-.725-1.648-.672-.907-1.579-1.384-2.696-1.482a3.828 3.828 0 0 0-.975.038 3.72 3.72 0 0 0-1.246.438c-.74.431-1.262 1.051-1.594 1.838-.204.484-.31.99-.362 1.512a4.697 4.697 0 0 0 .158 1.686c.159.575.378 1.127.627 1.664.37.809.808 1.58 1.269 2.344.423.703.876 1.383 1.352 2.049.144.204.287.4.438.612.023-.022.03-.037.046-.06a33.116 33.116 0 0 0 1.495-2.193c.567-.907 1.103-1.83 1.549-2.805.256-.56.475-1.127.626-1.717.091-.348.152-.695.152-1.058a5.535 5.535 0 0 0-.114-1.218Zm-3.746 2.564a1.89 1.89 0 0 1-1.889-1.89c0-1.044.846-1.883 1.889-1.883 1.042 0 1.888.846 1.888 1.882a1.89 1.89 0 0 1-1.888 1.89Z"/><path fill="#2E55C6" stroke="#30334E" stroke-miterlimit="10" d="M192.953 77.197a1.89 1.89 0 0 0 1.888 1.89 1.89 1.89 0 0 0 1.889-1.89 1.889 1.889 0 0 0-3.777 0Z"/><circle cx="215" cy="51" r="23.5" fill="#fff" stroke="#30334E"/><path stroke="url(#a)" stroke-linecap="round" stroke-width="2" d="M198.211 44.5c2.607-6.729 9.141-11.5 16.791-11.5 9.941 0 18 8.059 18 18 0 4.565-1.7 8.733-4.5 11.906"/><circle cx="215" cy="51" r="3.5" fill="#30334E" stroke="#30334E" stroke-linejoin="bevel" stroke-miterlimit="10"/><path fill="#30334E" d="m225.894 54.891-7.099-3.736a.3.3 0 0 0-.419.154l-.747 1.868a.3.3 0 0 0 .209.404l7.846 1.868c.343.081.522-.393.21-.558Z"/><defs><linearGradient id="a" x1="196" x2="230.5" y1="53.5" y2="61.5" gradientUnits="userSpaceOnUse"><stop stop-color="#E84E58"/><stop offset=".656" stop-color="#E6B815"/><stop offset="1" stop-color="#1FBD87"/></linearGradient></defs></svg>