<svg xmlns="http://www.w3.org/2000/svg" width="322" height="231" fill="none"><path fill="#fff" stroke="#30334E" stroke-linecap="round" stroke-linejoin="round" stroke-miterlimit="10" d="M92.045 112.891s-3.093 5.622-3.747 7.016c0 0-6.238.011-11.345-1.976 0 0-4.966-1.188-8.742-2.994 0 0 4.094-9.973 3.47-17.842 0 0 .029-4.587-2.05-9.62 0 0-3.287-9.663.518-18.913 0 0 1.732-10.18 12.294-9.668 0 0 4.754.165 8.76 1.264 4.01 1.106.27.065.27.065s1.155 1.111 12.058-.03c0 0 6.144-.329 7.116 4.67 0 0 2.198 6.457-4.565 9.468l-.742.335-.136 4.034s1.944.024 1.821 1.106c0 0-.601 1.029-1.897 1.211 0 0 .265 6.057.412 6.451 0 0 .636 5.552 1.561 7.122.925 1.57 1.744 5.563 1.414 9.321 0 0-.831 5.251-5.979 7.116 0 0-3.97 1.505-9.396 1.093.018 0-.577-.182-1.095.771Z"/><path stroke="#30334E" stroke-linecap="round" stroke-linejoin="round" stroke-miterlimit="10" d="M105.221 80.994c.048 4.41.419 10.05 1.785 13.331 2.368 5.663 4.348 16.813-9.778 17.766-14.114.953-16.07-6.61-18.656-13.114-2.58-6.504 4.86 1.435 7.075 1.311 2.215-.123 4.088-3.293 10.314-1.77 6.233 1.535 9.908.13 11.475-2.51M105.216 78.706c.024-2.076.1-3.61.136-4.034"/><path stroke="#30334E" stroke-linecap="round" stroke-linejoin="round" stroke-miterlimit="10" d="M100.048 79.53c.029-1.841 5.579-.995 6.639-.365 1.06.623-.407 1.864-2.622 2.023-1.231.082-4.046-.288-4.017-1.659ZM94.652 79.988c-.684-1.664-4.66-.07-6.716 2.011-2.056 2.082.242 2.258 1.709 1.512 1.478-.735 5.608-2.04 5.007-3.523ZM93.918 85.928c-.112.47-.17.694-.56 1.34M103.379 84.916s-.106.93-.754 1.612M99.1 97.266c1.379-.13 5.249-1.153 2.139-3.488-2.286-1.717-1.891-7.356-1.432-10.256M92.155 101.564s1.697 2.412 5.72 3.37"/><path stroke="#30334E" stroke-linecap="round" stroke-linejoin="round" stroke-miterlimit="10" d="M92.686 112.085h-.023c-.566.371-3.788 6.575-4.365 7.821 0 0-8.742.189-20.088-4.969.089-.117 6.044-14.143 2.204-25.058-3.835-10.897-2.157-16.948 1.16-24.958 1.308-3.193 3.746-4.816 6.562-5.527a.788.788 0 0 1 .3-.083l.737-.17c.436-.065.872-.13 1.337-.17h.047c3.758-.336 7.847.499 10.933 1.252 6.22 1.535 16.736-2.97 19.004 4.058 1.796 5.64-1.538 9.144-5.626 10.55a12.67 12.67 0 0 1-3.169.682c-5.26.464-15.174.323-17.666 4.557-2.492 4.234-6.233 8.08-7.34 6.393-1.16-1.806-6.138-.659-4.389 3.822 1.856 4.781 4.93 4.01 4.93 4.01"/><path stroke="#CAD6F8" stroke-miterlimit="10" d="M46.39 208.853S44.365 222.044 48.2 230"/><path fill="#fff" stroke="#30334E" stroke-linecap="round" stroke-linejoin="round" stroke-miterlimit="10" d="M133.566 187.006c.241.017 11.239 2.429 11.239 2.429l5.261 2.534 1.614 2.517-.171 6.281-.89-1.006s-1.849 3.211-2.026 3.046c-.177-.164-.259-2.334-.259-2.334l-1.773.782.194-2.741s-3.098-1.099-3.204-1.117c-.106-.018-3.105-.288-3.447-.294-.341-.006-4.783-.976-4.783-.976l-1.826-2.635-2.922-1.452 2.993-5.034Zm10.379 8.298 2.033-.106-1.143-2.982s-2.463.494-2.639.565c-.171.07-.642 1.117-.642 1.117l2.391 1.406Z"/><path stroke="#30334E" stroke-linecap="round" stroke-linejoin="round" stroke-miterlimit="10" stroke-width="1.5" d="M133.014 186.988s3.599.171 7.84 1.294 8.012 2.517 9.855 4.311c1.844 1.793.931 8.233.554 8.609-.43.429-.907-1.982-1.502-5.61-.601-3.629-6.156-4.234-7.44-3.235-1.284 1-1.208 2.017.642 2.758 1.408.559 2.886.412 3.587.7.707.288 1.326 1.188 1.179 1.7-.124.447-1.002.711-1.385.694-1.225-.059-3.122-1.03-4.312-1.106-1.502-.1-6.715.888-9.107-4.111l-2.35-.952 2.439-5.052Z"/><path stroke="#30334E" stroke-linecap="round" stroke-linejoin="round" stroke-miterlimit="10" d="M150.52 199.626s-.902 2.052-1.673 2.981c-.772.93-.766-1.252-.448-3.099.259-1.523.618-3.234-.177-4.228-1.814-2.264-3.723-3.34-3.723-3.34"/><path stroke="#30334E" stroke-linecap="round" stroke-linejoin="round" stroke-miterlimit="10" d="M148.434 199.285s-.666 1.141-1.137 1.494c-.472.352-1.491 1.376-.772-1.253.242-.882.501-1.453.501-1.453M146.543 195.815c0-.259-1.814-3.863-1.814-3.863"/><path fill="#9AB3FF" stroke="#30334E" stroke-linecap="round" stroke-miterlimit="10" d="M102.505 119.507c22.255 16.389-.012 49.18 23.781 61.036 8.642 4.305 9.784 4.828 9.784 4.828l-4.435 7.974s-5.237.988-22.956-4.357c-17.584-5.305-18.986-21.612-19.599-40.819-.612-19.206 2.127-36.984 13.425-28.662Z"/><path fill="#C0C9ED" stroke="#30334E" stroke-linecap="round" stroke-linejoin="round" stroke-miterlimit="10" stroke-width=".8" d="M115.524 204.689h57.999v2.747h-57.999v-2.747Z"/><path fill="#DDE1F5" stroke="#30334E" stroke-linecap="round" stroke-linejoin="round" stroke-miterlimit="10" stroke-width=".8" d="M146.85 207.441h72.285L236 154.862h-72.285l-16.865 52.579Z"/><path fill="#6A6684" d="M192.672 187.335a4.343 4.343 0 0 1-4.347-4.34 4.343 4.343 0 0 1 4.347-4.34 4.344 4.344 0 0 1 4.348 4.34 4.344 4.344 0 0 1-4.348 4.34Z"/><path fill="#9AB3FF" d="M49.567 155.597c-.424 14.149-3.122 52.156-3.175 53.256-.383 7.827 61.911 1.329 61.911 1.329.13-.394.241-.876.353-1.447v-.006c1.726-12.949.931-64.858.254-77.079-.171-2.993-1.102-5.551-2.427-7.715-1.75-2.852-4.359-5.081-7.364-6.557-3.434-1.688-7.81-2.793-8.2-2.558-3.805 2.652-6.385 2.734-8.877 2.746-8.577.029-12.794-5.393-12.794-5.393s-17.979 6.687-19.21 7.116c0 0-3.11 1.635-4.6 2.799"/><path stroke="#30334E" stroke-linecap="round" stroke-miterlimit="10" d="M49.567 155.597c-.424 14.149-3.122 52.156-3.175 53.256-.383 7.827 61.911 1.329 61.911 1.329.13-.394.241-.876.353-1.447v-.006c1.726-12.949.931-64.858.254-77.079-.171-2.993-1.102-5.551-2.427-7.715-1.75-2.852-4.359-5.081-7.364-6.557-3.434-1.688-7.81-2.793-8.2-2.558-3.805 2.652-6.385 2.734-8.877 2.746-8.577.029-12.794-5.393-12.794-5.393s-17.979 6.687-19.21 7.116c0 0-3.11 1.635-4.6 2.799"/><path stroke="#30334E" stroke-linecap="round" stroke-linejoin="round" stroke-miterlimit="10" d="M124.667 191.093s1.331.794 4.288-2.552c2.957-3.352.271 4.293.271 4.293"/><path fill="#fff" stroke="#30334E" stroke-linecap="round" stroke-linejoin="round" stroke-miterlimit="10" d="M113.543 200.402c3.323.477 9.596 1.4 10.551 1.588 4.317.888 8.983-2.97 10.273-1.288 1.29 1.694 6.097 4.493 6.197 3.787.077-.6-1.644-3.187-2.904-4.875-.012 0-.018-.012-.03-.023-.212-.283-.418-.541-.595-.765-.494-.606-2.073-2.07-4.088-3.564a32.197 32.197 0 0 0-3.723-2.428c-1.384-.771-2.792-1.371-4.094-1.653a3.752 3.752 0 0 0-.471-.088 5.832 5.832 0 0 0-1.59-.047c-4.124.529-8.866-.306-10.026-.541l.5 9.897Z"/><path stroke="#30334E" stroke-linecap="round" stroke-linejoin="round" stroke-miterlimit="10" d="M137.652 199.62s-2.91-2.035-4.441-2.288c-1.532-.252-3.063-.435-3.063-.435M132.953 195.257c-.188-.142-3.77-.824-5.06-.689"/><path fill="#9AB3FF" stroke="#30334E" stroke-linecap="round" stroke-miterlimit="10" d="M52.553 123.323c9.69 6.328 1.708 55.068 33.559 61.531 22.308 4.522 32.622 5.539 32.622 5.539l-.559 11.05s-31.144 3.287-51.12-3.517c-19.97-6.804-25.176-21.276-29.288-42.976-4.112-21.7 1.125-40.542 14.785-31.627Z"/><path stroke="#CAD6F8" stroke-miterlimit="10" d="M108.589 210.058s12.394 7.263 16.247 10.315"/><g filter="url(#a)"><rect width="163" height="28" x="120.152" y="52.571" fill="#fff" rx="14" shape-rendering="crispEdges" transform="rotate(-15 120.152 52.57)"/><path fill="#4C8BF5" d="M137.815 64.395a1.993 1.993 0 1 0-1.032-3.85 1.993 1.993 0 0 0 1.032 3.85Z"/><path fill="#DD5144" d="M134.604 62.595a2.701 2.701 0 0 1 1.995-2.728l5.181-1.388a6.003 6.003 0 0 0-1.483-1.205 5.961 5.961 0 0 0-4.553-.6 5.96 5.96 0 0 0-3.858 3.203l2.718 2.718Z"/><path fill="#1DA462" d="M138.752 64.74a2.697 2.697 0 0 1-3.371-.375l-.014-.013-3.767-3.768a5.953 5.953 0 0 0-.098 3.44 5.957 5.957 0 0 0 2.795 3.642 5.956 5.956 0 0 0 3.459.788l.996-3.714Z"/><path fill="#FFCD46" d="M138.535 60.077a2.687 2.687 0 0 1 1.363 3.105l-.003.015-1.38 5.149a5.96 5.96 0 0 0 3.98-2.875 5.966 5.966 0 0 0 .6-4.554 6.014 6.014 0 0 0-.842-1.837l-3.718.997Z"/><path fill="#222E3A" d="M152.514 62.683c-.773.207-1.508.214-2.206.02a3.978 3.978 0 0 1-1.812-1.105c-.51-.543-.874-1.224-1.094-2.043-.219-.819-.243-1.587-.071-2.304a3.89 3.89 0 0 1 1.005-1.86c.498-.522 1.133-.887 1.906-1.094a3.911 3.911 0 0 1 1.512-.107c.503.056.976.198 1.419.428.448.22.825.515 1.132.889l-.895.737a2.647 2.647 0 0 0-.824-.662 2.995 2.995 0 0 0-1.015-.312 2.671 2.671 0 0 0-1.05.07c-.541.145-.987.41-1.34.794a2.883 2.883 0 0 0-.698 1.38c-.114.536-.088 1.113.078 1.73.166.619.433 1.136.8 1.55.376.413.813.698 1.31.855a2.88 2.88 0 0 0 1.578 0c.355-.096.673-.256.952-.48.278-.231.507-.504.688-.817.187-.324.314-.668.382-1.034l1.141.178a3.733 3.733 0 0 1-.51 1.392 3.938 3.938 0 0 1-2.388 1.795Zm4.522-1.36-2.22-8.239 1.101-.295 2.208 8.241-1.089.292Zm4.01-1.075-.795-2.968.997-.64.888 3.316-1.09.292Zm-.795-2.968c-.141-.525-.309-.907-.505-1.144-.198-.245-.42-.393-.665-.443a1.706 1.706 0 0 0-.766.019c-.479.128-.805.394-.979.796-.174.403-.18.906-.018 1.508l-.464.125c-.163-.61-.214-1.156-.153-1.636.06-.489.225-.893.495-1.214.278-.323.649-.546 1.113-.67.703-.189 1.309-.12 1.819.207.516.318.889.922 1.12 1.813l-.997.64Zm3.011-.968c-.168-.626-.185-1.168-.051-1.626.134-.459.364-.835.691-1.13a2.683 2.683 0 0 1 1.117-.61l.279 1.044a3.168 3.168 0 0 0-.953.43 1.698 1.698 0 0 0-.629.714c-.131.284-.142.627-.035 1.028l-.419.15Zm.163 3.298-1.553-5.795 1.101-.295 1.553 5.795-1.101.295Zm6.601-1.62c-.579.156-1.124.165-1.632.028a2.952 2.952 0 0 1-1.332-.799c-.37-.39-.634-.882-.794-1.477-.159-.594-.176-1.153-.051-1.675.125-.523.374-.97.746-1.343.37-.38.841-.648 1.413-.801.571-.153 1.113-.157 1.624-.013.508.137.948.4 1.317.79s.634.882.793 1.477c.16.595.177 1.154.052 1.676a2.865 2.865 0 0 1-.743 1.354c-.364.371-.829.632-1.393.783Zm-.27-1.008c.348-.093.634-.261.859-.503.223-.25.367-.546.433-.887a2.367 2.367 0 0 0-.05-1.117 2.37 2.37 0 0 0-.515-.992 1.718 1.718 0 0 0-.827-.537 1.766 1.766 0 0 0-1.01-.015 1.73 1.73 0 0 0-.868.519 1.831 1.831 0 0 0-.448.877c-.074.343-.057.715.051 1.117s.279.733.515.993c.235.26.515.442.841.545.324.095.664.095 1.019 0Zm4.241-.204-1.553-5.796 1.031-.276.355 1.047 1.268 4.73-1.101.295Zm4.01-1.075-.795-2.967 1.008-.643.888 3.315-1.101.295Zm4.011-1.075-.796-2.967.997-.64.888 3.315-1.089.292Zm-4.806-1.892c-.141-.526-.309-.907-.505-1.145-.191-.247-.409-.395-.654-.446a1.728 1.728 0 0 0-.777.022c-.471.127-.794.391-.968.794-.173.402-.179.905-.018 1.508l-.475.127c-.164-.61-.215-1.156-.153-1.636.06-.488.225-.893.495-1.214.278-.322.653-.547 1.124-.673.695-.187 1.298-.116 1.808.21.516.318.893.921 1.131 1.81l-1.008.643Zm4.01-1.075c-.14-.526-.309-.907-.505-1.144-.198-.245-.416-.394-.654-.446a1.723 1.723 0 0 0-.776.022c-.472.126-.794.39-.968.793-.174.403-.18.905-.018 1.508l-.476.128c-.163-.61-.214-1.156-.152-1.637.059-.488.224-.892.495-1.213.277-.323.652-.548 1.123-.674.696-.186 1.299-.116 1.809.211.515.318.888.922 1.119 1.812l-.997.64Zm5.793 1.777c-.565.152-1.097.158-1.598.019a2.892 2.892 0 0 1-1.309-.805c-.369-.39-.634-.882-.793-1.477-.16-.595-.177-1.154-.052-1.676s.37-.969.734-1.34c.371-.38.838-.646 1.402-.797a2.516 2.516 0 0 1 1.499.033c.48.153.899.446 1.255.88.362.426.633.97.811 1.635l-1.101.295c-.125-.497-.299-.898-.521-1.202-.215-.307-.469-.513-.762-.616a1.466 1.466 0 0 0-.94-.034c-.364.097-.654.266-.871.507a1.684 1.684 0 0 0-.425.871c-.058.339-.028.728.09 1.169.109.41.286.743.529 1.001.241.25.523.423.847.518.321.088.66.085 1.016-.01.378-.102.667-.275.867-.519.207-.246.347-.528.419-.845l1.107.188a2.995 2.995 0 0 1-.389.961c-.187.29-.434.543-.741.758a3.317 3.317 0 0 1-1.074.486Zm-2.92-2.224-.23-.907 4.242-1.137.242.904-4.254 1.14Zm12.231-.27c-.433.115-.84.17-1.223.166a3.546 3.546 0 0 1-1.024-.16 3.038 3.038 0 0 1-.796-.421 2.089 2.089 0 0 1-.543-.588l1.005-.654c.201.286.495.501.882.646.386.145.816.158 1.29.04.572-.154.99-.386 1.254-.697.27-.321.355-.67.253-1.05a1.047 1.047 0 0 0-.655-.73c-.346-.148-.77-.217-1.273-.206l-1.004.008a4.152 4.152 0 0 1-1.135-.156 2.243 2.243 0 0 1-.908-.514c-.254-.238-.435-.559-.543-.96-.199-.742-.115-1.386.253-1.931.375-.548 1.018-.944 1.93-1.189.525-.14 1.004-.178 1.436-.111.43.059.805.19 1.124.394.328.202.589.451.784.747l-1.001.666a1.761 1.761 0 0 0-.896-.655c-.375-.131-.794-.135-1.258-.01-.487.13-.842.35-1.066.658-.216.306-.27.66-.162 1.062.091.34.269.574.535.701.272.118.606.174 1.001.167l1.001-.02c.807-.017 1.474.136 1.999.459.531.313.865.724 1.002 1.234.118.44.113.869-.016 1.284-.123.406-.374.771-.75 1.096-.372.315-.87.556-1.496.724Zm6.352-1.702c-.58.155-1.067.128-1.463-.08-.398-.217-.671-.603-.82-1.16l-1.612-6.016 1.101-.295 1.569 5.854c.076.286.205.487.385.605.187.107.415.125.685.052a.842.842 0 0 0 .243-.115c.084-.055.18-.147.286-.275l.647.746a2.625 2.625 0 0 1-.501.445c-.162.11-.335.189-.52.239Zm-4.141-4.233-.255-.95 3.733-1 .254.95-3.732 1Zm8.83 2.976c-.58.155-1.124.165-1.633.028a2.953 2.953 0 0 1-1.332-.799c-.369-.39-.634-.882-.793-1.477-.16-.595-.177-1.154-.052-1.676a2.79 2.79 0 0 1 .746-1.343c.37-.38.841-.647 1.413-.8.572-.154 1.113-.158 1.624-.013.509.137.948.4 1.318.79.369.39.633.882.793 1.477.159.595.176 1.153.051 1.675a2.864 2.864 0 0 1-.742 1.355c-.365.37-.829.632-1.393.783Zm-.27-1.008a1.77 1.77 0 0 0 .859-.504c.222-.25.367-.545.433-.886a2.355 2.355 0 0 0-.051-1.117 2.37 2.37 0 0 0-.514-.993 1.728 1.728 0 0 0-.827-.536 1.769 1.769 0 0 0-1.011-.015 1.73 1.73 0 0 0-.867.518 1.831 1.831 0 0 0-.448.878c-.074.343-.057.715.051 1.117.107.402.279.733.514.993s.516.441.842.544a1.85 1.85 0 0 0 1.019 0Zm4.077-3.503c-.168-.626-.185-1.168-.051-1.626.134-.459.365-.835.692-1.13a2.675 2.675 0 0 1 1.116-.61l.279 1.044a3.182 3.182 0 0 0-.953.43 1.69 1.69 0 0 0-.628.714c-.132.284-.143.627-.036 1.028l-.419.15Zm.163 3.298-1.553-5.795 1.101-.295 1.553 5.795-1.101.295Zm6.543-1.604c-.564.151-1.096.157-1.597.018a2.893 2.893 0 0 1-1.309-.804c-.37-.39-.634-.883-.793-1.478-.16-.595-.177-1.153-.052-1.675.125-.523.37-.97.734-1.34.37-.38.837-.647 1.402-.798a2.516 2.516 0 0 1 1.499.033c.48.153.898.447 1.255.881.362.425.633.97.811 1.634l-1.102.295c-.124-.496-.298-.897-.52-1.202-.215-.307-.469-.512-.762-.616a1.469 1.469 0 0 0-.941-.033c-.363.097-.653.266-.87.506a1.683 1.683 0 0 0-.425.872c-.058.339-.029.728.089 1.169.11.409.287.743.53 1 .241.25.523.424.847.52.321.087.66.083 1.015-.012.379-.102.668-.274.868-.518.207-.246.347-.528.419-.846l1.107.188a3.018 3.018 0 0 1-.389.962c-.187.29-.434.543-.741.757a3.313 3.313 0 0 1-1.075.487Zm-2.919-2.224-.23-.908 4.242-1.136.242.904-4.254 1.14Z"/><path fill="#C4C9CE" d="m226.023 30.414.966-.259 4.141 15.455-.966.259z"/><path fill="#EBBD61" d="m242.446 26.014 3.332 4.441 5.448-1.07-3.194 4.54 2.702 4.85-5.306-1.634-3.778 4.069-.085-5.552-5.037-2.335 5.253-1.797.665-5.512Z"/><path fill="#222E3A" d="m256.459 32.92-1.534-.372 2.551-7.249 1.387.744-2.404 6.877Zm-1.139 1.102-.395-1.474 1.012-.387 6.762-1.812.424 1.583-7.803 2.09Zm4.908.685-2.264-8.451-.475-.96 1.947-.522 2.537 9.466-1.745.467Zm5.432-1.238c-.297.08-.583.04-.857-.118a1.113 1.113 0 0 1-.518-.687 1.1 1.1 0 0 1 .108-.84c.158-.275.386-.452.684-.532.297-.08.579-.04.844.122.275.158.45.381.528.67.079.297.04.583-.118.858-.15.272-.373.447-.671.527Zm2.785-.963 1.767-8.982 1.917-.687-1.629 9.118-2.055.55Zm-2.895-7.558-.453-1.69 6.667-1.787.365 1.366-1.792.828-4.787 1.283Z"/></g><g filter="url(#b)"><rect width="139" height="28" x="178.402" y="82.383" fill="#fff" rx="14" shape-rendering="crispEdges" transform="rotate(15 178.402 82.383)"/><path fill="#00B67A" d="m194.521 99.5-4.426-1.186-.239-4.58-2.5 3.846-4.425-1.19 2.886 3.566-2.499 3.841 4.282-1.641 2.883 3.561-.24-4.575 4.278-1.642Z"/><path fill="#005128" d="m190.297 102.178-.053-1.036-2.643 1.014 2.696.022Z"/><path fill="#222E3A" d="m199.601 106.699 1.994-7.441 1.147.307-1.994 7.442-1.147-.308Zm-.644-7.75.28-1.044 6.224 1.668-.28 1.043-6.224-1.668Zm6.131 5.878c.167-.625.424-1.103.769-1.433.345-.33.733-.541 1.163-.633a2.706 2.706 0 0 1 1.272.03l-.28 1.044a3.13 3.13 0 0 0-1.04-.105 1.687 1.687 0 0 0-.902.305c-.255.18-.437.471-.544.873l-.438-.081Zm-1.508 2.938 1.553-5.795 1.101.295-1.553 5.795-1.101-.295Zm7.885 2.113.216-1.085 1.268-4.729 1.089.292-1.553 5.796-1.02-.274Zm-3.415-3.574.888-3.315 1.101.295-.795 2.968-1.194.052Zm1.194-.052c-.139.518-.187.931-.146 1.24.049.312.167.55.355.716.187.167.415.29.683.37.472.126.883.059 1.235-.203.352-.262.609-.695.77-1.297l.475.127c-.163.611-.393 1.112-.689 1.505-.293.385-.641.648-1.043.789-.395.143-.828.151-1.299.025-.695-.187-1.186-.55-1.472-1.091-.278-.538-.299-1.248-.063-2.129l1.194-.052Zm6.719 4.98c-.41-.109-.76-.27-1.052-.48a2.605 2.605 0 0 1-.678-.716 2.16 2.16 0 0 1-.297-.837l1.062-.163c.06.273.192.519.398.74.206.221.46.372.761.452.332.09.623.101.873.036.249-.066.404-.211.464-.435a.627.627 0 0 0-.107-.575c-.129-.167-.338-.331-.626-.491l-.508-.285c-.501-.292-.863-.625-1.086-.999-.215-.373-.273-.744-.173-1.115.151-.564.449-.952.895-1.164.446-.212 1.025-.223 1.736-.032.348.093.651.228.91.405.267.179.476.389.627.628.159.241.247.501.263.779l-1.039.168a.962.962 0 0 0-.338-.637 1.759 1.759 0 0 0-.742-.385c-.309-.083-.571-.078-.786.013a.674.674 0 0 0-.416.485c-.035.131.004.279.118.441.123.158.322.314.595.47l.585.319c.354.194.629.421.824.68.198.252.326.514.386.787.061.265.058.525-.011.78a1.553 1.553 0 0 1-.535.838 1.849 1.849 0 0 1-.935.383 2.896 2.896 0 0 1-1.168-.09Zm5.465 1.465c-.58-.156-.989-.422-1.227-.801-.236-.386-.279-.858-.13-1.414l1.612-6.016 1.101.295-1.569 5.854c-.076.286-.066.525.032.716.107.187.296.316.567.388a.83.83 0 0 0 .267.022c.101-.006.23-.038.386-.095l.187.969a2.598 2.598 0 0 1-.657.135 1.724 1.724 0 0 1-.569-.053Zm-1.47-5.736.255-.951 3.732 1.001-.255.95-3.732-1Zm3.059 8.497 2.174-8.114 1.031.277-.216 1.085-1.888 7.047-1.101-.295Zm3.586-1.375c-.487-.13-.878-.371-1.173-.724-.287-.35-.466-.779-.537-1.287-.071-.507-.026-1.063.136-1.665.163-.611.402-1.114.715-1.511.315-.404.685-.686 1.108-.846a2.241 2.241 0 0 1 1.378-.04 2.54 2.54 0 0 1 1.265.749c.326.36.536.797.63 1.311.104.509.074 1.068-.089 1.678-.162.603-.416 1.102-.762 1.498a2.611 2.611 0 0 1-1.201.821c-.463.15-.953.155-1.47.016Zm0-1.068c.348.093.676.09.984-.01.31-.107.579-.292.807-.554a2.44 2.44 0 0 0 .518-1.004c.107-.402.128-.773.062-1.114a1.763 1.763 0 0 0-.422-.883 1.649 1.649 0 0 0-.844-.512 1.51 1.51 0 0 0-.929.037c-.293.104-.55.291-.772.563a2.642 2.642 0 0 0-.492.999 2.68 2.68 0 0 0-.077 1.122c.059.339.188.63.387.874.202.237.461.397.778.482Zm3.832 1.946 1.576-5.789 1.09.292-1.565 5.792-1.101-.295Zm2.438-6.875a.66.66 0 0 1-.41-.321.697.697 0 0 1-.07-.528.632.632 0 0 1 .321-.411.657.657 0 0 1 .517-.073c.185.05.322.157.41.321a.629.629 0 0 1 .073.517.694.694 0 0 1-.324.422.633.633 0 0 1-.517.073Zm.18 7.577 2.174-8.114 1.102.295-2.174 8.114-1.102-.295Zm5.112 1.519c-.579-.156-1.055-.42-1.427-.793a2.958 2.958 0 0 1-.755-1.357c-.125-.523-.108-1.081.052-1.676.159-.595.424-1.088.793-1.477.37-.39.809-.653 1.317-.79.511-.145 1.053-.141 1.624.013.572.153 1.043.42 1.413.801.372.373.621.82.746 1.342.125.523.108 1.081-.051 1.676-.16.595-.424 1.087-.794 1.477-.369.39-.809.657-1.32.802-.501.139-1.034.133-1.598-.018Zm.27-1.009c.348.093.68.091.996-.006.318-.106.591-.289.819-.551a2.37 2.37 0 0 0 .514-.993c.108-.402.125-.774.051-1.117a1.727 1.727 0 0 0-.448-.878 1.77 1.77 0 0 0-.868-.518 1.733 1.733 0 0 0-1.01.015 1.832 1.832 0 0 0-.827.536c-.235.26-.407.591-.514.993a2.356 2.356 0 0 0-.051 1.117c.074.343.226.64.456.892.233.245.527.415.882.51Zm5.975 2.682c-.58-.155-.989-.422-1.227-.801-.236-.386-.279-.858-.13-1.414l1.612-6.016 1.101.295-1.569 5.854c-.076.286-.066.525.032.716.108.187.297.316.567.388a.83.83 0 0 0 .267.022c.101-.006.23-.037.386-.095l.188.97a2.636 2.636 0 0 1-.658.134 1.724 1.724 0 0 1-.569-.053Zm-1.47-5.736.255-.95 3.732 1-.254.95-3.733-1Z"/><path fill="#C4C9CE" d="m257.02 109.661.966.259-4.141 15.455-.966-.26z"/><path fill="#EBBD61" d="m273.438 114.061.665 5.512 5.254 1.797-5.037 2.335-.085 5.552-3.778-4.069-5.306 1.635 2.702-4.851-3.195-4.541 5.448 1.071 3.332-4.441Z"/><path fill="#222E3A" d="m282.125 127.049-1.144-1.089 5.834-5.002.83 1.338-5.52 4.753Zm-1.538.385.394-1.474 1.071.171 6.761 1.812-.424 1.582-7.802-2.091Zm3.908 3.048 2.265-8.452.069-1.069 1.947.522-2.537 9.466-1.744-.467Zm5.323 1.643a1.089 1.089 0 0 1-.684-.531 1.114 1.114 0 0 1-.104-.854 1.1 1.1 0 0 1 .514-.674 1.09 1.09 0 0 1 .858-.118c.297.08.521.256.67.528.158.274.199.555.122.844-.08.297-.257.525-.531.684a1.045 1.045 0 0 1-.845.121Zm5.717 1.489c-.758-.203-1.373-.484-1.847-.843-.472-.368-.795-.783-.971-1.246a2.475 2.475 0 0 1-.036-1.488c.15-.559.417-1.014.801-1.365.393-.349.888-.574 1.485-.675.597-.101 1.273-.045 2.028.167.769.196 1.386.487 1.853.873.467.386.783.828.949 1.327.166.499.174 1.027.024 1.586-.14.523-.403.946-.789 1.267-.383.313-.871.511-1.463.594-.59.074-1.268.008-2.034-.197Zm.413-1.542c.495.133.934.12 1.315-.039.383-.168.626-.446.73-.833a1.313 1.313 0 0 0-.198-1.155c-.245-.346-.616-.585-1.112-.718a2.095 2.095 0 0 0-.912-.056 1.476 1.476 0 0 0-.716.344 1.363 1.363 0 0 0-.416.686c-.07.261-.059.511.032.748s.243.446.455.629c.223.176.497.307.822.394Zm.851-3.178c-.676-.181-1.23-.441-1.661-.778-.429-.347-.724-.74-.887-1.18a2.39 2.39 0 0 1-.027-1.413c.135-.505.381-.918.737-1.238.366-.317.821-.519 1.366-.605.544-.086 1.155-.038 1.831.143.685.184 1.242.449 1.671.796.429.346.722.749.88 1.206.157.458.168.939.033 1.444a2.334 2.334 0 0 1-.744 1.207c-.36.299-.813.492-1.358.578-.542.077-1.156.024-1.841-.16Zm.279-1.041c.433.116.816.093 1.149-.069.342-.16.562-.42.659-.78.103-.388.047-.737-.17-1.046-.205-.316-.524-.532-.957-.648-.423-.113-.803-.084-1.139.087-.333.161-.552.436-.655.824-.097.361-.042.694.166 1.001.208.307.523.517.947.631Z"/></g><path fill="#90D9BF" stroke="#30334E" stroke-linecap="round" stroke-linejoin="round" stroke-miterlimit="10" d="M220.002 223.876a25.175 25.175 0 0 1-13.397-22.246v-5.328L220.002 190l13.396 6.302v5.328a25.182 25.182 0 0 1-13.396 22.246Z"/><path fill="#CAF1E3" stroke="#30334E" stroke-linecap="round" stroke-linejoin="round" stroke-miterlimit="10" d="M220.002 220.431a20.038 20.038 0 0 1-10.666-17.715v-4.242l10.666-5.018 10.667 5.018v4.242a20.06 20.06 0 0 1-10.667 17.715Z"/><path stroke="#30334E" stroke-miterlimit="10" d="m215.957 206.979 3.527 5.511 4.556-11.098"/><defs><filter id="a" width="188.691" height="93.233" x="108.152" y="-1.617" color-interpolation-filters="sRGB" filterUnits="userSpaceOnUse"><feFlood flood-opacity="0" result="BackgroundImageFix"/><feColorMatrix in="SourceAlpha" result="hardAlpha" values="0 0 0 0 0 0 0 0 0 0 0 0 0 0 0 0 0 0 127 0"/><feOffset/><feGaussianBlur stdDeviation="6"/><feComposite in2="hardAlpha" operator="out"/><feColorMatrix values="0 0 0 0 0.509804 0 0 0 0 0.509804 0 0 0 0 0.611765 0 0 0 0.24 0"/><feBlend in2="BackgroundImageFix" result="effect1_dropShadow_6871_14112"/><feBlend in="SourceGraphic" in2="effect1_dropShadow_6871_14112" result="shape"/></filter><filter id="b" width="165.512" height="87.022" x="159.156" y="70.383" color-interpolation-filters="sRGB" filterUnits="userSpaceOnUse"><feFlood flood-opacity="0" result="BackgroundImageFix"/><feColorMatrix in="SourceAlpha" result="hardAlpha" values="0 0 0 0 0 0 0 0 0 0 0 0 0 0 0 0 0 0 127 0"/><feOffset/><feGaussianBlur stdDeviation="6"/><feComposite in2="hardAlpha" operator="out"/><feColorMatrix values="0 0 0 0 0.509804 0 0 0 0 0.509804 0 0 0 0 0.611765 0 0 0 0.24 0"/><feBlend in2="BackgroundImageFix" result="effect1_dropShadow_6871_14112"/><feBlend in="SourceGraphic" in2="effect1_dropShadow_6871_14112" result="shape"/></filter></defs></svg>