<svg width="56" height="56" viewBox="0 0 56 56" fill="none" xmlns="http://www.w3.org/2000/svg">
<g clip-path="url(#clip0_516_11554)">
<path d="M56 28C56 43.4639 43.4639 56 28 56C12.5361 56 0 43.4639 0 28C0 28.0066 28 0.00317187 28 0C43.4639 0 56 12.5361 56 28Z" fill="#0052B4"/>
<path d="M27.9248 27.9997H27.9997C27.9997 27.9744 27.9997 27.9501 27.9997 27.9248C27.9748 27.9499 27.9499 27.9748 27.9248 27.9997Z" fill="#F0F0F0"/>
<path d="M28 14.6087C28 9.68187 28 6.45345 28 0H27.9953C12.5335 0.00251562 0 12.5374 0 27.9999H14.6087V19.7736L22.835 27.9999H27.9252C27.9502 27.9749 27.9752 27.95 28.0001 27.925C28.0001 26.0386 28.0001 24.3554 28.0001 22.8351L19.7737 14.6087H28Z" fill="#F0F0F0"/>
<path d="M14.1659 3.65234C9.78664 6.14598 6.14598 9.78664 3.65234 14.1659V28.0002H10.9567V10.9568V10.9567H28.0002C28.0002 8.65297 28.0002 6.45825 28.0002 3.65234H14.1659Z" fill="#D80027"/>
<path d="M28.0006 24.5568L18.0526 14.6089H14.6094C14.6094 14.6088 14.6094 14.6089 14.6094 14.6089L28.0005 28H28.0006C28.0006 28 28.0006 25.6261 28.0006 24.5568Z" fill="#D80027"/>
<path d="M16.887 32.8696L18.4237 36.0828L21.8939 35.2808L20.3399 38.4857L23.1305 40.6987L19.6559 41.4818L19.6657 45.0435L16.887 42.8152L14.1084 45.0435L14.1182 41.4818L10.6436 40.6987L13.4343 38.4857L11.88 35.2808L15.3504 36.0828L16.887 32.8696Z" fill="#F0F0F0"/>
<path d="M41.9225 38.9565L42.6908 40.5632L44.426 40.1621L43.6488 41.7645L45.0443 42.8711L43.3069 43.2626L43.3118 45.0435L41.9225 43.9293L40.5332 45.0435L40.538 43.2626L38.8008 42.8711L40.1961 41.7645L39.4191 40.1621L41.1541 40.5632L41.9225 38.9565Z" fill="#F0F0F0"/>
<path d="M34.7741 21.9126L35.5424 23.5193L37.2775 23.1181L36.5005 24.7206L37.8958 25.8271L36.1586 26.2187L36.1633 27.9995L34.7741 26.8853L33.3848 27.9995L33.3895 26.2187L31.6523 25.8271L33.0476 24.7206L32.2706 23.1181L34.0058 23.5193L34.7741 21.9126Z" fill="#F0F0F0"/>
<path d="M41.9225 12.1738L42.6908 13.7805L44.426 13.3795L43.649 14.9819L45.0442 16.0884L43.3069 16.48L43.3118 18.2609L41.9225 17.1467L40.5332 18.2609L40.538 16.48L38.8008 16.0884L40.196 14.9819L39.4191 13.3795L41.1541 13.7805L41.9225 12.1738Z" fill="#F0F0F0"/>
<path d="M48.1648 19.478L48.933 21.0847L50.6681 20.6836L49.8911 22.286L51.2864 23.3926L49.5491 23.7842L49.5539 25.565L48.1648 24.4509L46.7755 25.565L46.7802 23.7842L45.043 23.3926L46.4383 22.286L45.6613 20.6836L47.3963 21.0847L48.1648 19.478Z" fill="#F0F0F0"/>
<path d="M43.7008 28L44.3051 29.86H46.2609L44.6786 31.0097L45.2831 32.8696L43.7008 31.7201L42.1186 32.8696L42.7229 31.0097L41.1406 29.86H43.0964L43.7008 28Z" fill="#F0F0F0"/>
</g>
<defs>
<clipPath id="clip0_516_11554">
<rect width="56" height="56" fill="white"/>
</clipPath>
</defs>
</svg>
