<svg width="56" height="56" viewBox="0 0 56 56" fill="none" xmlns="http://www.w3.org/2000/svg">
<g clip-path="url(#clip0_516_11808)">
<path d="M56 28C56 24.575 55.384 21.2941 54.2584 18.2609L28 17.0435L1.74158 18.2608C0.616109 21.2941 0 24.575 0 28C0 31.425 0.616109 34.7059 1.74158 37.7391L28 38.9565L54.2584 37.7392C55.384 34.7059 56 31.425 56 28Z" fill="#496E2D"/>
<path d="M28.0006 56.0002C40.0396 56.0002 50.3028 48.4017 54.259 37.7393H1.74219C5.69839 48.4017 15.9616 56.0002 28.0006 56.0002Z" fill="#D80027"/>
<path d="M1.74219 18.2609H54.2591C50.3028 7.5985 40.0396 0 28.0006 0C15.9616 0 5.69839 7.5985 1.74219 18.2609Z" fill="#F0F0F0"/>
</g>
<defs>
<clipPath id="clip0_516_11808">
<rect width="56" height="56" fill="white"/>
</clipPath>
</defs>
</svg>
