<svg width="56" height="56" viewBox="0 0 56 56" fill="none" xmlns="http://www.w3.org/2000/svg">
<g clip-path="url(#clip0_516_11636)">
<path d="M28 56C43.464 56 56 43.464 56 28C56 12.536 43.464 0 28 0C12.536 0 0 12.536 0 28C0 43.464 12.536 56 28 56Z" fill="#FCFCFC"/>
<path d="M11.565 25.9712L8.52148 20.4496L11.565 15.0146L14.6084 20.4496L11.565 25.9712Z" fill="#A2001D"/>
<path d="M5.47804 25.9712L2.43457 20.4496L5.47804 15.0146L8.52151 20.4496L5.47804 25.9712Z" fill="#A2001D"/>
<path d="M11.565 40.9858L8.52148 35.4643L11.565 30.0293L14.6084 35.4643L11.565 40.9858Z" fill="#A2001D"/>
<path d="M5.47804 40.9858L2.43457 35.4643L5.47804 30.0293L8.52151 35.4643L5.47804 40.9858Z" fill="#A2001D"/>
<path d="M14.6083 5.43517L13.7466 3.89648C12.2011 4.81217 10.7516 5.87234 9.41602 7.05841L11.5648 10.9566L14.6083 5.43517Z" fill="#A2001D"/>
<path d="M11.5651 45.0435L9.39355 48.9215C10.7279 50.1091 12.1765 51.1709 13.7213 52.0884L14.6087 50.4785L11.5651 45.0435Z" fill="#A2001D"/>
<path d="M17.043 35.3042V53.7736C20.4083 55.2061 24.111 55.9998 27.9995 55.9998C40.0385 55.9998 50.3017 48.4013 54.2579 37.7389L17.043 35.3042Z" fill="#6DA544"/>
<path d="M54.2589 37.7391C55.3845 34.7058 56.0005 31.425 56.0005 28C56.0005 12.5361 43.4644 0 28.0005 0C24.1123 0 20.4093 0.793297 17.0439 2.22556V37.7392H54.2589V37.7391Z" fill="#A2001D"/>
</g>
<defs>
<clipPath id="clip0_516_11636">
<rect width="56" height="56" fill="white"/>
</clipPath>
</defs>
</svg>
