<svg width="56" height="56" viewBox="0 0 56 56" fill="none" xmlns="http://www.w3.org/2000/svg">
<g clip-path="url(#clip0_516_11840)">
<path d="M28 56C43.464 56 56 43.464 56 28C56 12.536 43.464 0 28 0C12.536 0 0 12.536 0 28C0 43.464 12.536 56 28 56Z" fill="#F0F0F0"/>
<path d="M56 28C56 16.8991 49.5397 7.30732 40.1738 2.77832V53.2215C49.5397 48.6926 56 39.1009 56 28Z" fill="#D80027"/>
<path d="M0 28C0 39.1009 6.46023 48.6926 15.8261 53.2216V2.77832C6.46023 7.30732 0 16.8991 0 28Z" fill="#D80027"/>
<path d="M32.8704 31.6524L37.7399 29.2176L35.3052 28.0003V25.5655L30.4356 28.0003L32.8704 23.1307H30.4356L28.0008 19.4785L25.566 23.1307H23.1312L25.566 28.0003L20.6964 25.5655V28.0003L18.2617 29.2176L23.1312 31.6524L21.9139 34.0872H26.7835V37.7393H29.2181V34.0872H34.0877L32.8704 31.6524Z" fill="#D80027"/>
</g>
<defs>
<clipPath id="clip0_516_11840">
<rect width="56" height="56" fill="white"/>
</clipPath>
</defs>
</svg>
