<svg width="56" height="56" viewBox="0 0 56 56" fill="none" xmlns="http://www.w3.org/2000/svg">
<g clip-path="url(#clip0_516_12039)">
<path d="M28 56C43.464 56 56 43.464 56 28C56 12.536 43.464 0 28 0C12.536 0 0 12.536 0 28C0 43.464 12.536 56 28 56Z" fill="#FCFCFC"/>
<path d="M43.8259 24.3477C42.9737 24.3477 41.9186 24.3477 40.1737 24.3477C40.1737 31.0712 34.7231 36.5215 27.9998 36.5215C21.2762 36.5215 15.826 31.0712 15.826 24.3477C14.6491 24.3477 13.3505 24.3477 12.1738 24.3477C12.1738 31.5899 17.0384 37.696 23.6785 39.5765C22.9505 40.9594 23.0615 42.7006 24.1014 43.9983C25.4673 42.9036 26.8814 41.7703 28.081 40.8091C29.2806 41.7704 30.6948 42.9037 32.0606 43.9983C33.1108 42.6877 33.2142 40.9244 32.462 39.5348C39.0294 37.6082 43.8259 31.5384 43.8259 24.3477Z" fill="#6DA544"/>
<path d="M18.2617 23.1301C18.2617 23.1301 18.2617 29.2171 24.3487 29.2171L25.566 30.4344H28.0008C28.0008 30.4344 29.2181 26.7823 31.6529 26.7823C31.6529 26.7823 31.6529 24.3475 34.0877 24.3475C36.5225 24.3475 37.7399 24.3475 37.7399 24.3475C37.7399 24.3475 36.5225 19.4779 42.6095 15.8257L40.1747 14.6084C40.1747 14.6084 31.6529 20.6953 25.566 19.478V21.9128H23.1312L21.9139 20.6954L18.2617 23.1301Z" fill="#FFDA44"/>
</g>
<defs>
<clipPath id="clip0_516_12039">
<rect width="56" height="56" fill="white"/>
</clipPath>
</defs>
</svg>
