<svg width="56" height="56" viewBox="0 0 56 56" fill="none" xmlns="http://www.w3.org/2000/svg">
<g clip-path="url(#clip0_516_12043)">
<path d="M28 56C43.464 56 56 43.464 56 28C56 12.536 43.464 0 28 0C12.536 0 0 12.536 0 28C0 43.464 12.536 56 28 56Z" fill="#F0F0F0"/>
<path d="M25.5654 28C25.5654 28 8.21758 47.8029 8.20117 47.799C13.2681 52.866 20.2682 56 28.0002 56C43.4641 56 56.0002 43.4639 56.0002 28H25.5654Z" fill="#D80027"/>
<path d="M8.20099 8.20117C-2.73366 19.1358 -2.73366 36.8645 8.20099 47.7993C12.7196 43.2807 17.0654 38.9349 28 28.0002L8.20099 8.20117Z" fill="#0052B4"/>
</g>
<defs>
<clipPath id="clip0_516_12043">
<rect width="56" height="56" fill="white"/>
</clipPath>
</defs>
</svg>
