<svg width="56" height="56" viewBox="0 0 56 56" fill="none" xmlns="http://www.w3.org/2000/svg">
<g clip-path="url(#clip0_516_12240)">
<path d="M1.74219 37.7394C5.69839 48.4017 15.9616 56.0003 28.0006 56.0003C40.0396 56.0003 50.3028 48.4017 54.259 37.7394L28.0006 35.3047L1.74219 37.7394Z" fill="#FFDA44"/>
<path d="M28.0006 0C15.9616 0 5.69839 7.5985 1.74219 18.2609L28.0006 20.6956L54.259 18.2608C50.3028 7.5985 40.0396 0 28.0006 0Z" fill="black"/>
<path d="M1.74158 18.2607C0.616109 21.294 0 24.5749 0 27.9998C0 31.4248 0.616109 34.7056 1.74158 37.7389H54.2585C55.384 34.7056 56 31.4248 56 27.9998C56 24.5749 55.384 21.294 54.2584 18.2607H1.74158Z" fill="#D80027"/>
</g>
<defs>
<clipPath id="clip0_516_12240">
<rect width="56" height="56" fill="white"/>
</clipPath>
</defs>
</svg>
