<svg width="56" height="56" viewBox="0 0 56 56" fill="none" xmlns="http://www.w3.org/2000/svg">
<g clip-path="url(#clip0_516_12054)">
<path d="M28 56C43.464 56 56 43.464 56 28C56 12.536 43.464 0 28 0C12.536 0 0 12.536 0 28C0 43.464 12.536 56 28 56Z" fill="#F0F0F0"/>
<path d="M21.9122 24.3479H55.762C53.9723 10.6096 42.2251 0 27.999 0C25.9083 0 23.8721 0.231109 21.9121 0.665547V24.3479H21.9122Z" fill="#D80027"/>
<path d="M14.608 24.3475V3.4043C6.91968 7.59927 1.41572 15.2939 0.236328 24.3476H14.608V24.3475Z" fill="#D80027"/>
<path d="M14.6079 31.6523H0.236328C1.41572 40.7061 6.91968 48.4007 14.608 52.5956L14.6079 31.6523Z" fill="#D80027"/>
<path d="M21.9121 31.6525V55.3347C23.8721 55.7691 25.9083 56.0002 27.999 56.0002C42.2251 56.0002 53.9723 45.3906 55.762 31.6523H21.9121V31.6525Z" fill="#D80027"/>
</g>
<defs>
<clipPath id="clip0_516_12054">
<rect width="56" height="56" fill="white"/>
</clipPath>
</defs>
</svg>
