<svg width="56" height="56" viewBox="0 0 56 56" fill="none" xmlns="http://www.w3.org/2000/svg">
<g clip-path="url(#clip0_516_13194)">
<path d="M0 28C0 31.425 0.616109 34.7058 1.74158 37.7391L28 40.1739L54.2584 37.7391C55.3839 34.7058 56 31.425 56 28C56 24.5751 55.3839 21.2943 54.2584 18.261L28 15.8262L1.74158 18.261C0.616109 21.2943 0 24.5751 0 28H0Z" fill="#FFDA44"/>
<path d="M54.259 18.2609C50.3028 7.59861 40.0396 0 28.0006 0C15.9616 0 5.69839 7.59861 1.74219 18.2609H54.259Z" fill="#D80027"/>
<path d="M1.74219 37.7393C5.69839 48.4016 15.9616 56.0002 28.0006 56.0002C40.0396 56.0002 50.3028 48.4016 54.259 37.7393H1.74219Z" fill="#D80027"/>
</g>
<defs>
<clipPath id="clip0_516_13194">
<rect width="56" height="56" fill="white"/>
</clipPath>
</defs>
</svg>
