<svg width="56" height="56" viewBox="0 0 56 56" fill="none" xmlns="http://www.w3.org/2000/svg">
<g clip-path="url(#clip0_516_12201)">
<path d="M28 56C43.464 56 56 43.464 56 28C56 12.536 43.464 0 28 0C12.536 0 0 12.536 0 28C0 43.464 12.536 56 28 56Z" fill="#F0F0F0"/>
<path d="M55.763 24.3483H21.9132H21.9131V0.666016C19.3255 1.2398 16.8723 2.16981 14.6087 3.40498V24.3481V24.3482H0.237016C0.0811563 25.5438 0 26.7627 0 28.0005C0 29.2383 0.0811563 30.4571 0.237016 31.6526H14.6086H14.6087V52.5959C16.8723 53.8309 19.3255 54.7612 21.9131 55.3348V31.6529V31.6527H55.763C55.9186 30.4571 56 29.2383 56 28.0005C56 26.7627 55.9186 25.5438 55.763 24.3483Z" fill="#0052B4"/>
</g>
<defs>
<clipPath id="clip0_516_12201">
<rect width="56" height="56" fill="white"/>
</clipPath>
</defs>
</svg>
