<svg width="56" height="56" viewBox="0 0 56 56" fill="none" xmlns="http://www.w3.org/2000/svg">
<g clip-path="url(#clip0_516_12204)">
<path d="M28 56C43.464 56 56 43.464 56 28C56 12.536 43.464 0 28 0C12.536 0 0 12.536 0 28C0 43.464 12.536 56 28 56Z" fill="#F0F0F0"/>
<path d="M56.0002 27.9996C56.0002 15.9606 48.4017 5.69741 37.7393 1.74121V54.2582C48.4017 50.3018 56.0002 40.0386 56.0002 27.9996Z" fill="#D80027"/>
<path d="M0 27.9996C0 40.0386 7.59861 50.3018 18.2609 54.258V1.74121C7.59861 5.69741 0 15.9606 0 27.9996Z" fill="#0052B4"/>
</g>
<defs>
<clipPath id="clip0_516_12204">
<rect width="56" height="56" fill="white"/>
</clipPath>
</defs>
</svg>
