<svg width="56" height="56" viewBox="0 0 56 56" fill="none" xmlns="http://www.w3.org/2000/svg">
<g clip-path="url(#clip0_516_12366)">
<path d="M1.74158 18.261C0.616109 21.2944 0 24.5751 0 28C0 31.425 0.616109 34.7059 1.74158 37.7391L28 40.1739L54.2584 37.7391C55.3839 34.7059 56 31.425 56 28C56 24.5751 55.3839 21.2944 54.2584 18.261L28 15.8262L1.74158 18.261Z" fill="#F0F0F0"/>
<path d="M27.9995 0C15.9606 0 5.6973 7.5985 1.74121 18.2609H54.2582C50.3017 7.5985 40.0386 0 27.9995 0Z" fill="#D80027"/>
<path d="M28.0005 56.0002C40.0396 56.0002 50.3027 48.4017 54.259 37.7393H1.74219C5.69828 48.4017 15.9616 56.0002 28.0005 56.0002Z" fill="#6DA544"/>
</g>
<defs>
<clipPath id="clip0_516_12366">
<rect width="56" height="56" fill="white"/>
</clipPath>
</defs>
</svg>
