<svg width="56" height="56" viewBox="0 0 56 56" fill="none" xmlns="http://www.w3.org/2000/svg">
<g clip-path="url(#clip0_516_12408)">
<path d="M28 56C43.464 56 56 43.464 56 28C56 12.536 43.464 0 28 0C12.536 0 0 12.536 0 28C0 43.464 12.536 56 28 56Z" fill="#F0F0F0"/>
<path d="M38.543 21.9131H31.5142L28 15.8262L24.4859 21.9131H17.457L20.9717 28L17.457 34.087H24.4859L28 40.1739L31.5142 34.087H38.543L35.0283 28L38.543 21.9131ZM32.3176 28L30.159 31.7394H25.8414L23.6824 28L25.8413 24.2607H30.1589L32.3176 28ZM28 20.5213L28.8035 21.913H27.1968L28 20.5213ZM21.5235 24.2607H23.1304L22.327 25.6524L21.5235 24.2607ZM21.5235 31.7394L22.3271 30.3477L23.1305 31.7394H21.5235ZM28 35.4787L27.1967 34.087H28.8035L28 35.4787ZM34.4765 31.7394H32.8696L33.6732 30.3477L34.4765 31.7394ZM32.8696 24.2607H34.4765L33.6731 25.6524L32.8696 24.2607Z" fill="#0052B4"/>
<path d="M45.4294 6.08691H10.57C8.01472 8.12216 5.82328 10.5943 4.10938 13.3913H51.8901C50.176 10.5944 47.9846 8.12216 45.4294 6.08691Z" fill="#0052B4"/>
<path d="M10.57 49.9128H45.4293C47.9846 47.8775 50.176 45.4054 51.8899 42.6084H4.10938C5.82339 45.4053 8.01483 47.8775 10.57 49.9128Z" fill="#0052B4"/>
</g>
<defs>
<clipPath id="clip0_516_12408">
<rect width="56" height="56" fill="white"/>
</clipPath>
</defs>
</svg>
