<svg width="56" height="56" viewBox="0 0 56 56" fill="none" xmlns="http://www.w3.org/2000/svg">
<g clip-path="url(#clip0_516_12378)">
<path d="M28 56C43.464 56 56 43.464 56 28C56 12.536 43.464 0 28 0C12.536 0 0 12.536 0 28C0 43.464 12.536 56 28 56Z" fill="#F0F0F0"/>
<path d="M28 0C16.8991 0 7.30732 6.46023 2.77832 15.8261H53.2215C48.6926 6.46023 39.1008 0 28 0Z" fill="#FF9811"/>
<path d="M28 56C39.1008 56 48.6926 49.5397 53.2216 40.1738H2.77832C7.30732 49.5397 16.8991 56 28 56Z" fill="#6DA544"/>
<path d="M27.9998 37.7389C33.3786 37.7389 37.7389 33.3786 37.7389 27.9998C37.7389 22.6211 33.3786 18.2607 27.9998 18.2607C22.6211 18.2607 18.2607 22.6211 18.2607 27.9998C18.2607 33.3786 22.6211 37.7389 27.9998 37.7389Z" fill="#0052B4"/>
<path d="M28 34.087C31.3617 34.087 34.087 31.3617 34.087 28C34.087 24.6383 31.3617 21.9131 28 21.9131C24.6383 21.9131 21.9131 24.6383 21.9131 28C21.9131 31.3617 24.6383 34.087 28 34.087Z" fill="#F0F0F0"/>
<path d="M28 20.4893L29.8778 24.7481L34.5048 24.2449L31.7556 28.0005L34.5048 31.7561L29.8778 31.2529L28 35.5117L26.1221 31.2529L21.4951 31.756L24.2444 28.0005L21.4951 24.2449L26.1221 24.7481L28 20.4893Z" fill="#0052B4"/>
</g>
<defs>
<clipPath id="clip0_516_12378">
<rect width="56" height="56" fill="white"/>
</clipPath>
</defs>
</svg>
