<svg width="56" height="56" viewBox="0 0 56 56" fill="none" xmlns="http://www.w3.org/2000/svg">
<g clip-path="url(#clip0_516_13165)">
<path d="M28 56C43.464 56 56 43.464 56 28C56 12.536 43.464 0 28 0C12.536 0 0 12.536 0 28C0 43.464 12.536 56 28 56Z" fill="#F0F0F0"/>
<path d="M37.7389 27.9998C37.7389 30.4346 33.3786 36.5216 27.9998 36.5216C22.6211 36.5216 18.2607 30.4346 18.2607 27.9998C18.2607 22.621 22.6211 18.2607 27.9998 18.2607C33.3786 18.2607 37.7389 22.621 37.7389 27.9998Z" fill="#D80027"/>
<path d="M37.7389 28C37.7389 33.3788 33.3786 37.7391 27.9998 37.7391C22.6211 37.7391 18.2607 33.3788 18.2607 28" fill="#0052B4"/>
<path d="M38.3223 36.6084L40.9043 34.0263L42.6257 35.7477L40.0437 38.3298L38.3223 36.6084Z" fill="black"/>
<path d="M34.0176 40.9121L36.5996 38.33L38.321 40.0514L35.739 42.6335L34.0176 40.9121Z" fill="black"/>
<path d="M43.4863 41.7725L46.0684 39.1904L47.7898 40.9118L45.2077 43.4939L43.4863 41.7725Z" fill="black"/>
<path d="M39.1826 46.0771L41.7647 43.4951L43.4861 45.2165L40.904 47.7985L39.1826 46.0771Z" fill="black"/>
<path d="M40.9043 39.1914L43.4864 36.6093L45.2078 38.3307L42.6257 40.9128L40.9043 39.1914Z" fill="black"/>
<path d="M36.6016 43.4941L39.1836 40.9121L40.905 42.6335L38.323 45.2156L36.6016 43.4941Z" fill="black"/>
<path d="M43.498 19.3965L36.6125 12.511L38.3339 10.7896L45.2194 17.6751L43.498 19.3965Z" fill="black"/>
<path d="M36.6113 17.6758L34.0293 15.0937L35.7506 13.3724L38.3327 15.9545L36.6113 17.6758Z" fill="black"/>
<path d="M40.916 21.9795L38.334 19.3974L40.0553 17.6761L42.6373 20.2582L40.916 21.9795Z" fill="black"/>
<path d="M41.7744 12.5107L39.1923 9.92868L40.9138 8.20727L43.4958 10.7893L41.7744 12.5107Z" fill="black"/>
<path d="M46.0811 16.8154L43.499 14.2334L45.2204 12.512L47.8025 15.094L46.0811 16.8154Z" fill="black"/>
<path d="M9.92578 39.1855L16.8113 46.0711L15.0899 47.7925L8.20438 40.9069L9.92578 39.1855Z" fill="black"/>
<path d="M16.8125 40.9062L19.3946 43.4883L17.6732 45.2096L15.0912 42.6276L16.8125 40.9062Z" fill="black"/>
<path d="M12.5078 36.6035L15.0899 39.1856L13.3685 40.907L10.7864 38.3249L12.5078 36.6035Z" fill="black"/>
<path d="M15.0898 34.0205L21.9754 40.906L20.254 42.6274L13.3684 35.7419L15.0898 34.0205Z" fill="black"/>
<path d="M16.8105 9.92285L9.92502 16.8084L8.20362 15.087L15.0891 8.20145L16.8105 9.92285Z" fill="black"/>
<path d="M19.3936 12.5049L12.508 19.3904L10.7866 17.669L17.6722 10.7835L19.3936 12.5049Z" fill="black"/>
<path d="M21.9775 15.0879L15.092 21.9734L13.3707 20.2521L20.2562 13.3666L21.9775 15.0879Z" fill="black"/>
</g>
<defs>
<clipPath id="clip0_516_13165">
<rect width="56" height="56" fill="white"/>
</clipPath>
</defs>
</svg>
