<svg width="56" height="56" viewBox="0 0 56 56" fill="none" xmlns="http://www.w3.org/2000/svg">
<g clip-path="url(#clip0_516_12549)">
<path d="M28 56C43.464 56 56 43.464 56 28C56 12.536 43.464 0 28 0C12.536 0 0 12.536 0 28C0 43.464 12.536 56 28 56Z" fill="#F0F0F0"/>
<path d="M28.0006 0C15.9616 0 5.69839 7.5985 1.74219 18.2609H54.2591C50.3028 7.5985 40.0396 0 28.0006 0Z" fill="#D80027"/>
<path d="M28.0006 55.9997C40.0396 55.9997 50.3028 48.4012 54.259 37.7388H1.74219C5.69839 48.4012 15.9616 55.9997 28.0006 55.9997Z" fill="#338AF3"/>
</g>
<defs>
<clipPath id="clip0_516_12549">
<rect width="56" height="56" fill="white"/>
</clipPath>
</defs>
</svg>
