<svg width="56" height="56" viewBox="0 0 56 56" fill="none" xmlns="http://www.w3.org/2000/svg">
<g clip-path="url(#clip0_516_12501)">
<path d="M28 56C43.464 56 56 43.464 56 28C56 12.536 43.464 0 28 0C12.536 0 0 12.536 0 28C0 43.464 12.536 56 28 56Z" fill="#F0F0F0"/>
<path d="M28.0003 0C15.0635 0 4.17784 8.77417 0.964844 20.6956H55.0358C51.8227 8.77417 40.937 0 28.0003 0Z" fill="#A2001D"/>
<path d="M28.0003 56.0003C40.937 56.0003 51.8227 47.2261 55.0357 35.3047H0.964844C4.17784 47.226 15.0635 56.0003 28.0003 56.0003Z" fill="#A2001D"/>
</g>
<defs>
<clipPath id="clip0_516_12501">
<rect width="56" height="56" fill="white"/>
</clipPath>
</defs>
</svg>
