<svg width="56" height="56" viewBox="0 0 56 56" fill="none" xmlns="http://www.w3.org/2000/svg">
<g clip-path="url(#clip0_516_12937)">
<path d="M0 28.0001C0 40.039 7.5985 50.3022 18.2607 54.2584L20.6956 28L18.2607 1.7417C7.5985 5.69801 0 15.9611 0 28.0001Z" fill="#6DA544"/>
<path d="M56.001 28C56.001 12.5361 43.4649 0 28.001 0C24.576 0 21.2951 0.616109 18.2617 1.74158V54.2584C21.2951 55.384 24.576 56 28.001 56C43.4649 56 56.001 43.4639 56.001 28Z" fill="#D80027"/>
<path d="M18.2606 37.7394C23.6393 37.7394 27.9996 33.3791 27.9996 28.0003C27.9996 22.6216 23.6393 18.2612 18.2606 18.2612C12.8818 18.2612 8.52148 22.6216 8.52148 28.0003C8.52148 33.3791 12.8818 37.7394 18.2606 37.7394Z" fill="#FFDA44"/>
<path d="M12.7832 23.1304V29.2173C12.7832 32.2428 15.2358 34.6956 18.2615 34.6956C21.2871 34.6956 23.7397 32.2429 23.7397 29.2173V23.1304H12.7832Z" fill="#D80027"/>
<path d="M18.2607 31.0435C17.2538 31.0435 16.4346 30.2243 16.4346 29.2174V26.7827H20.0867V29.2175C20.0867 30.2243 19.2675 31.0435 18.2607 31.0435Z" fill="#F0F0F0"/>
</g>
<defs>
<clipPath id="clip0_516_12937">
<rect width="56" height="56" fill="white"/>
</clipPath>
</defs>
</svg>
