<svg width="56" height="56" viewBox="0 0 56 56" fill="none" xmlns="http://www.w3.org/2000/svg">
<g clip-path="url(#clip0_516_12974)">
<path d="M37.7391 1.74147C34.7057 0.616109 31.425 1.45575e-08 28 1.45575e-08C24.5751 -0.00010936 21.2943 0.616109 18.261 1.74147L15.8262 27.9999L18.261 54.2583C21.2942 55.384 24.575 56 28 56C31.4249 56 34.7058 55.384 37.7391 54.2583L40.1738 28L37.7391 1.74147Z" fill="#FFDA44"/>
<path d="M56.0002 28.0001C56.0002 15.9612 48.4017 5.69779 37.7393 1.7417V54.2588C48.4017 50.3022 56.0001 40.0392 56.0002 28.0001Z" fill="#D80027"/>
<path d="M0 27.9999C0 40.0391 7.5985 50.3021 18.2607 54.2585L18.2608 1.7417C7.5985 5.69779 0 15.9609 0 27.9999H0Z" fill="#0052B4"/>
</g>
<defs>
<clipPath id="clip0_516_12974">
<rect width="56" height="56" fill="white"/>
</clipPath>
</defs>
</svg>
