<svg width="56" height="56" viewBox="0 0 56 56" fill="none" xmlns="http://www.w3.org/2000/svg">
<g clip-path="url(#clip0_516_13086)">
<path d="M28 56C43.464 56 56 43.464 56 28C56 12.536 43.464 0 28 0C12.536 0 0 12.536 0 28C0 43.464 12.536 56 28 56Z" fill="#F0F0F0"/>
<path d="M0 28.0001C0 12.5361 12.5361 0 28 0C43.4639 0 56 12.5361 56 28.0001" fill="#D80027"/>
<path d="M17.0439 14.6085C17.0439 10.5291 19.9109 7.12116 23.7395 6.28499C23.151 6.15659 22.5406 6.08691 21.9133 6.08691C17.2068 6.08691 13.3916 9.90213 13.3916 14.6086C13.3916 19.3152 17.2068 23.1304 21.9133 23.1304C22.5404 23.1304 23.1509 23.0607 23.7395 22.9322C19.9109 22.096 17.0439 18.6881 17.0439 14.6085Z" fill="#F0F0F0"/>
<path d="M27.9995 6.69531L28.6039 8.55523H30.5596L28.9773 9.70487L29.5817 11.5648L27.9995 10.4154L26.4173 11.5648L27.0217 9.70487L25.4395 8.55523H27.3951L27.9995 6.69531Z" fill="#F0F0F0"/>
<path d="M23.2556 10.3477L23.8599 12.2077H25.8156L24.2334 13.3572L24.8378 15.2171L23.2556 14.0677L21.6731 15.2171L22.2776 13.3572L20.6953 12.2077H22.651L23.2556 10.3477Z" fill="#F0F0F0"/>
<path d="M32.7436 10.3477L33.3481 12.2077H35.3038L33.7214 13.3572L34.3259 15.2171L32.7436 14.0677L31.1614 15.2171L31.7658 13.3572L30.1836 12.2077H32.1392L32.7436 10.3477Z" fill="#F0F0F0"/>
<path d="M30.9194 15.8262L31.5238 17.6862H33.4794L31.8972 18.8357L32.5016 20.6957L30.9194 19.5462L29.3372 20.6957L29.9416 18.8357L28.3594 17.6862H30.3149L30.9194 15.8262Z" fill="#F0F0F0"/>
<path d="M25.0816 15.8262L25.6859 17.6862H27.6418L26.0594 18.8357L26.664 20.6957L25.0816 19.5462L23.4993 20.6957L24.1037 18.8357L22.5215 17.6862H24.4772L25.0816 15.8262Z" fill="#F0F0F0"/>
</g>
<defs>
<clipPath id="clip0_516_13086">
<rect width="56" height="56" fill="white"/>
</clipPath>
</defs>
</svg>
