<svg width="56" height="56" viewBox="0 0 56 56" fill="none" xmlns="http://www.w3.org/2000/svg">
<g clip-path="url(#clip0_516_13356)">
<path d="M28 56C43.464 56 56 43.464 56 28C56 12.536 43.464 0 28 0C12.536 0 0 12.536 0 28C0 43.464 12.536 56 28 56Z" fill="#D80027"/>
<path d="M26.853 22.8799L29.1504 26.0457L32.871 24.8393L30.57 28.0025L32.8671 31.1682L29.1478 29.9572L26.8469 33.1203L26.8493 29.209L23.1299 27.998L26.8506 26.7916L26.853 22.8799Z" fill="#F0F0F0"/>
<path d="M20.5833 35.913C16.2131 35.913 12.6703 32.3701 12.6703 27.9999C12.6703 23.6297 16.2131 20.0869 20.5833 20.0869C21.9459 20.0869 23.228 20.4315 24.3474 21.038C22.5913 19.3206 20.1898 18.2607 17.5399 18.2607C12.161 18.2607 7.80078 22.6211 7.80078 27.9998C7.80078 33.3786 12.1611 37.7389 17.5399 37.7389C20.19 37.7389 22.5915 36.6789 24.3474 34.9616C23.228 35.5684 21.9459 35.913 20.5833 35.913Z" fill="#F0F0F0"/>
</g>
<defs>
<clipPath id="clip0_516_13356">
<rect width="56" height="56" fill="white"/>
</clipPath>
</defs>
</svg>
