<svg xmlns="http://www.w3.org/2000/svg" width="80" height="80" fill="none"><g clip-path="url(#a)"><path fill="url(#b)" d="M75.93 53.895C67.9 72.656 46.708 80.715 30.103 79.341c-4.533-.375-13.656-1.13-20.78-7.864-13.677-12.932-11.57-39.964 1.524-55.878C12.533 13.549 24.206-.182 42.395.002c13.317.134 22.663 7.655 23.8 8.592 1.436 1.184 4.602 3.996 7.457 8.458 6.705 10.484 7.295 25.12 2.278 36.843Z" opacity=".3"/><path fill="url(#c)" d="m38.428 49.612-1.513 13.571h17.56l-2.288-13.57H38.428Z"/><path fill="url(#d)" d="M7.873 15.207V47.19a4.851 4.851 0 0 0 4.728 4.85c11.684.302 52.55 1.032 63.673.868a3.572 3.572 0 0 0 3.516-3.468c.214-7.43.563-25.295-.727-33.59a3.674 3.674 0 0 0-3.513-3.11c-9.79-.313-53.111-1.308-64.228-1.059a3.528 3.528 0 0 0-3.45 3.527Z"/><path fill="url(#e)" d="M9.88 15.051v30.386a2.811 2.811 0 0 0 2.77 2.81l62.024.766a2.736 2.736 0 0 0 2.776-2.725l.104-30.113a2 2 0 0 0-1.952-2.008l-63.5-1.283a2.168 2.168 0 0 0-2.222 2.167Z"/><path fill="url(#f)" d="M58.257 65.96H32.558c-.698 0-1.223-.497-1.087-1.03l.33-1.305c.099-.392.53-.68 1.043-.696l24.775-.772c.536-.017 1.01.268 1.127.675l.594 2.077c.153.538-.373 1.05-1.083 1.05Z"/><path fill="url(#g)" d="M9.88 15.051v30.386a2.811 2.811 0 0 0 2.77 2.81l62.024.766a2.736 2.736 0 0 0 2.776-2.725l.104-30.113a2 2 0 0 0-1.952-2.008l-63.5-1.283a2.168 2.168 0 0 0-2.222 2.167Z"/><path fill="#20DF9E" d="M42.5 41.21h-.01a.302.302 0 0 1-.05-.004c-.94-.115-5.72-2.284-6.354-8.149a6.81 6.81 0 0 1-.086-1.07l.011-.443c-.035-2.343.02-3.602.07-4.241.029-.367.282-.658.634-.775l4.755-1.576c.334-.11.682-.165 1.03-.163.348-.002.696.052 1.03.163l4.755 1.576c.352.117.605.408.634.775.05.639.105 1.898.07 4.24l.011.444c0 .36-.03.718-.086 1.07-.633 5.865-5.413 8.034-6.353 8.149a.302.302 0 0 1-.051.005h-.01Z"/><path fill="#20A690" fill-rule="evenodd" d="M42.5 40.436c.133-.028.488-.14.993-.406a8.678 8.678 0 0 0 1.825-1.303c1.277-1.183 2.526-3.028 2.82-5.751a6.048 6.048 0 0 0 .082-.98l-.011-.433v-.03c.035-2.33-.02-3.564-.067-4.17a.088.088 0 0 0-.021-.053.183.183 0 0 0-.084-.052l-4.755-1.576a2.414 2.414 0 0 0-.776-.123h-.011a2.414 2.414 0 0 0-.776.123l-4.756 1.576a.183.183 0 0 0-.084.052.088.088 0 0 0-.02.053c-.049.606-.103 1.84-.068 4.17v.03l-.011.433a6.048 6.048 0 0 0 .082.98c.294 2.723 1.543 4.568 2.82 5.75a8.678 8.678 0 0 0 1.825 1.304c.505.266.86.378.993.406Zm-6.5-8.45.011-.442c-.035-2.343.02-3.602.07-4.241.029-.367.282-.658.634-.775l4.755-1.576c.334-.11.682-.165 1.03-.163.348-.002.696.052 1.03.163l4.755 1.576c.352.117.605.408.634.775.05.639.105 1.898.07 4.24l.011.444c0 .36-.03.718-.086 1.07-.633 5.865-5.413 8.034-6.353 8.149a.302.302 0 0 1-.051.005h-.02a.302.302 0 0 1-.05-.005c-.94-.115-5.72-2.284-6.354-8.149a6.81 6.81 0 0 1-.086-1.07Z" clip-rule="evenodd"/><path fill="#000" d="M42.5 41.21c0-3.078-.05-13.082 0-16.42.348-.003.696.051 1.03.162l4.755 1.576c.352.117.605.408.634.775.05.639.105 1.898.07 4.24l.011.444c0 .36-.03.718-.086 1.07-.633 5.865-5.413 8.034-6.353 8.149a.302.302 0 0 1-.051.005h-.01Z" opacity=".1"/><ellipse cx="42.5" cy="33.257" fill="#18AA79" rx="4.68" ry="4.618"/><ellipse cx="42.5" cy="32.487" fill="#4FFFA8" rx="4.68" ry="4.618"/><path fill="#00B7FF" d="M38.6 32.486c0-.34.046-.68.137-1.009.15.317.368.59.516.916.192.417.706.302.933.668.202.325-.014.736.137 1.076.11.247.368.3.546.481.183.182.179.431.206.669a6.024 6.024 0 0 0 .154.834c-1.53-.527-2.629-1.958-2.629-3.635Zm3.925 3.85c-.22 0-.438-.019-.654-.054.002-.055.003-.105.008-.14.05-.32.213-.631.432-.87.217-.235.514-.394.698-.661.18-.261.233-.612.159-.916-.109-.45-.732-.6-1.068-.845-.194-.14-.366-.357-.62-.375-.116-.008-.214.017-.33-.012-.106-.027-.19-.083-.303-.069-.211.028-.345.25-.572.22-.216-.029-.438-.277-.487-.478-.063-.26.146-.343.37-.366a.646.646 0 0 1 .288.013c.118.043.174.157.28.214.199.107.239-.064.208-.237-.045-.26-.098-.365.138-.544.163-.123.303-.212.277-.433-.016-.13-.088-.189-.02-.318.05-.099.191-.187.283-.246.237-.152 1.015-.14.697-.565-.093-.124-.265-.347-.429-.377-.204-.038-.295.186-.438.284-.147.102-.433.218-.58.06-.199-.212.13-.281.204-.43.033-.07 0-.165-.057-.255a3.78 3.78 0 0 1 .225-.085.323.323 0 0 0 .163.06c.137.009.266-.064.385.027.133.1.228.227.404.259.17.03.35-.067.392-.238.026-.104 0-.214-.024-.32.764.003 1.51.228 2.146.645-.04-.015-.09-.014-.15.014-.124.057-.3.2-.314.343-.017.162.227.185.343.185.173 0 .35-.076.293-.273a.543.543 0 0 0-.11-.228c.128.087.25.182.367.284l-.005.005c-.118.12-.255.215-.335.362a.322.322 0 0 1-.236.178c-.063.015-.136.02-.189.062-.148.114-.064.39.077.472.177.104.44.055.573-.094.105-.116.166-.318.354-.318.083 0 .163.032.221.089.078.079.063.152.08.251.029.175.186.08.282-.008.07.122.133.247.189.376-.105.15-.19.311-.443.138-.152-.104-.245-.255-.436-.302-.167-.04-.337.002-.502.03-.187.031-.409.045-.55.184-.138.134-.21.314-.356.448-.283.26-.402.545-.219.914.176.354.544.546.94.521.39-.026.795-.247.784.308-.004.197.038.333.1.516.056.168.052.331.066.505.012.204.044.406.096.603a3.905 3.905 0 0 1-1.372 1.095 3.983 3.983 0 0 1-1.723.392Z"/><path fill="#000" d="M40.94 35.566c2.585 0 4.68-2.068 4.68-4.619 0-.88-.25-1.704-.683-2.404a4.603 4.603 0 0 1 2.243 3.944c0 2.55-2.095 4.618-4.68 4.618a4.69 4.69 0 0 1-3.996-2.214c.71.428 1.543.675 2.436.675Z" opacity=".1"/><path fill="#342B53" fill-rule="evenodd" d="M42.5 36.207c2.082 0 3.77-1.666 3.77-3.72 0-2.055-1.688-3.72-3.77-3.72s-3.77 1.665-3.77 3.72c0 2.054 1.688 3.72 3.77 3.72Zm0 .898c2.585 0 4.68-2.067 4.68-4.618 0-2.55-2.095-4.619-4.68-4.619-2.585 0-4.68 2.068-4.68 4.619 0 2.55 2.095 4.618 4.68 4.618Z" clip-rule="evenodd"/><g filter="url(#h)"><ellipse cx="46.53" cy="30.306" fill="#FF5E5C" rx="1.95" ry="1.924"/><path fill="#fff" fill-rule="evenodd" d="M47.117 30.016h.147c.057 0 .103.046.103.102v.984a.102.102 0 0 1-.103.102h-1.468a.102.102 0 0 1-.103-.102v-.984c0-.056.046-.102.103-.102h.147v-.285c0-.32.263-.58.587-.58.325 0 .587.26.587.58v.285Zm-.88 0h.587v-.285c0-.16-.132-.29-.294-.29a.292.292 0 0 0-.294.29v.285Zm.292.79c.125 0 .227-.1.227-.224a.226.226 0 0 0-.227-.224c-.126 0-.228.1-.228.224s.102.225.228.225Z" clip-rule="evenodd"/></g><path fill="url(#i)" d="M3.596 69.474a.818.818 0 0 0 .817.816h44.17a.819.819 0 0 0 .817-.816l.367-25.377c0-.449-.529-1.324-1.498-1.259L5.102 41.722a2.06 2.06 0 0 0-2.112 2.105l.606 25.647Z"/><path fill="url(#j)" d="M4.403 68.691a.775.775 0 0 0 .773.773h42.342a.775.775 0 0 0 .772-.773l.347-23.037c-.04-1.386-1.256-1.885-1.993-1.855l-41.372-1.11a1.448 1.448 0 0 0-1.484 1.48l.615 24.522Z"/><path fill="#20DF9E" d="M26.313 63.421h-.008a.257.257 0 0 1-.042-.004c-.768-.094-4.675-1.866-5.193-6.66a5.563 5.563 0 0 1-.07-.875l.01-.361c-.03-1.915.015-2.945.056-3.467a.732.732 0 0 1 .518-.633l3.887-1.288c.273-.09.557-.135.841-.133.285-.002.569.042.842.133l3.887 1.288a.732.732 0 0 1 .518.633c.041.522.086 1.552.057 3.466l.009.362c0 .296-.024.587-.07.875-.518 4.794-4.425 6.566-5.193 6.66a.257.257 0 0 1-.042.004h-.008Z"/><path fill="#20A690" fill-rule="evenodd" d="M26.313 62.788c.108-.023.399-.114.811-.332.438-.23.968-.58 1.492-1.065 1.043-.967 2.064-2.475 2.305-4.7a4.947 4.947 0 0 0 .067-.8l-.01-.355v-.025c.03-1.904-.015-2.912-.055-3.408a.072.072 0 0 0-.017-.043.149.149 0 0 0-.068-.043L26.95 50.73a1.97 1.97 0 0 0-.634-.1h-.009a1.97 1.97 0 0 0-.634.1l-3.887 1.288a.149.149 0 0 0-.068.043.072.072 0 0 0-.018.043c-.039.496-.083 1.504-.054 3.408v.025l-.01.354a4.947 4.947 0 0 0 .067.8c.24 2.226 1.262 3.734 2.305 4.701a7.092 7.092 0 0 0 1.492 1.065c.412.218.703.31.811.332ZM21 55.882l.01-.361c-.03-1.915.015-2.945.056-3.467a.732.732 0 0 1 .518-.633l3.887-1.288c.273-.09.557-.135.841-.133.285-.002.569.042.842.133l3.887 1.288a.732.732 0 0 1 .518.633c.041.522.086 1.552.057 3.466l.009.362c0 .296-.024.587-.07.875-.518 4.794-4.425 6.566-5.193 6.66a.257.257 0 0 1-.042.004h-.015a.257.257 0 0 1-.042-.004c-.768-.094-4.675-1.866-5.193-6.66a5.563 5.563 0 0 1-.07-.875Z" clip-rule="evenodd"/><path fill="#000" d="M26.313 63.421c0-2.516-.04-10.692 0-13.42.284-.003.568.041.841.132l3.887 1.288a.731.731 0 0 1 .518.633c.041.522.086 1.552.057 3.466l.009.362c0 .296-.025.587-.07.875-.518 4.794-4.425 6.566-5.193 6.66a.257.257 0 0 1-.042.004h-.008Z" opacity=".1"/><ellipse cx="26.312" cy="56.92" fill="#18AA79" rx="3.825" ry="3.775"/><ellipse cx="26.312" cy="56.291" fill="#4FFFA8" rx="3.825" ry="3.775"/><path fill="#00B7FF" d="M23.125 56.29c0-.278.037-.555.112-.824.123.259.3.483.422.748.156.342.577.247.762.546.165.266-.01.602.112.88.09.202.301.246.447.393.149.149.145.353.168.547a4.903 4.903 0 0 0 .126.681c-1.25-.43-2.15-1.6-2.15-2.97Zm3.208 3.147c-.18 0-.358-.015-.535-.044.002-.045.003-.086.007-.115.04-.26.174-.515.353-.71.178-.193.42-.323.57-.541.147-.213.19-.5.13-.749-.089-.367-.598-.49-.873-.69-.158-.114-.298-.292-.505-.306-.096-.007-.176.014-.27-.01-.088-.023-.156-.068-.248-.056-.173.022-.282.203-.468.178-.177-.023-.358-.225-.398-.39-.052-.211.12-.28.302-.299a.527.527 0 0 1 .235.011c.097.035.143.128.23.175.162.087.195-.052.17-.194-.037-.212-.08-.298.112-.444.134-.101.248-.174.227-.355-.013-.106-.072-.154-.017-.26.042-.08.157-.152.232-.2.194-.124.83-.115.57-.462-.077-.102-.218-.283-.351-.308-.167-.031-.242.151-.358.232-.12.084-.355.178-.475.05-.162-.174.108-.231.167-.352.028-.057 0-.135-.046-.21.06-.024.121-.047.183-.069a.264.264 0 0 0 .134.05c.112.007.217-.053.315.022.108.082.186.186.33.211.139.025.286-.055.32-.194.021-.085 0-.175-.02-.262a3.233 3.233 0 0 1 1.755.527c-.034-.012-.074-.01-.123.012-.101.046-.245.164-.257.28-.013.133.186.152.28.152.142 0 .286-.063.24-.224a.443.443 0 0 0-.09-.186c.105.071.205.149.3.232l-.004.004c-.096.099-.208.176-.274.296a.263.263 0 0 1-.193.146c-.051.012-.11.016-.154.05-.12.094-.052.318.063.386.144.085.36.045.468-.077.086-.095.136-.26.29-.26a.26.26 0 0 1 .18.073c.064.064.052.125.065.205.024.143.153.066.231-.007.057.1.109.203.154.308-.086.122-.154.255-.362.113-.124-.085-.2-.209-.356-.247-.136-.033-.276.001-.41.024-.153.026-.334.037-.45.151-.112.11-.172.256-.291.366-.23.213-.328.446-.179.747.144.29.444.446.769.426.318-.021.65-.202.64.252-.003.16.031.272.081.421.047.138.044.271.055.413.01.167.036.332.079.493-.3.378-.683.684-1.122.895-.438.21-.92.32-1.408.32Z"/><path fill="#000" d="M25.037 58.807c2.113 0 3.825-1.69 3.825-3.774a3.72 3.72 0 0 0-.558-1.965 3.762 3.762 0 0 1 1.833 3.223c0 2.085-1.712 3.775-3.825 3.775a3.834 3.834 0 0 1-3.266-1.81c.58.35 1.262.551 1.991.551Z" opacity=".1"/><path fill="#342B53" fill-rule="evenodd" d="M26.312 59.332c1.702 0 3.082-1.361 3.082-3.04 0-1.68-1.38-3.042-3.082-3.042-1.701 0-3.08 1.362-3.08 3.041 0 1.68 1.379 3.04 3.08 3.04Zm0 .734c2.113 0 3.825-1.69 3.825-3.775 0-2.084-1.712-3.774-3.825-3.774-2.112 0-3.825 1.69-3.825 3.774 0 2.085 1.713 3.775 3.825 3.775Z" clip-rule="evenodd"/><g filter="url(#k)"><ellipse cx="29.606" cy="54.509" fill="#FF5E5C" rx="1.594" ry="1.573"/><path fill="#fff" fill-rule="evenodd" d="M30.087 54.272h.12c.046 0 .084.037.084.083v.805a.084.084 0 0 1-.084.083h-1.2a.084.084 0 0 1-.085-.083v-.805c0-.046.038-.083.084-.083h.12v-.233c0-.262.215-.474.48-.474.266 0 .48.212.48.474v.233Zm-.72 0h.48v-.233a.239.239 0 0 0-.24-.237.239.239 0 0 0-.24.237v.233Zm.238.646a.185.185 0 0 0 .186-.184.185.185 0 0 0-.186-.183.185.185 0 0 0-.186.183c0 .102.084.184.186.184Z" clip-rule="evenodd"/></g><path fill="url(#l)" d="M.175 72.396h51.75c.09 0 .162-.073.162-.162v-1.906a.162.162 0 0 0-.161-.162H.175a.162.162 0 0 0-.162.162v1.906c0 .09.073.162.162.162Z"/><path fill="url(#m)" d="M63.802 46.856a.255.255 0 0 1-.148-.047 9.148 9.148 0 0 1-.34-.25.258.258 0 0 1 .313-.408c.106.081.215.16.323.237a.257.257 0 0 1-.148.468Z" opacity=".3"/><path fill="url(#n)" d="m72.255 72.211-17.22.074c-1.417.006-2.58-1.062-2.622-2.407-.188-5.977-.656-23.423-.592-29.113.01-.978.83-1.774 1.86-1.806 4-.128 13.619-.347 18.088.293.94.135 1.647.887 1.682 1.79.19 5.008.806 23.709.696 29.397-.02.98-.86 1.768-1.892 1.772Z"/><path fill="url(#o)" d="m71.582 70.742-16.016.069c-.81.003-1.473-.614-1.489-1.386l-.523-27.777c-.015-.765.628-1.396 1.431-1.402l15.873-.12c.574-.005 1.046.429 1.063.977l.798 28.518c.019.612-.495 1.118-1.137 1.121Z"/><path fill="#20DF9E" d="M63.125 60.421h-.006a.201.201 0 0 1-.033-.003c-.596-.073-3.63-1.45-4.031-5.171a4.325 4.325 0 0 1-.055-.68l.007-.28c-.022-1.487.012-2.287.044-2.692a.568.568 0 0 1 .403-.492l3.017-1c.213-.07.433-.105.654-.103.22-.002.441.033.654.103l3.017 1a.568.568 0 0 1 .403.492c.032.405.066 1.205.044 2.691l.007.281c0 .23-.02.456-.055.68-.401 3.722-3.435 5.098-4.031 5.171a.201.201 0 0 1-.033.003h-.006Z"/><path fill="#20A690" fill-rule="evenodd" d="M63.125 59.93c.084-.018.31-.09.63-.258.34-.18.751-.45 1.159-.827.81-.75 1.603-1.922 1.79-3.65l.002-.024c.032-.198.049-.397.049-.597l-.007-.275v-.02c.022-1.478-.012-2.261-.043-2.646a.056.056 0 0 0-.013-.033.115.115 0 0 0-.053-.033l-3.018-1a1.533 1.533 0 0 0-.492-.078h-.008a1.533 1.533 0 0 0-.492.077l-3.018 1a.115.115 0 0 0-.053.034.056.056 0 0 0-.013.033c-.03.385-.065 1.168-.043 2.646a.43.43 0 0 1 0 .02l-.007.275a3.834 3.834 0 0 0 .052.621c.186 1.728.98 2.9 1.79 3.65.407.377.818.648 1.158.827.32.169.546.24.63.257ZM59 54.566l.007-.28c-.022-1.487.012-2.287.044-2.692a.568.568 0 0 1 .403-.492l3.017-1c.213-.07.433-.105.654-.103.22-.002.441.033.654.103l3.017 1a.568.568 0 0 1 .403.492c.032.405.066 1.205.044 2.691l.007.281c0 .23-.02.456-.055.68-.401 3.722-3.435 5.098-4.031 5.171a.201.201 0 0 1-.033.003h-.012a.201.201 0 0 1-.033-.003c-.596-.073-3.63-1.45-4.031-5.171a4.325 4.325 0 0 1-.055-.68Z" clip-rule="evenodd"/><path fill="#000" d="M63.125 60.421c0-1.954-.032-8.302 0-10.421.22-.002.441.033.654.103l3.017 1a.568.568 0 0 1 .403.492c.032.405.066 1.205.044 2.691l.007.281c0 .23-.02.456-.055.68-.402 3.722-3.435 5.098-4.031 5.171a.201.201 0 0 1-.033.003h-.006Z" opacity=".1"/><ellipse cx="63.125" cy="55.373" fill="#18AA79" rx="2.97" ry="2.931"/><ellipse cx="63.125" cy="54.885" fill="#4FFFA8" rx="2.97" ry="2.931"/><path fill="#00B7FF" d="M60.65 54.884c0-.216.03-.431.087-.64.095.201.233.375.328.581.121.265.448.192.592.424.128.206-.01.467.087.683.07.157.233.19.346.305.116.116.113.274.131.425a3.822 3.822 0 0 0 .098.529c-.971-.334-1.669-1.242-1.669-2.307Zm2.49 2.443c-.138 0-.277-.011-.414-.034.001-.034.002-.066.005-.089.032-.202.135-.4.274-.551.138-.15.327-.25.443-.42a.742.742 0 0 0 .101-.582c-.07-.285-.465-.38-.678-.535-.123-.09-.232-.227-.393-.238-.074-.005-.136.01-.21-.008-.067-.017-.12-.053-.192-.044-.134.017-.219.158-.363.14-.137-.019-.278-.176-.31-.304-.039-.164.093-.218.236-.232a.41.41 0 0 1 .182.008c.075.028.11.1.178.136.126.068.152-.04.133-.15-.03-.165-.063-.232.087-.345.103-.079.192-.135.175-.275-.01-.083-.055-.12-.012-.202.032-.063.122-.12.18-.156.15-.096.644-.09.442-.359-.06-.079-.168-.22-.272-.24-.13-.023-.188.119-.278.181-.093.065-.275.139-.369.038-.126-.134.084-.178.13-.273.021-.044 0-.104-.036-.162.047-.02.094-.037.142-.054.03.022.067.035.104.039.087.005.169-.04.245.017.084.064.144.144.256.164.108.02.222-.042.249-.15.016-.067 0-.136-.016-.204a2.51 2.51 0 0 1 1.362.41c-.026-.01-.057-.01-.095.008-.079.036-.19.128-.2.218-.01.103.145.117.218.117.11 0 .222-.048.187-.173a.343.343 0 0 0-.07-.145c.08.056.159.116.233.18l-.004.004c-.074.076-.161.137-.212.23a.204.204 0 0 1-.15.113c-.04.01-.086.012-.12.039-.094.072-.04.247.049.3a.31.31 0 0 0 .364-.06c.066-.074.105-.202.224-.202.053 0 .103.02.14.056.05.05.04.097.05.16.02.11.12.05.18-.005.044.077.085.157.12.238-.067.095-.12.198-.281.088-.096-.066-.156-.162-.277-.192-.105-.025-.214.001-.318.019-.119.02-.26.029-.35.117-.087.085-.133.199-.226.284-.179.166-.254.346-.138.58a.61.61 0 0 0 .597.33c.247-.015.504-.156.497.197a.876.876 0 0 0 .063.327c.036.107.034.21.042.32.008.13.028.258.061.383-.232.294-.53.531-.87.695-.341.163-.715.248-1.094.248Z"/><path fill="#000" d="M62.135 56.839c1.64 0 2.97-1.312 2.97-2.931a2.89 2.89 0 0 0-.434-1.526 2.921 2.921 0 0 1 1.424 2.503c0 1.619-1.33 2.93-2.97 2.93a2.977 2.977 0 0 1-2.536-1.404c.45.271.98.428 1.546.428Z" opacity=".1"/><path fill="#342B53" fill-rule="evenodd" d="M63.125 57.246c1.321 0 2.392-1.057 2.392-2.361 0-1.304-1.07-2.361-2.392-2.361-1.322 0-2.393 1.057-2.393 2.36 0 1.305 1.072 2.362 2.393 2.362Zm0 .57c1.64 0 2.97-1.312 2.97-2.931s-1.33-2.931-2.97-2.931c-1.64 0-2.97 1.312-2.97 2.93 0 1.62 1.33 2.932 2.97 2.932Z" clip-rule="evenodd"/><g filter="url(#p)"><ellipse cx="65.683" cy="53.501" fill="#FF5E5C" rx="1.238" ry="1.221"/><path fill="#fff" fill-rule="evenodd" d="M66.055 53.317h.093c.037 0 .066.03.066.065v.624c0 .036-.03.065-.066.065h-.931a.065.065 0 0 1-.066-.065v-.624c0-.036.03-.065.066-.065h.093v-.18a.37.37 0 0 1 .373-.369.37.37 0 0 1 .372.368v.181Zm-.559 0h.373v-.18a.185.185 0 0 0-.186-.185.185.185 0 0 0-.187.184v.181Zm.185.502c.08 0 .145-.064.145-.143a.143.143 0 0 0-.145-.142.143.143 0 0 0-.144.142c0 .079.065.143.144.143Z" clip-rule="evenodd"/></g><path fill="url(#q)" d="M63.933 55.87c-.03 3.467-.12 15.43.046 19.667.017.448.33.805.714.815 1.899.049 8.862.147 11.965-.044.647-.04 1.154-.658 1.158-1.416.02-3.64.034-13.878-.362-18.562-.047-.562-.43-1.005-.91-1.054-2.071-.217-9.069-.722-11.75-.485-.483.043-.856.511-.861 1.078Z"/><path fill="url(#r)" d="M64.793 56.922c-.067 2.8-.274 12.114-.13 15.556.022.503.366.905.796.93 1.771.098 7.812.29 10.404.015.467-.05.828-.496.846-1.044.096-2.856.367-11.53.226-14.933-.022-.543-.387-.981-.85-1.024-1.918-.178-8.338-.576-10.542-.408-.413.031-.738.424-.75.908Z"/><path fill="#20DF9E" d="M70.77 69h-.003a.13.13 0 0 1-.022-.002c-.4-.049-2.438-.974-2.708-3.474a2.9 2.9 0 0 1-.037-.456l.005-.189c-.015-.998.008-1.535.03-1.808a.382.382 0 0 1 .27-.33l2.027-.672c.142-.047.29-.07.439-.069.148-.001.296.022.439.07l2.027.671c.15.05.258.174.27.33.022.273.045.81.03 1.808l.005.189a2.9 2.9 0 0 1-.037.456c-.27 2.5-2.308 3.425-2.708 3.474a.128.128 0 0 1-.022.002h-.004Z"/><path fill="#20A690" fill-rule="evenodd" d="M70.77 68.67c.058-.012.209-.06.424-.173a3.7 3.7 0 0 0 .778-.556c.544-.504 1.077-1.29 1.202-2.451l.002-.016c.022-.133.033-.267.033-.402l-.005-.184v-.014c.015-.993-.008-1.518-.028-1.777a.037.037 0 0 0-.01-.022.077.077 0 0 0-.035-.023l-2.027-.672a1.03 1.03 0 0 0-.33-.052h-.005a1.03 1.03 0 0 0-.331.052l-2.028.672a.077.077 0 0 0-.035.023.037.037 0 0 0-.01.022c-.02.258-.043.784-.028 1.777v.014l-.005.184a2.57 2.57 0 0 0 .035.418c.126 1.16.658 1.947 1.202 2.451a3.7 3.7 0 0 0 .778.556c.216.113.367.161.424.173ZM68 65.068l.005-.189c-.015-.998.008-1.535.03-1.808a.382.382 0 0 1 .27-.33l2.027-.672c.142-.047.29-.07.439-.069.148-.001.296.022.439.07l2.027.671c.15.05.258.174.27.33.022.273.045.81.03 1.808l.005.189a2.9 2.9 0 0 1-.037.456c-.27 2.5-2.308 3.425-2.708 3.474a.128.128 0 0 1-.022.002h-.008a.13.13 0 0 1-.022-.002c-.4-.049-2.438-.974-2.708-3.474a2.9 2.9 0 0 1-.037-.456Z" clip-rule="evenodd"/><path fill="#000" d="M70.77 69c0-1.313-.02-5.577 0-7 .149-.001.297.022.44.07l2.027.671c.15.05.258.174.27.33.022.273.045.81.03 1.808l.005.189a2.9 2.9 0 0 1-.037.456c-.27 2.5-2.308 3.425-2.708 3.474a.13.13 0 0 1-.022.002h-.004Z" opacity=".1"/><ellipse cx="70.771" cy="65.609" fill="#18AA79" rx="1.995" ry="1.969"/><ellipse cx="70.771" cy="65.281" fill="#4FFFA8" rx="1.995" ry="1.969"/><path fill="#00B7FF" d="M69.108 65.28c0-.144.02-.289.059-.43.064.136.157.253.22.391.081.178.3.129.397.285.086.139-.005.314.059.459.047.105.157.128.233.205.077.077.076.184.088.285a2.579 2.579 0 0 0 .065.355 1.647 1.647 0 0 1-1.12-1.55Zm1.673 1.642c-.093 0-.186-.008-.278-.023 0-.023.001-.045.003-.06a.728.728 0 0 1 .184-.37c.093-.1.22-.168.298-.282.076-.111.1-.261.068-.39-.047-.193-.313-.257-.456-.36-.082-.06-.155-.153-.264-.16-.05-.004-.091.007-.14-.006-.046-.011-.081-.035-.13-.03-.09.013-.147.107-.244.094-.092-.012-.186-.117-.207-.203-.027-.11.062-.147.157-.156a.276.276 0 0 1 .123.005c.05.019.074.067.12.092.084.045.101-.028.088-.102-.019-.11-.042-.155.059-.231.07-.053.13-.09.118-.185-.007-.055-.037-.08-.009-.136.022-.042.082-.08.121-.105.101-.064.433-.06.298-.24-.04-.053-.114-.148-.183-.161-.088-.016-.126.08-.187.121-.063.044-.185.093-.248.026-.084-.09.056-.12.087-.184.015-.03 0-.07-.024-.109a1.64 1.64 0 0 1 .096-.036c.02.015.044.024.07.026.058.004.113-.027.164.012.056.043.097.096.172.11.073.013.15-.029.167-.102.011-.044 0-.09-.01-.136.326.002.644.097.915.275-.018-.006-.038-.006-.064.006-.053.024-.128.085-.134.146-.007.07.097.08.146.08.074 0 .149-.033.125-.117a.231.231 0 0 0-.047-.098c.055.038.107.078.157.121l-.003.003c-.05.05-.108.091-.142.154a.137.137 0 0 1-.101.076c-.027.006-.058.009-.08.026-.064.05-.028.166.032.201a.208.208 0 0 0 .245-.04c.044-.049.07-.135.15-.135.036 0 .07.013.095.038.033.033.026.065.034.107.012.075.08.034.12-.004.03.052.057.106.08.16-.044.064-.08.133-.188.06-.065-.045-.105-.11-.186-.13-.071-.016-.144.001-.214.013-.08.014-.174.02-.235.08-.058.056-.09.133-.151.19-.12.111-.172.232-.094.39a.41.41 0 0 0 .401.222c.166-.011.339-.106.334.131a.589.589 0 0 0 .042.22c.025.072.023.141.029.215.005.087.019.173.041.257a1.665 1.665 0 0 1-.585.467c-.229.11-.48.167-.735.167Z"/><path fill="#000" d="M70.106 66.594c1.102 0 1.995-.882 1.995-1.969a1.94 1.94 0 0 0-.291-1.025c.573.346.956.97.956 1.681 0 1.087-.893 1.969-1.995 1.969a2 2 0 0 1-1.704-.944c.303.183.658.288 1.039.288Z" opacity=".1"/><path fill="#342B53" fill-rule="evenodd" d="M70.77 66.867c.888 0 1.608-.71 1.608-1.586 0-.876-.72-1.586-1.607-1.586-.888 0-1.607.71-1.607 1.586 0 .876.72 1.586 1.607 1.586Zm0 .383c1.103 0 1.996-.881 1.996-1.969 0-1.087-.894-1.969-1.995-1.969-1.102 0-1.995.882-1.995 1.97 0 1.087.893 1.968 1.995 1.968Z" clip-rule="evenodd"/><g filter="url(#s)"><ellipse cx="72.489" cy="64.352" fill="#FF5E5C" rx=".831" ry=".82"/><path fill="#fff" fill-rule="evenodd" d="M72.74 64.228h.062c.024 0 .044.02.044.044v.42c0 .023-.02.043-.044.043h-.626a.044.044 0 0 1-.044-.044v-.42c0-.023.02-.043.044-.043h.063v-.121c0-.137.112-.248.25-.248s.25.111.25.248v.121Zm-.376 0h.25v-.121a.124.124 0 0 0-.125-.124.124.124 0 0 0-.125.124v.121Zm.124.337a.096.096 0 0 0 .097-.096.096.096 0 0 0-.097-.095.096.096 0 0 0-.097.095c0 .053.044.096.097.096Z" clip-rule="evenodd"/></g><path fill="#fff" d="M68.62 55.35c0 .106.073.193.164.198.448.021 1.713.083 2.278.114.111.006.197-.112.175-.24l-.004-.021a.184.184 0 0 0-.154-.16c-.383-.036-1.536-.135-2.298-.094-.092.006-.163.096-.161.203Z" opacity=".5"/></g><defs><linearGradient id="b" x1="84.072" x2="25.66" y1="89.825" y2="26.76" gradientUnits="userSpaceOnUse"><stop stop-color="#0E40F1"/><stop offset="1" stop-color="#95C8F8"/></linearGradient><linearGradient id="c" x1="46.465" x2="45.554" y1="78.436" y2="60.397" gradientUnits="userSpaceOnUse"><stop stop-color="#2B3582"/><stop offset="1" stop-color="#150E42"/></linearGradient><linearGradient id="d" x1="44.373" x2="40.843" y1="44.817" y2="-14.592" gradientUnits="userSpaceOnUse"><stop stop-color="#4451B9"/><stop offset="1" stop-color="#251A6D"/></linearGradient><linearGradient id="e" x1="46.787" x2="41.284" y1="-9.601" y2="61.441" gradientUnits="userSpaceOnUse"><stop stop-color="#53D8FF"/><stop offset="1" stop-color="#3840F7"/></linearGradient><linearGradient id="f" x1="50.695" x2="41.003" y1="54.583" y2="73.249" gradientUnits="userSpaceOnUse"><stop stop-color="#2B3582"/><stop offset="1" stop-color="#150E42"/></linearGradient><linearGradient id="g" x1="26.5" x2="76.5" y1="13" y2="51" gradientUnits="userSpaceOnUse"><stop stop-color="#112B56"/><stop offset="1" stop-color="#142D54"/></linearGradient><linearGradient id="i" x1="26.661" x2="24.057" y1="64.676" y2="23.591" gradientUnits="userSpaceOnUse"><stop stop-color="#4451B9"/><stop offset="1" stop-color="#251A6D"/></linearGradient><linearGradient id="j" x1="14.802" x2="50.56" y1="42.775" y2="67.079" gradientUnits="userSpaceOnUse"><stop stop-color="#112B56"/><stop offset="1" stop-color="#142D54"/></linearGradient><linearGradient id="l" x1="25.735" x2="25.749" y1="70.604" y2="73.824" gradientUnits="userSpaceOnUse"><stop stop-color="#4451B9"/><stop offset="1" stop-color="#251A6D"/></linearGradient><linearGradient id="m" x1="63.213" x2="64.059" y1="46.477" y2="46.477" gradientUnits="userSpaceOnUse"><stop stop-color="#B37CFF"/><stop offset="1" stop-color="#F895E7"/></linearGradient><linearGradient id="n" x1="63.123" x2="55.786" y1="65.709" y2="18.524" gradientUnits="userSpaceOnUse"><stop stop-color="#4451B9"/><stop offset="1" stop-color="#251A6D"/></linearGradient><linearGradient id="o" x1="58.261" x2="79.252" y1="40.224" y2="45.544" gradientUnits="userSpaceOnUse"><stop stop-color="#112B56"/><stop offset="1" stop-color="#142D54"/></linearGradient><linearGradient id="q" x1="70.937" x2="66.007" y1="72.159" y2="41.634" gradientUnits="userSpaceOnUse"><stop stop-color="#4451B9"/><stop offset="1" stop-color="#251A6D"/></linearGradient><linearGradient id="r" x1="67.649" x2="80.975" y1="56.03" y2="59.829" gradientUnits="userSpaceOnUse"><stop stop-color="#112B56"/><stop offset="1" stop-color="#142D54"/></linearGradient><filter id="h" width="7.9" height="7.849" x="42.58" y="26.381" color-interpolation-filters="sRGB" filterUnits="userSpaceOnUse"><feFlood flood-opacity="0" result="BackgroundImageFix"/><feColorMatrix in="SourceAlpha" result="hardAlpha" values="0 0 0 0 0 0 0 0 0 0 0 0 0 0 0 0 0 0 127 0"/><feOffset/><feGaussianBlur stdDeviation="1"/><feComposite in2="hardAlpha" operator="out"/><feColorMatrix values="0 0 0 0 0 0 0 0 0 0 0 0 0 0 0 0 0 0 0.2 0"/><feBlend in2="BackgroundImageFix" result="effect1_dropShadow_3718_5684"/><feBlend in="SourceGraphic" in2="effect1_dropShadow_3718_5684" result="shape"/></filter><filter id="k" width="7.188" height="7.146" x="26.013" y="50.936" color-interpolation-filters="sRGB" filterUnits="userSpaceOnUse"><feFlood flood-opacity="0" result="BackgroundImageFix"/><feColorMatrix in="SourceAlpha" result="hardAlpha" values="0 0 0 0 0 0 0 0 0 0 0 0 0 0 0 0 0 0 127 0"/><feOffset/><feGaussianBlur stdDeviation="1"/><feComposite in2="hardAlpha" operator="out"/><feColorMatrix values="0 0 0 0 0 0 0 0 0 0 0 0 0 0 0 0 0 0 0.2 0"/><feBlend in2="BackgroundImageFix" result="effect1_dropShadow_3718_5684"/><feBlend in="SourceGraphic" in2="effect1_dropShadow_3718_5684" result="shape"/></filter><filter id="p" width="6.475" height="6.442" x="62.445" y="50.28" color-interpolation-filters="sRGB" filterUnits="userSpaceOnUse"><feFlood flood-opacity="0" result="BackgroundImageFix"/><feColorMatrix in="SourceAlpha" result="hardAlpha" values="0 0 0 0 0 0 0 0 0 0 0 0 0 0 0 0 0 0 127 0"/><feOffset/><feGaussianBlur stdDeviation="1"/><feComposite in2="hardAlpha" operator="out"/><feColorMatrix values="0 0 0 0 0 0 0 0 0 0 0 0 0 0 0 0 0 0 0.2 0"/><feBlend in2="BackgroundImageFix" result="effect1_dropShadow_3718_5684"/><feBlend in="SourceGraphic" in2="effect1_dropShadow_3718_5684" result="shape"/></filter><filter id="s" width="5.662" height="5.641" x="69.657" y="61.531" color-interpolation-filters="sRGB" filterUnits="userSpaceOnUse"><feFlood flood-opacity="0" result="BackgroundImageFix"/><feColorMatrix in="SourceAlpha" result="hardAlpha" values="0 0 0 0 0 0 0 0 0 0 0 0 0 0 0 0 0 0 127 0"/><feOffset/><feGaussianBlur stdDeviation="1"/><feComposite in2="hardAlpha" operator="out"/><feColorMatrix values="0 0 0 0 0 0 0 0 0 0 0 0 0 0 0 0 0 0 0.2 0"/><feBlend in2="BackgroundImageFix" result="effect1_dropShadow_3718_5684"/><feBlend in="SourceGraphic" in2="effect1_dropShadow_3718_5684" result="shape"/></filter><clipPath id="a"><path fill="#fff" d="M0 0h80v79.49H0z"/></clipPath></defs></svg>