<svg xmlns="http://www.w3.org/2000/svg" width="24" height="24" fill="none"><path fill="#C3D3EC" d="M12.645 12.345c0 2.145-1.117 3.502-2.902 3.502-1.786 0-2.903-1.357-2.903-3.502 0-2.152 1.117-3.503 2.902-3.503 1.785 0 2.903 1.35 2.903 3.503ZM24 6.6v10.8c0 .855-.008 2.205-.473 3.405-.232.593-.772 1.425-1.537 2.018-.442.337-.967.667-1.688.877-.772.225-1.724.3-2.902.3H6.6c-1.177 0-2.13-.075-2.902-.308a5.158 5.158 0 0 1-1.688-.877 5.048 5.048 0 0 1-1.537-2.018C.006 19.605 0 18.255 0 17.4V6.6c0-.855.007-2.205.472-3.405.233-.592.773-1.425 1.538-2.018C2.453.84 2.978.51 3.698.3 4.47.075 5.422 0 6.6 0h10.8c1.185 0 2.13.075 2.902.307.72.218 1.253.54 1.688.878a5.048 5.048 0 0 1 1.538 2.018C23.992 4.394 24 5.745 24 6.6ZM4.733 16.703v-5.205H3.66v5.205h1.072Zm.075-6.653a.613.613 0 0 0-.615-.615.613.613 0 0 0-.615.615c0 .337.277.615.615.615a.618.618 0 0 0 .615-.615Zm8.954 2.295c0-2.768-1.545-4.508-4.02-4.508-2.475 0-4.02 1.74-4.02 4.508s1.545 4.5 4.02 4.5c2.475 0 4.02-1.732 4.02-4.5Zm6.96 1.882c0-1.23-.72-1.957-2.535-2.354l-.967-.21c-1.192-.263-1.657-.736-1.657-1.418 0-.893.84-1.417 1.927-1.417 1.14 0 1.89.585 1.988 1.537h1.087c-.053-1.478-1.305-2.52-3.045-2.52-1.807 0-3.075 1.013-3.075 2.445 0 1.238.758 2.033 2.505 2.408l.968.21c1.207.262 1.695.75 1.695 1.477 0 .863-.863 1.478-2.04 1.478-1.253 0-2.123-.57-2.25-1.508h-1.088c.105 1.508 1.373 2.482 3.277 2.482 1.943.008 3.21-.997 3.21-2.61Z"/></svg>