<svg xmlns="http://www.w3.org/2000/svg" width="24" height="24" fill="none"><path fill="#000" d="M6.208 16.102c-.06-.317-.183-.666-.186-1.018-.012-1.168.465-2.187 1.06-3.157.012-.02.043-.027.065-.042-.03.151-.1.272-.162.392-.438.843-.833 1.702-.853 2.676-.01.533.094 1.038.543 1.462-.005-.114-.016-.191-.014-.272.013-.377-.002-.76.047-1.131.127-.938.467-1.801.915-2.639.538-1.005 1.832-3.199 1.742-4.365-.002-.016.002-.03.005-.047a.468.468 0 0 0-.127-.426c-.46-.526-.422-1.077.102-1.529.13-.11.125-.19.067-.337-.223-.558-.274-1.135-.067-1.708.174-.477.673-.624 1.043-.308.248.214.43.484.476.823.02.161.03.325.042.486h.938c0-.08.008-.158-.002-.236-.043-.342.084-.635.262-.911.361-.565 1.196-.683 1.612-.206.39.448.61.976.501 1.588-.04.221-.119.434-.182.66.243.15.418.369.388.671-.026.263-.117.518-.171.778-.021.106-.058.232-.022.327.105.294.243.579.37.866.145.322.302.64.44.964.357.84.707 1.681 1.058 2.523.136.333.291.666.388 1.013.296 1.066.359 2.157.263 3.257-.01.13.011.192.143.245.265.105.402.32.4.611 0 .12-.027.24-.008.354.018.112.054.247.13.318.3.27.774.274 1.12.064.415-.252.666-.638.942-1.078-.742-.591-1.525-.685-2.39-.273.095-.099.192-.227.304-.243.334-.042.42-.275.498-.537.045-.159.098-.316.14-.475.313-1.19.1-2.27-.71-3.204-.21-.244-.478-.437-.72-.652a3.212 3.212 0 0 1 1.348 1.237c.688 1.16.432 2.342.037 3.52.928.065 1.247.177 1.611.568.13-.015.256-.02.378-.047.056-.013.13-.058.148-.105.074-.216.15-.433.19-.655.126-.664-.03-1.304-.215-1.933-.393-1.326-1.046-2.528-1.848-3.652-.502-.706-1.02-1.406-1.445-2.16a6.801 6.801 0 0 1-.9-3.506 6.627 6.627 0 0 0-.1-1.358c-.147-.783-.41-1.539-.988-2.111C13.722.105 12.407-.236 10.92.16c-.738.195-1.403.532-1.822 1.218-.339.555-.472 1.177-.466 1.81.01 1.166.01 2.34.131 3.496.108 1.022-.07 1.898-.768 2.668-.28.306-.521.652-.767.991-1.024 1.41-1.685 3.003-2.29 4.623-.152.41-.214.829-.073 1.273.46-.31.924-.409 1.342-.136Zm8.84 3.98-.352 2.794c-1.438-.361-2.93-.04-4.401-.043l-.1-1.244c1.802.221 3.45-.185 4.853-1.507Zm-6.264-1.739c.236.195.47.396.692.607.208.2.265.46.231.738-.028.237-.248.448-.482.438-.07-.003-.152-.093-.197-.162-.52-.807-1.03-1.62-1.55-2.428-.118-.186-.254-.36-.383-.538a.613.613 0 0 0 .017-.028c.559.457 1.118.912 1.672 1.373Z"/><path fill="#FC0" d="M9.85 22.408c.079.38-.11.672-.446.898-.11.074-.212.166-.304.263-.402.42-.894.506-1.434.374a6.055 6.055 0 0 1-.832-.265c-1.02-.41-2.078-.675-3.153-.894a7.772 7.772 0 0 1-1.09-.3c-.505-.178-.666-.47-.56-.99.15-.75.157-1.5.037-2.255-.094-.591.053-.802.633-.954.22-.058.44-.125.664-.163.413-.074.721-.292.964-.626.213-.292.418-.596.67-.854.444-.457.84-.475 1.257-.006.462.524.884 1.088 1.274 1.668.655.972 1.21 2.012 1.968 2.919.271.324.397.714.353 1.185Zm12.13-1.506a5.297 5.297 0 0 1-.71.466c-1.048.6-2.067 1.24-2.945 2.082-.427.411-.943.546-1.514.539-.164-.011-.331-.01-.496-.031-.603-.078-.958-.425-1.088-1.017-.106-.49-.072-.976.032-1.453.288-1.304.301-2.628.316-3.951.009-.6.152-.78.82-.757.466.015.526.08.476.53-.06.56.355.98.988 1.04.703.07 1.15-.33 1.563-.808.087-.1.147-.222.224-.332.184-.267.549-.252.676.048.075.181.115.4.093.595-.055.446.126.79.428 1.073.338.316.694.619 1.07.887.431.309.485.75.066 1.09ZM10.913 8.537c.604.106 1.153-.03 1.66-.38.27-.186.552-.374.857-.491.46-.178.698-.479.733-.967.03-.402-.044-.551-.429-.705-.189-.076-.617-.225-.617-.225s-.42-.2-.703-.286c-.723-.218-1.266-.457-1.933-.1-.238.127-.539.433-.539.433s-.287.241-.422.36c-.446.39-.48.809-.063 1.24.334.344.7.66 1.066.97.104.085.257.129.39.15Z"/><path fill="#000" d="M13.65 5.182c-.028.304-.532.587-.532.587l-.703-.285s-.013-.414.004-.619c.02-.233.089-.467.338-.552.221-.076.462-.087.64.107a.976.976 0 0 1 .253.762ZM9.304 6.937l-.035.033.059.086c.042.065.085.13.14.181.575.565 1.271.694 2.031.523.702-.159 1.301-.536 1.898-.913l.307-.191a.317.317 0 0 0 .081-.087.696.696 0 0 1 .036-.045.926.926 0 0 1-.013-.033l-.018-.042a2.094 2.094 0 0 1-.116.03c-.079.02-.157.04-.227.077-.187.098-.37.2-.555.303-.31.174-.622.348-.944.497-.847.39-1.662.37-2.39-.294a1.165 1.165 0 0 0-.156-.115l-.063-.042a6.11 6.11 0 0 0-.035.032ZM10.395 4.684c.06.224.087.699.087.699l-.539.433s-.471-.582-.457-.983c.01-.296.15-.508.363-.542.22-.037.476.123.546.393Z"/></svg>