<svg xmlns="http://www.w3.org/2000/svg" width="24" height="24" fill="none"><path fill="#252627" fill-rule="evenodd" d="M24 12c0 6.627-5.373 12-12 12S0 18.627 0 12 5.373 0 12 0s12 5.373 12 12ZM13.015 8.303h.347v.274a.497.497 0 0 1-.129.355.452.452 0 0 1-.347.131c-.275 0-.413-.122-.413-.366 0-.114.046-.207.14-.28.093-.076.227-.114.402-.114ZM11.986 6.8v.634c.254-.171.531-.257.833-.257.198 0 .338.042.42.126.082.084.123.206.123.366v.177h-.414c-.38 0-.671.078-.873.234a.772.772 0 0 0-.301.646.83.83 0 0 0 .234.606c.16.16.375.24.644.24.361 0 .607-.124.738-.372v.349h.665V7.697c0-.731-.384-1.097-1.152-1.097-.399 0-.704.067-.917.2Zm-4.115.309v-.457h-.67v2.897h.67V7.994c0-.278.058-.482.174-.611a.515.515 0 0 1 .391-.194c.29 0 .436.194.436.583v1.777h.677V7.994c0-.278.056-.482.168-.611a.515.515 0 0 1 .391-.194c.291 0 .436.194.436.583v1.777h.677V7.64c0-.328-.078-.579-.235-.754-.156-.18-.378-.269-.665-.269-.19 0-.36.048-.51.143a.872.872 0 0 0-.335.406c-.123-.366-.391-.549-.805-.549-.373 0-.64.164-.8.492Zm7.414 1c.007.274.087.495.24.663.157.167.367.25.632.25.231 0 .446-.064.643-.193v.594c-.197.118-.444.177-.738.177-.436 0-.79-.14-1.063-.423-.268-.282-.402-.638-.402-1.068.004-.423.138-.78.402-1.069.269-.29.634-.434 1.097-.434.275 0 .51.053.704.16v.606a1.139 1.139 0 0 0-.637-.183.834.834 0 0 0-.632.251c-.16.168-.243.39-.246.669ZM7.902 12.22c-.468.548-.702 1.274-.702 2.179 0 .899.237 1.622.71 2.17.473.547 1.104.821 1.893.821.788 0 1.417-.273 1.884-.821.474-.548.71-1.271.71-2.17 0-.91-.234-1.637-.701-2.179-.468-.547-1.102-.821-1.901-.821-.789 0-1.42.274-1.893.821Zm.808 3.631c-.272-.357-.408-.841-.408-1.452 0-.617.133-1.104.4-1.461.266-.357.63-.536 1.093-.536.467 0 .835.178 1.101.536.267.357.4.844.4 1.46 0 .618-.133 1.105-.4 1.462-.266.352-.63.527-1.093.527-.457 0-.821-.178-1.093-.536Zm7.83-3.052v-1.054c-.376-.19-.822-.286-1.339-.286-.571 0-1.03.15-1.379.45-.342.3-.514.697-.514 1.193 0 .236.036.447.106.631.077.185.188.343.335.476.147.132.283.239.408.32.125.075.288.161.49.259.027.011.067.032.122.06.195.093.323.156.383.19.065.035.155.093.27.174.119.08.198.161.236.242.038.08.057.173.057.276a.665.665 0 0 1-.228.528c-.153.127-.354.19-.604.19a2.472 2.472 0 0 1-1.534-.536v1.115c.408.248.922.372 1.542.372.571 0 1.03-.153 1.379-.458.353-.312.53-.727.53-1.245 0-.248-.04-.467-.122-.657a1.235 1.235 0 0 0-.36-.502 2.565 2.565 0 0 0-.44-.32 6.843 6.843 0 0 0-.53-.276 4.194 4.194 0 0 1-.702-.407.594.594 0 0 1-.228-.475c0-.19.07-.346.212-.467.147-.121.348-.182.604-.182.462 0 .897.13 1.305.39Z" clip-rule="evenodd"/></svg>