<svg width="24" height="24" viewBox="0 0 24 24" fill="none" xmlns="http://www.w3.org/2000/svg">
<g clip-path="url(#clip0_3917_2254)">
<path fill-rule="evenodd" clip-rule="evenodd" d="M24 12C24 18.627 18.627 24 12 24C5.373 24 0 18.627 0 12C0 5.373 5.373 0 12 0C18.627 0 24 5.373 24 12ZM13.015 8.303H13.362V8.577C13.3674 8.7077 13.321 8.83525 13.233 8.932C13.1877 8.97714 13.1334 9.01215 13.0736 9.03473C13.0137 9.05731 12.9498 9.06695 12.886 9.063C12.611 9.063 12.473 8.941 12.473 8.697C12.473 8.583 12.519 8.49 12.613 8.417C12.706 8.341 12.84 8.303 13.015 8.303ZM11.986 6.8V7.434C12.24 7.263 12.517 7.177 12.819 7.177C13.017 7.177 13.157 7.219 13.239 7.303C13.321 7.387 13.362 7.509 13.362 7.669V7.846H12.948C12.568 7.846 12.277 7.924 12.075 8.08C11.9766 8.15557 11.8979 8.25374 11.8455 8.36619C11.7931 8.47864 11.7686 8.60206 11.774 8.726C11.7703 8.83755 11.789 8.94872 11.8293 9.05284C11.8695 9.15697 11.9303 9.25191 12.008 9.332C12.168 9.492 12.383 9.572 12.652 9.572C13.013 9.572 13.259 9.448 13.39 9.2V9.549H14.055V7.697C14.055 6.966 13.671 6.6 12.903 6.6C12.504 6.6 12.199 6.667 11.986 6.8ZM7.871 7.109V6.652H7.201V9.549H7.871V7.994C7.871 7.716 7.929 7.512 8.045 7.383C8.09199 7.324 8.15137 7.27605 8.21893 7.24253C8.28649 7.20901 8.3606 7.19073 8.436 7.189C8.726 7.189 8.872 7.383 8.872 7.772V9.549H9.549V7.994C9.549 7.716 9.605 7.512 9.717 7.383C9.76399 7.324 9.82337 7.27605 9.89093 7.24253C9.95849 7.20901 10.0326 7.19073 10.108 7.189C10.399 7.189 10.544 7.383 10.544 7.772V9.549H11.221V7.64C11.221 7.312 11.143 7.061 10.986 6.886C10.83 6.706 10.608 6.617 10.321 6.617C10.131 6.617 9.961 6.665 9.811 6.76C9.66018 6.8576 9.54318 6.99939 9.476 7.166C9.353 6.8 9.085 6.617 8.671 6.617C8.298 6.617 8.031 6.781 7.871 7.109ZM15.285 8.109C15.292 8.383 15.372 8.604 15.525 8.772C15.682 8.939 15.892 9.022 16.157 9.022C16.388 9.022 16.603 8.958 16.8 8.829V9.423C16.603 9.541 16.356 9.6 16.062 9.6C15.626 9.6 15.272 9.46 14.999 9.177C14.731 8.895 14.597 8.539 14.597 8.109C14.601 7.686 14.735 7.329 14.999 7.04C15.268 6.75 15.633 6.606 16.096 6.606C16.371 6.606 16.606 6.659 16.8 6.766V7.372C16.6105 7.24921 16.3888 7.18551 16.163 7.189C16.0459 7.1841 15.9292 7.20391 15.8203 7.24716C15.7114 7.29041 15.6128 7.35612 15.531 7.44C15.371 7.608 15.288 7.83 15.285 8.109ZM7.902 12.22C7.434 12.768 7.2 13.494 7.2 14.399C7.2 15.298 7.437 16.021 7.91 16.569C8.383 17.116 9.014 17.39 9.803 17.39C10.591 17.39 11.22 17.117 11.687 16.569C12.161 16.021 12.397 15.298 12.397 14.399C12.397 13.489 12.163 12.762 11.696 12.22C11.228 11.673 10.594 11.399 9.795 11.399C9.006 11.399 8.375 11.673 7.902 12.22ZM8.71 15.851C8.438 15.494 8.302 15.01 8.302 14.399C8.302 13.782 8.435 13.295 8.702 12.938C8.968 12.581 9.332 12.402 9.795 12.402C10.262 12.402 10.63 12.58 10.896 12.938C11.163 13.295 11.296 13.782 11.296 14.398C11.296 15.016 11.163 15.503 10.896 15.86C10.63 16.212 10.266 16.387 9.803 16.387C9.346 16.387 8.982 16.209 8.71 15.851ZM16.54 12.799V11.745C16.164 11.555 15.718 11.459 15.201 11.459C14.63 11.459 14.171 11.609 13.822 11.909C13.48 12.209 13.308 12.606 13.308 13.102C13.308 13.338 13.344 13.549 13.414 13.733C13.491 13.918 13.602 14.076 13.749 14.209C13.896 14.341 14.032 14.448 14.157 14.529C14.282 14.604 14.445 14.69 14.647 14.788C14.674 14.799 14.714 14.82 14.769 14.848C14.964 14.941 15.092 15.004 15.152 15.038C15.217 15.073 15.307 15.131 15.422 15.212C15.541 15.292 15.62 15.373 15.658 15.454C15.696 15.534 15.715 15.627 15.715 15.73C15.7189 15.8295 15.7005 15.9285 15.661 16.0199C15.6216 16.1113 15.5621 16.1927 15.487 16.258C15.334 16.385 15.133 16.448 14.883 16.448C14.3259 16.4473 13.7853 16.2584 13.349 15.912V17.027C13.757 17.275 14.271 17.399 14.891 17.399C15.462 17.399 15.921 17.246 16.27 16.941C16.623 16.629 16.8 16.214 16.8 15.696C16.8 15.448 16.76 15.229 16.678 15.039C16.6025 14.8439 16.4786 14.6711 16.318 14.537C16.1831 14.415 16.0356 14.3078 15.878 14.217C15.7054 14.1173 15.5286 14.0252 15.348 13.941C15.1014 13.8283 14.8663 13.692 14.646 13.534C14.574 13.4777 14.516 13.4055 14.4765 13.3232C14.4369 13.2408 14.4169 13.1504 14.418 13.059C14.418 12.869 14.488 12.713 14.63 12.592C14.777 12.471 14.978 12.41 15.234 12.41C15.696 12.41 16.131 12.54 16.539 12.8L16.54 12.799Z" fill="#C3D3EC"/>
</g>
<defs>
<clipPath id="clip0_3917_2254">
<rect width="24" height="24" fill="white"/>
</clipPath>
</defs>
</svg>
