<svg xmlns="http://www.w3.org/2000/svg" width="56" height="56" fill="none"><mask id="a" width="56" height="56" x="0" y="0" maskUnits="userSpaceOnUse" style="mask-type:luminance"><path fill="#fff" d="M0 0h56v56H0V0Z"/></mask><g mask="url(#a)"><path fill="#5C6977" d="M55.994 25.102v3.828c-.097.09-.219.075-.336.076h-1.173c-.098 0-.2-.018-.292.036a.424.424 0 0 0-.06.072c-.051.115-.03.236-.03.353v4.867c0 .134.026.273-.057.398-.1.085-.223.068-.34.07h-1.172c-.315 0-.342.027-.342.343v4.883c0 .146.005.291-.008.438-.003.036-.01-.007 0 .026.01.034.017-.011.03-.008.118-.064.247-.05.373-.05h2.995c.143 0 .294-.02.416.087v1.914c-.106.095-.236.072-.36.076-.477.013-.955-.027-1.43.024a.383.383 0 0 0-.065.054c-.081.269-.034.543-.034.814 0 .298-.043.601.03.894.02.021.043.04.068.055.477.06.954.01 1.43.026.125.005.255-.018.36.076v1.86c-.096.088-.218.076-.336.076h-3.16c-.36 0-.405-.048-.406-.416-.004-1.008 0-2.016 0-3.025 0-.11.014-.218-.022-.323a.418.418 0 0 0-.055-.072c-.123-.083-.262-.043-.394-.045-.35-.005-.701 0-1.051 0-.099 0-.203-.015-.256.1-.047.226-.022.453-.023.679-.003.869 0 1.737 0 2.606 0 .144.019.292-.065.423-.115.101-.257.069-.39.074-.48.02-.96-.036-1.437.034-.077.052-.086.13-.086.214v1.321c0 .085.009.164.092.21.466.063.933.01 1.4.028.14.006.29-.018.413.084a.32.32 0 0 1 .067.202 29.14 29.14 0 0 1 0 1.513.329.329 0 0 1-.067.202c-.133.109-.294.084-.446.084-.966.003-1.932 0-2.899 0-.397 0-.405.011-.408.419 0 .383.01.765-.006 1.148-.012.298-.102.389-.403.397-.456.012-.911.007-1.367 0-.11 0-.222 0-.297-.105-.014-1.126 0-2.252-.006-3.378 0-.117.015-.236-.022-.35a.423.423 0 0 0-.055-.07c-.144-.081-.302-.044-.452-.04-.42.013-.845-.05-1.263.04a.372.372 0 0 0-.055.074c-.04.107-.022.219-.022.325v4.875c0 .135.024.274-.05.4-.086.089-.198.079-.305.079-.507 0-1.013.007-1.52-.004-.036 0 .008-.008-.026 0-.05.011.01.02.004.033.1.427.033.86.045 1.29.005.193.051.4-.083.575h-5.86c-.079-.089-.083-.199-.084-.309-.003-.437-.009-.875 0-1.312.007-.332.097-.421.427-.431.41-.012.82-.007 1.23 0 .218 0 .313-.085.309-.307-.008-.365-.008-.73 0-1.094.003-.21-.087-.29-.295-.288-1.038.003-2.077.003-3.117 0-.226 0-.306.089-.302.308.008.373.005.747 0 1.121 0 .126.01.257-.08.365-.106.073-.227.055-.344.055h-5.067c-.117 0-.238.015-.343-.06-.078-.091-.069-.203-.069-.31v-3.193c0-.099-.007-.202.059-.288.023-.015.043-.039.07-.041.6-.044 1.198-.081 1.796.019.104.089.085.212.086.328.003.395 0 .79 0 1.186 0 .105-.022.218.068.304.164.09.34.039.51.043.309.009.618.003.93 0 .098 0 .203.016.267-.09.069-.45.012-.902.032-1.353.006-.141-.024-.292.087-.413.105-.073.227-.058.343-.058h7.012c.117 0 .238-.016.346.05.115.118.087.27.093.413.018.454-.035.91.032 1.361.05.08.127.09.212.09.505 0 1.01.004 1.516-.003.036 0-.01 0 .026-.004.06-.01 0-.025 0-.038-.093-.395-.033-.795-.042-1.193-.014-.61.055-.566-.58-.568h-.872c-.117 0-.238.005-.34-.074-.085-.121-.06-.261-.06-.394 0-1.04 0-2.082-.004-3.124 0-.083.049-.181-.045-.248-.468.023-.935.008-1.402.013-.117 0-.235-.015-.342.047-.093.074-.076.177-.077.273v1.139c0 .116.017.238-.073.335-.125.078-.265.055-.4.055-1.616.002-3.233.002-4.85 0-.124 0-.259-.036-.358.078-.093.2-.04.41-.047.615-.01.298 0 .596-.005.894 0 .11 0 .219-.08.307a.3.3 0 0 1-.174.07c-.575.007-1.152.048-1.728-.023a.568.568 0 0 1-.089-.06c-.086-.13-.067-.278-.067-.421v-2.906c0-.127.01-.254-.029-.377a.182.182 0 0 0-.155-.092c-.507 0-1.013-.01-1.519.006-.036 0 .01-.003-.026.007-.054.015-.005.03 0 .045.052.103.042.214.043.322v3.03c0 .127.01.257-.058.373a.357.357 0 0 1-.082.066c-.45.088-.904.029-1.356.04-.472.01-.472 0-.472.484v2.805c0 .136.011.274-.036.405a.186.186 0 0 1-.066.08c-.23.085-.468.045-.702.041-.39-.005-.781.045-1.169-.032a.171.171 0 0 1-.073-.076c-.058-.15-.042-.306-.042-.46V46.77c-.009-.283-.033-.313-.317-.315-.72-.006-1.44 0-2.16 0h-2.844c-.414 0-.47-.061-.473-.48-.004-.39 0-.783 0-1.175 0-.118-.005-.238.064-.344.112-.105.254-.077.387-.078 1.004-.002 2.009 0 3.014 0 .109 0 .218.018.32-.027a.415.415 0 0 0 .069-.063c.09-.404.011-.813.04-1.217.015-.203-.058-.418.076-.607a.447.447 0 0 1 .26-.062 67.44 67.44 0 0 1 1.326 0c.09-.006.181.013.262.055.115.11.08.252.086.383.019.48-.034.96.031 1.439a.254.254 0 0 0 .278.097h3.212a.222.222 0 0 0 .226-.074c.082-.219.038-.445.035-.666-.002-.348.043-.698-.03-1.043a.337.337 0 0 0-.069-.055c-.481-.058-.964-.01-1.444-.027-.126-.004-.258.023-.366-.071-.105-.187-.06-.391-.064-.589-.008-.317 0-.636-.004-.954 0-.159-.073-.231-.231-.231-1.09 0-2.182-.008-3.272.003a.293.293 0 0 0-.13.036c-.105.08-.083.195-.083.301v1.115c0 .116.017.239-.073.337-.088.061-.19.054-.289.054-.425.003-.85.003-1.276 0-.099 0-.2.008-.29-.048-.097-.092-.08-.214-.082-.328-.003-.377 0-.755 0-1.132 0-.105.024-.219-.078-.298-.219-.086-.45-.034-.675-.042-.353-.012-.708.01-1.06-.014-.101.065-.055.164-.055.25-.005.406 0 .813-.003 1.22 0 .116.016.238-.07.337-.088.062-.189.055-.288.055-.533 0-1.066.005-1.599 0-.131-.083-.115-.219-.118-.343-.007-.383 0-.766-.003-1.148-.004-.334-.026-.355-.39-.355H9.187c-.383 0-.766.004-1.149-.003-.124 0-.26.014-.342-.119-.005-1.19 0-2.381 0-3.573 0-.1-.005-.201.061-.287.11-.084.24-.076.367-.076a708.22 708.22 0 0 1 3.058 0c.118 0 .238-.005.346.054.106.087.09.21.091.325.004.405 0 .81 0 1.215 0 .098-.017.198.034.29a.42.42 0 0 0 .07.063c.086.045.178.03.268.03h4.97c.107 0 .222.023.302-.08.094-.4.019-.807.044-1.209.013-.203-.045-.415.076-.605.11-.09.237-.08.363-.08.383-.004.762 0 1.142 0 .11 0 .22.012.318-.05.106-.092.077-.219.077-.331v-2.99c0-.124-.02-.254.054-.37.096-.09.22-.075.333-.076.396-.003.792 0 1.189 0 .106 0 .218.02.298-.08.091-.405.013-.814.041-1.218.015-.204-.054-.419.069-.61.112-.079.243-.07.37-.07.382-.003.765.003 1.148 0 .281-.005.31-.033.314-.32.006-.492 0-.984 0-1.477 0-1.174-.003-2.351 0-3.523 0-.415.061-.471.477-.475.383-.003.765-.003 1.148 0 .127 0 .257-.008.37.069.105.109.09.249.091.382.005.378 0 .756 0 1.134 0 .11-.01.219.049.315.092.109.218.078.332.078h3.003c.396 0 .43.036.433.442v1.064c0 .11-.019.222.086.3.12.057.25.04.375.041h2.905c.144 0 .292-.016.425.061.028.023.05.052.065.085.074.571.03 1.144.027 1.716 0 .174-.11.26-.28.273-.1.008-.2.008-.3.008h-2.838c-.127 0-.256-.013-.377.039-.084.06-.089.15-.089.243v3.396c0 .037-.006-.008.004.027.017.054.023-.008.037-.006.11-.06.231-.048.349-.048h1.039c.509 0 .547.04.55.538v1.175c0 .629.003 1.258 0 1.886 0 .397-.062.455-.464.458-.429.005-.857.009-1.285 0-.315-.007-.383-.076-.392-.393-.012-.383 0-.765-.005-1.148 0-.118.012-.238-.042-.349-.087-.109-.212-.086-.328-.087h-3c-.125 0-.256.02-.37-.06-.095-.104-.081-.236-.082-.361-.004-.373 0-.745 0-1.117 0-.1.006-.2-.044-.292-.072-.095-.175-.082-.273-.082h-3.026c-.1 0-.203-.011-.27.087-.055.123-.038.252-.038.378v2.838a2.46 2.46 0 0 1-.019.407c.01.074.068.073.122.073h1.41c.086 0 .164-.013.203-.101.055-.455.014-.91.022-1.363.01-.468.051-.513.52-.516h1.117c.127 0 .257-.007.366.08.109.121.086.274.087.416.003.98 0 1.962 0 2.943 0 .375.01.386.378.387h2.998c.15 0 .314-.034.432.106.016 1.128 0 2.257.008 3.385 0 .118-.02.238.028.35a.39.39 0 0 0 .064.067c.448.087.898.014 1.347.038.16.01.328-.036.47.075.08.113.066.244.067.37.004.364.008.728 0 1.093-.005.214.064.316.296.314 1.028-.006 2.058-.004 3.086 0 .198 0 .279-.078.274-.273-.006-.373 0-.747 0-1.12-.003-.316-.029-.344-.344-.346-.992-.003-1.984 0-2.977 0-.144 0-.293.02-.42-.08-.07-.07-.08-.164-.081-.253-.009-.454-.01-.909 0-1.364.006-.317.078-.382.422-.386.955-.008 1.91 0 2.864 0 .537 0 .537 0 .537-.541 0-.291.004-.582 0-.875-.004-.294-.032-.321-.335-.325-.383-.004-.766.004-1.149-.004-.131 0-.28.024-.366-.122v-3.518c0-.116-.015-.238.065-.34.12-.087.26-.074.395-.075h4.942c.452 0 .501.055.505.501.002.373.002.746 0 1.12 0 .127.007.256-.066.37-.11.11-.247.095-.383.096-.378.005-.756 0-1.134 0-.11 0-.219-.009-.317.044-.095.071-.082.174-.082.273v3.074c0 .098-.016.203.077.273.404.098.813.03 1.218.042.168.006.345.042.505-.054.097-.098.067-.223.067-.338v-2.98c0-.416.032-.444.456-.445h1.094c.099 0 .202.015.288-.052.1-.095.075-.22.075-.334v-3.048c0-.41.04-.445.456-.448h1.17c.109 0 .218-.01.316.055.096.118.07.26.07.393v3.027c0 .116-.021.239.073.335.09.083.203.068.311.068h6.896c.109 0 .218.016.31-.065.081-.08.074-.182.074-.282v-3.085c0-.1.01-.202-.068-.282-.09-.085-.2-.067-.307-.067h-1.186c-.115 0-.235.016-.339-.055-.087-.11-.073-.24-.075-.367a62.213 62.213 0 0 1 0-1.175c0-.219-.091-.31-.313-.306-.391.007-.782 0-1.175.003-.109 0-.244 0-.245.151-.002.526-.06 1.054.035 1.577.074.092.178.076.273.076h1.14c.116 0 .238-.016.335.075.069.107.052.227.055.343.002.406.002.811 0 1.218 0 .109.01.218-.063.311-.103.08-.224.064-.341.064a733.82 733.82 0 0 1-3.113 0c-.116 0-.238.016-.342-.06-.081-.103-.066-.225-.066-.341v-8.914c0-.11-.012-.219.05-.319a.243.243 0 0 1 .195-.08c.547.003 1.094-.033 1.637.02.033.013.061.034.082.062.084.19.042.392.046.589.007.397 0 .795 0 1.192v.028c.013.06.025-.008.038 0 .547-.092 1.1-.038 1.65-.03a.212.212 0 0 1 .183.102c.09.493.018.994.042 1.49.005.114-.03.24.088.324.434.08.871.025 1.307.034.562.01.575.022.585.584.007.437-.037.872.029 1.306.05.079.125.091.21.091h1.32c.084 0 .165-.005.213-.085a.383.383 0 0 0 .03-.188v-3.25a.316.316 0 0 0-.029-.158.41.41 0 0 0-.064-.067c-.457-.081-.918-.014-1.377-.037-.133-.006-.273.028-.389-.074-.074-.116-.055-.246-.055-.372v-3.004c0-.116.026-.241-.09-.328-.416-.083-.835-.029-1.252-.036-.624-.01-.637-.016-.637-.648 0-.355-.007-.71.004-1.065.008-.301.074-.373.376-.376 1.094-.01 2.188-.01 3.281 0 .324 0 .39.079.399.416.008.383 0 .765.003 1.148.004.32.027.345.343.346.992.003 1.985 0 2.978 0 .151-.005.301-.022.424.082Z"/><path fill="#FEFEFE" d="M25.104 25.1h-1.527c-.408 0-.408 0-.408.395 0 1.69-.009 3.38.008 5.07.002.29-.086.344-.35.334-.517-.018-1.035 0-1.552.004-.064.41-.01.824-.03 1.236-.01.224.024.45-.018.673-.626.054-1.253.009-1.88.023a.11.11 0 0 1-.083-.06c-.054-.12-.045-.248-.046-.374v-3.017c0-.134-.016-.273.064-.395.095-.09.215-.084.332-.084h1.222c.098 0 .2.014.284-.06a.182.182 0 0 0 .058-.118c.02-.492.026-.984-.002-1.48a.154.154 0 0 0-.047-.094.24.24 0 0 0-.173-.062h-1.352a.207.207 0 0 0-.19.08c-.07.313-.014.63-.032.943-.016.26.035.523-.035.781a.16.16 0 0 1-.077.068c-.373.11-.755.04-1.133.046-.249.004-.508.063-.747-.069-.088-.096-.073-.218-.074-.335-.003-.383 0-.76 0-1.141 0-.099.016-.2-.037-.292-.079-.104-.193-.08-.299-.08h-1.185c-.099 0-.199.007-.292-.037a.164.164 0 0 1-.07-.074c-.065-.562-.021-1.126-.024-1.689 0-.161.093-.248.253-.266.11-.009.22-.013.329-.01h2.866c.337 0 .36-.025.363-.353.003-.364-.004-.728 0-1.094.004-.203-.067-.297-.284-.296-1.046.005-2.093.005-3.139 0-.211 0-.29.086-.288.293.006.39.004.782 0 1.173 0 .127.01.257-.073.368a.254.254 0 0 1-.173.07c-.56.007-1.12.043-1.68-.02a.23.23 0 0 1-.089-.055c-.092-.139-.068-.296-.07-.448-.003-.354 0-.708-.002-1.06-.004-.288-.028-.313-.31-.317-.39-.006-.78 0-1.17-.003-.125 0-.255.01-.364-.077a.368.368 0 0 1-.055-.233c-.003-.49-.003-.98 0-1.47a.343.343 0 0 1 .05-.209c.095-.092.215-.085.333-.086h1.2c.099 0 .203.017.276-.076.09-.218.044-.445.042-.667-.003-.33.043-.664-.035-.991-.054-.08-.135-.08-.219-.08h-1.249c-.084 0-.164.007-.21.091-.063.436-.012.88-.03 1.32-.005.143.022.291-.064.421-.098.085-.219.079-.336.079h-1.194c-.099 0-.2-.018-.292.038a.411.411 0 0 0-.061.075c-.052.124-.028.253-.028.379v10.565c0 .153.03.311-.05.456-.095.094-.216.077-.332.078-.386.004-.772 0-1.159 0-.097 0-.199-.016-.286.046-.096.094-.076.218-.077.328v1.105c0 .125.01.254-.068.365-.1.081-.219.065-.337.065h-1.19c-.098 0-.202-.015-.274.077-.089.219-.044.447-.04.669.003.331-.049.665.038.992.073.096.178.076.273.076h1.194c.1 0 .2-.008.293.04a.107.107 0 0 1 .05.085c-.004 1.258.015 2.52-.01 3.779.091.096.207.046.31.046 2.364.004 4.728.003 7.093-.002.23 0 .317.04.303.292-.023.454-.01.91-.004 1.364 0 .084-.044.183.046.253.61-.03 1.22 0 1.83-.014.104-.06.054-.165.056-.244.005-.461 0-.922.005-1.383 0-.087-.035-.182.034-.26h1.903c.06.473.013.948.027 1.421.004.135 0 .27.003.404.068.116.18.055.27.059.54.022 1.083-.032 1.623.029.019.638.05 1.276-.016 1.914h.01c-.093.055-.195.028-.293.028-1.08 0-2.16 0-3.241.002-.098 0-.2-.026-.293.028-.005.573-.005 1.146-.018 1.718-.004.171.079.19.218.188.493-.005.985 0 1.477 0 1.274 0 2.547.006 3.82-.005.229 0 .286.064.286.29-.008 2.41-.005 4.82-.005 7.231 0 .046.005.091.008.137-.096.116-.23.092-.354.094-.374.005-.747 0-1.12.003-.117 0-.239-.017-.34.065-.087.09-.065.204-.066.31v1.172c0 .117.013.238-.076.335h-1.923c-.106-.122-.086-.273-.087-.416v-2.92c0-.127.011-.255-.032-.378-.073-.114-.19-.09-.296-.09h-1.175c-.1 0-.201.007-.296-.036a.164.164 0 0 1-.07-.073c-.047-.123-.032-.251-.033-.377v-2.967c0-.115.028-.24-.087-.325-.508-.078-1.018-.03-1.527-.027-.124 0-.171.082-.181.196-.01.114-.007.219-.007.328v6.614c0 .161.03.331-.087.472h-1.914c-.128-.158-.088-.347-.088-.526-.002-4.117-.002-8.235 0-12.353 0-.11 0-.22-.004-.329-.005-.133-.07-.198-.203-.202-.11-.005-.219-.005-.328-.005H.535c-.178 0-.368.04-.526-.087V36.69c.106-.095.237-.071.362-.076.479-.018.959.037 1.435-.033a.408.408 0 0 0 .063-.068c.07-.399.013-.8.03-1.198.005-.1.005-.2 0-.3-.006-.22.096-.316.314-.315H3.47c.109 0 .222.021.302-.08.09-.393.014-.79.04-1.184.015-.212-.049-.432.06-.636.126-.096.273-.071.417-.077.45-.018.9.035 1.348-.033.08-.05.09-.128.089-.213v-1.253c0-.085-.005-.164-.09-.213-.44-.067-.883-.012-1.324-.03-.143-.006-.29.017-.422-.063a.224.224 0 0 1-.055-.089c-.046-.471-.016-.943-.02-1.415-.006-.664 0-1.327 0-1.99 0-.118-.016-.238.048-.347.1-.103.233-.09.358-.091.383-.004.766 0 1.149-.003.11 0 .219.014.311-.066.065-.078.049-.17.05-.26v-1.135c0-.098.016-.201-.069-.278-.123-.087-.264-.055-.398-.06-.445-.02-.892.041-1.335-.038a.16.16 0 0 1-.072-.066c-.084-.482-.019-.968-.04-1.452-.006-.113.033-.239-.087-.32-.433-.078-.87-.015-1.303-.035-.152-.008-.31.023-.448-.073-.093-.106-.082-.236-.083-.361-.004-.379 0-.759-.003-1.138 0-.115.017-.237-.064-.337-.09-.088-.203-.067-.31-.068H.348c-.117 0-.238.013-.335-.076v-3.828a.259.259 0 0 1 .173-.07c.564 0 1.128-.035 1.691.02.032.013.06.035.08.063.098.456.019.92.047 1.38.009.138-.054.295.09.402.354.068.712.016 1.064.03.118.006.237 0 .356 0 .349.011.405.067.412.425.006.383 0 .766 0 1.149.003.367.025.392.382.393.994.003 1.987.003 2.98 0 .314 0 .337-.027.341-.348.005-.4-.007-.802.005-1.203.01-.316.1-.404.415-.413.41-.011.82 0 1.231-.005.282-.005.312-.034.317-.317.005-.364.005-.729 0-1.094-.005-.293-.036-.322-.338-.328-.365-.005-.73 0-1.094 0-.452-.004-.528-.078-.534-.522-.004-.329 0-.657 0-.985 0-.457-.004-.46-.452-.46H.482c-.164 0-.332.03-.473-.087V13.51c.159-.128.348-.087.527-.087 4.118-.002 8.235-.002 12.353 0 .11 0 .22 0 .329-.005.133-.005.197-.07.202-.203.005-.109.005-.218.005-.328V.533c0-.179-.04-.368.087-.527h1.91c.093.105.085.236.086.363v1.148c.003.342.03.367.378.371.383.005.766-.003 1.149.003.372.006.437.067.441.426.006.4.003.8 0 1.2 0 .11.003.219-.065.315-.099.085-.219.08-.336.08h-1.2c-.11 0-.219-.018-.306.073-.078.105-.06.227-.06.343v4.858c0 .389.024.41.422.413h1.04c.108 0 .218.012.302-.085.066-.11.041-.231.041-.347l.003-4.875c0-.134-.027-.274.055-.398a.284.284 0 0 1 .17-.073c.576 0 1.15-.041 1.727.023a.17.17 0 0 1 .077.073c.055.13.036.268.036.404V9.17c0 .117-.02.237.031.348.05.079.127.091.213.091h1.303c.085 0 .164-.013.219-.086.07-.11.048-.23.048-.346V4.303c0-.143-.03-.293.061-.424a.237.237 0 0 1 .15-.058 32.248 32.248 0 0 1 1.658 0c.046.003.09.02.126.047.09.106.08.237.08.363.005.364 0 .727 0 1.091 0 .383.01.39.403.392.364 0 .728-.006 1.094.002.347.008.412.073.418.42.006.419.004.837 0 1.255 0 .11 0 .22-.065.316-.093.096-.215.082-.328.084-.397.003-.794 0-1.191 0-.11 0-.22-.018-.293.093-.047.133-.032.273-.032.406v4.777c0 .152.022.311-.07.45-.015.011-.03.03-.045.031-.627.055-1.254.08-1.88-.012-.107-.11-.088-.252-.09-.383a36.13 36.13 0 0 1 0-1.168c.004-.22-.08-.31-.303-.304-.39.01-.78 0-1.169.003-.09 0-.182-.003-.261.055-.103.093-.074.218-.074.332v2.99c0 .126.02.256-.055.371-.124.102-.273.08-.418.08-.991.003-1.983 0-2.974 0-.397 0-.42.026-.423.414-.002.346-.002.692 0 1.04 0 .109-.012.218.076.307.089.064.191.045.29.046h1.218c.109 0 .218-.01.31.063.045.058.068.13.068.203.012.505.012 1.01 0 1.515a.303.303 0 0 1-.055.179.313.313 0 0 1-.076.07c-.459.076-.922.016-1.382.036-.125.006-.255-.026-.373.04a.186.186 0 0 0-.066.117c-.023.492-.02.984 0 1.474a.153.153 0 0 0 .15.164c.509.027 1.019.025 1.527-.008.036-.003.062-.035.085-.063.08-.471.014-.944.035-1.416.007-.134-.023-.273.082-.39.015-.01.028-.03.044-.031.62-.072 1.241-.106 1.86.019.094.094.08.219.08.334.003.4 0 .8 0 1.203 0 .099-.018.201.045.29.095.095.219.075.332.076h1.104c.126 0 .254-.011.365.068.082.1.065.222.066.337.002.398 0 .795 0 1.192 0 .099-.016.202.069.279.2.091.409.034.613.042.279.01.558.003.838 0 .098 0 .201.012.264-.092.047-.105.029-.216.029-.324V19.67c0-.125-.02-.256.058-.37.022-.016.041-.04.069-.042.616-.05 1.233-.091 1.847.022a.232.232 0 0 1 .067.086c.046.123.036.251.036.378v4.913c0 .135.014.273-.049.402l-.037.04Zm25.099 7.705c0-.563-.008-1.126.003-1.688.004-.182-.054-.228-.228-.225-.563.01-1.126.003-1.689 0-.07-.34-.01-.684-.03-1.025-.018-.297.037-.596-.03-.891-.5-.069-1.004-.011-1.506-.03-.116-.004-.233-.005-.35-.007-.062-.416-.01-.834-.029-1.25-.009-.209.03-.419-.025-.625h.005c-.49-.055-.98-.009-1.47-.025-.154-.006-.309.022-.462-.018-.01-.015-.029-.029-.03-.044-.063-.617-.098-1.234.016-1.848a.311.311 0 0 1 .075-.07c.413-.093.831-.034 1.248-.042.647-.013.582.048.585-.592 0-.3.004-.602 0-.9 0-.11 0-.242-.154-.243-.525-.002-1.051-.06-1.573.035-.1.081-.076.196-.076.301v1.161c0 .117.009.236-.086.328-.014.012-.027.03-.043.032-.618.062-1.236.102-1.852-.02-.097-.091-.083-.213-.084-.328-.004-.397 0-.794 0-1.19 0-.11.018-.22-.092-.294-.387-.073-.778-.016-1.166-.033-.135-.006-.273.004-.406-.013-.145-.018-.24-.09-.243-.243-.01-.543-.017-1.086.004-1.63a.225.225 0 0 1 .049-.124c.136-.103.295-.079.448-.079 1.568-.002 3.134-.002 4.7 0h.246c.292-.012.328-.041.328-.339.006-.4 0-.802.003-1.203.005-.352.068-.41.415-.424.473-.019.947.036 1.417-.034.114-.073.09-.19.091-.296v-1.175c0-.1-.007-.201.036-.296a.162.162 0 0 1 .073-.07c.123-.047.25-.032.377-.032h2.992c.115 0 .238.024.33-.076.068-.087.06-.19.062-.289.002-.355.004-.71 0-1.065-.005-.337-.038-.368-.383-.372-.319-.005-.637 0-.956 0h-3.907c-.404 0-.425.024-.429.437 0 .383.008.766-.004 1.148-.01.302-.077.376-.376.379-1.094.01-2.188.007-3.278 0a.438.438 0 0 1-.261-.065c-.088-.1-.07-.222-.072-.339v-1.203c0-.099.018-.202-.055-.288-.072-.072-.164-.07-.256-.07-.392-.003-.783-.007-1.174 0-.274.006-.313.045-.319.324-.008.4 0 .8-.004 1.203-.006.368-.068.432-.43.437-.409.007-.82.01-1.228 0-.33-.008-.417-.096-.424-.43-.01-.4 0-.8-.005-1.203-.003-.3-.03-.328-.328-.332-.992-.004-1.983 0-2.975-.002-.153 0-.312.024-.45-.075a.314.314 0 0 1-.059-.204 66.434 66.434 0 0 1 0-1.54.311.311 0 0 1 .05-.179c.121-.11.273-.081.415-.088.453-.02.909.04 1.36-.036.12-.083.08-.21.085-.324.021-.477-.039-.957.034-1.434a.17.17 0 0 1 .069-.073 10.657 10.657 0 0 1 1.845-.008.177.177 0 0 1 .077.064c.09.484.02.973.043 1.46.005.113-.032.24.091.32.5.066 1 .02 1.498.023.19 0 .212-.135.213-.281.004-.528 0-1.055 0-1.582 0-.5.006-1 0-1.5-.005-.293-.043-.329-.335-.335-.4-.008-.8 0-1.203-.005-.353-.006-.425-.07-.427-.411a269.475 269.475 0 0 1 0-3.192c0-.125-.005-.259.118-.346.477-.088.96-.017 1.44-.04.115-.006.237.027.34-.055.095-.12.065-.262.065-.395.002-1.607.002-3.215 0-4.823 0-.152-.024-.312.087-.444h1.914c.128.159.088.348.088.527.002 4.12.002 8.237 0 12.353 0 .11 0 .22.004.329.005.133.07.198.203.203.11.004.219.004.328.004h12.354c.178 0 .368-.04.526.087v1.914c-.105.094-.236.086-.362.087-.39.003-.782 0-1.172 0-.31.004-.343.034-.345.348-.005 1 0 2-.003 3 0 .152.023.31-.075.448-.116.099-.257.073-.39.074h-2.987c-.115 0-.238-.027-.334.068-.063.077-.05.17-.05.26v1.16c0 .09-.013.182.051.258.1.095.224.065.34.065h2.924c.496 0 .505.015.514.5.007.438-.034.875.026 1.307.02.027.042.052.067.074.423.086.85.014 1.273.04.178.01.366-.05.527.075v1.914c-1.2 0-2.4-.003-3.602.005-.187 0-.25-.044-.245-.24.014-.482 0-.964.008-1.446.004-.179-.034-.257-.237-.256-1.146.01-2.292.01-3.438 0-.171 0-.219.055-.214.22.008.499.012 1 0 1.5-.005.189.067.223.235.218.564-.008 1.128-.003 1.692-.003.063.092.03.194.031.292.004 1.165 0 2.33.004 3.494.051.117.156.065.237.066.462.005.924 0 1.386.004.087 0 .181-.03.264.03l-.007-.006c.042.045.031.102.031.155V32.7a.338.338 0 0 1-.015.109 12.25 12.25 0 0 1-1.922-.004Z"/><path fill="#5C6977" d="M55.994 13.51c-.09.004-.181.01-.273.01-4.307 0-8.615.002-12.922.007-.264 0-.328-.063-.328-.328.01-4.307.012-8.614.007-12.922 0-.09.006-.181.01-.273 4.429 0 8.858-.002 13.286-.006.188 0 .225.037.224.225-.005 4.43-.007 8.859-.004 13.288ZM.005 42.49c.091-.004.182-.01.274-.01 4.307 0 8.614-.002 12.921-.007.264 0 .328.063.328.328-.01 4.307-.011 8.615-.007 12.922 0 .09-.006.181-.009.273-4.429 0-8.858.002-13.286.006-.188 0-.225-.037-.225-.224.006-4.43.007-8.86.004-13.288ZM13.51.005c.004.09.01.182.01.274 0 4.307.002 8.614.007 12.921 0 .264-.064.328-.329.328-4.307-.01-8.614-.012-12.921-.007-.09 0-.182-.006-.273-.01C.004 9.085.002 4.656-.002.227c0-.187.037-.224.224-.224 4.43.005 8.86.007 13.288.004Zm25.154 5.79c-.073.065-.042.153-.043.23 0 1.12.004 2.238-.006 3.357 0 .204.052.267.26.26.472-.016.945.003 1.418-.01.204-.002.285.04.285.272-.012 1.127-.007 2.255-.004 3.383 0 .14.003.243-.193.238-.572-.015-1.145-.013-1.717-.018-.062-.54-.009-1.08-.029-1.621-.003-.097.032-.2-.031-.29l.006.006c-.285-.072-.575-.03-.862-.028-.351 0-.705-.043-1.054.028l.005-.006c-.074.302-.015.61-.032.913-.017.333.032.667-.027.998l-1.853.012c-.105-.09-.08-.219-.081-.331-.005-.4 0-.799 0-1.198 0-.1.016-.201-.043-.291-.082-.1-.197-.078-.304-.079h-1.174c-.116 0-.24.017-.338-.074-.06-.088-.055-.19-.055-.29-.002-.428-.002-.857 0-1.285 0-.1-.006-.202.055-.29.117-.098.258-.071.392-.071h2.994c.115 0 .24.028.329-.08.058-.101.045-.212.045-.32V6.24c0-.116.016-.238-.063-.34-.088-.089-.201-.07-.308-.07h-1.142c-.116 0-.239.016-.336-.075-.066-.098-.055-.21-.055-.318v-1.12c0-.475.023-.498.487-.499h2.978c.11 0 .219.017.323-.028a.2.2 0 0 0 .094-.184c0-.518.008-1.036-.005-1.554 0-.036.003.01-.005-.026-.013-.055-.028-.005-.043 0-.13.06-.269.043-.404.043h-2.866c-.126 0-.255-.016-.376.04-.106.08-.083.195-.083.302v1.12c0 .115.016.239-.078.335-.08.055-.173.05-.264.05-1.102.002-2.203.002-3.305 0-.09 0-.183 0-.262-.057-.011-.014-.03-.028-.031-.043-.075-.612-.102-1.223.013-1.834.095-.092.218-.076.331-.076.406-.003.811 0 1.216 0 .098 0 .2.015.288-.042.1-.081.08-.195.08-.301V.348c0-.116-.012-.236.076-.333h7.71c0 1.837-.002 3.673-.008 5.51 0 .09.055.2-.049.274a18.252 18.252 0 0 0-1.856-.004Z"/><path fill="#FEFEFE" d="M44.42 52.112c.393.09.793.03 1.189.035.24.003.55.113.71-.054.143-.153.038-.453.044-.688.007-.29.025-.585-.005-.875-.03-.29.086-.338.348-.335 1.166.014 2.332.006 3.5.005l.035.039c.07.61.054 1.22.01 1.832a.172.172 0 0 1-.065.076c-.485.087-.974.02-1.46.041-.113.006-.24-.032-.319.094-.04.126-.028.253-.028.38v2.915c0 .144.018.294-.087.416h-7.714l-.003-1.905c.294-.08.592-.02.889-.032.273-.011.547 0 .817-.004.065 0 .15.034.183-.067v-5.41c0-.097-.03-.2.03-.293l-.006.006c.34-.07.684-.025 1.026-.026.296 0 .596-.044.89.026l-.006-.006a.156.156 0 0 1 .03.074c-.003 1.252.013 2.504-.009 3.756Z"/><path fill="#5C6977" d="M.005 15.424c2.467 0 4.934.008 7.401 0 .263 0 .345.062.328.328-.023.438.006.875-.011 1.313-.01.24.046.337.311.324.472-.023.947 0 1.422-.01.183-.004.231.055.227.233-.01.492-.01.984 0 1.477.004.174-.041.236-.225.231-.5-.012-1.001.005-1.502-.008-.187-.005-.232.063-.229.235.009.5 0 1.002.006 1.503 0 .164-.043.222-.215.221a303.594 303.594 0 0 0-3.44 0c-.181 0-.238-.058-.234-.236.01-.482-.007-.965.008-1.447.006-.208-.045-.283-.269-.277-.536.013-1.073 0-1.61-.006-.06-.54-.008-1.08-.028-1.62-.004-.096.032-.198-.032-.288l.007.005c-.284-.072-.574-.017-.86-.032-.352-.018-.705.031-1.055-.027v-1.919Z"/><path fill="#FEFEFE" d="m55.994 40.521-3.505.007c-.11 0-.219.008-.325.012-.04-.079-.022-.164-.022-.243 0-1.758 0-3.517-.006-5.275 0-.215.054-.281.273-.274.465.017.93.008 1.394.003.084 0 .184.045.25-.055.007-1.808 0-3.615.004-5.423 0-.097-.03-.2.03-.292l-.006.007c.322-.07.647-.027.97-.028.322-.002.631-.034.944.023V40.52Z"/><path fill="#5C6977" d="M25.104 7.717c0-.573-.007-1.149 0-1.72 0-.153-.042-.202-.198-.199-.51.01-1.02-.003-1.528.007-.17.004-.219-.05-.213-.216.01-.564.007-1.127.01-1.69.106-.123.251-.086.383-.086 1.006-.004 2.013 0 3.02-.003.11 0 .22.017.322-.03a.185.185 0 0 0 .09-.157c0-.527.012-1.054-.006-1.58 0-.037.004.008-.007-.027-.015-.055-.03-.004-.045 0-.543.086-1.087.04-1.63.026a.262.262 0 0 1-.274-.258c-.03-.545-.03-1.09 0-1.636A.25.25 0 0 1 25.1.006h3.828c.082.089.076.2.076.31v5.191a.732.732 0 0 1-.025.244.187.187 0 0 1-.066.082c-.154.076-.32.052-.482.055-.318.004-.637-.003-.954 0-.285.004-.315.032-.32.312-.006.382 0 .765-.003 1.145s-.063.449-.438.454c-.427.005-.854.002-1.28 0a.605.605 0 0 1-.294-.049l-.04-.033Z"/><path fill="#FEFEFE" d="M30.905 1.975v1.859c.094.055.196.027.293.027h3.232c.098 0 .2-.018.296.018.047.637.03 1.275.009 1.914-.1.106-.232.091-.357.093-.372.005-.744 0-1.116 0-.1 0-.2-.006-.292.043-.105.08-.081.195-.082.3V7.4c0 .117.017.239-.073.336-.09.061-.191.055-.29.055-.446.002-.891.002-1.337 0-.1 0-.202.007-.29-.055-.093-.105-.082-.235-.084-.361-.004-.383 0-.761 0-1.143-.003-.323-.02-.341-.336-.344-.383-.004-.761 0-1.142-.003-.125 0-.257.014-.36-.084-.032-.18-.014-.363-.014-.544V.298c0-.098-.025-.2.026-.294h3.828c.054.636.025 1.272.014 1.908-.34.072-.685.012-1.027.031-.304.019-.602-.032-.898.032Z"/><path fill="#5C6977" d="M19.3 52.168c0 1.276.002 2.552.006 3.828h-3.884c0-2.467.008-4.936 0-7.403 0-.266.068-.34.331-.328.527.026 1.055.017 1.582.023.055.093.027.196.028.293v3.243c0 .097-.032.2.03.292l-.004-.008c.229.073.463.022.695.033.407.018.813-.033 1.216.027ZM17.385 3.826c0-.536-.014-1.073 0-1.61.006-.222-.07-.273-.28-.27-.472.014-.945-.003-1.417.009-.199.005-.269-.05-.264-.26.013-.563 0-1.126 0-1.69h7.709c.082.089.076.2.076.308v3.231c0 .1.008.2-.06.286-.62.061-1.243.022-1.864.02-.11-.088-.085-.213-.086-.328-.005-.382 0-.765 0-1.144 0-.1.016-.204-.078-.274-.366-.095-.739-.037-1.107-.04-.68-.007-.612-.08-.625.628-.006.37.048.742-.04 1.109a.108.108 0 0 1-.08.058c-.558.005-1.117 0-1.675 0-.07 0-.149.022-.209-.033Z"/><path fill="#FEFEFE" d="M32.812 54.023c.006-.537.02-1.073.013-1.61 0-.196.041-.268.255-.266 1.12.011 2.242.009 3.36 0 .181 0 .258.036.252.238-.014.482-.011.965 0 1.447.003.167-.051.219-.219.219-.482-.009-.966.007-1.447-.008-.22-.006-.302.05-.296.285.013.555 0 1.11-.006 1.665H27.07a.36.36 0 0 1-.084-.25 46.01 46.01 0 0 1 0-1.41.356.356 0 0 1 .08-.253c.094-.05.196-.025.294-.025l5.16-.003c.097.001.2.03.292-.03Z"/><path fill="#5C6977" d="M55.994 48.285v3.828a.293.293 0 0 1-.2.073c-.547.004-1.09.012-1.636-.005a.25.25 0 0 1-.127-.042c-.1-.102-.087-.234-.09-.36-.003-.382 0-.765 0-1.148-.002-.32-.026-.343-.34-.347-.345-.003-.692 0-1.039 0-.117 0-.237.008-.35-.036a.177.177 0 0 1-.08-.067c-.081-.285-.037-.576-.037-.864 0-.334-.04-.67.031-1.002a.168.168 0 0 1 .076-.074.638.638 0 0 1 .267-.041c1.064-.003 2.128-.003 3.191 0 .117-.001.237-.002.334.085Z"/><path fill="#FEFEFE" d="M.005 27.015v-3.828a.258.258 0 0 1 .173-.07c.564 0 1.127-.035 1.69.02a.171.171 0 0 1 .076.066c.091.189.043.391.049.588.008.306 0 .614 0 .922 0 .098-.014.202.087.268.448.076.9.014 1.348.035.14.007.291-.023.41.089.026.026.043.059.05.095a14.05 14.05 0 0 1-.007 1.756c0 .028-.024.048-.038.071-.085.068-.187.063-.287.063a605.03 605.03 0 0 1-3.244 0c-.107.002-.218.008-.307-.075ZM25.1.005c0 .564.01 1.126-.005 1.69-.005.2.048.265.255.262.553-.01 1.106.005 1.66.01.054.624.04 1.247.009 1.871-.17.045-.343.02-.514.02-1.008.003-2.016.003-3.024 0-.099 0-.2.017-.297-.017-.039-.068-.023-.143-.024-.214V.218c0-.072-.017-.146.026-.213h1.914Z"/><path fill="#5C6977" d="M.005 28.93v-1.86a.25.25 0 0 1 .157-.026h3.535a.347.347 0 0 1 .134.017c.05.084.026.177.027.266v3.481a.187.187 0 0 1-.023.103.238.238 0 0 1-.15.06c-.554.007-1.108.046-1.66-.021a.193.193 0 0 1-.08-.062c-.085-.189-.038-.389-.047-.584-.02-.402.035-.806-.033-1.207a.393.393 0 0 0-.066-.06c-.477-.07-.956-.013-1.433-.031-.124-.005-.257.019-.361-.076Zm54.02-9.62c.051-.379.019-.76.021-1.141.006-.827.007-1.654 0-2.481 0-.2.052-.267.26-.262.564.013 1.127 0 1.69 0v3.883a.39.39 0 0 1-.28.082c-.517 0-1.035.018-1.552-.01a.347.347 0 0 1-.098-.034l-.04-.037Z"/><path fill="#FEFEFE" d="m55.994 48.285-3.813-.007c-.089-.06-.088-.155-.089-.246a82.188 82.188 0 0 1 0-1.422c0-.164.04-.273.247-.27 1.184.007 2.368.004 3.555.004a.189.189 0 0 1 .104.026l-.004 1.915Zm0 3.882c0 1.221 0 2.443.004 3.664 0 .137-.03.17-.168.168-.583-.009-1.166-.004-1.75-.004-.082-.088-.077-.2-.077-.307v-3.233c0-.099-.008-.2.06-.286a13.938 13.938 0 0 1 1.931-.002Z"/><path fill="#5C6977" d="M48.284 55.994a93.07 93.07 0 0 1 0-3.824c.469-.067.94-.013 1.41-.028.154-.005.308-.004.463 0a.108.108 0 0 1 .082.06c.055.12.046.249.046.376v2.999c0 .143.019.293-.087.416l-1.914.001Z"/><path fill="#FEFEFE" d="M50.198 55.994v-3.823c.08-.078.18-.08.281-.08.456 0 .911-.006 1.367 0 .281.004.339.059.34.34.007 1.093.004 2.187 0 3.28 0 .101 0 .203-.075.283h-1.913Z"/><path fill="#5C6977" d="M54.026 55.994h-1.86c-.043-.066-.026-.141-.026-.212 0-1.129.005-2.256-.006-3.384 0-.228.072-.312.294-.31.446.006.892 0 1.337 0 .092 0 .183.004.26.065a55.11 55.11 0 0 1 0 3.841Zm-26.96-1.915c-.021.638-.03 1.277.004 1.914H25.1a.32.32 0 0 1-.08-.224c0-.546-.03-1.096.017-1.643a.257.257 0 0 1 .055-.091l.01-.011a.29.29 0 0 1 .199-.078c.552 0 1.104-.04 1.655.023a.19.19 0 0 1 .083.063.625.625 0 0 0 .027.047ZM.005 32.81v-1.914a.322.322 0 0 1 .223-.08c.547 0 1.094-.03 1.64.016.034.012.065.03.09.055l.012.01a.331.331 0 0 1 .082.224c.008.498.012.995 0 1.492a.36.36 0 0 1-.055.181.226.226 0 0 1-.085.066c-.578.074-1.158.032-1.739.026a.268.268 0 0 1-.168-.076Z"/><path fill="#FEFEFE" d="m25.105 54.075-.003 1.92h-1.915a.234.234 0 0 1-.067-.145c0-.575-.042-1.148.021-1.726a.127.127 0 0 1 .077-.066c.63.005 1.259-.027 1.887.017Z"/><path fill="#5C6977" d="M21.273 54.076c.516-.061 1.034-.01 1.552-.028.117-.004.237.022.35-.033l.016.017c.014.013.017.025.01.036-.005.011-.01.016-.016.016v-.005c-.067.358-.012.72-.03 1.08-.014.278.03.558-.026.835h-1.857a13.855 13.855 0 0 1 0-1.918Z"/><path fill="#FEFEFE" d="m1.925 30.9-1.92-.002v-1.914a12.621 12.621 0 0 1 1.914.005l-.006-.007c.07.322.026.647.028.97.003.323.027.633-.016.948Zm54.069 11.59v1.913c-.637.047-1.277.045-1.914-.004l.007.005c-.07-.531-.016-1.064-.03-1.596-.002-.106-.032-.22.03-.319l-.007.006c.34-.072.683-.025 1.025-.027.293-.004.594-.038.889.021ZM.004 32.81c.635.034 1.269.03 1.903 0a.264.264 0 0 1 .085.219c.005.508.008 1.016 0 1.523a.294.294 0 0 1-.054.179.301.301 0 0 1-.204.063c-.5.007-1 .005-1.499 0a.324.324 0 0 1-.227-.074l-.003-1.91Zm54.072-13.508 1.918.003v1.914a.287.287 0 0 1-.2.074c-.515.006-1.03.008-1.546 0a.287.287 0 0 1-.178-.055.342.342 0 0 1-.064-.232c-.004-.49-.004-.98 0-1.47a.34.34 0 0 1 .07-.233Z"/><path fill="#5C6977" d="M1.923 21.275c.062.516.01 1.034.028 1.55.004.118-.02.238.032.35l-.014.03a.042.042 0 0 1-.055-.016h.005c-.358-.068-.72-.013-1.079-.031-.278-.015-.559.03-.836-.027v-1.859c.639-.043 1.28-.042 1.919.003ZM.005 36.64v-1.86c.599-.059 1.198-.01 1.797-.027.105 0 .146.043.144.145-.015.581.029 1.163-.025 1.744v-.004c-.637.045-1.278.046-1.916.002Zm55.99-15.365v1.86c-.639.043-1.278.043-1.915 0v.005c-.055-.581-.009-1.163-.024-1.744 0-.103.037-.15.143-.146.598.016 1.2-.033 1.795.025Zm0 25.097-3.652-.009c-.086 0-.194-.025-.19.122.014.597-.037 1.197.028 1.794l-.021.011-.05.004-.034-.038a.36.36 0 0 1-.034-.094c-.03-.452-.005-.905-.014-1.357-.007-.31-.037-.343-.344-.347-.498-.007-.995.005-1.493-.006-.536.013-1.071.005-1.607.005a.56.56 0 0 1-.265-.046.07.07 0 0 1-.038-.088l1.918-.007c.106-.093.237-.084.363-.085.383-.003.766 0 1.148 0 .285-.003.314-.03.315-.313.005-1 0-2.001.004-3.002 0-.142-.026-.293.075-.42.11.072.062.183.063.274.003 1.094.008 2.188 0 3.282 0 .218.066.276.278.273 1.185-.01 2.37-.006 3.555-.006l-.006.053Zm-1.968 5.798c-.535 0-1.071.008-1.606-.007-.21-.005-.26.066-.258.266.008 1.189.004 2.377.004 3.566h-.055c0-1.198-.006-2.397.005-3.595 0-.21-.059-.26-.259-.252-.552.02-1.106.017-1.66.024l-.005-.013c-.013-.011-.017-.022-.012-.032.006-.01.011-.014.016-.014h.006a.38.38 0 0 1 .083-.055c.415-.06.831-.021 1.248-.028.496-.007.492 0 .497-.51.003-.398-.015-.797.012-1.195a.312.312 0 0 1 .033-.095l.033-.038h.05l.013.006c.092.106.081.237.083.363.003.383 0 .763 0 1.145.003.288.027.313.309.317.372.005.745 0 1.117 0 .128 0 .256 0 .364.085h1.95v.054a23.808 23.808 0 0 0-1.918 0c-.016.033-.032.034-.05.008Z"/><path fill="#5C6977" d="M55.994 21.274c-.562 0-1.124.006-1.686-.003-.18-.003-.234.059-.231.235.008.544 0 1.088 0 1.631-.071-.522-.032-1.047-.024-1.57.003-.26-.082-.31-.322-.308-1.078.012-2.159.006-3.238.003-.093 0-.2.047-.28-.044a.222.222 0 0 1 .088-.058c.188-.045.378-.026.568-.026.915-.003 1.83-.003 2.744 0 .127 0 .254-.012.378.03a.368.368 0 0 1 .09.054h1.914l-.001.056ZM28.984.006v5.797a.031.031 0 0 1-.026.005.031.031 0 0 1-.021-.015L28.929.006h.055ZM1.92 36.64c0-.543-.007-1.087 0-1.63 0-.177-.054-.238-.23-.235-.563.01-1.125.004-1.686.004v-.055h1.914a.375.375 0 0 1 .086-.055 11.998 11.998 0 0 1 1.78-.003.202.202 0 0 1 .084.058c-.065.1-.164.054-.25.054-.473.005-.947.014-1.421-.003-.215-.008-.259.067-.253.263.015.446.006.893.004 1.338.002.088.03.181-.028.264ZM23.187.006c0 1.276-.002 2.552-.004 3.828-.017.018-.034.017-.05-.003V.006h.054Zm30.84 52.163c.016 0 .033 0 .05-.003l.003 3.828h-.054V52.17ZM3.83 27.07H.003v-.055l3.828.004a.03.03 0 0 1 .01.035c-.002.01-.006.016-.01.016ZM32.808 1.91l.004-1.905h.055V1.72c0 .084.042.183-.055.25-.018-.013-.025-.026-.02-.04.006-.013.01-.02.016-.02Zm-9.676 54.083V54.36c0-.095-.04-.202.055-.28v1.914l-.055.001Zm-1.86-1.918v1.918h-.054V54.32c.005-.081-.046-.182.055-.244ZM.006 36.64H1.92c-.058.11-.16.052-.239.054-.56.006-1.118.004-1.677.004l.002-.058Zm55.989-7.655-1.914.006c.075-.1.184-.058.278-.059.547-.004 1.09 0 1.636 0v.053Zm-54.075.006-1.914-.005v-.055h1.636c.094.002.203-.04.278.06Zm54.075 13.5-1.914.004c.074-.103.184-.055.277-.055.547-.004 1.094 0 1.638 0l-.001.05Zm-1.916 1.908 1.914.005v.054h-1.64c-.09-.003-.2.045-.274-.059Z"/><path fill="#5C6977" d="M54.078 23.133h1.914v.055c-.559 0-1.117 0-1.675-.003-.078 0-.177.053-.24-.052Zm-54.073 0H1.64c.095 0 .202-.04.28.055H.006l-.001-.054Zm0-5.795c.547 0 1.094-.003 1.637 0 .094 0 .203-.044.278.055l-1.914-.005-.001-.05Zm1.918 3.937H.005v-.054h1.674c.081.003.18-.051.244.054Z"/><path fill="#FEFEFE" d="M38.608 38.608c.004-.581.005-1.163.013-1.744 0-.124-.03-.178-.164-.178-1.863.007-3.726.012-5.59.014-.054.093-.026.195-.026.293-.009 1.176.011 2.351-.012 3.53.158.105.334.04.501.044.391.011.783.015 1.174 0 .199-.008.244.062.239.247-.013.465-.014.93 0 1.393.006.209-.046.28-.27.278-1.093-.012-2.187 0-3.277-.01-.228 0-.317.036-.306.291.023.547.006 1.094.006 1.641l-.047.023c-.561.006-1.122 0-1.684 0-.061 0-.127.017-.182-.03l.007.004a.155.155 0 0 1-.032-.1c.005-1.243-.009-2.486.008-3.728-.083-.087-.19-.044-.284-.045-1.094-.003-2.188-.008-3.278.003-.226 0-.31-.034-.307-.29.017-1.184.008-2.368.008-3.551l.049-.023c1.206-.006 2.412 0 3.618 0 .054-.007.11 0 .159.023.006.563.02 1.126.014 1.689 0 .19.054.25.245.245.5-.012 1-.01 1.5 0 .17.003.213-.05.212-.216a289.824 289.824 0 0 1 0-3.464c0-.173-.058-.212-.218-.21-.564.006-1.127 0-1.69-.006-.046-.044-.034-.1-.034-.154v-3.516c0-.055-.01-.11.03-.156 1.19 0 2.382-.008 3.573 0 .207 0 .284-.043.273-.266-.021-.547-.015-1.09-.02-1.635a.186.186 0 0 1 .164-.085c.57 0 1.142-.044 1.712.023.033.015.06.041.077.073.045.104.035.214.035.322v3.125c0 .116.018.237-.054.342-.089.105-.212.084-.328.085-.396.004-.791 0-1.186 0-.106 0-.22-.022-.303.072-.086.164-.044.34-.04.507.008.387-.045.777.033 1.16a.227.227 0 0 0 .196.076h1.367a.197.197 0 0 0 .186-.088c.065-.477.012-.955.03-1.432.004-.134-.017-.273.076-.39.103-.076.224-.069.341-.07a746.75 746.75 0 0 1 3.14 0c.117 0 .238-.004.344.064.094.094.077.219.078.333.004.407 0 .815 0 1.222 0 .098-.015.2.053.287.087.09.2.073.308.073.392 0 .782-.003 1.173 0 .307.005.329.03.329.323-.006 1.191.015 2.382-.011 3.573-.31.071-.624.022-.936.031-.312.009-.63.004-.944 0l-.047-.022ZM25.105 27.01V25.1l-.004.005c.104-.093.234-.087.36-.088.409 0 .817-.008 1.225 0 .224.005.306-.084.301-.304-.009-.39-.004-.78 0-1.17 0-.126-.01-.256.072-.367.12-.09.26-.064.393-.064h2.987c.115 0 .24.028.328-.08.1-.364.022-.733.048-1.099.016-.221-.048-.45.066-.663.098-.085.218-.068.334-.07h1.188c.109 0 .218.017.29-.094.06-.215.026-.434.031-.652.007-.282-.009-.564.007-.845s.105-.364.39-.383c.063-.005.127-.004.19-.004h4.883c.144 0 .293-.018.424.07.065.075.067.164.067.258 0 1.144.005 2.288 0 3.432 0 .046-.006.09-.019.135a.237.237 0 0 1-.057.091c-.104.073-.224.069-.342.07-.41 0-.82.004-1.23 0-.134 0-.278.014-.375-.116-.084-.293-.023-.593-.041-.889-.018-.295.036-.595-.035-.888-.054-.077-.134-.084-.219-.084H35.08c-.085 0-.164.007-.219.083-.083.173-.044.357-.048.536-.006.3 0 .598 0 .897-.005.405-.055.457-.452.461-.353.004-.707 0-1.06 0a.885.885 0 0 0-.322.032c-.091.055-.089.148-.089.24v1.215c0 .093 0 .182.104.228.199.044.4.022.601.022.91.003 1.82 0 2.729.003.4 0 .458.064.462.46.005.397.003.8 0 1.2 0 .118.005.238-.066.343-.115.1-.257.073-.39.074-1.016.002-2.032 0-3.048 0-.115 0-.239-.027-.336.065-.078.095-.05.21-.055.316-.013.462.024.926-.022 1.389a.179.179 0 0 1-.059.08l-3.825-.013c-.05-.618-.024-1.237-.015-1.855.1-.105.234-.088.359-.09.391-.005.783-.007 1.174 0 .212.005.32-.062.314-.295-.01-.409-.008-.82 0-1.228.002-.195-.072-.28-.274-.277-.418.007-.837.006-1.258 0-.202-.003-.273.09-.273.282.003.4.004.8 0 1.203 0 .125.016.258-.087.36-1.25.027-2.498.007-3.747.011a.148.148 0 0 1-.072-.033Zm18.316 19.31c-.875 0-1.75-.004-2.625.004-.177 0-.23-.046-.228-.227.006-1.766.006-3.533 0-5.3 0-.178.047-.23.226-.229 1.768.007 3.535.007 5.302 0 .178 0 .228.048.228.227a709.72 709.72 0 0 0 0 5.301c0 .178-.047.23-.227.228-.894-.008-1.786-.003-2.676-.003Zm-6.727.051h1.907c.058.062.034.139.034.209 0 1.19.003 2.38 0 3.57a.08.08 0 0 1-.062.076c-2.54.005-5.08.005-7.62 0l-.05-.022v-1.914c.094-.055.196-.028.294-.028 1.729 0 3.458-.001 5.187-.004.093 0 .2.047.28-.046.011-.524 0-1.049.007-1.573-.003-.09-.026-.183.023-.268Zm-25.153-9.672H7.77c-.023.028-.043.027-.06-.005l.006.007a.478.478 0 0 1-.058-.09c-.063-.561-.028-1.123-.019-1.686a.235.235 0 0 1 .06-.148c.103-.077.22-.07.34-.07.426 0 .852-.007 1.278 0 .211.003.294-.079.29-.29-.008-.426-.004-.852 0-1.278 0-.117-.007-.237.07-.34.11-.085.24-.073.366-.073 1.034-.002 2.067-.002 3.1 0 .118 0 .238-.004.346.054a.21.21 0 0 1 .068.083c.037.62.076 1.24-.021 1.86-.095.093-.219.077-.334.078-.399.003-.798 0-1.197 0-.099 0-.203-.018-.277.072-.088.181-.04.374-.046.56-.01.369.007.739-.01 1.108a.341.341 0 0 1-.022.093l-.024.042a.066.066 0 0 1-.086.023Z"/><path fill="#FEFEFE" d="M17.39 36.692v1.902c-.058.067-.136.038-.205.038h-5.404c-.062 0-.128.015-.183-.03l.005.006c-.07-.34-.025-.685-.026-1.027 0-.297-.043-.597.025-.892l-.006.007c.095-.091.219-.08.332-.08h1.164c.106 0 .219.023.296-.084.084-.45.016-.901.04-1.35.006-.142-.024-.292.08-.416a.365.365 0 0 1 .206-.06 70.332 70.332 0 0 1 1.55 0 .29.29 0 0 1 .155.044c.102.102.09.234.09.36.005.383 0 .765 0 1.148 0 .11-.012.219.067.31.088.071.192.048.29.05.465.006.93-.01 1.394.008a.285.285 0 0 1 .094.032l.036.034Zm5.742 5.801-1.853-.01c-.073-.302-.026-.609-.028-.912 0-.332-.035-.666.022-.997 1.203 0 2.406 0 3.61-.008.184 0 .225.058.223.232-.007.547 0 1.093.005 1.64.539.059 1.078.008 1.617.027.097.003.198-.03.29.03l-.007-.005c.07.321.027.647.028.97 0 .315.04.632-.028.944l.007-.005c-.046.04-.103.031-.157.031h-3.518c-.055 0-.11.01-.157-.03l.007.005c-.071-.34-.01-.682-.031-1.023-.018-.297.035-.595-.03-.889Zm1.972-5.801c-.573 0-1.148 0-1.72-.006-.134 0-.223.008-.219.184.014.573.013 1.146.018 1.719-.035.062-.095.044-.146.044h-1.64a.166.166 0 0 1-.128-.034l.004-3.817c.055-.042.123-.028.185-.028h3.457c.062 0 .128-.016.183.03l.012 1.857a.033.033 0 0 1 .011.03.031.031 0 0 1-.008.015.03.03 0 0 1-.014.01l.005-.004Zm11.595 1.923 1.91-.004-.005-.004c.04.047.03.103.03.156v3.546c0 .061.02.129-.038.18h-1.895c-.045-.045-.034-.102-.034-.155V38.77c0-.056-.01-.113.032-.155ZM19.301 36.69h-1.91l.004.005a.348.348 0 0 1-.079-.253c0-1.148-.006-2.301 0-3.451a.423.423 0 0 1 .018-.11.231.231 0 0 1 .059-.09c.094-.067.203-.068.311-.07.423-.003.847-.002 1.27 0 .118 0 .236 0 .329.09l-.005-.006a.145.145 0 0 1 .029.1v3.517c.004.092.032.186-.027.268Zm32.8 5.803c.004 1.219.005 2.438.014 3.657 0 .16-.07.173-.196.172-.573-.006-1.149-.006-1.72-.007v-3.82c.321-.07.647-.028.97-.028.313 0 .63-.04.942.027h-.01Zm-21.203 1.911c1.184 0 2.367.012 3.55 0 .25-.002.306.072.297.306-.018.464-.011.93 0 1.393.003.158-.03.223-.207.219a259.738 259.738 0 0 0-3.442 0c-.158 0-.198-.05-.197-.202.006-.555 0-1.11-.004-1.665-.014-.016-.017-.029-.01-.04.008-.012.014-.016.02-.016l-.007.005Zm-3.883 9.637c-.637.003-1.276.032-1.914-.015 0-1.191.006-2.382-.004-3.572 0-.202.048-.262.255-.257.554.014 1.108 0 1.662 0a55.86 55.86 0 0 1 .001 3.844Zm.05-3.844-.007-3.824c.624-.055 1.248-.032 1.872-.011.006.797.015 1.595.017 2.393 0 .48-.008.961-.013 1.442l-.044.025a96.09 96.09 0 0 1-1.78 0l-.045-.025Zm11.548 1.897-.006-1.839c-.03-.02-.03-.04 0-.06l-.005.006c.017-.028.037-.028.058-.006.536 0 1.071.013 1.606.003.19-.004.273.03.266.247-.018.553-.008 1.107-.01 1.66-.468.077-.94.021-1.41.03-.164.002-.339.059-.499-.041Zm-11.603-21.2c-.57 0-1.141-.003-1.712.005-.154 0-.2-.044-.198-.198.009-.57.005-1.141.005-1.711.303-.073.61-.029.915-.028.332 0 .666-.043.996.027l-.006-.006c.07.512.017 1.026.03 1.539.002.123.035.253-.03.372Zm21.279 15.482 1.914-.004a.36.36 0 0 1 .08.254c0 .507.017 1.014-.01 1.522a.347.347 0 0 1-.035.097l-.035.038h-1.899a.096.096 0 0 1-.043-.092c.015-.607-.039-1.209.028-1.815Z"/><path fill="#FEFEFE" d="M50.202 50.201v-1.918l-.004.005a.349.349 0 0 1 .252-.078c.47-.003.94-.003 1.41 0a.35.35 0 0 1 .254.075l-.005.003c.072.302.026.609.028.913 0 .332.036.666-.023.996v.004a.265.265 0 0 1-.174.069c-.551 0-1.103.03-1.654-.017a.394.394 0 0 1-.089-.054l.005.002Zm-21.218-.004 1.917.004-.005-.005c.018.01.026.022.022.035-.003.014-.008.022-.013.022l-.011 1.853c-.284.072-.573.028-.859.03-.351 0-.704.028-1.054-.017-.04-.64-.038-1.282.003-1.922Zm17.384-15.459c0-.571 0-1.143-.01-1.713-.003-.165.062-.2.209-.197.492.007.98.012 1.469 0 .204-.005.238.082.236.258-.007.544 0 1.089 0 1.633-.208.078-.425.03-.637.031-.421.002-.844.018-1.267-.012Z"/><path fill="#5C6977" d="M44.455 27.073c0 3.188 0 6.377.003 9.565.015.046 0 .064-.049.052-.093-.082-.091-.194-.091-.303 0-3.035-.009-6.07 0-9.108a.648.648 0 0 1 .01-.08.296.296 0 0 1 .035-.099.065.065 0 0 1 .092-.027ZM40.524 38.61c0-1.21 0-2.42.009-3.629 0-.181-.068-.206-.223-.204-.482.008-.964.006-1.446 0-.08 0-.183.054-.243-.055a.244.244 0 0 1 .085-.055c.463-.054.93-.013 1.391-.025.317-.01.337-.026.34-.347.005-.374-.006-.747.006-1.12.004-.115-.037-.267.138-.315.09.096.08.22.08.334.005.353 0 .706 0 1.059 0 .372.015.383.377.388.362.004.724 0 1.086 0 .124 0 .256-.015.36.081.02.04.008.062-.035.068-.547-.004-1.09 0-1.635-.015-.197-.006-.243.069-.242.252.007 1.117.005 2.235 0 3.352 0 .093.047.203-.06.273-.014-.013-.017-.024-.01-.033.007-.01.013-.01.021-.01Zm13.543-3.888c-.063.103-.164.055-.248.055-.49.005-.98.005-1.471 0-.13 0-.198.019-.197.175.008 1.862.012 3.725.013 5.587-.11-.049-.047-.143-.047-.21-.005-1.773 0-3.545-.009-5.318 0-.224.055-.298.287-.292.547.015 1.091 0 1.637 0l.035.003Zm-3.873 3.893c-.072.085-.169.048-.255.048-2.4.002-4.8.002-7.199 0-.086 0-.185.036-.252-.055l.04-.035c.129-.065.267-.05.403-.05h6.824c.135 0 .274-.015.401.054l.038.038ZM30.905 50.253l-.01-.055h7.714v.06l-7.704-.005Zm-19.311-11.65 5.797-.01c-.045.107-.14.067-.214.067-1.787.002-3.572.002-5.355 0-.08 0-.17.031-.228-.057Zm25.09 9.625c-.07.118-.18.055-.268.055-1.838.006-3.677.008-5.515.006.086-.105.204-.054.306-.054 1.811-.004 3.623-.005 5.435-.004.013-.027.027-.026.041-.003Z"/><path fill="#5C6977" d="m54.066 34.722-.035-.003c0-1.846-.001-3.693-.005-5.54 0-.07-.017-.148.06-.196 0 1.814-.002 3.628-.006 5.442 0 .099-.009.198-.014.297Zm-25.082-7.667v1.876c-.084-.072-.051-.17-.055-.256 0-.455-.01-.91.003-1.364.006-.195-.064-.245-.25-.244-1.1.007-2.2.004-3.3 0-.094 0-.204.045-.277-.059l3.838.005a.041.041 0 0 1 .038.026c.002.005.003.01.003.016Zm13.508 21.228c0 1.815-.002 3.629-.006 5.442 0 .1-.007.2-.01.298h-.038l-.005-5.544c.004-.07-.02-.15.059-.196Zm-1.97-9.673a.448.448 0 0 0-.007.046c-.537 0-1.075.012-1.612 0-.196-.004-.244.064-.243.25.007 1.103.005 2.205 0 3.308 0 .09.055.203-.063.27l.009-3.883 1.917.009Zm-7.71 15.413c-.047.11-.143.054-.214.054-1.845.003-3.689.003-5.532 0v-.011c-.014-.01-.017-.02-.011-.028.006-.009.01-.012.016-.012l5.741-.003Zm5.852-3.828-.059.006-.005-3.833c.131.033.059.138.06.203.004 1.208.004 2.416.004 3.624Zm-9.676-19.29.003 3.827c-.103.018-.06-.063-.06-.1l-.002-3.564c0-.06-.01-.127.059-.164Z"/><path fill="#5C6977" d="M27.07 54.027a.199.199 0 0 1-.005.04l-.05-.026v-3.844a.367.367 0 0 0 .049 0l.004.005c.02.01.027.022.021.034-.005.012-.01.018-.017.018a3388.67 3388.67 0 0 0-.002 3.773Zm9.63-15.412v3.873c-.088-.043-.062-.124-.062-.192V38.81c.002-.072-.018-.151.061-.195Zm-11.602-3.828-3.825-.005c.06-.08.148-.055.226-.055h3.376c.077 0 .166-.03.223.06Zm-3.825 5.787.007 1.908c0 .547 0 1.098-.008 1.646 0 .093.042.202-.06.274l.008-1.914c-.017-.006-.024-.014-.021-.025.002-.01.006-.017.01-.017.004-.53.006-1.062.012-1.592.002-.094-.036-.2.052-.28Zm7.692 0c.006.652.014 1.303.019 1.955.003.624.003 1.25.005 1.874-.076-.048-.059-.126-.059-.196V40.73a.719.719 0 0 1 .035-.155Z"/><path fill="#5C6977" d="M17.395 44.459c.068-.117.18-.052.266-.055 1.187-.007 2.374-.006 3.56-.007-.075.102-.184.055-.277.055-1.183.007-2.366.006-3.55.007Zm5.793-.06h3.828c-.046.082-.127.057-.196.057h-3.44c-.067 0-.148.025-.192-.058Zm9.64-3.877-.016-3.745c0-.039.01-.07.055-.077v3.532c0 .098.027.2-.04.29ZM50.209 28.93l-.01-3.416c0-.137-.004-.273-.006-.41.104.085.058.203.058.306.004 1.173 0 2.345 0 3.518-.01.023-.025.023-.042.002ZM7.711 36.691l.06.005c0 1.179-.002 2.358-.004 3.536 0 .097.03.2-.037.29a4813.9 4813.9 0 0 0-.016-3.206l-.003-.625Zm44.395-3.883v-3.824c.085.057.06.146.06.224 0 1.203-.002 2.405-.004 3.605a.034.034 0 0 1-.056-.005ZM19.301 36.69l.012-3.822c.015-.024.03-.023.046 0v3.576c0 .083.047.185-.058.246Zm5.8.006.011-.054h3.594c.077 0 .164-.034.226.049l-3.83.005ZM44.42 52.112l-.016-2.932c0-.299-.002-.597-.005-.897.073.037.06.107.06.167v3.536a.458.458 0 0 1-.039.126Zm5.784-17.33c.074.065.049.152.05.23v3.347c0 .087.028.185-.059.253v-.006c-.085-.097-.082-.218-.082-.335a755.624 755.624 0 0 1 0-3.159c-.008-.1.01-.2.054-.29l.037-.04Zm-3.834-.043 1.905-.022c.55 0 1.1.003 1.65.01.095 0 .202-.037.28.055h-.01a.307.307 0 0 1-.227.079c-.547 0-1.091.03-1.636-.017a.26.26 0 0 1-.09-.055c-.527-.004-1.054-.005-1.582-.01-.097-.002-.2.029-.29-.04Zm-3.92.053c.01 0 .018-.003.027-.008.093.069.098.172.098.271.008 1.09.006 2.181 0 3.271a.39.39 0 0 1-.084.28h-.003a.117.117 0 0 1-.055-.115l.017-3.7Zm2.012 1.89v-.044l3.773.004a.068.068 0 0 1 .003.052.064.064 0 0 1-.036.037.547.547 0 0 1-.264.049c-1.05.003-2.1.003-3.148 0-.12-.001-.244.009-.328-.097Z"/><path fill="#5C6977" d="M19.36 32.868h-.047l-.008-.06h1.909c.022-.023.04-.021.054.006-.07.088-.168.05-.253.051-.55.003-1.103.002-1.656.003Zm32.746-.06.055.005c-.042.066-.11.052-.17.052h-1.599c-.068 0-.148.024-.192-.06l1.906.003ZM38.614 52.094c.636.038 1.273.016 1.91.011.021.08-.04.061-.077.061h-1.678c-.062 0-.13.007-.155-.072Zm-9.63-1.897.003 1.91c.018.013.024.026.017.038-.007.013-.013.018-.02.018-.093-.078-.051-.185-.055-.28-.005-.543-.003-1.086-.005-1.629-.017-.013-.022-.025-.015-.036.007-.01.013-.016.02-.016l.004-.005a.4.4 0 0 0 .051 0Zm19.305-3.82.014 1.903c-.085-.024-.07-.095-.07-.156v-1.686c0-.046 0-.091.05-.116 0 .019.002.037.006.054Zm-30.886-5.804c-.004.554-.004 1.108-.013 1.662 0 .08.054.182-.055.242-.019-.01-.024-.018-.018-.026a.024.024 0 0 1 .007-.009.022.022 0 0 1 .011-.004v-1.83a.061.061 0 0 1 .021-.044c.012-.006.035.006.047.009ZM21.27 38.6c.638.005 1.276.026 1.914-.011a.075.075 0 0 1-.073.067c-.608.002-1.217.002-1.826 0-.007 0-.02-.009-.02-.014 0-.015.002-.028.005-.042Zm21.17 15.424a.165.165 0 0 1 .038 0c-.06.11-.164.055-.242.055-.554.008-1.109.008-1.663.01.024-.128.127-.057.184-.058.561-.009 1.122-.006 1.683-.007ZM30.898 44.4l-.01.055c-.553 0-1.106.003-1.66 0-.083 0-.184.04-.248-.055h1.918Zm17.33-7.717a.206.206 0 0 1 0-.041l.012-1.853a.214.214 0 0 0 .045-.009c.08.087.085.196.085.305.004.433.01.866-.004 1.298-.002.108.048.266-.138.3Z"/><path fill="#5C6977" d="m21.273 32.813-.055-.006c0-.553 0-1.106.01-1.66 0-.08-.055-.18.052-.241l-.007 1.907Zm26.955-3.835c.11.06.055.164.055.24.007.56.006 1.118.007 1.676-.104-.074-.054-.184-.054-.277-.009-.546-.007-1.093-.008-1.64ZM11.6 36.69v1.919c-.103-.074-.054-.184-.054-.274-.005-.547-.003-1.09-.003-1.634l.058-.01Zm15.41-5.796v-1.91a.146.146 0 0 1 .06.14v1.63c0 .055 0 .11-.06.14Zm7.717-1.91-1.91.018-.009-.059.01-.012a.284.284 0 0 1 .088-.057c.54-.061 1.08-.025 1.62-.02.082 0 .186.006.201.13Z"/><path fill="#5C6977" d="M27.015 28.99h-1.91c.03-.019.055-.055.086-.055.58-.003 1.158-.003 1.737 0 .032 0 .059.035.087.055Zm-3.828 25.094c0-.018.002-.037.005-.055l1.899.005.012.038-1.916.012ZM21.21 42.446c0 .015.002.03.01.042-.555 0-1.11.004-1.665 0-.078 0-.18.06-.239-.055.015-.025.03-.024.044 0l1.85.013Zm5.805.048c-.555 0-1.11 0-1.665-.008-.079 0-.18.058-.241-.049.561 0 1.122-.003 1.684 0 .079 0 .167-.033.222.057Zm25.102 0h-1.915c.019-.017.038-.05.055-.05.598-.002 1.197-.002 1.795 0 .022 0 .041.033.065.05ZM46.32 27.066c.091.252.028.513.038.769.015.368.01.737.015 1.106-.12-.039-.047-.137-.048-.2-.01-.558-.006-1.118-.006-1.675ZM23.131 42.493c.11.058.05.16.055.238.007.558.006 1.115.007 1.673-.1-.076-.054-.185-.054-.278-.008-.545-.008-1.089-.008-1.633Z"/><path fill="#5C6977" d="M27.01 44.403V42.49a.145.145 0 0 1 .06.143v1.63a.143.143 0 0 1-.06.141Zm27.076-1.914v1.914a.143.143 0 0 1-.06-.142v-1.63c0-.056.005-.11.06-.142Zm-9.632-15.416-.037.004a.045.045 0 0 1-.023-.04c0-.017.005-.025.009-.025.558 0 1.116 0 1.674.006.081 0 .181-.049.247.049l-1.87.006Zm5.755 1.856h.045c.526 0 1.054 0 1.58.004.095 0 .203-.04.28.058-.555 0-1.11 0-1.663-.008-.08-.003-.182.054-.242-.054Zm-21.28 17.433-1.87.01-.004-.026c.625-.034 1.25-.062 1.875.016Zm.055 5.801.003-.054h1.907c-.055.09-.145.06-.221.06l-1.689-.005Zm15.422-3.874h-1.914a.12.12 0 0 1 .114-.054h1.688a.12.12 0 0 1 .112.054ZM28.93 50.202a.473.473 0 0 1-.003.055h-1.854a.473.473 0 0 0-.003-.055h1.86Zm7.754-1.974h-.041c0-.547-.004-1.09 0-1.634 0-.076-.034-.164.052-.225l-.011 1.86Zm-19.347-5.79v.039c-.62.02-1.24.023-1.86 0 .282-.09.571-.028.857-.038.336-.013.67-.002 1.003 0Zm2.023-.004h-.043l-.012-1.86c.095.067.055.165.055.252.004.536 0 1.07 0 1.608Zm1.86-21.16c-.547-.004-1.094-.006-1.644-.013-.084 0-.18.038-.253-.041.03-.543.017-1.087.007-1.63-.004-.231.078-.309.296-.307.398.004.797 0 1.196 0 .11 0 .219.017.309-.068.078-.082.068-.184.068-.284V15.85c0-.1.01-.202-.068-.282-.09-.085-.203-.066-.31-.066h-1.142c-.115 0-.24.02-.331-.081-.025-1.258-.008-2.512-.008-3.768 0-.016.014-.033.022-.049.57-.004 1.14-.004 1.709-.015.16-.004.197.058.196.206-.004.57 0 1.14.005 1.71.17.082.35.028.526.033.388.01.777.006 1.165 0 .073 0 .164.045.223-.043-.005-.572-.013-1.144-.014-1.716-.003-1.236-.003-2.472 0-3.707 0-.1.011-.199.017-.298.637-.06 1.275-.028 1.914-.016.102.103.085.235.087.36.004.363 0 .727.002 1.09.004.305.027.329.324.334.39.005.782-.004 1.172.004.383.007.473.088.468.47-.007.507.048 1.016-.034 1.522a.177.177 0 0 1-.067.076l-.049.012c-.508-.014-1.017-.003-1.527-.006-.1 0-.204-.012-.261.1-.037.134-.025.273-.025.408v6.682c0 .153.02.31-.048.456l-.036.04-1.908.006c-.072.088-.035.192-.035.288-.003 1.08 0 2.16 0 3.24 0 .099.017.2-.017.297-.62.049-1.242.025-1.863.012-.068-.346-.013-.697-.032-1.044-.02-.279.03-.557-.034-.832Zm-7.707 11.535c-.407.048-.817.018-1.225.02-.864.004-1.729 0-2.593-.004-.065-.069-.036-.155-.036-.234V21.483c0-.071-.014-.146.022-.214h-.004c.622-.042 1.243-.026 1.864-.008.067.547.009 1.094.032 1.64.004.094-.049.199.04.28.58-.005 1.159-.008 1.738-.017.128 0 .174.043.173.173-.009.587-.01 1.175-.014 1.764l-.037.034c-.235.087-.481.034-.722.047-.35.02-.7-.036-1.047.034a.164.164 0 0 0-.08.135c.006.517-.034 1.035.022 1.55a.36.36 0 0 0 .058.063 9.1 9.1 0 0 0 1.704 0 .389.389 0 0 0 .055-.068c.058-.475.01-.951.026-1.426.005-.124-.022-.254.075-.36l1.86-.004c.063.412.008.825.029 1.238.01.223-.036.449.027.67.378.07.759.011 1.138.03.244.013.492-.029.732.026.029.621.025 1.243 0 1.864-.125.106-.274.071-.418.072-1.616.002-3.231.002-4.847 0-.117 0-.236-.017-.35.022a.388.388 0 0 0-.07.055c-.09.154-.04.322-.044.483-.008.318-.003.637 0 .956 0 .099-.018.206.098.261.455.055.91.015 1.367.024.47.01.514.049.516.518v1.094c0 .118.008.238-.049.349l-.04.04Zm17.386-11.53-.01 1.86c-.094.047-.196.023-.295.023-1.089 0-2.178 0-3.268.004-.086 0-.18-.038-.26.031-.004.518-.024 1.04-.007 1.554.01.274-.047.38-.348.363-.535-.027-1.073-.007-1.61-.007l.01-5.745c.097-.092.219-.072.337-.073.509-.005 1.018.005 1.527-.007l.051.003c.033.01.062.031.08.06.103.431.025.87.05 1.304.01.161-.035.328.055.48.096.1.219.07.335.07h2.993c.123 0 .257-.03.36.08Z"/><path fill="#5C6977" d="M19.355 15.418c.526 0 1.053 0 1.58.008.097 0 .201-.031.288.044l-.035.039c-.118.067-.247.054-.373.054-.383.004-.766.005-1.145 0-.195 0-.28.079-.278.274.003.309 0 .618 0 .927v2.126c0 .126.012.255-.047.375l-.035.038h-1.918l.005.005-.008-1.903c-.035-.061-.095-.04-.146-.04-.588.007-1.177-.019-1.765.012-.106-.157-.04-.332-.045-.498-.011-.399.007-.798-.008-1.197-.008-.208.066-.26.265-.258 1.206.008 2.412.004 3.619.004.01-.028.025-.031.046-.01Zm-1.977-5.787c-.04.074-.11.048-.17.048-.519 0-1.039-.003-1.557.004-.159 0-.226-.04-.225-.213.005-1.82 0-3.641.003-5.462 0-.044-.005-.092.042-.12.623-.04 1.247-.043 1.87-.007.043.096.022.197.022.296v5.155c-.008.1-.003.2.015.299Zm-1.902 17.38c-.091-.079-.054-.185-.054-.28v-1.628c0-.564.012-1.129 0-1.695-.004-.193.059-.246.247-.244 1.139.007 2.277.007 3.416 0 .182 0 .23.054.227.232-.01.492-.014.985 0 1.477.006.201-.067.235-.25.234-1.11-.007-2.222.003-3.335-.009-.219-.003-.274.066-.267.274.023.546.016 1.093.016 1.64Zm3.832 5.802c-.639.031-1.279.03-1.917-.005l-.035-.039a.424.424 0 0 1-.047-.21c0-1.164-.02-2.326.01-3.49a.348.348 0 0 1 .038-.097l.033-.042c.636.035 1.272.018 1.908.009.018.008.025.017.021.028s-.01.018-.014.018l.003 3.828ZM5.79 38.66c.004.582.006 1.164.012 1.745 0 .107-.02.168-.148.168-1.218-.004-2.437-.004-3.654-.007-.022 0-.043-.028-.064-.043.025-.527 0-1.054.012-1.58 0-.098-.028-.2.03-.294 1.27-.014 2.542-.033 3.812.011Zm11.585-17.44c-.291.098-.59.027-.886.04-.295.014-.582.003-.875.003-.096 0-.187-.004-.186-.137 0-.59.004-1.181.01-1.772 0-.011.024-.023.037-.034.522.035 1.046.005 1.568.016.099 0 .198-.017.295.018.055.504.008 1.01.024 1.515-.005.117 0 .235.014.352ZM3.888 25.104c.547 0 1.094-.002 1.636 0 .075 0 .164-.042.224.047.055.485.01.971.025 1.456.004.135-.012.27.011.405-.255.091-.518.029-.776.037-.372.013-.745.005-1.118.006a13.355 13.355 0 0 1-.002-1.95Zm7.714-7.765c-.005-.58-.006-1.162-.014-1.743 0-.133.05-.17.176-.168.527.005 1.053.005 1.58 0 .125 0 .18.034.178.168-.009.58-.011 1.161-.015 1.742-.635.044-1.271.044-1.905 0Zm5.734-3.832c-.581.005-1.162.007-1.743.016-.133 0-.17-.055-.168-.178.005-.526.005-1.053 0-1.58 0-.126.036-.179.17-.176.58.008 1.161.01 1.742.014.043.634.043 1.27-.001 1.905Zm-9.62 21.218v-1.681c0-.074-.045-.165.048-.22.527.04 1.055.006 1.586.02.097 0 .2-.029.293.029.03.571.006 1.143.013 1.714 0 .086 0 .17-.12.164-.608-.014-1.215.037-1.82-.026Zm3.878-13.51.01-1.854c.635-.043 1.271-.043 1.905 0 .018.62.033 1.24-.008 1.86-.635.046-1.272.044-1.907-.005Zm9.64 5.856c.048.619.048 1.24 0 1.86-.625.05-1.25.031-1.874.008a15.484 15.484 0 0 1-.005-1.872c.625-.04 1.253-.038 1.879.004ZM7.726 34.787l-.012 1.846a13.47 13.47 0 0 1-1.907.005c-.012-.62-.026-1.24.007-1.86.639-.035 1.276-.056 1.912.009Zm-3.898-9.686-1.86-.007a15.738 15.738 0 0 1 0-1.9l.016-.019 1.847.01c.065.432.014.866.028 1.3.006.19.005.382 0 .57l-.031.046Zm1.914 7.714-1.846.008c-.075-.054-.082-.136-.083-.218a60.948 60.948 0 0 1 0-1.484.308.308 0 0 1 .076-.224l1.86.007c.043.636.04 1.275-.007 1.91Z"/><path fill="#5C6977" d="m7.727 34.787-1.915-.01c.15-.093.313-.038.469-.041.477-.012.955-.01 1.432-.015.553 0 1.106-.007 1.659.006.206.005.263-.063.258-.263-.013-.535-.006-1.07-.008-1.604-.017-.012-.022-.024-.015-.034.007-.01.013-.015.02-.015l.007-4.072v-7.16c0-.104-.044-.218.04-.312 0 3.724.001 7.45.004 11.174 0 .128.007.255.01.383-.004.571-.015 1.142-.007 1.712 0 .191-.055.25-.247.247-.566-.008-1.136.004-1.707.004ZM21.222 1.974c.087.081.05.188.05.283.005.526 0 1.051.004 1.577.02.012.025.025.019.037-.007.012-.014.017-.02.017l-.013 5.434c0 .106.037.22-.035.317l-.038-.036c-.078-.144-.055-.301-.055-.455V4.512c0-.09-.003-.182 0-.273.004-.183-.08-.262-.264-.262h-1.172a.896.896 0 0 1-.298-.03.346.346 0 0 1-.088-.055l-.009.01a.039.039 0 0 1-.012-.037c.003-.013.006-.02.01-.02l.011-.013c.11-.092.24-.079.365-.08.383-.002.766 0 1.149 0 .285-.003.307-.025.31-.317.004-.364 0-.729 0-1.094 0-.134-.008-.264.086-.367Zm-3.844 7.657c-.05-.052-.04-.118-.04-.18V4.005a.912.912 0 0 1 .012-.11c.008-.025.02-.028.04-.009v5.58c0 .055-.007.11-.012.165Z"/><path fill="#5C6977" d="M19.308 3.889a.042.042 0 0 0 .04.01c.108.096.1.228.1.354V9.29c.007.1-.008.2-.045.293a.07.07 0 0 1-.089.04l-.006-5.735ZM3.888 25.104v1.95l-.012 3.789c-.014.025-.028.025-.043 0l-.005-3.773v-.051c.023-.64.029-1.28-.003-1.919l.012-.005c.017-.018.03-.016.041.006l.01.003ZM21.273 3.885v-.054h1.86a101.686 101.686 0 0 0 3.88 0c.014.008.02.017.016.027-.005.01-.009.015-.013.015l-3.462.01c-.127 0-.254.008-.383.012-.631-.002-1.264-.005-1.898-.01Z"/><path fill="#5C6977" d="M3.836 30.843h.042l.01.055.009 1.924-.027 1.901a.272.272 0 0 0-.037-.003c-.082-.087-.085-.197-.085-.306 0-.507-.01-1.014.004-1.521v-.106c-.014-.527-.004-1.055-.005-1.583 0-.11.006-.219.085-.309 0-.017.001-.035.004-.052Zm1.955 7.817-3.815-.005v-.035l3.736-.012c.038 0 .07.007.079.052Zm11.6-34.771a.074.074 0 0 1-.04.009l-1.88-.01c.3-.084.608-.022.911-.038.334-.017.67.026 1.003-.023l1.914.014.003.055-1.912-.007Zm.006 48.225c-.106-.085-.055-.203-.055-.305-.004-1.174-.004-2.349-.004-3.523.117.068.054.18.054.267.003 1.187.003 2.374.005 3.561Zm1.958-36.695a.168.168 0 0 0-.047.01v-3.616c0-.07-.05-.164.052-.211 0 1.272-.002 2.544-.005 3.816Zm-7.762 5.796 1.909.005c-.15.094-.313.038-.47.041-.478.012-.957.01-1.435.013-.014.026-.03.029-.048.004l-1.87-.008c.068-.093.167-.047.25-.047.553-.007 1.107-.007 1.664-.008Zm11.546 1.919-.004-3.632c0-.068-.025-.15.062-.192l-.01 3.525c0 .1-.009.199-.013.298h-.035Zm-1.928-3.813c-.438.088-.885.027-1.326.037-.524.012-.515.003-.527.534-.01.443.051.887-.037 1.328l-.012-1.914-.005.005a.265.265 0 0 1 .17-.078c.554-.006 1.107-.044 1.66.022.032.013.06.036.077.067Zm1.973-5.828a.073.073 0 0 1-.074.067c-.608.002-1.217.002-1.827 0-.007 0-.02-.01-.02-.015.001-.015.003-.03.007-.044l1.914-.008Zm-5.849.014v-1.905c.045.006.055.037.055.075v1.754c0 .038-.01.069-.055.076ZM5.809 36.64l1.906-.005c0 .02 0 .04.003.061-.557 0-1.115 0-1.672-.007-.078 0-.179.06-.237-.05Zm-.066-3.826c0-.636.001-1.272.004-1.909.044.007.054.038.054.077v1.728c0 .044.002.091-.058.104Z"/><path fill="#5C6977" d="M1.975 38.62a.193.193 0 0 1 0 .035c0 .534 0 1.07-.003 1.603 0 .09.025.183-.037.264l-.015-1.823a.07.07 0 0 1 .055-.08Zm17.384-9.693 1.876.002c-.064.1-.164.052-.247.052-.56.005-1.12.004-1.681.004a.133.133 0 0 0-.007-.046l.013-.009c.011-.027.027-.027.046-.003Zm-.044-19.304h.038a.228.228 0 0 1 .094-.051 9.804 9.804 0 0 1 1.676 0 .17.17 0 0 1 .092.054l.012.013c-.178.093-.37.038-.554.042-.372.01-.744.007-1.116 0-.08-.004-.182.051-.242-.058Zm-5.807 9.738h-1.905c.006-.045.036-.055.075-.055h1.753c.04 0 .07.01.077.055Zm11.59-11.59h-1.91c.054-.109.159-.054.238-.054.559-.005 1.119 0 1.678 0l-.005-.004c.015.014.02.026.015.039-.006.012-.013.02-.017.02ZM17.374 21.22c-.082-.356-.022-.716-.036-1.074-.01-.261 0-.524 0-.785-.018-.01-.024-.021-.018-.031.006-.01.012-.016.018-.016l.06-.006-.006-.005-.018 1.917Zm9.64-1.91c-.059.084-.148.05-.224.05h-1.682l-.005-.054-.003.004a.358.358 0 0 1 .25-.088c.473-.007.944-.007 1.415 0 .09.002.183.01.25.088ZM1.914 17.391c.099.077.054.185.057.278.005.544 0 1.087 0 1.631-.11-.06-.05-.164-.054-.242-.003-.555-.003-1.11-.003-1.667Zm19.32 9.679-1.879.003c-.013.024-.026.023-.04 0a6.634 6.634 0 0 1 1.919-.003Zm-3.889.006c-.53 0-1.06 0-1.59-.005-.094 0-.2.038-.278-.055.554 0 1.107 0 1.66.005.081 0 .183-.055.243.055h-.035ZM19.3 52.168c-.544 0-1.087 0-1.63-.003-.094 0-.203.041-.278-.059.555 0 1.11 0 1.665.01.083 0 .182-.056.243.052Zm-5.738-27.06v1.657c0 .084.042.184-.055.248-.143-.63-.125-1.26-.008-1.892.007-.034 0 .01.015-.021l-.005.003.053.004Zm-9.68-.006a.168.168 0 0 1-.04-.006l-.013-1.91c.096.038.055.123.055.187.004.576-.001 1.153-.001 1.73Zm19.257-1.968h.034c-.018.054-.064.054-.109.054l-1.787-.012v-.036l1.862-.006Zm-7.663-5.756c.483-.09.97-.026 1.455-.035.15-.002.322-.082.456.063l-1.91-.028Zm-3.875-.04h1.906c-.007.015-.014.044-.022.044-.62.002-1.24.002-1.86 0-.009 0-.016-.029-.024-.044Z"/><path fill="#5C6977" d="M21.28 23.139v.036c-.105-.061-.055-.164-.055-.245-.005-.552-.004-1.104-.004-1.657.093.08.055.187.055.281l.004 1.585Zm-9.734-1.86.048-.003.018 1.91c-.11-.04-.068-.136-.068-.207-.002-.568 0-1.134.002-1.7Zm-5.762 5.733c-.083-.356-.023-.717-.036-1.075-.01-.262 0-.524 0-.786a.081.081 0 0 1 .051.086l-.015 1.775Zm11.561.064a.146.146 0 0 0 .035 0l.01 1.86-.01-.004-.02.019-.02-.019c.003-.62.004-1.24.005-1.856Zm1.97 0a.236.236 0 0 0 .04 0v1.854c-.016 0-.031 0-.046.003l.007-1.857Zm-1.98-7.762a.335.335 0 0 0 0 .047h-1.6c-.086 0-.182.032-.259-.04l1.86-.007ZM9.63 32.813c0 .016-.004.033-.005.05-.551 0-1.102 0-1.654.002-.07 0-.146.015-.205-.043l1.864-.009Zm28.97-13.502c-1.58 0-3.162-.003-4.743.004-.332 0-.77-.147-.968.062-.198.209-.04.64-.058.975-.015.29.031.58-.026.868-.638.043-1.28.044-1.918.004-.09-.11-.076-.24-.076-.366-.002-1.685-.002-3.37 0-5.055 0-.402.061-.465.458-.465.482 0 .965-.022 1.446.014.125-.045.072-.153.073-.232.005-.415 0-.83.004-1.244 0-.115-.016-.237.074-.334.106-.068.226-.052.342-.054.405-.003.81-.003 1.216 0 .098 0 .2-.01.288.05.076.104.034.225.04.338.024.516-.044 1.034.036 1.55 1.193 0 2.386.006 3.58 0 .206 0 .263.054.257.26-.014.492 0 .984-.007 1.476 0 .164.042.227.215.224.5-.01 1-.01 1.502 0 .164.003.198-.062.196-.21-.006-.5 0-1.001-.005-1.502 0-.164.027-.25.222-.246.528.011 1.056.004 1.586.004.052 0 .109-.014.143.048-.031.616-.007 1.23-.013 1.845 0 .033.022.047.04.066 1.182 0 2.364-.01 3.547-.004.208 0 .284-.044.276-.268-.018-.481 0-.964-.008-1.446-.003-.164.028-.246.218-.245 1.801.006 3.603.004 5.404.004.103 0 .212-.01.209.141-.015.589.038 1.178-.03 1.766-.093.055-.196.026-.294.026-1.084.003-2.168 0-3.251.004-.098 0-.201-.032-.292.03l.006-.005c-.071.284-.017.572-.032.858-.019.35.031.701-.027 1.05-.527.005-1.054.024-1.581.005-.253-.009-.302.077-.293.307.017.454-.006.91.01 1.363.008.225-.058.295-.288.294-1.727-.01-3.455-.006-5.183-.005-.109 0-.218.01-.328.015-.055.516-.008 1.033-.024 1.549-.004.11.024.219-.026.322a.301.301 0 0 1-.202.059c-.486.004-.972.004-1.457 0a.291.291 0 0 1-.202-.061c-.045-.096-.023-.198-.023-.296 0-1.084 0-2.167-.003-3.25.004-.1.039-.204-.03-.293Z"/><path fill="#5C6977" d="M40.518 23.13c0-.522 0-1.046.004-1.57 0-.094-.036-.2.049-.282 0 .565.005 1.128-.004 1.693 0 .155.048.201.202.2.554 0 1.108.01 1.663.017.054.64.034 1.281.01 1.923a.265.265 0 0 1-.173.068c-.517.02-1.034.016-1.55.003-.173-.005-.274-.1-.274-.274-.006-.56-.042-1.123.019-1.684a.414.414 0 0 1 .054-.093Zm3.885 3.882.013.065-.012-.01a.328.328 0 0 1-.223.084c-.505.008-1.01.014-1.515-.004a.323.323 0 0 1-.154-.046.208.208 0 0 1-.069-.08c-.054-.626-.078-1.251.012-1.877l.033-.04h1.918l-.004-.005v1.913Zm.058-3.824c.582-.006 1.164-.011 1.746-.02.12 0 .157.055.156.165 0 .537-.005 1.074 0 1.611 0 .147-.072.16-.187.158-.573-.005-1.148-.006-1.72-.008a13.38 13.38 0 0 1 .005-1.906Zm-9.674-7.76c-.13-.026-.054-.128-.057-.186-.01-.56-.008-1.12-.009-1.68a.303.303 0 0 1-.054-.087c-.037-.613-.062-1.225.014-1.837a.095.095 0 0 1 .082-.054l.022 1.934.002 1.91Zm13.496 1.968c.085-.106.203-.054.304-.054 1.178-.005 2.356-.004 3.534-.004-.07.11-.181.055-.273.055-1.187.003-2.376.003-3.565.003Zm1.926 1.962c.04-.1.126-.05.187-.05 1.21-.002 2.42-.002 3.63 0l-.006.015a.084.084 0 0 1-.05.083.612.612 0 0 1-.268.04c-1.055.003-2.11.003-3.163 0a.737.737 0 0 1-.243-.027.252.252 0 0 1-.087-.061ZM36.695 11.6c.028-.02.055-.055.085-.055.584-.004 1.166-.004 1.746 0 .028 0 .055.035.085.055h-1.916Z"/><path fill="#5C6977" d="M48.231 19.3c0-.544-.003-1.088 0-1.632 0-.093-.043-.201.055-.277 0 .556 0 1.112-.009 1.668.004.079.063.181-.046.241Zm-11.59-5.793v-1.663c0-.084-.044-.185.054-.249 0 .558 0 1.116-.008 1.674.002.08.063.18-.047.238Zm1.961-1.911c.102.075.055.184.055.277.005.544.003 1.089.003 1.634-.11-.058-.051-.16-.055-.238-.002-.558-.001-1.116-.003-1.673Zm5.859 11.592-.004 1.908h-.054l.004.005c0-.569-.003-1.138 0-1.706-.001-.067-.051-.16.054-.207Zm-2.024 1.909-.003-1.91c.104.047.054.14.054.21.005.57 0 1.138 0 1.707l.004-.005a.032.032 0 0 1-.012.01.032.032 0 0 1-.032-.001.032.032 0 0 1-.011-.012Zm.065-7.709c-.07-.019-.067-.077-.067-.13v-1.683a.3.3 0 0 1 .038-.097l.029 1.91Zm7.707 1.97a.12.12 0 0 1 .046.009c.13.27.122 1.604-.01 1.845a.194.194 0 0 0-.03.007l-.006-1.86ZM38.664 5.795c.112-.093.246-.05.367-.045.496.018.994-.059 1.488.039l-1.855.006Z"/><path fill="#FEFEFE" d="M44.41 6.756c0-1.512.005-3.024-.005-4.536 0-.219.062-.273.274-.273 3.033.006 6.067.006 9.1 0 .218 0 .273.064.273.276-.007 3.033-.007 6.067 0 9.1 0 .219-.066.273-.277.273-3.034-.006-6.067-.006-9.1 0-.219 0-.274-.061-.274-.273.013-1.524.01-3.046.01-4.567ZM1.95 49.213c0-1.503.004-3.008-.004-4.509 0-.211.034-.3.278-.299 3.033.008 6.066.008 9.1 0 .218 0 .27.063.27.273-.007 3.034-.007 6.068 0 9.1 0 .22-.063.274-.274.274-3.033-.007-6.067-.007-9.1 0-.219 0-.274-.065-.274-.277.009-1.52.005-3.04.005-4.562ZM6.757 11.59c-1.512 0-3.024-.004-4.536.005-.219 0-.273-.06-.273-.273.006-3.034.006-6.067 0-9.1 0-.219.062-.274.273-.274 3.033.007 6.066.007 9.1 0 .218 0 .273.065.273.277-.007 3.034-.007 6.067 0 9.1 0 .219-.06.274-.273.274-1.521-.013-3.043-.009-4.564-.009Z"/><path fill="#5C6977" d="M28.937 5.793a.351.351 0 0 0 .047.01c.573 0 1.146 0 1.718-.01.156 0 .202.045.2.2-.008.573 0 1.148 0 1.719.359.068.72.017 1.082.03.263.008.526 0 .79.004a.11.11 0 0 1 .08.059c.092.404.033.815.042 1.223.011.513.003.513.507.514h2.868c.143 0 .294-.024.42.078-.085.11-.203.059-.306.06-1.173.003-2.346.005-3.518.005a.37.37 0 0 1-.094.055.836.836 0 0 1-.27.028c-1.045 0-2.091.003-3.136 0-.448 0-.522-.076-.524-.527a535.943 535.943 0 0 1 0-3.053c0-.135-.012-.274.088-.39l.006-.005Z"/><path fill="#FEFEFE" d="M36.69 9.621c-1.236.005-2.472.01-3.708.018-.176 0-.15-.113-.152-.219l-.015-1.634a.164.164 0 0 1 .09-.116c.428-.08.862-.019 1.294-.039.142-.006.289.023.425-.041.097-.07.078-.176.078-.274v-1.19c0-.098-.01-.199.04-.291a.11.11 0 0 1 .077-.059c.606.009 1.211-.025 1.815.018.096.08.05.188.05.28.006 1.182.005 2.365.005 3.547Zm-1.912-7.646c.469-.05.939-.019 1.409-.02.805 0 1.61.009 2.415.014.047.622.05 1.247.007 1.87-.235.043-.471.017-.707.018-.975.004-1.949 0-2.923.005-.176 0-.24-.045-.231-.228.026-.554-.027-1.109.03-1.66Z"/><path fill="#5C6977" d="M34.778 1.974v1.66c0 .11-.025.219.152.216 1.224-.01 2.448-.014 3.672-.02.016.01.024.02.02.033-.002.012-.005.02-.01.02-1.183 0-2.366.01-3.549 0-.226 0-.298.06-.29.289.018.527.01 1.055.012 1.582.014.013.017.025.01.034-.006.01-.011.014-.017.014h.003l-.033.018-.03-.023.006-1.914c-.02-.011-.028-.023-.022-.036.006-.013.013-.019.02-.019 0-.525 0-1.05.003-1.576.001-.093-.035-.199.053-.278Z"/><path fill="#5C6977" d="M34.726 3.834v.055h-3.605c-.07 0-.164.054-.215-.055h3.82Zm3.888.046a.17.17 0 0 0-.01-.054v-1.86c.055-.027.059.012.059.048v1.775c-.005.031-.033.061-.05.091Zm-3.85 7.703a.066.066 0 0 0-.042.016.174.174 0 0 1-.093.055c-.577.035-1.155.071-1.731-.021a.064.064 0 0 1-.038-.063c0-.009.003-.017.007-.025h1.664c.079 0 .165-.03.234.038Z"/><path fill="#5C6977" d="M32.867 11.545v.046a.08.08 0 0 1-.09-.037c-.1-.282-.04-.574-.051-.861-.01-.244-.004-.489 0-.733-.007-.1.022-.2.08-.28l.06.005v1.86Zm-.06-9.634v.06h-1.904c.06-.11.162-.05.242-.051.555-.007 1.109-.007 1.662-.01Zm1.974 3.892c0-.016.004-.032.007-.047l1.673-.008c.062 0 .128-.008.175.048l-1.855.007Zm15.416 46.309c0 .015-.001.03-.004.046l-1.908.011c.059-.109.16-.054.24-.054.557-.005 1.115-.003 1.672-.003Zm-.001-1.916.055.01a.26.26 0 0 1 .057.09c.06.53.02 1.06.022 1.592a.269.269 0 0 1-.09.218c-.014 0-.028.004-.042.007 0-.639 0-1.278-.002-1.917Z"/><path fill="#FEFEFE" d="M32.808 9.678V11.6c-.013.01-.026.021-.038.033-.382.1-.775.037-1.163.045-.703.015-.619-.059-.624.633-.003.28.004.562 0 .843-.005.2.084.273.277.273.383-.003.762 0 1.143 0 .126 0 .254-.01.376.042a.115.115 0 0 1 .06.079v1.62c0 .086.032.18-.033.26-.536 0-1.072.017-1.607-.006-.264-.011-.306.084-.305.32.01 1.825.005 3.65.006 5.476-.047.038-.104.029-.157.029h-3.516a.26.26 0 0 1-.158-.026 21.065 21.065 0 0 1 0-1.914l.036-.035c.219-.09.446-.037.669-.05.35-.02.703.04 1.05-.038.08-.052.082-.133.082-.216v-1.243c0-.084 0-.164-.084-.214-.555-.048-1.107-.07-1.658.015-.09.076-.073.18-.073.279v1.168c0 .116.014.238-.08.333l.004.005h-1.914c0-2.57.001-5.141.004-7.711a13.364 13.364 0 0 1 1.914-.004l-.007.003c.11.113.08.255.08.388v2.998c0 .11-.018.22.034.32.055.077.134.09.219.09.437.003.875.003 1.312 0 .084 0 .165-.01.22-.085.05-.095.03-.197.03-.295v-2.959c0-.114.032-.239-.076-.328-.164-.082-.339-.036-.508-.047-.404-.027-.812.055-1.213-.052l-.036-.036c-.006-.554-.023-1.11-.016-1.664.004-.219-.047-.306-.285-.296-.472.018-.947-.007-1.421.01-.213.008-.258-.064-.253-.262.012-.537 0-1.074 0-1.611v-.055c.602.006 1.199.01 1.798.02.173 0 .155-.11.155-.22 0-.492.01-.984-.005-1.473-.005-.194.055-.245.245-.24.547.012 1.094.003 1.638.003l.018 2.644c0 .328.01.656-.004.984-.01.198.06.253.264.253 1.198-.011 2.4-.007 3.6-.008Z"/><path fill="#5C6977" d="M27.019 3.876a.278.278 0 0 0-.003-.043l-.005-1.866c.082-.02.058.045.058.08v1.684c0 .054.007.11-.05.145Zm7.703 3.84c-.616.03-1.233.021-1.85.006-.072-.285-.03-.573-.03-.86 0-.35-.035-.702.023-1.052l1.855-.009.009.007c.04.636.037 1.274-.007 1.909Z"/><path fill="#5C6977" d="m32.867 5.808.007 1.912-.058.065a.06.06 0 0 0-.008-.043l.007-.02c0-.568-.003-1.135 0-1.703-.003-.07-.05-.162.052-.21Z"/><path fill="#5C6977" d="m32.812 7.721-.006.022c-.615.054-1.23.02-1.846.016-.02 0-.04-.03-.06-.047l1.912.01Z"/><path fill="#FEFEFE" d="M21.221 1.975c0 .543-.008 1.086 0 1.629.004.18-.03.256-.233.249-.56-.02-1.12-.017-1.681-.023 0-.556.003-1.112 0-1.667 0-.119 0-.215.164-.21.586.013 1.169-.028 1.75.022ZM54.045 52.11H52.35c-.098 0-.204.024-.201-.139.01-.59.014-1.182.02-1.774.556 0 1.11.009 1.666 0 .17 0 .218.055.215.22-.008.564-.004 1.128-.005 1.693Z"/><path fill="#5C6977" d="m52.112 50.197-.005-1.909a.294.294 0 0 1 .055 0v1.904a.189.189 0 0 1-.05.005ZM1.968 23.193l.005 1.9c-.11-.06-.05-.164-.05-.241-.007-.555-.006-1.11-.007-1.664.018 0 .035.002.052.005Z"/><path fill="#FEFEFE" d="M3.831 30.896c.03.64.026 1.28 0 1.92a.297.297 0 0 1-.2.069c-.53-.004-1.061.025-1.592-.017a.18.18 0 0 1-.085-.058c0-.638-.03-1.275.017-1.915l1.86.001Z"/><path fill="#5C6977" d="m1.925 30.9-.011-1.917c.066.04.06.106.059.168l-.01 1.737-.038.012Zm52.1-11.542c0-.012 0-.023-.005-.035l.055-.019.006 1.914a.247.247 0 0 0-.05-.006.327.327 0 0 1-.09-.248 39.75 39.75 0 0 1 0-1.355.374.374 0 0 1 .083-.25ZM1.972 34.723h-.055l-.013-1.914a.09.09 0 0 0 .05-.003l.014.009a.288.288 0 0 1 .058.088c.061.539.023 1.08.022 1.62a.283.283 0 0 1-.076.2Zm48.23 13.508c0-.62-.001-1.24-.004-1.86.538 0 1.075.008 1.613-.005.219-.005.313.055.306.293-.018.527-.013 1.056-.016 1.586-.631.011-1.265.038-1.9-.014Z"/><path fill="#5C6977" d="m50.202 48.23 1.9.014a.147.147 0 0 0 .008.04l-1.914.004.006-.057Zm.04 3.875.011-1.85c.617-.055 1.234-.03 1.851-.013.004.561.004 1.122.012 1.684 0 .14-.051.193-.191.19-.561-.007-1.121-.007-1.683-.01Z"/><path fill="#5C6977" d="m52.105 50.242-1.851.012v-.047l1.859-.006-.008.041Zm1.92-30.884.008 1.855h-3.789l.011-1.845 3.77-.01ZM1.972 34.723v-1.86a13.918 13.918 0 0 1 1.856 0l.003 1.86h-1.86Zm32.753-5.739c-.08-.092-.187-.054-.281-.054-.527-.005-1.053-.003-1.58-.004-.038-.619-.04-1.24-.005-1.86.096-.042.197-.02.296-.02 1.082 0 2.164 0 3.245-.004.096 0 .2.039.289-.036 0-.535-.012-1.07.004-1.605.007-.23-.04-.307-.292-.304-1.179.013-2.358 0-3.537-.003a13.344 13.344 0 0 1 .005-1.906c.543-.006 1.086-.02 1.63-.014.193 0 .24-.061.242-.247.005-.551-.041-1.103.024-1.653.622-.051 1.245-.024 1.866-.014.075.304.017.614.033.92.017.318-.028.637.024.953.376.084.757.015 1.134.036.262.015.525-.026.786.023l.035.04c.065.127.05.264.05.4v2.91c0 .126-.02.255.048.372.09.11.218.078.332.08h3.002c.125 0 .258-.024.368.065a.31.31 0 0 1 .06.178c.008.518.013 1.039 0 1.555a.253.253 0 0 1-.04.129c-.092.097-.215.081-.33.082-.377.004-.755 0-1.133 0-.105 0-.218-.023-.297.082-.088.514-.03 1.03-.033 1.545 0 .164.13.175.252.177.383.006.762 0 1.143.003.135 0 .273-.016.391.08.055.08.055.172.055.263.002.464.002.928 0 1.392 0 .09 0 .183-.055.264a.244.244 0 0 1-.172.073c-.572.008-1.144.047-1.715-.02-.104.225-.036.464-.046.696-.012.31-.011.62 0 .93.006.175-.046.242-.23.238-.547-.012-1.094-.007-1.64-.009-.045-.55-.005-1.102-.022-1.653-.002-.083.047-.181-.044-.25l-3.799.01c-.071-.089-.035-.193-.035-.288-.003-1.088 0-2.176-.003-3.264 0-.097.03-.2-.03-.291l.005.003Z"/><path fill="#5C6977" d="M34.72 28.983c.102.087.056.204.056.307.006 1.178.01 2.357.013 3.536l-.029 1.898a.084.084 0 0 1-.08-.05c-.072-.591-.052-1.183-.012-1.775a.36.36 0 0 1 .054-.086l-.001-3.83Z"/><path fill="#5C6977" d="M34.726 34.722h.038a.11.11 0 0 1-.113.055h-1.718c-.046 0-.092-.004-.11-.058a.234.234 0 0 1 .088-.054c.538-.052 1.076-.02 1.614-.018a.29.29 0 0 1 .2.075Zm3.863-1.904c.1.03.071.116.071.183 0 .573-.003 1.148-.006 1.72h-.036l-.03-1.903Zm-3.863-.005c0 .017 0 .034-.003.051a.283.283 0 0 1-.196.08c-.538 0-1.076.035-1.613-.018a.219.219 0 0 1-.087-.06c.054-.097.145-.052.218-.055l1.68.002Z"/><path fill="#5C6977" d="M32.826 32.866h.034a.383.383 0 0 1 .091.273c.005.434.005.868 0 1.302 0 .101-.014.2-.091.274h-.036c-.02-.612-.023-1.23.002-1.85Zm-3.842-5.81-.042-.042c0-.563.01-1.127 0-1.69-.002-.182.055-.23.233-.226.508.012 1.017.01 1.526 0 .155 0 .201.043.199.199a39.642 39.642 0 0 0 0 1.553c.004.184-.076.205-.227.204-.56-.005-1.125 0-1.69.001ZM27.07 21.22l3.828-.004h1.908c-.13.095-.278.04-.415.043-.497.011-.995.01-1.492.015-1.173 0-2.346-.002-3.518-.004-.106.001-.222.044-.311-.05Zm9.62 5.785c-.08.115-.2.061-.3.061-1.177.006-2.352.005-3.53.006h-.035c.073-.11.183-.054.274-.054 1.196-.008 2.393-.01 3.59-.013Zm-9.625-3.813c.028-.119.125-.055.183-.055 1.213-.004 2.427-.002 3.64 0-.071.113-.182.05-.27.05-1.184.005-2.369.005-3.553.005ZM38.6 19.31c.104.061.06.165.06.247.002 1.192.002 2.384 0 3.576a.025.025 0 0 1-.023.013.025.025 0 0 1-.013-.003.025.025 0 0 1-.01-.01L38.6 19.31Zm-5.733 3.877c0 .636-.002 1.271-.005 1.907-.016-.017-.047-.033-.048-.05-.002-.593-.002-1.187-.002-1.78a.067.067 0 0 1 .055-.077Z"/><path fill="#5C6977" d="M38.615 23.133h1.904l.008.058c-.27.127-1.663.125-1.922-.003l.004.005c0-.022.004-.04.006-.06Zm-1.97-1.854-1.88-.006c.038-.073.11-.055.165-.055h1.594c.055 0 .132-.032.157.058-.01.025-.023.025-.036.003Z"/><path fill="#5C6977" d="M36.645 21.28h.039c0 .619.001 1.237.004 1.852-.094-.089-.046-.204-.047-.306 0-.516 0-1.031.004-1.547Zm-3.82 5.792a.24.24 0 0 0 .034 0l.005 1.855a.337.337 0 0 0-.047.003l.008-1.858Zm9.654 16.352c0-.246.006-.492 0-.737-.005-.143.022-.214.19-.212.519.01 1.04.008 1.557 0 .14 0 .191.038.189.185a59.258 59.258 0 0 0 0 1.583c0 .135-.051.17-.176.168a69.865 69.865 0 0 0-1.586 0c-.156.003-.178-.068-.175-.197.005-.262.001-.526.001-.79Zm-28.961-8.637-.01 1.852c-.635.044-1.272.044-1.907 0-.013-.62-.03-1.24.008-1.86a12.491 12.491 0 0 1 1.909.008Zm3.872-1.979c0 .02-.004.04-.006.059a.285.285 0 0 1-.09.057 1.141 1.141 0 0 1-.35.028h-2.988c-.117.009-.235 0-.35-.027a.273.273 0 0 1-.09-.058c0-.02-.003-.039-.005-.059l-.004.006c.104-.094.234-.09.361-.09h3.164c.128 0 .258-.004.362.09l-.004-.006Z"/><path fill="#5C6977" d="m13.518 34.787-1.91-.006c.15-.094.314-.038.47-.041.478-.012.957-.01 1.434-.014a.341.341 0 0 1 .09-.054c.542-.06 1.085-.027 1.627-.02.083 0 .19.008.196.137l-1.907-.002ZM11.6 36.638h1.908c-.058.11-.16.05-.238.052-.558.007-1.117.006-1.675.007l.005-.059Z"/><path fill="#5C6977" d="M13.562 34.721c-.015 0-.032 0-.048.004l.005-1.859h.045c.129.263.128 1.599-.002 1.855Z"/><path fill="#5C6977" d="M13.563 34.721v-1.854h3.777c.012.024.02.05.023.077-.003 1.228.012 2.457-.008 3.685-.2.078-.408.027-.611.035-.422.015-.845-.018-1.267.016-.092-.068-.045-.164-.046-.248-.006-.547-.005-1.097-.006-1.646-.076-.1-.185-.058-.28-.059-.527-.005-1.055-.004-1.582-.005Z"/><path fill="#5C6977" d="m17.335 36.639.004-3.774h.044l.01 3.828-.058-.01c-.018-.01-.024-.021-.018-.032.006-.01.013-.012.018-.012Z"/><path fill="#5C6977" d="M17.336 36.639a.337.337 0 0 0 0 .047l-1.86-.006c.264-.09.535-.03.802-.038.354-.012.706-.003 1.058-.003Z"/><path fill="#FEFEFE" d="M42.437 30.904c-.536-.003-1.072-.014-1.608-.005-.193.004-.27-.032-.263-.248.017-.554.008-1.109.01-1.663.531-.07 1.066-.01 1.599-.033.094-.005.2.044.283-.043.013-.588 0-1.175.006-1.762a.115.115 0 0 1 .032-.092l1.908.009v9.374c0 .08-.06.182.055.24h3.77c.113-.054.055-.16.055-.239.006-.554.004-1.11.004-1.664h1.907v3.828h-7.704l-.016-3.819c-.157-.11-.332-.04-.498-.045a20.756 20.756 0 0 0-1.196 0c-.169.005-.216-.048-.213-.215.01-.553 0-1.106 0-1.66.411-.078.826-.014 1.24-.033.207-.01.414-.013.622-.02.07-.337.024-.68.026-1.019.005-.298.039-.595-.02-.89Z"/><path fill="#5C6977" d="M21.222 15.47c.07.065.051.15.051.23v3.37c0 .087.023.184-.063.251l.008-.017c-.095-.105-.087-.235-.087-.361a729.159 729.159 0 0 1 0-3.103c0-.126-.007-.255.084-.361l.007-.01Zm5.815-.042c-.05-.397-.017-.795-.02-1.193-.007-.878-.005-1.757-.006-2.635l.06-.006c.09.106.084.236.084.363 0 1.035.004 2.07 0 3.105 0 .13.032.28-.118.366Zm-.022-3.832L25.1 11.6c.028-.018.054-.055.084-.055.58-.004 1.16-.004 1.738 0 .037 0 .064.034.092.05Z"/><path fill="#FEFEFE" d="M17.394 32.813h-3.887c.005-.579 0-1.157.017-1.736.003-.174-.08-.185-.214-.184-.57.005-1.14 0-1.71 0-.051-.637-.051-1.277 0-1.914l-.006.007c.064-.051.14-.03.21-.03h5.377c.07 0 .147-.025.208.035-.015 1.276-.023 2.55.005 3.822Zm-3.881-7.712-.007 1.914.004-.003c-.322.07-.647.027-.97.027-.315 0-.631.041-.944-.027l.005.007c-.069-.358-.025-.719-.028-1.078 0-.278-.038-.558.026-.835l1.914-.005Z"/><path fill="#5C6977" d="m17.39 28.994-5.796-.005c.086-.104.204-.057.306-.057 1.814-.004 3.626-.005 5.438-.005h.039l.014.067Z"/><path fill="#5C6977" d="M11.601 28.982v1.914c-.018-.028-.055-.055-.055-.085-.003-.58-.003-1.161 0-1.741.002-.031.037-.06.055-.088Zm-.005-1.971h1.914a.146.146 0 0 1-.142.059h-1.63a.145.145 0 0 1-.142-.06Z"/><path fill="#5C6977" d="M11.6 25.108v1.913c-.02-.028-.056-.054-.056-.085-.003-.581-.003-1.162 0-1.742.003-.032.037-.06.055-.086Zm15.41-5.804c0-.556 0-1.111.009-1.667 0-.08-.055-.183.054-.242.06.07.089.16.083.25.007.47.007.94 0 1.41a.371.371 0 0 1-.082.252l-.064-.003Z"/><path fill="#FEFEFE" d="M21.219 15.479c0 1.276 0 2.55.002 3.825l-1.916.007c0-1.192.01-2.384 0-3.575 0-.219.061-.273.273-.268.547.014 1.094.008 1.64.01Z"/><path fill="#5C6977" d="M21.215 9.624h-1.862l-.005-5.726c.554-.003 1.11 0 1.664-.013.177-.004.211.073.21.229-.005 1.836-.007 3.673-.007 5.51ZM3.828 32.864H1.974a.326.326 0 0 0-.005-.046l1.862-.002c.001.015 0 .032-.003.048Zm28.975-17.436c0-.64.002-1.28.005-1.92a.069.069 0 0 1 .064-.004.042.042 0 0 1-.005.06v1.817a.067.067 0 0 1-.017.046c-.01.007-.032 0-.047 0Z"/><path fill="#5C6977" d="M32.867 13.563a.311.311 0 0 0 0-.046c.064-.08.157-.088.247-.09.453-.01.907-.008 1.36 0a.36.36 0 0 1 .253.087c0 .016 0 .032-.004.048h-1.856Z"/><path fill="#FEFEFE" d="m38.605 23.186 1.92.003c0 .572.007 1.143 0 1.715 0 .15.038.206.197.203.57-.011 1.142-.008 1.714-.01h.055v1.914c-.055.048-.121.03-.183.031h-3.492c-.068 0-.148.034-.201-.042l-.01-3.814Z"/><path fill="#5C6977" d="M38.612 26.998c.828.006 1.656.014 2.484.017.464 0 .93-.003 1.392-.005a.15.15 0 0 0 .007.05l-.011.009c-.014.028-.03.027-.047.003-1.177 0-2.351 0-3.532-.005-.098 0-.221.06-.293-.07Z"/><path fill="#FEFEFE" d="m34.726 13.514-1.86.005-.059-.01.006.005a.4.4 0 0 1-.088-.28 60.455 60.455 0 0 1 0-1.36.4.4 0 0 1 .088-.279l-.006.006.06-.01 1.855.01.004 1.913Z"/><path fill="#5C6977" d="M49.241 9.68c-.893 0-1.785-.005-2.68.004-.191 0-.248-.055-.247-.248.007-1.787.007-3.573 0-5.36 0-.184.06-.234.234-.233a1106 1106 0 0 0 5.385 0c.167 0 .219.054.219.219-.004 1.794-.004 3.59 0 5.384 0 .175-.05.236-.234.235-.89-.006-1.783 0-2.677 0ZM6.758 46.32c.884 0 1.769.004 2.652-.004.189 0 .273.03.273.25a547.111 547.111 0 0 0 0 5.36c0 .183-.062.231-.236.231-1.795-.004-3.59-.004-5.385 0-.169 0-.218-.058-.218-.223.004-1.794.004-3.59 0-5.384 0-.177.054-.234.235-.232.897.008 1.787.002 2.68.002Zm0-36.64c-.884 0-1.767-.006-2.651.005-.204 0-.265-.055-.264-.26.007-1.777.007-3.554 0-5.33 0-.19.054-.252.247-.251 1.777.006 3.553.006 5.33 0 .2 0 .264.055.263.26a618.898 618.898 0 0 0 0 5.33c0 .19-.054.252-.246.25-.893-.009-1.786-.004-2.678-.004Zm27.964-1.963.007-1.909a.294.294 0 0 1 .055 0c0 .556 0 1.112-.006 1.667-.002.078.051.179-.056.242Zm-7.685 7.71c.055-.092.031-.194.031-.292.004-1.18.005-2.36.005-3.54l1.856.005c.051.093.025.195.026.293.007 1.176-.01 2.351.01 3.53-.102.092-.227.047-.338.043-.53-.018-1.063.064-1.59-.038Zm5.775-3.833c.028.64.028 1.28 0 1.919-.572.002-1.144 0-1.715.01-.146 0-.21-.03-.206-.192.01-.518.01-1.035 0-1.552-.003-.164.06-.195.206-.193.572.009 1.144.006 1.715.008Zm-5.74 7.713v-1.914c.62-.025 1.239-.025 1.856 0 .046.635.046 1.272 0 1.906l-1.856.008Z"/><path fill="#5C6977" d="M28.965 15.428c-.06-.092-.035-.194-.035-.292V11.6c.09.027.054.104.054.159.002 1.186.002 2.372 0 3.558a.643.643 0 0 1-.02.11ZM28.93 19.3v-1.906c.015.009.043.017.043.025.003.62.003 1.239 0 1.856 0 .009-.029.017-.043.025Zm13.507 11.604c.046.007.055.038.055.076v1.73c0 .043.005.091-.055.1-.002-.634-.002-1.27 0-1.906Zm.04-1.977c-.058.11-.163.054-.241.054-.553.007-1.107.006-1.661.008.075-.098.182-.055.273-.058.53-.005 1.06-.004 1.59-.005h.04Z"/><path fill="#5C6977" d="M42.477 28.927h-.036l-.004-1.855a.328.328 0 0 0 .046-.003l-.006 1.858Zm-9.618 5.792v-1.853h1.862v1.86l-1.862-.007Z"/></g></svg>