<svg xmlns="http://www.w3.org/2000/svg" width="56" height="56" fill="none"><mask id="a" width="56" height="56" x="0" y="0" maskUnits="userSpaceOnUse" style="mask-type:luminance"><path fill="#fff" d="M0 0h56v56H0V0Z"/></mask><g mask="url(#a)"><path fill="#fff" d="M55.994 25.102v3.828c-.097.09-.218.075-.336.076h-1.173c-.098 0-.2-.018-.292.036a.424.424 0 0 0-.06.072c-.05.115-.029.236-.029.353v4.867c0 .134.025.273-.058.398-.1.085-.222.068-.339.07h-1.173c-.314 0-.341.027-.341.343v4.883c0 .146.005.291-.009.438-.003.036-.01-.007 0 .026.01.034.018-.011.03-.008.119-.064.248-.05.374-.05h2.995c.143 0 .293-.02.415.087v1.914c-.105.095-.236.072-.36.076-.477.013-.955-.027-1.43.024a.383.383 0 0 0-.065.054c-.08.269-.033.543-.033.814 0 .298-.044.601.03.894.02.021.042.04.067.055.477.06.954.01 1.43.026.126.005.256-.018.361.076v1.86c-.097.088-.218.076-.336.076H52.5c-.359 0-.405-.048-.406-.416-.003-1.008 0-2.016 0-3.025 0-.11.015-.218-.022-.323a.413.413 0 0 0-.054-.072c-.124-.083-.263-.043-.395-.045-.35-.005-.7 0-1.05 0-.1 0-.204-.015-.257.1-.046.226-.021.453-.022.679-.004.869 0 1.737 0 2.606 0 .144.018.292-.065.423-.116.101-.257.069-.39.074-.48.02-.961-.036-1.438.034-.077.052-.086.13-.086.214v1.321c0 .085.01.164.092.21.466.063.934.01 1.4.028.141.006.29-.018.413.084a.32.32 0 0 1 .068.202 29.14 29.14 0 0 1 0 1.513.329.329 0 0 1-.068.202c-.133.109-.293.084-.446.084-.966.003-1.931 0-2.898 0-.398 0-.406.011-.409.419 0 .383.01.765-.005 1.148-.012.298-.103.389-.404.397-.455.012-.91.007-1.367 0-.11 0-.222 0-.296-.105-.015-1.126 0-2.252-.007-3.378 0-.117.016-.236-.022-.35a.423.423 0 0 0-.054-.07c-.145-.081-.303-.044-.452-.04-.421.013-.846-.05-1.264.04a.372.372 0 0 0-.054.074c-.04.107-.023.219-.023.325v4.875c0 .135.024.274-.05.4-.086.089-.198.079-.305.079-.507 0-1.013.007-1.519-.004-.036 0 .008-.008-.026 0-.05.011.009.02.003.033.1.427.034.86.045 1.29.006.193.052.4-.082.575h-5.86c-.08-.089-.084-.199-.085-.309-.003-.437-.008-.875 0-1.312.007-.332.097-.421.427-.431.41-.012.82-.007 1.23 0 .219 0 .313-.085.31-.307-.008-.365-.008-.73 0-1.094.002-.21-.088-.29-.295-.288-1.038.003-2.078.003-3.117 0-.226 0-.307.089-.303.308.008.373.005.747 0 1.121 0 .126.01.257-.08.365-.105.073-.226.055-.343.055h-5.068c-.116 0-.238.015-.343-.06-.078-.091-.068-.203-.068-.31v-3.193c0-.099-.008-.202.058-.288.023-.015.044-.039.07-.041.601-.044 1.198-.081 1.796.019.105.089.085.212.086.328.004.395 0 .79 0 1.186 0 .105-.022.218.068.304.165.09.34.039.51.043.31.009.619.003.93 0 .099 0 .204.016.268-.09.068-.45.012-.902.031-1.353.006-.141-.023-.292.087-.413.105-.073.227-.058.343-.058h7.012c.117 0 .238-.016.346.05.115.118.087.27.093.413.019.454-.035.91.032 1.361.05.08.127.09.212.09.506 0 1.01.004 1.516-.003.036 0-.01 0 .027-.004.06-.01 0-.025 0-.038-.094-.395-.033-.795-.042-1.193-.015-.61.054-.566-.581-.568h-.872c-.117 0-.238.005-.34-.074-.084-.121-.06-.261-.06-.394 0-1.04 0-2.082-.003-3.124 0-.083.048-.181-.046-.248-.468.023-.935.008-1.402.013-.116 0-.235-.015-.342.047-.092.074-.076.177-.076.273v1.139c0 .116.016.238-.074.335-.125.078-.264.055-.399.055-1.617.002-3.234.002-4.851 0-.123 0-.258-.036-.357.078-.093.2-.041.41-.048.615-.01.298 0 .596-.004.894 0 .11 0 .219-.08.307a.3.3 0 0 1-.174.07c-.576.007-1.153.048-1.728-.023a.572.572 0 0 1-.09-.06c-.086-.13-.066-.278-.067-.421v-2.906c0-.127.01-.254-.028-.377a.182.182 0 0 0-.156-.092c-.506 0-1.012-.01-1.519.006-.036 0 .01-.003-.025.007-.055.015-.006.03 0 .045.051.103.042.214.042.322v3.03c0 .127.01.257-.058.373a.357.357 0 0 1-.082.066c-.45.088-.904.029-1.356.04-.471.01-.472 0-.472.484v2.805c0 .136.012.274-.035.405a.186.186 0 0 1-.066.08c-.23.085-.469.045-.703.041-.39-.005-.78.045-1.169-.032a.171.171 0 0 1-.073-.076c-.058-.15-.041-.306-.041-.46V46.77c-.01-.283-.034-.313-.318-.315-.72-.006-1.44 0-2.16 0h-2.843c-.415 0-.47-.061-.474-.48-.003-.39 0-.783 0-1.175 0-.118-.004-.238.064-.344.113-.105.255-.077.387-.078 1.005-.002 2.01 0 3.014 0 .11 0 .219.018.321-.027a.415.415 0 0 0 .068-.063c.09-.404.012-.813.04-1.217.016-.203-.058-.418.076-.607a.447.447 0 0 1 .26-.062 67.44 67.44 0 0 1 1.327 0c.09-.006.18.013.261.055.115.11.081.252.087.383.018.48-.034.96.03 1.439a.254.254 0 0 0 .279.097h3.21a.222.222 0 0 0 .227-.074c.082-.219.038-.445.036-.666-.003-.348.042-.698-.03-1.043a.337.337 0 0 0-.07-.055c-.481-.058-.963-.01-1.444-.027-.125-.004-.258.023-.366-.071-.104-.187-.059-.391-.064-.589-.008-.317 0-.636-.003-.954 0-.159-.073-.231-.232-.231-1.09 0-2.182-.008-3.272.003a.293.293 0 0 0-.13.036c-.105.08-.082.195-.083.301v1.115c0 .116.017.239-.073.337-.088.061-.19.054-.288.054-.426.003-.851.003-1.277 0-.099 0-.2.008-.29-.048-.097-.092-.08-.214-.081-.328-.004-.377 0-.755 0-1.132 0-.105.023-.219-.079-.298-.218-.086-.45-.034-.675-.042-.353-.012-.707.01-1.06-.014-.1.065-.054.164-.054.25-.006.406 0 .813-.004 1.22 0 .116.017.238-.07.337-.087.062-.189.055-.288.055-.533 0-1.065.005-1.599 0-.13-.083-.115-.219-.117-.343-.007-.383 0-.766-.004-1.148-.003-.334-.025-.355-.39-.355h-5.76c-.384 0-.766.004-1.15-.003-.123 0-.26.014-.342-.119-.005-1.19 0-2.381 0-3.573 0-.1-.005-.201.062-.287.11-.084.24-.076.367-.076 1.019-.002 2.038-.002 3.057 0 .118 0 .238-.005.346.054.106.087.09.21.092.325.003.405 0 .81 0 1.215 0 .098-.017.198.033.29a.42.42 0 0 0 .07.063c.086.045.178.03.269.03h4.97c.106 0 .222.023.3-.08.096-.4.02-.807.046-1.209.012-.203-.046-.415.075-.605.11-.09.238-.08.363-.08.383-.004.762 0 1.143 0 .11 0 .219.012.317-.05.107-.092.077-.219.077-.331v-2.99c0-.124-.02-.254.055-.37.095-.09.219-.075.332-.076.396-.003.793 0 1.19 0 .105 0 .218.02.298-.08.09-.405.012-.814.04-1.218.015-.204-.054-.419.07-.61.112-.079.242-.07.369-.07.383-.003.765.003 1.148 0 .281-.005.31-.033.314-.32.007-.492 0-.984 0-1.477 0-1.174-.003-2.351 0-3.523 0-.415.061-.471.477-.475.383-.003.766-.003 1.148 0 .127 0 .257-.008.37.069.105.109.09.249.091.382.005.378 0 .756 0 1.134 0 .11-.01.219.05.315.091.109.218.078.332.078h3.002c.397 0 .431.036.434.442v1.064c0 .11-.02.222.086.3.12.057.249.04.374.041h2.906c.144 0 .291-.016.424.061.029.023.05.052.065.085.074.571.03 1.144.027 1.716 0 .174-.11.26-.279.273-.1.008-.2.008-.3.008h-2.839c-.127 0-.255-.013-.376.039-.085.06-.09.15-.09.243v3.396c0 .037-.006-.008.005.027.016.054.023-.008.037-.006.11-.06.23-.048.348-.048h1.04c.508 0 .546.04.55.538v1.175c0 .629.002 1.258 0 1.886 0 .397-.063.455-.465.458-.428.005-.856.009-1.285 0-.315-.007-.383-.076-.392-.393-.011-.383 0-.765-.004-1.148 0-.118.011-.238-.042-.349-.088-.109-.213-.086-.328-.087h-3c-.126 0-.256.02-.37-.06-.095-.104-.082-.236-.083-.361-.004-.373 0-.745 0-1.117 0-.1.006-.2-.044-.292-.071-.095-.175-.082-.273-.082H21.67c-.1 0-.204-.011-.271.087-.055.123-.037.252-.037.378v2.838a2.46 2.46 0 0 1-.02.407c.01.074.068.073.123.073h1.41c.086 0 .163-.013.202-.101.055-.455.014-.91.023-1.363.01-.468.05-.513.519-.516h1.117c.127 0 .258-.007.366.08.11.121.086.274.087.416.003.98 0 1.962 0 2.943 0 .375.011.386.378.387h2.999c.15 0 .314-.034.432.106.016 1.128 0 2.257.008 3.385 0 .118-.02.238.027.35a.39.39 0 0 0 .064.067c.448.087.899.014 1.347.038.16.01.328-.036.471.075.08.113.066.244.067.37.003.364.007.728 0 1.093-.005.214.064.316.295.314 1.029-.006 2.058-.004 3.087 0 .197 0 .278-.078.273-.273-.005-.373 0-.747 0-1.12-.003-.316-.028-.344-.343-.346-.993-.003-1.985 0-2.977 0-.144 0-.294.02-.42-.08-.071-.07-.08-.164-.082-.253-.009-.454-.01-.909 0-1.364.007-.317.079-.382.423-.386.955-.008 1.91 0 2.864 0 .536 0 .536 0 .536-.541 0-.291.004-.582 0-.875-.003-.294-.031-.321-.335-.325-.383-.004-.765.004-1.148-.004-.132 0-.28.024-.366-.122v-3.518c0-.116-.016-.238.064-.34.12-.087.26-.074.395-.075h4.942c.453 0 .502.055.505.501.002.373.002.746 0 1.12 0 .127.008.256-.066.37-.109.11-.247.095-.383.096-.377.005-.755 0-1.134 0-.109 0-.218-.009-.316.044-.096.071-.083.174-.083.273v3.074c0 .098-.015.203.078.273.403.098.812.03 1.217.042.169.006.346.042.505-.054.097-.098.068-.223.068-.338v-2.98c0-.416.03-.444.455-.445h1.094c.099 0 .202.015.289-.052.1-.095.075-.22.075-.334v-3.048c0-.41.04-.445.455-.448h1.17c.11 0 .219-.01.316.055.096.118.07.26.07.393v3.027c0 .116-.02.239.073.335.091.083.203.068.312.068h6.895c.11 0 .219.016.31-.065.082-.08.074-.182.074-.282v-3.085c0-.1.01-.202-.068-.282-.089-.085-.2-.067-.307-.067h-1.186c-.115 0-.235.016-.338-.055-.088-.11-.074-.24-.076-.367a63.94 63.94 0 0 1 0-1.175c0-.219-.09-.31-.312-.306-.392.007-.783 0-1.175.003-.11 0-.244 0-.245.151-.003.526-.061 1.054.034 1.577.074.092.178.076.274.076h1.14c.115 0 .238-.016.335.075.068.107.052.227.054.343.003.406.003.811 0 1.218 0 .109.01.218-.062.311-.104.08-.225.064-.342.064a733.82 733.82 0 0 1-3.112 0c-.117 0-.239.016-.343-.06-.081-.103-.066-.225-.066-.341v-8.914c0-.11-.011-.219.05-.319a.243.243 0 0 1 .196-.08c.547.003 1.094-.033 1.637.02.032.013.06.034.082.062.084.19.042.392.045.589.007.397 0 .795 0 1.192v.028c.013.06.025-.008.038 0 .547-.092 1.1-.038 1.65-.03a.211.211 0 0 1 .183.102c.09.493.018.994.042 1.49.006.114-.03.24.088.324.434.08.872.025 1.307.034.563.01.576.022.585.584.007.437-.037.872.03 1.306.048.079.124.091.21.091h1.32c.083 0 .164-.005.213-.085a.383.383 0 0 0 .03-.188v-3.25a.316.316 0 0 0-.03-.158.413.413 0 0 0-.063-.067c-.458-.081-.919-.014-1.377-.037-.133-.006-.274.028-.39-.074-.073-.116-.054-.246-.054-.372v-3.004c0-.116.025-.241-.09-.328-.416-.083-.836-.029-1.253-.036-.624-.01-.636-.016-.636-.648 0-.355-.008-.71.003-1.065.009-.301.074-.373.377-.376 1.093-.01 2.187-.01 3.28 0 .324 0 .39.079.399.416.009.383 0 .765.004 1.148.004.32.026.345.342.346.993.003 1.985 0 2.978 0 .151-.005.302-.022.424.082Z"/><path fill="#071E44" d="M25.104 25.1h-1.527c-.408 0-.408 0-.408.395 0 1.69-.008 3.38.008 5.07.003.29-.085.344-.349.334-.517-.018-1.035 0-1.553.004-.064.411-.01.824-.029 1.236-.01.224.024.45-.018.673-.626.055-1.254.009-1.88.023a.11.11 0 0 1-.083-.06c-.055-.12-.046-.248-.046-.374v-3.016c0-.135-.017-.274.063-.396.095-.089.215-.084.333-.084h1.221c.099 0 .201.014.284-.06a.18.18 0 0 0 .059-.118c.02-.492.026-.984-.003-1.479a.154.154 0 0 0-.046-.095.242.242 0 0 0-.174-.062h-1.352a.207.207 0 0 0-.19.08c-.07.313-.014.63-.032.943-.015.26.035.524-.035.781a.16.16 0 0 1-.076.068c-.374.11-.756.041-1.134.046-.248.004-.508.063-.747-.069-.088-.096-.073-.218-.074-.335-.003-.383 0-.76 0-1.141 0-.098.017-.2-.037-.291-.078-.104-.192-.08-.298-.081h-1.186c-.098 0-.198.007-.292-.037a.164.164 0 0 1-.069-.074c-.065-.562-.022-1.126-.025-1.689 0-.161.093-.248.254-.266.11-.009.219-.012.328-.01h2.866c.337 0 .36-.024.363-.353.004-.364-.003-.728 0-1.094.004-.203-.066-.297-.283-.296-1.047.005-2.093.005-3.14 0-.21 0-.29.086-.287.293.005.39.003.782 0 1.173 0 .127.009.257-.073.369a.254.254 0 0 1-.173.069c-.56.007-1.121.043-1.68-.02a.232.232 0 0 1-.09-.054c-.091-.14-.067-.297-.069-.45-.004-.353 0-.706-.003-1.06-.003-.287-.028-.312-.31-.316-.389-.005-.779 0-1.169-.003-.126 0-.256.01-.365-.077a.367.367 0 0 1-.054-.233c-.004-.49-.004-.98 0-1.47a.343.343 0 0 1 .05-.209c.094-.091.214-.085.332-.085h1.2c.1 0 .204.016.277-.076.09-.22.043-.446.042-.668-.003-.33.043-.664-.035-.991-.055-.08-.136-.08-.22-.08h-1.248c-.085 0-.164.007-.21.091-.064.436-.012.88-.03 1.321-.006.142.022.29-.065.42-.098.085-.219.079-.335.079h-1.195c-.098 0-.2-.018-.291.038a.413.413 0 0 0-.062.075c-.051.124-.028.253-.028.379v10.566c0 .152.031.31-.05.455-.095.094-.216.077-.331.078-.386.004-.773 0-1.16 0-.097 0-.198-.016-.286.046-.096.094-.076.218-.077.328v1.106c0 .124.011.253-.068.364-.1.081-.218.065-.337.066h-1.19c-.098 0-.202-.016-.273.076-.09.219-.044.447-.042.669.005.331-.048.665.04.992.072.096.177.077.273.077h1.194c.099 0 .2-.01.293.04a.108.108 0 0 1 .05.084c-.004 1.258.015 2.52-.01 3.779.09.096.206.046.309.046 2.364.004 4.729.003 7.093-.002.23 0 .317.04.304.292-.024.454-.01.91-.005 1.364 0 .084-.043.184.046.254.61-.03 1.22 0 1.83-.015.104-.06.054-.164.057-.244.005-.461 0-.922.004-1.383 0-.087-.034-.182.035-.26h1.902c.061.473.013.948.028 1.421.003.135 0 .27.002.404.069.116.18.055.27.059.54.022 1.083-.032 1.624.029.018.638.05 1.276-.017 1.914h.01c-.093.055-.195.028-.293.028-1.08 0-2.16 0-3.24.003-.098 0-.2-.027-.294.028-.005.572-.005 1.145-.018 1.717-.004.172.08.19.219.188.492-.005.984 0 1.476 0 1.274 0 2.548.006 3.82-.005.23 0 .287.064.286.29-.008 2.41-.005 4.82-.005 7.232 0 .045.006.09.009.136-.096.116-.231.092-.355.094-.373.005-.746 0-1.12.003-.116 0-.238-.017-.34.065-.086.09-.065.204-.066.31v1.172c0 .117.014.238-.076.335h-1.922c-.107-.122-.087-.273-.087-.416v-2.92c0-.127.01-.255-.033-.378-.073-.114-.19-.09-.296-.09h-1.175c-.1 0-.201.007-.296-.036a.164.164 0 0 1-.07-.073c-.047-.122-.032-.25-.032-.377v-2.967c0-.115.027-.24-.088-.325-.508-.078-1.018-.03-1.526-.027-.125 0-.172.082-.182.196-.01.114-.007.219-.007.328v6.615c0 .16.03.33-.087.472h-1.914c-.128-.159-.087-.348-.087-.527-.003-4.117-.003-8.235 0-12.353 0-.11 0-.22-.005-.328-.005-.134-.07-.199-.203-.203-.109-.005-.218-.005-.328-.005H.536c-.179 0-.368.04-.527-.087V36.69c.106-.095.238-.071.363-.076.478-.018.958.037 1.435-.033a.408.408 0 0 0 .062-.068c.07-.399.014-.8.03-1.198.005-.1.005-.2 0-.3-.005-.22.096-.316.314-.315h1.258c.11 0 .222.022.302-.08.09-.393.014-.79.04-1.184.016-.212-.048-.432.06-.636.126-.096.274-.071.417-.077.45-.018.9.035 1.348-.032.081-.05.09-.129.09-.214v-1.253c0-.084-.006-.164-.09-.212-.44-.068-.884-.012-1.324-.03-.144-.006-.29.017-.423-.064a.224.224 0 0 1-.055-.088c-.045-.472-.016-.944-.02-1.416-.005-.664 0-1.327 0-1.99 0-.117-.015-.238.049-.347.1-.103.233-.09.358-.09.383-.005.766 0 1.148-.004.11 0 .22.014.311-.066.066-.078.05-.17.05-.259v-1.136c0-.098.016-.201-.068-.278-.124-.087-.264-.055-.399-.06-.444-.02-.891.041-1.334-.038a.161.161 0 0 1-.073-.066c-.084-.482-.018-.968-.04-1.452-.005-.112.033-.239-.086-.32-.434-.078-.87-.014-1.303-.035-.152-.008-.311.023-.449-.073-.092-.105-.081-.236-.082-.36-.004-.38 0-.76-.003-1.139 0-.115.016-.237-.065-.337-.089-.088-.203-.067-.31-.068H.35c-.117 0-.239.014-.336-.076v-3.828a.259.259 0 0 1 .173-.07c.564 0 1.129-.035 1.692.02.032.013.06.035.08.063.097.457.018.92.047 1.38.008.138-.055.295.09.403.354.067.71.015 1.064.03.118.005.236 0 .355 0 .349.01.406.066.412.425.006.383 0 .765 0 1.148.003.367.026.392.383.393.994.003 1.987.003 2.98 0 .313 0 .337-.027.34-.348.006-.4-.007-.802.006-1.203.01-.316.1-.404.415-.413.41-.011.82 0 1.23-.005.283-.004.313-.033.317-.317.006-.364.006-.729 0-1.093-.005-.294-.036-.323-.338-.329-.365-.005-.729 0-1.094 0-.452-.004-.528-.078-.533-.522-.004-.328 0-.657 0-.985 0-.457-.004-.46-.452-.46H.482c-.164 0-.331.03-.472-.087V13.51c.158-.128.348-.087.526-.087 4.118-.002 8.236-.002 12.354 0 .11 0 .218 0 .328-.005.133-.004.198-.069.203-.202.004-.11.004-.22.004-.329V.534c0-.179-.04-.368.088-.527h1.909c.093.105.085.236.086.363v1.148c.004.342.03.367.379.371.383.005.765-.003 1.148.004.372.006.438.066.441.425.006.4.004.8 0 1.2 0 .11.004.22-.065.315-.098.085-.218.08-.336.08h-1.2c-.109 0-.218-.018-.306.074-.077.104-.06.226-.06.342v4.858c0 .39.025.41.422.413h1.04c.109 0 .218.012.302-.085.067-.109.041-.23.041-.347l.003-4.875c0-.134-.026-.274.055-.398a.284.284 0 0 1 .171-.073c.575 0 1.149-.041 1.727.023a.17.17 0 0 1 .077.073c.054.13.035.268.036.404V9.17c0 .117-.02.237.03.348.05.079.128.092.213.092h1.303c.086 0 .164-.014.22-.087.07-.11.048-.23.048-.345V4.303c0-.143-.03-.293.06-.424a.237.237 0 0 1 .15-.058 32.263 32.263 0 0 1 1.659 0c.045.003.089.02.125.047.091.107.08.237.081.364.004.363 0 .726 0 1.09 0 .383.01.39.403.392.363 0 .727-.006 1.093.002.348.008.413.073.418.42.007.419.004.837 0 1.255 0 .11 0 .22-.065.316-.092.096-.214.083-.328.084-.397.003-.794 0-1.191 0-.11 0-.219-.018-.293.093-.047.133-.031.273-.032.407v4.776c0 .152.022.311-.07.45-.015.011-.029.03-.044.031-.628.055-1.255.08-1.881-.012-.107-.11-.088-.251-.09-.383-.005-.39-.007-.779 0-1.168.005-.22-.08-.31-.302-.304-.39.01-.78 0-1.17.003-.09 0-.181-.003-.26.055-.104.093-.075.218-.075.333v2.99c0 .125.02.255-.054.37-.125.102-.274.08-.418.08-.992.003-1.983 0-2.975 0-.396 0-.42.026-.423.415-.002.345-.002.692 0 1.039 0 .109-.011.218.076.307.09.064.192.045.29.046h1.218c.11 0 .219-.01.311.063.044.058.068.13.067.203.012.505.012 1.01 0 1.516a.304.304 0 0 1-.055.178.311.311 0 0 1-.075.071c-.46.075-.922.015-1.383.035-.125.006-.255-.026-.372.04a.186.186 0 0 0-.067.117c-.022.492-.02.984 0 1.474a.151.151 0 0 0 .15.164 12.92 12.92 0 0 0 1.527-.008c.036-.003.063-.035.086-.063.078-.471.013-.944.035-1.416.006-.134-.023-.273.082-.39.014-.01.028-.029.043-.031.621-.072 1.242-.106 1.86.019.095.095.08.219.08.334.004.4 0 .8 0 1.203 0 .099-.017.201.046.29.094.095.218.075.331.076h1.105c.125 0 .253-.01.364.068.082.1.065.222.066.337.003.398 0 .795 0 1.192 0 .099-.015.202.07.279.199.091.408.034.612.042.279.01.559.003.838 0 .098 0 .202.013.264-.092.048-.105.029-.216.029-.324V19.67c0-.125-.02-.256.059-.37.021-.016.04-.04.068-.042.617-.05 1.233-.091 1.848.023a.23.23 0 0 1 .066.085c.046.123.037.251.037.378v4.913c0 .136.014.273-.05.402l-.037.04Zm25.099 7.705c0-.563-.008-1.126.004-1.688.004-.182-.055-.228-.229-.225-.563.01-1.125.003-1.688 0-.071-.34-.011-.684-.031-1.025-.018-.297.037-.596-.03-.89-.5-.07-1.003-.012-1.505-.03-.117-.005-.234-.005-.35-.008-.063-.416-.01-.834-.03-1.25-.009-.209.03-.419-.024-.625h.004c-.49-.055-.98-.009-1.47-.025-.154-.005-.309.022-.461-.018-.011-.015-.029-.028-.03-.044-.064-.617-.098-1.233.016-1.848a.311.311 0 0 1 .074-.07c.413-.093.832-.034 1.249-.042.647-.013.581.048.585-.592 0-.3.004-.602 0-.9 0-.11 0-.242-.154-.242-.526-.003-1.052-.06-1.573.034-.101.081-.076.196-.077.301v1.161c0 .117.01.237-.085.329-.015.011-.028.03-.044.031-.617.063-1.235.102-1.851-.02-.097-.091-.084-.213-.085-.328-.003-.397 0-.794 0-1.19 0-.11.018-.22-.092-.294-.387-.073-.777-.016-1.165-.033-.136-.006-.273.004-.407-.013-.144-.018-.239-.09-.242-.243a27.829 27.829 0 0 1 .004-1.63.225.225 0 0 1 .048-.124c.136-.103.296-.079.448-.079a1673.7 1673.7 0 0 1 4.7 0h.246c.293-.012.328-.041.328-.339.006-.4 0-.802.003-1.203.006-.352.068-.41.416-.424.472-.019.946.036 1.416-.034.114-.073.091-.19.092-.296v-1.175c0-.1-.008-.201.035-.296a.164.164 0 0 1 .074-.07c.122-.047.25-.032.377-.032h2.99c.116 0 .24.024.332-.076.068-.087.06-.19.061-.289.003-.355.004-.71 0-1.065-.005-.337-.037-.368-.383-.372-.318-.005-.637 0-.956 0h-3.906c-.405 0-.426.024-.43.437 0 .383.008.766-.004 1.149-.01.301-.076.375-.376.378-1.094.01-2.188.007-3.278 0a.438.438 0 0 1-.26-.065c-.088-.099-.071-.221-.072-.339v-1.203c0-.099.017-.202-.055-.288-.073-.072-.164-.07-.257-.07-.391-.003-.783-.007-1.174 0-.273.006-.312.045-.318.324-.008.4 0 .8-.004 1.203-.007.368-.068.433-.43.438-.41.006-.82.009-1.229 0-.33-.01-.417-.097-.424-.43-.01-.401 0-.801-.004-1.204-.004-.3-.03-.328-.328-.331-.992-.005-1.984 0-2.976-.003-.153 0-.312.024-.449-.075a.313.313 0 0 1-.059-.204 65.336 65.336 0 0 1 0-1.54.311.311 0 0 1 .049-.179c.122-.11.273-.08.416-.087.453-.02.908.039 1.359-.037.12-.083.081-.21.086-.324.02-.477-.04-.957.033-1.434a.17.17 0 0 1 .07-.073 10.665 10.665 0 0 1 1.845-.008.177.177 0 0 1 .077.064c.09.484.02.973.042 1.46.006.113-.031.24.092.32.499.066.999.02 1.498.023.19 0 .212-.135.213-.281.004-.527 0-1.055 0-1.582 0-.5.005-1 0-1.5-.005-.292-.044-.329-.335-.335-.4-.008-.8 0-1.203-.005-.353-.006-.425-.07-.428-.411a271.63 271.63 0 0 1 0-3.192c0-.125-.005-.259.118-.345.478-.09.96-.017 1.44-.042.115-.005.238.028.34-.054.096-.12.066-.262.066-.394.002-1.608.002-3.216 0-4.824 0-.152-.025-.312.087-.443h1.914c.128.158.087.347.087.526.002 4.12.002 8.237 0 12.354 0 .109 0 .218.005.328.005.133.069.198.202.203.11.004.22.004.329.004h12.353c.179 0 .368-.04.527.088v1.914c-.105.093-.236.085-.362.086-.391.003-.783 0-1.173 0-.31.004-.343.034-.345.348-.004 1 0 2-.003 3 0 .152.024.311-.075.448-.116.099-.257.073-.39.074h-2.987c-.114 0-.237-.027-.333.068-.064.078-.05.17-.051.26v1.16c0 .09-.012.182.052.258.1.095.224.065.339.065h2.924c.497 0 .505.015.514.5.008.438-.034.875.026 1.307.02.027.042.052.067.074.423.087.85.014 1.274.04.177.011.366-.05.526.076v1.914c-1.2 0-2.4-.004-3.601.004-.187 0-.25-.044-.245-.24.014-.481 0-.964.007-1.446.004-.179-.033-.257-.236-.255a223.89 223.89 0 0 1-3.439 0c-.17 0-.218.054-.214.218.009.5.012 1 0 1.5-.005.19.068.224.236.22.563-.01 1.127-.004 1.692-.004.063.092.03.194.03.292.004 1.165 0 2.33.004 3.494.052.117.157.065.237.066.462.005.924 0 1.386.004.088 0 .182-.03.264.03l-.007-.006c.042.045.032.102.032.155V32.7a.335.335 0 0 1-.016.11 12.25 12.25 0 0 1-1.922-.005Z"/><path fill="#fff" d="M55.995 13.51c-.091.004-.182.01-.274.01-4.307 0-8.614.002-12.921.007-.265 0-.329-.063-.329-.328.01-4.307.012-8.614.008-12.922 0-.09.005-.181.009-.273 4.43 0 8.858-.002 13.286-.006.188 0 .225.037.224.225-.005 4.43-.007 8.859-.003 13.288ZM.005 42.49c.091-.004.182-.01.274-.01 4.307 0 8.614-.002 12.922-.007.264 0 .328.064.328.328-.01 4.307-.012 8.615-.007 12.922 0 .09-.006.181-.01.273-4.429 0-8.857.002-13.286.006-.188 0-.225-.037-.224-.224.005-4.43.007-8.86.004-13.288ZM13.512.006c.003.09.009.182.009.274 0 4.307.002 8.614.007 12.921 0 .264-.063.328-.328.328-4.307-.01-8.614-.012-12.922-.007-.09 0-.181-.006-.273-.01C.004 9.085.002 4.656-.002.228c0-.188.037-.225.225-.225C4.653.007 9.082.01 13.51.006Zm25.153 5.79c-.073.066-.041.153-.042.23 0 1.12.004 2.238-.006 3.357 0 .204.052.267.259.26.472-.016.946.003 1.418-.01.204-.002.285.04.285.272-.012 1.127-.007 2.255-.004 3.383 0 .14.003.243-.192.238-.573-.015-1.145-.013-1.718-.018-.061-.54-.008-1.08-.028-1.621-.004-.097.032-.2-.032-.29l.006.006c-.285-.072-.575-.03-.862-.028-.351 0-.704-.043-1.054.028l.006-.006c-.074.302-.016.61-.032.913-.018.333.031.667-.027.998l-1.853.012c-.105-.09-.08-.219-.082-.33-.004-.4 0-.8 0-1.2 0-.098.016-.2-.042-.29-.083-.1-.198-.078-.305-.079h-1.174c-.116 0-.24.017-.338-.074-.06-.088-.054-.19-.054-.29-.002-.428-.002-.856 0-1.285 0-.1-.007-.202.054-.29.117-.098.259-.071.392-.071h2.995c.115 0 .24.028.328-.08.058-.101.046-.212.046-.32V6.24c0-.116.016-.238-.064-.34-.088-.089-.2-.07-.308-.07h-1.142c-.116 0-.238.016-.336-.075-.065-.097-.054-.21-.054-.318v-1.12c0-.475.022-.498.487-.499h2.978c.109 0 .218.017.322-.028a.2.2 0 0 0 .095-.184c0-.518.008-1.036-.006-1.554 0-.036.003.01-.005-.026-.013-.055-.028-.005-.043 0-.13.061-.268.043-.403.043h-2.866c-.127 0-.256-.016-.376.041-.106.079-.083.194-.084.301v1.12c0 .115.017.239-.078.335-.08.055-.173.05-.264.05-1.101.002-2.203.002-3.304 0-.091 0-.184 0-.263-.057-.01-.014-.03-.028-.031-.043-.075-.612-.101-1.223.013-1.833.095-.093.219-.076.332-.077.405-.003.81 0 1.216 0 .098 0 .199.015.288-.042.1-.081.079-.195.08-.3V.347c0-.116-.013-.236.075-.333h7.711c0 1.837-.003 3.673-.008 5.51 0 .09.055.2-.05.274a18.252 18.252 0 0 0-1.856-.004Z"/><path fill="#071E44" d="M44.42 52.112c.394.09.793.03 1.189.035.241.004.55.113.71-.054.144-.153.039-.453.044-.688.007-.29.025-.585-.004-.875-.03-.29.085-.338.348-.335 1.165.014 2.331.006 3.5.005l.034.039c.07.61.055 1.22.011 1.832a.173.173 0 0 1-.066.076c-.484.087-.973.02-1.46.041-.113.006-.24-.032-.318.094-.04.126-.029.254-.03.38v2.915c0 .144.02.294-.086.416h-7.714c0-.635 0-1.27-.002-1.905.293-.08.592-.02.888-.032.274-.011.547 0 .817-.004.065 0 .151.034.184-.067v-5.41c0-.097-.03-.2.03-.293l-.006.007c.34-.072.684-.026 1.026-.027.296 0 .595-.044.89.026l-.006-.006a.157.157 0 0 1 .03.074c-.003 1.252.012 2.504-.01 3.756Z"/><path fill="#fff" d="M.006 15.424c2.467 0 4.934.008 7.4 0 .264 0 .346.062.329.328-.024.438.006.875-.012 1.313-.01.24.046.338.311.325.472-.024.947 0 1.422-.01.183-.005.232.054.228.232-.011.492-.011.984 0 1.477.004.174-.042.236-.226.232-.5-.013-1 .004-1.501-.009-.187-.005-.233.063-.23.235.009.5 0 1.002.007 1.503 0 .164-.044.222-.215.221a298.992 298.992 0 0 0-3.441 0c-.18 0-.238-.058-.234-.236.01-.482-.006-.965.008-1.447.006-.208-.045-.283-.269-.277-.536.013-1.073 0-1.61-.006-.06-.539-.008-1.08-.028-1.62-.003-.096.033-.198-.031-.288l.006.005c-.284-.072-.574-.017-.86-.032-.352-.018-.705.031-1.055-.027v-1.919Z"/><path fill="#071E44" d="m55.994 40.521-3.505.007c-.11 0-.219.008-.325.012-.04-.078-.022-.164-.022-.243 0-1.758 0-3.517-.006-5.275 0-.215.054-.281.273-.274.465.017.93.008 1.394.003.084 0 .184.045.25-.055.007-1.808 0-3.615.004-5.423 0-.097-.03-.2.03-.292l-.006.007c.322-.07.647-.027.97-.028.322-.002.631-.034.944.023V40.52Z"/><path fill="#fff" d="M25.104 7.717c0-.573-.006-1.149 0-1.719 0-.154-.041-.202-.198-.2-.509.01-1.018-.003-1.528.007-.169.004-.218-.05-.213-.216.011-.563.008-1.127.01-1.69.107-.123.252-.086.383-.086 1.007-.004 2.014 0 3.021-.003.11 0 .219.017.321-.03a.185.185 0 0 0 .091-.157c0-.527.012-1.054-.006-1.58 0-.037.003.008-.007-.027-.015-.055-.03-.004-.045 0-.543.087-1.088.04-1.631.026a.262.262 0 0 1-.274-.258c-.03-.544-.03-1.09 0-1.635a.25.25 0 0 1 .074-.143h3.828c.082.089.076.2.076.31v5.191a.732.732 0 0 1-.025.244.187.187 0 0 1-.066.082c-.154.076-.32.052-.482.055-.319.004-.637-.003-.955 0-.285.004-.315.032-.319.312-.007.383 0 .765-.003 1.145-.004.38-.063.449-.438.454-.427.005-.854.003-1.281 0a.606.606 0 0 1-.293-.049l-.04-.033Z"/><path fill="#071E44" d="M30.906 1.975v1.859c.094.055.195.027.293.027h3.232c.098 0 .199-.018.295.018.047.637.031 1.275.01 1.914-.1.106-.232.091-.357.093-.372.005-.744 0-1.116 0-.1 0-.2-.006-.293.043-.105.08-.08.195-.081.3V7.4c0 .117.016.239-.073.336-.09.061-.192.055-.29.055-.446.002-.892.002-1.337 0-.1 0-.202.007-.29-.055-.094-.105-.083-.235-.084-.361-.004-.383 0-.761 0-1.143-.003-.323-.021-.341-.336-.344-.383-.004-.761 0-1.142-.003-.125 0-.257.014-.36-.084-.032-.18-.014-.363-.014-.544V.298c0-.098-.025-.2.025-.294h3.828c.055.636.026 1.272.014 1.908-.34.072-.685.012-1.027.031-.303.019-.601-.032-.897.032Z"/><path fill="#fff" d="M19.3 52.168c0 1.276.002 2.552.006 3.828h-3.884c0-2.467.007-4.936 0-7.403 0-.266.068-.34.331-.328.527.026 1.055.017 1.582.023.055.093.027.196.028.293v3.243c0 .097-.032.2.03.292l-.004-.008c.229.073.463.022.694.033.408.018.814-.033 1.217.027ZM17.385 3.826c0-.536-.015-1.073 0-1.61.006-.222-.07-.273-.28-.27-.472.014-.945-.003-1.417.009-.199.005-.269-.05-.264-.26.013-.563 0-1.126 0-1.69h7.709c.081.089.076.2.076.308v3.231c0 .1.008.2-.06.286-.62.061-1.243.022-1.864.02-.11-.088-.085-.213-.086-.328-.005-.382 0-.765 0-1.144 0-.1.016-.204-.078-.274-.366-.095-.739-.037-1.107-.04-.68-.007-.612-.08-.625.628-.007.37.048.742-.04 1.109a.11.11 0 0 1-.08.058c-.558.005-1.117 0-1.675 0-.071 0-.149.022-.209-.033Z"/><path fill="#071E44" d="M32.812 54.023c.006-.537.02-1.073.014-1.61 0-.196.041-.268.254-.266 1.12.011 2.242.009 3.36 0 .182 0 .259.036.252.238-.014.482-.01.965 0 1.447.004.167-.05.219-.218.219-.483-.009-.966.007-1.448-.008-.219-.006-.302.05-.296.285.014.555 0 1.11-.006 1.665H27.07a.36.36 0 0 1-.084-.25 45.38 45.38 0 0 1 0-1.41.356.356 0 0 1 .08-.253c.094-.05.196-.025.295-.025l5.16-.003c.097.001.2.03.291-.03Z"/><path fill="#fff" d="M55.995 48.285v3.828a.293.293 0 0 1-.2.074c-.547.003-1.09.012-1.636-.005a.248.248 0 0 1-.127-.043c-.1-.102-.088-.234-.09-.36-.004-.382 0-.765 0-1.148-.002-.32-.026-.343-.34-.347-.345-.003-.692 0-1.039 0-.117 0-.237.008-.351-.036a.18.18 0 0 1-.078-.067c-.082-.285-.038-.576-.038-.864 0-.334-.04-.67.031-1.002a.167.167 0 0 1 .076-.074.64.64 0 0 1 .267-.041c1.064-.003 2.128-.003 3.19 0 .118-.001.238-.002.335.085Z"/><path fill="#071E44" d="M.005 27.015v-3.828a.258.258 0 0 1 .174-.07c.563 0 1.127-.035 1.69.02a.171.171 0 0 1 .076.066c.091.189.043.391.048.588.009.306 0 .614 0 .922 0 .098-.013.202.088.268.448.076.899.014 1.347.035.141.007.292-.023.411.089.026.026.043.059.05.095a14.05 14.05 0 0 1-.007 1.756c0 .028-.024.048-.039.071-.084.068-.187.063-.286.063a605.03 605.03 0 0 1-3.245 0c-.106.002-.217.008-.307-.075ZM25.102.005c0 .564.009 1.126-.005 1.69-.005.2.048.265.255.262.552-.01 1.106.005 1.659.01.055.624.04 1.247.01 1.871-.17.045-.343.02-.514.02-1.008.003-2.016.003-3.024 0-.1 0-.2.017-.297-.017-.04-.068-.024-.143-.024-.214V.218c0-.072-.018-.146.026-.213h1.914Z"/><path fill="#fff" d="M.005 28.93v-1.86a.25.25 0 0 1 .158-.026h3.535a.345.345 0 0 1 .133.017c.05.084.027.177.027.266v3.482a.187.187 0 0 1-.023.102.238.238 0 0 1-.149.06c-.554.007-1.108.046-1.66-.021a.193.193 0 0 1-.081-.062c-.085-.189-.037-.389-.047-.584-.02-.402.035-.806-.032-1.207a.392.392 0 0 0-.066-.06c-.478-.07-.956-.013-1.434-.031-.124-.005-.257.019-.36-.076Zm54.021-9.62c.05-.379.018-.76.02-1.141.007-.827.008-1.654 0-2.481 0-.2.052-.267.26-.262.564.013 1.127 0 1.69 0v3.883a.391.391 0 0 1-.28.082c-.517 0-1.034.018-1.552-.01a.35.35 0 0 1-.098-.034l-.04-.037Z"/><path fill="#071E44" d="m55.995 48.285-3.814-.007c-.088-.06-.087-.155-.088-.246a81.198 81.198 0 0 1 0-1.421c0-.165.04-.274.247-.27 1.184.006 2.368.003 3.554.003a.19.19 0 0 1 .104.026l-.003 1.915Zm0 3.882c0 1.221 0 2.443.003 3.664 0 .137-.03.17-.167.168-.584-.009-1.167-.004-1.75-.004-.082-.088-.077-.2-.077-.307v-3.233c0-.099-.008-.2.06-.286a13.938 13.938 0 0 1 1.93-.002Z"/><path fill="#fff" d="M48.285 55.994a93.07 93.07 0 0 1 0-3.824c.469-.067.94-.013 1.41-.028.154-.005.308-.004.462 0a.108.108 0 0 1 .083.06c.055.12.046.249.046.376v2.999c0 .143.019.293-.087.416l-1.914.001Z"/><path fill="#071E44" d="M50.199 55.994v-3.823c.079-.078.18-.08.28-.08.456 0 .912-.006 1.368 0 .28.004.338.059.34.34.007 1.093.003 2.187 0 3.28 0 .101 0 .203-.076.283H50.2Z"/><path fill="#fff" d="M54.026 55.994h-1.86c-.042-.066-.025-.141-.025-.212 0-1.129.005-2.256-.006-3.384 0-.228.072-.312.294-.31.445.006.891 0 1.337 0 .092 0 .183.004.26.065a55.11 55.11 0 0 1 0 3.841Zm-26.96-1.915c-.02.638-.03 1.277.004 1.914h-1.969a.32.32 0 0 1-.08-.224c0-.546-.03-1.096.017-1.643a.257.257 0 0 1 .055-.091l.01-.011a.29.29 0 0 1 .198-.078c.552 0 1.105-.04 1.655.023a.19.19 0 0 1 .084.063.625.625 0 0 0 .026.047ZM.006 32.81v-1.914a.322.322 0 0 1 .223-.08c.546 0 1.093-.03 1.64.016.034.012.065.03.09.055l.012.01a.331.331 0 0 1 .081.224c.009.498.012.995 0 1.492a.36.36 0 0 1-.054.181.226.226 0 0 1-.085.066c-.579.074-1.159.032-1.74.026a.268.268 0 0 1-.168-.076Z"/><path fill="#071E44" d="m25.105 54.075-.003 1.92h-1.915a.233.233 0 0 1-.067-.145c0-.575-.042-1.148.021-1.725a.128.128 0 0 1 .078-.067c.629.005 1.258-.027 1.886.017Z"/><path fill="#fff" d="M21.273 54.077c.517-.062 1.035-.01 1.552-.029.117-.004.238.022.35-.033l.017.017c.013.013.017.025.01.036-.005.011-.01.016-.016.016v-.005c-.067.358-.012.72-.03 1.08-.014.278.03.558-.027.835h-1.856a13.855 13.855 0 0 1 0-1.917Z"/><path fill="#071E44" d="m1.926 30.9-1.92-.002v-1.914a12.634 12.634 0 0 1 1.914.005l-.006-.007c.069.322.025.647.028.97.003.323.027.634-.016.949Zm54.068 11.59v1.913c-.637.047-1.276.045-1.914-.004l.007.005c-.07-.531-.015-1.064-.029-1.596-.002-.106-.032-.22.03-.319l-.007.006c.34-.072.683-.025 1.024-.027.293-.004.594-.038.89.021ZM.005 32.81c.634.034 1.268.03 1.903 0a.265.265 0 0 1 .085.22c.004.507.007 1.015 0 1.522a.294.294 0 0 1-.055.179.301.301 0 0 1-.203.063c-.5.007-1 .005-1.5 0a.324.324 0 0 1-.227-.074l-.003-1.91Zm54.072-13.508 1.917.003v1.914a.288.288 0 0 1-.199.074c-.515.006-1.031.008-1.547 0a.288.288 0 0 1-.178-.055.342.342 0 0 1-.063-.231c-.005-.49-.005-.98 0-1.471a.341.341 0 0 1 .07-.233Z"/><path fill="#fff" d="M1.923 21.276c.062.515.01 1.033.029 1.55.004.117-.021.237.031.35l-.014.029a.042.042 0 0 1-.055-.016h.005c-.358-.068-.72-.013-1.079-.031-.278-.014-.558.03-.836-.026v-1.86c.64-.043 1.28-.042 1.92.004ZM.006 36.639v-1.86c.598-.059 1.197-.01 1.796-.027.106 0 .147.043.144.146-.015.58.029 1.162-.024 1.743v-.004c-.638.045-1.278.046-1.916.002Zm55.989-15.365v1.86c-.638.043-1.277.043-1.915 0v.005c-.054-.581-.008-1.163-.024-1.744 0-.102.037-.15.143-.146.598.016 1.2-.033 1.796.025Zm0 25.098-3.652-.01c-.086 0-.194-.025-.19.122.014.597-.037 1.197.028 1.794l-.02.011-.051.004-.034-.038a.36.36 0 0 1-.034-.094c-.03-.452-.005-.904-.014-1.357-.007-.31-.036-.343-.343-.347-.498-.007-.996.005-1.494-.005-.535.012-1.07.004-1.606.004a.56.56 0 0 1-.266-.046.071.071 0 0 1-.038-.088l1.918-.007c.106-.093.237-.083.363-.084.383-.004.766 0 1.149 0 .284-.004.313-.03.315-.314.004-1 0-2 .003-3.002 0-.142-.026-.293.075-.42.11.072.063.183.063.274.004 1.094.008 2.188 0 3.282 0 .218.066.276.279.273 1.184-.01 2.369-.005 3.555-.006l-.006.054Zm-1.968 5.797c-.535 0-1.071.008-1.606-.006-.209-.006-.26.066-.258.265.008 1.189.004 2.378.004 3.566h-.054c0-1.198-.006-2.397.005-3.595 0-.21-.06-.259-.26-.252-.552.02-1.105.018-1.659.024l-.006-.013c-.013-.011-.017-.022-.011-.032.005-.01.01-.014.015-.014h.006a.375.375 0 0 1 .084-.055c.414-.06.83-.02 1.247-.027.497-.008.492 0 .498-.511.003-.398-.016-.797.011-1.195a.313.313 0 0 1 .033-.095l.033-.038h.051l.013.006c.091.107.08.237.082.363.003.383 0 .763 0 1.145.004.288.028.313.31.318.372.004.744 0 1.117 0 .127 0 .255 0 .364.084h1.949v.054a23.808 23.808 0 0 0-1.918 0c-.015.033-.032.034-.05.008Z"/><path fill="#fff" d="M55.994 21.274c-.561 0-1.123.006-1.686-.003-.18-.003-.234.06-.231.235.008.544 0 1.088 0 1.632-.07-.523-.031-1.048-.024-1.571.004-.26-.082-.31-.321-.308-1.08.012-2.16.007-3.239.003-.092 0-.199.047-.28-.043a.222.222 0 0 1 .088-.059c.188-.045.379-.026.569-.026.915-.002 1.83-.002 2.744 0 .126 0 .254-.012.377.03a.37.37 0 0 1 .09.054h1.914v.056ZM28.984.006v5.797a.031.031 0 0 1-.026.006.031.031 0 0 1-.02-.016L28.93.006h.054ZM1.922 36.642c0-.544-.008-1.088 0-1.631 0-.177-.055-.238-.232-.235-.562.01-1.123.004-1.685.004v-.055h1.914a.375.375 0 0 1 .086-.054 11.998 11.998 0 0 1 1.78-.004.203.203 0 0 1 .084.058c-.065.1-.164.054-.25.054-.473.005-.946.015-1.421-.003-.215-.008-.258.067-.252.263.014.446.006.893.003 1.338.003.088.03.181-.027.265ZM23.187.006c0 1.276-.001 2.552-.004 3.828-.017.019-.033.017-.049-.003L23.133.006h.054Zm30.84 52.163c.017 0 .033 0 .05-.003l.004 3.828h-.055l.001-3.825ZM3.831 27.071H.003v-.055l3.828.004a.03.03 0 0 1 .01.035c-.001.01-.005.016-.01.016ZM32.808 1.91l.004-1.905h.055V1.72c0 .084.043.184-.055.25-.018-.013-.024-.025-.019-.04.006-.013.009-.02.015-.02Zm-9.675 54.083V54.36c0-.094-.04-.202.054-.28v1.914l-.054.001Zm-1.86-1.917v1.917h-.055V54.32c.005-.081-.046-.182.055-.243ZM.006 36.639H1.92c-.059.11-.16.052-.24.054-.559.007-1.118.004-1.677.004l.003-.058Zm55.988-7.655-1.914.006c.076-.1.184-.058.279-.059.547-.004 1.09 0 1.635 0v.053ZM1.92 28.99l-1.915-.005v-.055h1.636c.094.002.203-.04.279.06Zm54.074 13.5-1.914.004c.075-.103.184-.054.278-.054.547-.005 1.093 0 1.638 0l-.002.05Zm-1.916 1.908 1.915.005v.055h-1.641c-.09-.004-.2.044-.273-.06Z"/><path fill="#fff" d="M54.078 23.133h1.914v.055c-.558 0-1.116 0-1.675-.003-.078 0-.176.053-.239-.052Zm-54.073 0h1.636c.094 0 .202-.04.28.056H.007l-.002-.055Zm0-5.795c.547 0 1.094-.003 1.638 0 .093 0 .203-.044.278.055l-1.914-.005-.002-.05Zm1.918 3.938H.005v-.055H1.68c.082.004.18-.051.244.055Z"/><path fill="#071E44" d="M38.61 38.608c.003-.581.004-1.162.012-1.744 0-.124-.03-.178-.164-.177-1.863.006-3.726.01-5.59.013-.054.093-.026.195-.026.293-.009 1.176.011 2.351-.012 3.53.158.105.334.04.5.044.392.012.784.015 1.175 0 .199-.008.243.063.238.247-.012.465-.013.93 0 1.393.006.21-.045.28-.269.279-1.093-.012-2.187 0-3.277-.011-.228 0-.317.036-.306.292.023.546.006 1.093.006 1.64l-.047.023c-.561.006-1.122 0-1.684 0-.061 0-.128.017-.182-.03l.007.005a.155.155 0 0 1-.032-.102c.005-1.242-.01-2.485.008-3.727-.083-.087-.19-.044-.284-.045-1.094-.003-2.188-.008-3.279.003-.225 0-.31-.034-.306-.29.017-1.184.008-2.367.008-3.55l.049-.023c1.205-.006 2.412 0 3.618 0 .054-.008.109 0 .159.022.006.563.02 1.126.014 1.689 0 .19.054.25.245.245.5-.012 1-.01 1.5 0 .17.004.213-.05.212-.216a285.684 285.684 0 0 1 0-3.464c0-.173-.058-.212-.218-.21-.564.006-1.127 0-1.69-.006-.046-.043-.034-.1-.034-.154v-3.516c0-.054-.01-.109.03-.156 1.19 0 2.382-.008 3.573 0 .207 0 .283-.043.273-.266-.021-.547-.015-1.09-.02-1.634a.185.185 0 0 1 .164-.086c.57 0 1.142-.044 1.712.023.033.015.06.041.077.073.045.104.035.214.035.322v3.125c0 .116.018.237-.054.342-.089.105-.212.084-.328.085-.396.004-.791 0-1.187 0-.105 0-.218-.021-.302.072-.086.164-.044.34-.04.507.008.387-.045.777.033 1.16a.228.228 0 0 0 .196.076h1.367a.195.195 0 0 0 .186-.088c.065-.477.012-.955.03-1.432.004-.134-.017-.273.076-.39.103-.076.224-.069.341-.07h3.14c.117 0 .238-.004.344.064.094.094.077.219.078.333.004.407 0 .815 0 1.222 0 .099-.015.2.052.287.088.091.202.073.31.073.39 0 .781-.003 1.172 0 .307.005.328.03.328.323-.005 1.191.016 2.382-.01 3.573-.31.072-.624.022-.936.031-.312.009-.63.004-.945 0l-.047-.022ZM25.105 27.01V25.1l-.004.004c.104-.093.234-.087.36-.088.409 0 .817-.007 1.224 0 .225.005.307-.083.302-.304-.009-.39-.005-.78 0-1.17 0-.126-.01-.256.072-.367.12-.09.26-.064.393-.064h2.987c.114 0 .24.028.328-.08.1-.364.022-.733.048-1.099.016-.221-.048-.45.066-.662.098-.086.218-.07.334-.07h1.187c.11 0 .22.017.291-.095.06-.215.025-.434.031-.651.007-.283-.009-.565.007-.846s.105-.364.39-.383c.063-.005.127-.004.19-.004h4.883c.144 0 .293-.018.424.07.065.075.067.165.067.258 0 1.144.005 2.288 0 3.432a.51.51 0 0 1-.019.135.236.236 0 0 1-.058.091c-.103.073-.223.069-.341.07-.41 0-.82.005-1.23 0-.134 0-.278.014-.375-.116-.084-.292-.023-.593-.041-.889-.019-.295.036-.595-.035-.888-.055-.077-.134-.084-.219-.084H35.08c-.085 0-.164.007-.219.083-.084.173-.044.357-.048.536-.006.3 0 .598 0 .897-.005.405-.055.457-.452.461-.354.004-.707 0-1.06 0a.885.885 0 0 0-.322.032c-.092.055-.089.148-.089.24v1.215c0 .093 0 .182.103.228.2.044.4.022.602.023.91.002 1.819 0 2.728.002.4 0 .459.064.463.46.005.397.003.8 0 1.2 0 .118.005.239-.066.343-.115.1-.257.073-.39.074-1.016.002-2.032 0-3.048 0-.116 0-.239-.027-.336.065-.078.096-.05.21-.055.316-.013.463.024.926-.022 1.389a.178.178 0 0 1-.059.08l-3.826-.013c-.05-.618-.023-1.237-.014-1.855.1-.105.234-.088.359-.09.39-.004.782-.006 1.174 0 .212.005.32-.062.313-.295-.01-.409-.007-.82 0-1.228.003-.195-.071-.28-.273-.277-.418.007-.837.006-1.258 0-.202-.003-.273.09-.273.282.003.4.003.8 0 1.203 0 .125.016.258-.087.36-1.25.027-2.498.008-3.747.011a.15.15 0 0 1-.072-.033Zm18.316 19.31c-.875 0-1.75-.005-2.625.004-.177 0-.23-.047-.229-.227.007-1.767.007-3.534 0-5.301 0-.178.048-.23.227-.229 1.768.007 3.535.007 5.302 0 .177 0 .228.048.228.227a720.64 720.64 0 0 0 0 5.302c0 .177-.047.23-.227.228-.894-.01-1.786-.004-2.676-.004Zm-6.727.05h1.907c.058.062.034.139.034.209 0 1.19.003 2.38 0 3.57a.08.08 0 0 1-.062.076c-2.54.005-5.08.005-7.62 0l-.05-.022V48.29c.094-.055.196-.028.294-.028 1.729 0 3.457-.001 5.187-.004.093 0 .2.047.28-.046.011-.524 0-1.049.007-1.573-.003-.09-.026-.183.023-.267Zm-25.153-9.672h-3.77c-.023.028-.043.027-.06-.004l.006.006a.474.474 0 0 1-.058-.09c-.063-.561-.028-1.123-.02-1.685a.235.235 0 0 1 .062-.15c.101-.076.218-.07.339-.07.426 0 .852-.006 1.278 0 .21.005.293-.078.29-.289-.009-.426-.004-.852 0-1.278 0-.117-.007-.237.07-.34.11-.085.24-.073.366-.073 1.034-.002 2.067-.002 3.1 0 .118 0 .238-.004.346.055a.21.21 0 0 1 .068.082c.037.62.076 1.24-.021 1.86-.095.094-.219.077-.334.078-.399.003-.798 0-1.197 0-.099 0-.203-.018-.278.073-.088.18-.04.373-.046.56-.01.368.008.738-.01 1.107a.34.34 0 0 1-.021.093l-.024.042a.066.066 0 0 1-.086.023Z"/><path fill="#071E44" d="M17.39 36.692v1.902c-.057.067-.135.038-.204.038H11.78c-.061 0-.128.016-.183-.03l.006.006c-.071-.34-.025-.685-.027-1.027 0-.297-.042-.597.026-.892l-.007.007c.095-.091.219-.08.332-.08h1.164c.106 0 .22.023.296-.084.084-.45.017-.901.04-1.35.007-.142-.024-.292.08-.416a.364.364 0 0 1 .206-.06 69.129 69.129 0 0 1 1.551 0c.055 0 .108.015.155.044.102.102.088.234.09.36.004.383 0 .765 0 1.148 0 .11-.013.219.067.31.088.071.192.048.29.05.464.006.93-.01 1.394.008a.286.286 0 0 1 .094.032l.036.034Zm5.743 5.801-1.853-.01c-.073-.302-.027-.609-.029-.912 0-.332-.035-.666.022-.997 1.203 0 2.407 0 3.61-.008.184 0 .226.058.223.232-.007.547 0 1.094.006 1.64.538.059 1.078.008 1.616.027.097.003.199-.03.29.03l-.007-.005c.07.321.027.647.028.97 0 .315.04.632-.028.944l.007-.005c-.046.041-.103.031-.156.031h-3.519c-.055 0-.11.01-.156-.03l.006.005c-.07-.34-.01-.682-.03-1.023-.019-.297.035-.595-.03-.889Zm1.971-5.801c-.573 0-1.148 0-1.72-.006-.134 0-.222.008-.218.184.013.573.012 1.146.017 1.719-.034.062-.094.044-.146.044h-1.64a.163.163 0 0 1-.128-.034l.005-3.817c.054-.042.122-.028.184-.028h3.457c.062 0 .128-.016.183.03l.012 1.857a.032.032 0 0 1 .004.046.031.031 0 0 1-.015.009l.005-.004ZM36.7 38.615l1.91-.004-.005-.004c.039.047.029.103.029.156v3.546c0 .061.02.129-.037.18H36.7c-.044-.045-.034-.102-.034-.155V38.77c0-.056-.01-.113.033-.155ZM19.3 36.69h-1.91l.005.005a.348.348 0 0 1-.078-.253c0-1.148-.006-2.301 0-3.451a.424.424 0 0 1 .018-.11.233.233 0 0 1 .058-.09c.094-.067.204-.068.311-.07.424-.003.847-.002 1.27 0 .119 0 .237 0 .329.09l-.004-.006a.145.145 0 0 1 .028.1v3.517c.004.092.032.186-.026.268Zm32.802 5.803c.004 1.22.004 2.438.014 3.657 0 .16-.07.173-.197.172-.573-.006-1.148-.006-1.72-.007v-3.82c.322-.07.647-.028.97-.028.314 0 .63-.04.943.027h-.01ZM30.9 44.404c1.183 0 2.367.012 3.55 0 .249-.002.306.072.296.306-.018.464-.01.93 0 1.393.004.158-.03.223-.207.219a256.365 256.365 0 0 0-3.441 0c-.159 0-.199-.05-.197-.202.006-.554 0-1.11-.005-1.665-.013-.016-.016-.029-.009-.04.007-.012.014-.016.02-.016l-.007.005Zm-3.883 9.637c-.638.003-1.276.032-1.914-.015 0-1.19.005-2.382-.005-3.572 0-.202.048-.262.255-.257.554.014 1.109 0 1.663 0 .044 1.281.044 2.563 0 3.844Zm.05-3.844-.007-3.824c.623-.055 1.247-.031 1.871-.011.006.798.015 1.596.017 2.393 0 .48-.008.961-.012 1.442l-.045.025c-.593.006-1.187.006-1.78 0l-.045-.025Zm11.548 1.897-.006-1.839c-.03-.02-.03-.04 0-.06l-.006.006c.017-.028.037-.028.059-.006.535 0 1.07.013 1.605.003.191-.004.274.03.266.247-.018.553-.008 1.107-.01 1.66-.468.077-.94.021-1.41.03-.163.002-.339.059-.498-.04Zm-11.604-21.2c-.57 0-1.14-.003-1.711.005-.154 0-.2-.044-.199-.198.01-.57.005-1.14.006-1.711.303-.073.61-.029.915-.028.331 0 .665-.043.996.027l-.006-.006c.07.512.016 1.026.029 1.539.002.123.035.253-.03.372Zm21.28 15.483 1.913-.005a.36.36 0 0 1 .08.254c0 .507.017 1.014-.01 1.522a.345.345 0 0 1-.034.097l-.036.038h-1.898a.097.097 0 0 1-.044-.092c.015-.607-.039-1.209.028-1.815Z"/><path fill="#071E44" d="M50.203 50.201v-1.918l-.005.005a.348.348 0 0 1 .252-.078c.47-.003.94-.003 1.41 0a.35.35 0 0 1 .255.075l-.006.003c.072.302.027.61.028.913 0 .332.037.666-.023.996v.004a.264.264 0 0 1-.173.069c-.552 0-1.103.03-1.654-.017a.394.394 0 0 1-.09-.054l.006.002Zm-21.219-.004 1.917.004-.005-.005c.018.01.026.022.023.035-.004.014-.009.022-.013.022l-.012 1.853c-.284.072-.572.028-.858.03-.352 0-.704.028-1.055-.017-.039-.64-.038-1.282.003-1.922ZM46.37 34.738c0-.571 0-1.142-.01-1.713-.003-.164.061-.199.208-.197.492.007.98.012 1.47 0 .204-.005.238.082.236.258-.008.544 0 1.089 0 1.633-.209.078-.425.03-.638.032-.42 0-.844.018-1.266-.012Z"/><path fill="#fff" d="M44.455 27.073c0 3.188 0 6.377.003 9.565.014.046 0 .064-.049.052-.093-.082-.091-.194-.091-.303 0-3.035-.009-6.07 0-9.107a.648.648 0 0 1 .01-.081.297.297 0 0 1 .035-.099.066.066 0 0 1 .04-.033.065.065 0 0 1 .052.006ZM40.523 38.61c0-1.21 0-2.42.01-3.629 0-.181-.068-.206-.223-.204-.482.008-.964.006-1.446 0-.08 0-.184.054-.243-.055a.244.244 0 0 1 .085-.055c.463-.054.93-.013 1.391-.025.317-.009.337-.026.34-.347.004-.373-.006-.747.006-1.12.004-.115-.037-.267.138-.314.09.095.08.218.08.333.005.353 0 .706 0 1.059 0 .372.015.383.377.388.362.005.724 0 1.086 0 .124 0 .255-.015.36.082.02.039.008.061-.036.068-.547-.004-1.09 0-1.634-.016-.198-.006-.243.069-.242.252.007 1.117.005 2.235 0 3.352 0 .093.047.203-.06.274-.014-.014-.017-.025-.01-.034.007-.01.013-.01.021-.01Zm13.544-3.887c-.063.102-.164.054-.248.054-.49.005-.98.005-1.471 0-.13 0-.198.019-.197.175.008 1.862.012 3.725.012 5.587-.109-.049-.047-.142-.047-.21-.004-1.773 0-3.545-.008-5.318 0-.224.055-.298.287-.292.547.015 1.091 0 1.637 0l.035.004Zm-3.873 3.892c-.072.085-.17.048-.255.048-2.4.002-4.8.002-7.2 0-.085 0-.184.037-.251-.055l.04-.035c.129-.064.267-.05.403-.05h6.824c.135 0 .274-.014.401.055l.038.037ZM30.905 50.253l-.01-.055h7.714v.06l-7.704-.005Zm-19.311-11.65 5.796-.009c-.044.106-.14.066-.213.066-1.787.002-3.572.002-5.355 0-.08 0-.17.031-.228-.057Zm25.089 9.625c-.068.118-.18.055-.267.055-1.838.006-3.677.008-5.515.006.086-.105.204-.054.306-.054 1.811-.004 3.623-.005 5.435-.004.013-.027.027-.026.041-.003Z"/><path fill="#fff" d="M54.067 34.723c-.012 0-.024-.003-.035-.004 0-1.846-.002-3.692-.005-5.539 0-.07-.018-.149.059-.197 0 1.814-.002 3.628-.005 5.442 0 .1-.01.198-.014.298Zm-25.082-7.668v1.876c-.084-.072-.052-.17-.055-.256 0-.455-.01-.91.003-1.364.005-.195-.064-.245-.25-.244-1.101.007-2.201.004-3.301 0-.093 0-.203.045-.277-.059l3.838.005a.041.041 0 0 1 .039.026c.002.005.003.011.003.016Zm13.507 21.228c0 1.815-.002 3.629-.005 5.442 0 .1-.008.2-.011.298h-.038l-.005-5.544c.004-.07-.02-.149.059-.196Zm-1.969-9.673a.446.446 0 0 0-.007.046c-.538 0-1.075.012-1.612 0-.197-.004-.245.064-.243.25.007 1.103.005 2.205 0 3.308 0 .09.054.203-.063.27l.008-3.883 1.917.009Zm-7.71 15.413c-.048.11-.144.055-.214.055-1.845.002-3.69.002-5.533 0v-.012c-.013-.01-.017-.02-.01-.028.005-.008.01-.012.015-.012l5.742-.003Zm5.851-3.828-.058.006-.005-3.833c.13.033.058.138.059.203.004 1.208.004 2.416.004 3.624Zm-9.676-19.29.003 3.828c-.102.017-.06-.064-.06-.101l-.002-3.564c0-.06-.01-.127.059-.164Z"/><path fill="#fff" d="M27.07 54.027a.199.199 0 0 1-.005.04l-.05-.026v-3.844a.367.367 0 0 0 .05 0l.004.005c.02.01.026.022.02.034-.005.012-.01.019-.017.019a3388.49 3388.49 0 0 0-.002 3.772Zm9.63-15.412v3.873c-.088-.043-.061-.124-.061-.192V38.81c.001-.072-.019-.15.06-.195Zm-11.602-3.828-3.825-.005c.06-.08.148-.055.227-.055h3.375c.077 0 .166-.03.223.06Zm-3.825 5.787.007 1.908c0 .547 0 1.098-.008 1.646 0 .093.042.202-.06.274l.008-1.914c-.017-.006-.024-.014-.021-.025.003-.01.007-.017.011-.017.003-.53.005-1.062.011-1.592.002-.094-.036-.2.052-.28Zm7.692 0c.006.652.015 1.303.019 1.955.004.624.004 1.25.005 1.874-.076-.048-.059-.126-.059-.196V40.73a.713.713 0 0 1 .035-.155Z"/><path fill="#fff" d="M17.395 44.459c.068-.117.18-.052.266-.055 1.187-.007 2.374-.006 3.56-.007-.075.102-.184.055-.277.055-1.183.007-2.366.006-3.55.007Zm5.792-.06h3.828c-.045.082-.126.057-.195.057h-3.44c-.067 0-.148.025-.193-.058Zm9.64-3.877-.015-3.745c0-.038.01-.07.055-.077v3.532c0 .098.027.2-.04.29ZM50.21 28.93l-.01-3.416c0-.136-.004-.273-.006-.41.104.085.058.204.058.306.004 1.173 0 2.345 0 3.518-.01.023-.025.023-.042.002ZM7.711 36.691l.06.005c0 1.179-.002 2.358-.004 3.536 0 .097.03.2-.038.29-.004-1.069-.01-2.137-.015-3.206l-.003-.625Zm44.395-3.883v-3.824c.085.057.06.146.06.224 0 1.203-.002 2.405-.004 3.605a.034.034 0 0 1-.03.013.033.033 0 0 1-.026-.018ZM19.301 36.69l.012-3.822c.015-.024.03-.023.046 0v3.576c0 .083.047.185-.058.246Zm5.8.006c.004-.018.008-.036.01-.054h3.595c.076 0 .164-.034.226.049l-3.83.005ZM44.42 52.112l-.016-2.932c0-.299-.002-.597-.005-.897.073.037.059.107.059.167v3.536a.454.454 0 0 1-.038.126Zm5.784-17.33c.074.065.048.152.05.23v3.347c0 .087.028.185-.059.254v-.006c-.085-.098-.082-.22-.083-.336a791.606 791.606 0 0 1 0-3.158c-.007-.1.012-.201.055-.292l.037-.038Zm-3.834-.043 1.905-.022c.55 0 1.1.004 1.65.01.095 0 .201-.037.28.055h-.01a.306.306 0 0 1-.227.079c-.547 0-1.091.03-1.636-.017a.258.258 0 0 1-.09-.055c-.527-.003-1.054-.005-1.582-.01-.097-.002-.2.029-.29-.04Zm-3.92.053a.07.07 0 0 0 .027-.008c.093.069.098.172.098.271.008 1.09.006 2.181 0 3.271a.389.389 0 0 1-.084.28h-.003a.118.118 0 0 1-.055-.115l.017-3.7Zm2.012 1.89v-.044l3.773.004a.066.066 0 0 1-.033.09.547.547 0 0 1-.264.048c-1.05.003-2.1.003-3.149 0-.12-.001-.243.009-.327-.097Z"/><path fill="#fff" d="M19.36 32.868h-.047l-.008-.06h1.909c.021-.023.04-.021.054.006-.07.088-.168.05-.253.051-.55.003-1.104.002-1.656.003Zm32.746-.06.055.005c-.042.066-.11.052-.17.052h-1.599c-.068 0-.148.024-.192-.06l1.906.003ZM38.614 52.094c.636.038 1.273.016 1.91.012.021.08-.04.06-.077.06h-1.678c-.062 0-.13.007-.155-.072Zm-9.63-1.897.003 1.91c.018.013.024.026.017.038-.007.013-.013.019-.02.019-.093-.08-.051-.186-.055-.28-.005-.544-.003-1.087-.005-1.63-.017-.013-.023-.025-.015-.036.007-.01.013-.016.02-.016l.004-.005a.367.367 0 0 0 .051 0Zm19.305-3.82.014 1.903c-.085-.024-.07-.095-.07-.156v-1.686c0-.046 0-.091.05-.116 0 .019.002.037.006.055Zm-30.886-5.804c-.004.554-.004 1.109-.013 1.662 0 .08.054.182-.055.242-.019-.009-.024-.018-.018-.026a.023.023 0 0 1 .018-.013v-1.83a.062.062 0 0 1 .021-.044c.012-.006.035.006.047.01ZM21.27 38.6c.638.005 1.276.026 1.914-.011a.074.074 0 0 1-.073.067c-.608.002-1.217.002-1.826 0-.007 0-.02-.009-.02-.014 0-.014.002-.028.005-.042Zm21.17 15.424a.178.178 0 0 1 .038 0c-.06.11-.165.055-.242.055-.554.008-1.109.008-1.663.01.024-.128.127-.057.184-.058.561-.009 1.122-.006 1.683-.007ZM30.898 44.4l-.01.055c-.553 0-1.106.003-1.66 0-.084 0-.184.04-.248-.055h1.918Zm17.33-7.717a.207.207 0 0 1 0-.041l.012-1.853a.214.214 0 0 0 .045-.009c.079.088.085.196.085.305.004.433.01.866-.004 1.298-.002.108.048.266-.138.3Z"/><path fill="#fff" d="m21.273 32.813-.055-.006c0-.553 0-1.106.01-1.66 0-.08-.054-.18.052-.241l-.007 1.907Zm26.956-3.835c.11.06.054.164.054.24.007.56.006 1.118.008 1.676-.104-.074-.055-.184-.055-.277-.008-.546-.007-1.092-.007-1.64ZM11.6 36.69v1.919c-.104-.074-.055-.184-.055-.274-.005-.547-.002-1.09-.002-1.634l.057-.01Zm15.41-5.796v-1.91a.144.144 0 0 1 .059.14v1.63c.001.055.001.11-.06.14Zm7.716-1.91-1.91.018-.008-.059.01-.012a.284.284 0 0 1 .088-.057c.539-.061 1.079-.025 1.619-.02.083 0 .186.006.201.13Z"/><path fill="#fff" d="M27.015 28.99h-1.91c.03-.019.055-.054.087-.054.579-.004 1.158-.004 1.737 0 .032 0 .059.035.086.054Zm-3.828 25.094c0-.018.002-.037.006-.055l1.899.005.012.038-1.917.012ZM21.21 42.446c0 .015.003.03.01.042-.555 0-1.11.004-1.664 0-.079 0-.181.06-.239-.054.015-.026.029-.025.043 0l1.85.012Zm5.806.048c-.555 0-1.11 0-1.665-.008-.08 0-.18.059-.242-.049.562 0 1.123-.003 1.685 0 .078 0 .167-.032.222.057Zm25.101 0h-1.914c.019-.017.038-.05.055-.05.598-.002 1.196-.002 1.795 0 .021 0 .041.033.064.05ZM46.32 27.066c.092.252.029.513.039.769.014.368.01.737.015 1.106-.121-.039-.048-.137-.049-.2-.009-.558-.005-1.118-.005-1.675ZM23.133 42.493c.109.059.05.16.054.238.007.558.006 1.115.008 1.673-.1-.076-.055-.184-.055-.278-.007-.545-.007-1.089-.007-1.633Z"/><path fill="#fff" d="M27.01 44.403V42.49a.146.146 0 0 1 .06.143v1.63a.146.146 0 0 1-.06.141Zm27.076-1.914v1.914a.143.143 0 0 1-.06-.142v-1.63c0-.056.005-.11.06-.142Zm-9.632-15.416-.037.004a.045.045 0 0 1-.023-.04c0-.017.005-.025.009-.025.558 0 1.116 0 1.674.006.081 0 .18-.048.247.049l-1.87.006Zm5.755 1.856h.045c.526 0 1.054 0 1.58.004.095 0 .203-.04.28.058-.555 0-1.11 0-1.663-.008-.08-.003-.182.054-.242-.054Zm-21.28 17.433-1.871.01-.003-.026c.625-.034 1.25-.062 1.875.016Zm.055 5.802.003-.055h1.907c-.055.09-.145.06-.222.06l-1.688-.005Zm15.422-3.875h-1.914a.119.119 0 0 1 .114-.054h1.687a.122.122 0 0 1 .113.054ZM28.93 50.202a.497.497 0 0 1-.003.055h-1.854a.476.476 0 0 0-.003-.055h1.86Zm7.754-1.974h-.041c0-.547-.004-1.09 0-1.634 0-.076-.034-.164.052-.225-.005.62-.008 1.24-.011 1.86Zm-19.347-5.79v.039c-.62.02-1.24.023-1.86 0 .282-.09.571-.028.857-.038.336-.013.67-.002 1.003 0Zm2.023-.004h-.043l-.012-1.86c.095.067.055.165.055.252.004.536 0 1.07 0 1.608Zm1.86-21.16c-.547-.004-1.094-.006-1.644-.013-.084 0-.18.039-.253-.041.03-.543.017-1.087.007-1.63-.004-.231.078-.309.296-.307.398.004.797 0 1.196 0 .11 0 .219.017.308-.068.079-.082.069-.184.069-.283V15.85c0-.1.01-.202-.069-.282-.09-.085-.202-.066-.31-.066h-1.141c-.115 0-.24.02-.331-.081-.025-1.258-.009-2.512-.009-3.768 0-.016.015-.033.023-.049.57-.004 1.14-.004 1.709-.015.16-.004.197.058.196.206-.004.57 0 1.14.005 1.71.17.082.35.028.526.033.388.01.777.006 1.165 0 .073 0 .164.045.223-.043-.005-.572-.013-1.144-.014-1.716-.003-1.236-.003-2.472 0-3.707 0-.1.011-.199.017-.298.637-.06 1.275-.028 1.914-.016.102.103.085.235.086.36.005.363 0 .727.003 1.09.004.305.027.329.324.334.39.005.782-.004 1.172.004.383.007.473.088.467.47-.006.507.05 1.016-.033 1.522a.176.176 0 0 1-.067.076l-.049.012c-.508-.014-1.017-.003-1.527-.006-.1 0-.204-.012-.261.1-.037.134-.025.273-.025.408v6.682c0 .153.02.31-.048.456l-.036.04-1.909.006c-.07.088-.034.192-.034.288-.003 1.08 0 2.16 0 3.24 0 .099.017.2-.017.297-.62.049-1.242.025-1.863.012-.068-.346-.013-.697-.032-1.044-.02-.279.03-.557-.034-.832Zm-7.707 11.535c-.407.048-.817.018-1.225.02-.865.004-1.73 0-2.593-.004-.065-.069-.036-.155-.036-.234V21.483c0-.071-.014-.146.022-.214h-.004c.622-.042 1.243-.026 1.864-.008.067.547.009 1.094.032 1.64.004.094-.049.199.04.28.58-.005 1.159-.008 1.738-.017.128 0 .174.043.173.173-.009.588-.01 1.175-.014 1.764l-.037.034c-.236.087-.481.034-.722.047-.35.02-.7-.036-1.047.034a.163.163 0 0 0-.08.135c.006.517-.034 1.035.022 1.55a.36.36 0 0 0 .058.063 9.1 9.1 0 0 0 1.704 0 .393.393 0 0 0 .055-.068c.058-.475.01-.951.026-1.426.004-.124-.022-.254.075-.36l1.86-.004c.063.412.008.826.029 1.238.01.223-.036.449.027.67.378.07.759.011 1.138.03.244.013.492-.029.731.026.03.621.026 1.243 0 1.864-.124.106-.273.071-.417.072-1.616.003-3.231.003-4.847 0-.117 0-.236-.017-.35.022a.397.397 0 0 0-.07.055c-.09.154-.04.322-.044.483-.008.318-.003.637 0 .956 0 .099-.018.206.098.262.455.054.91.014 1.367.023.47.01.513.049.516.518v1.094c0 .118.008.238-.049.349l-.04.04Zm17.386-11.53-.01 1.86c-.094.047-.196.023-.295.023-1.089 0-2.178 0-3.268.004-.086 0-.18-.038-.26.031-.004.518-.024 1.04-.007 1.554.01.274-.047.38-.348.364-.535-.028-1.073-.007-1.61-.007l.01-5.746c.097-.092.219-.072.337-.073.508-.005 1.018.005 1.527-.007l.051.003c.033.01.062.031.08.06.103.431.025.87.05 1.304.01.161-.035.328.055.48.096.1.219.07.335.07h2.993c.123 0 .257-.029.36.08Z"/><path fill="#fff" d="M19.355 15.418c.527 0 1.053 0 1.58.008.097 0 .201-.031.288.044l-.035.039c-.117.067-.246.054-.373.054-.383.004-.765.005-1.144 0-.196 0-.28.08-.279.274.003.309 0 .618 0 .927v2.126c0 .126.012.255-.047.375l-.035.038h-1.918l.005.005-.008-1.903c-.035-.061-.095-.04-.145-.04-.589.007-1.178-.019-1.766.012-.106-.157-.04-.332-.045-.498-.011-.399.008-.798-.008-1.196-.008-.209.066-.26.265-.258 1.206.007 2.413.003 3.62.003.008-.028.024-.03.045-.01Zm-1.977-5.787c-.04.074-.109.049-.17.049-.519 0-1.039-.004-1.557.003-.159 0-.226-.04-.225-.213.005-1.82 0-3.641.003-5.462 0-.044-.005-.091.042-.12.623-.04 1.248-.043 1.87-.007.043.096.022.197.022.296v5.155c-.008.1-.003.2.015.299Zm-1.902 17.38c-.09-.079-.054-.185-.054-.28v-1.627c0-.565.012-1.13 0-1.696-.004-.193.059-.246.247-.244 1.14.007 2.278.007 3.416 0 .182 0 .231.055.227.232-.01.492-.013.985 0 1.477.006.202-.067.236-.25.235-1.11-.008-2.222.002-3.335-.01-.219-.003-.274.066-.266.274.022.547.015 1.093.015 1.64Zm3.832 5.802c-.639.031-1.278.03-1.917-.004l-.035-.04a.423.423 0 0 1-.047-.21c0-1.164-.02-2.326.01-3.49a.348.348 0 0 1 .039-.097l.032-.041c.636.034 1.272.017 1.909.008.017.008.024.017.02.028s-.01.018-.014.018l.003 3.828ZM5.791 38.66c.003.58.005 1.163.011 1.744 0 .107-.02.168-.148.168-1.218-.004-2.436-.004-3.654-.007-.022 0-.043-.028-.064-.043.025-.527 0-1.054.012-1.58 0-.098-.028-.2.03-.293 1.27-.015 2.542-.034 3.813.01Zm11.585-17.44c-.292.098-.591.026-.887.04-.295.013-.582.002-.875.002-.096 0-.187-.004-.186-.136 0-.591.005-1.182.01-1.773 0-.011.024-.023.037-.034.523.035 1.046.005 1.568.016.099 0 .199-.017.296.018.054.505.008 1.01.023 1.515-.005.117 0 .235.014.352ZM3.888 25.104c.547 0 1.094-.003 1.636 0 .075 0 .165-.043.224.047.055.484.01.97.025 1.456.004.134-.012.27.011.404-.255.091-.518.03-.776.037-.372.013-.745.005-1.118.006a13.355 13.355 0 0 1-.002-1.95Zm7.714-7.766c-.005-.58-.006-1.162-.014-1.742 0-.134.05-.17.176-.17a75.65 75.65 0 0 0 1.58 0c.126 0 .18.035.178.169-.009.58-.01 1.161-.015 1.742-.634.044-1.27.044-1.905.001Zm5.734-3.831c-.58.004-1.162.006-1.742.015-.134 0-.17-.055-.168-.178.004-.526.004-1.053 0-1.58 0-.126.035-.179.169-.176.58.008 1.161.01 1.742.014.043.634.043 1.27-.001 1.905Zm-9.62 21.217v-1.681c0-.074-.045-.164.048-.22.527.04 1.055.006 1.586.02.098 0 .2-.028.293.029.03.572.006 1.143.014 1.715 0 .085 0 .168-.121.163-.608-.014-1.215.037-1.82-.026Zm3.878-13.51.01-1.854c.635-.043 1.271-.043 1.905 0 .018.62.033 1.24-.007 1.86-.636.046-1.273.044-1.908-.005Zm9.64 5.856c.048.62.048 1.24 0 1.86-.625.05-1.25.031-1.874.008a15.505 15.505 0 0 1-.005-1.872c.626-.04 1.253-.038 1.879.004ZM7.727 34.787l-.013 1.846c-.634.047-1.271.049-1.906.005-.012-.62-.027-1.24.007-1.859.638-.036 1.275-.056 1.912.008Zm-3.899-9.685-1.86-.008a15.738 15.738 0 0 1 0-1.9l.017-.019 1.846.01c.066.432.015.867.028 1.3.006.19.005.382 0 .57l-.03.047Zm1.914 7.713-1.845.008c-.075-.054-.083-.136-.084-.218a60.999 60.999 0 0 1 0-1.484.308.308 0 0 1 .076-.224l1.86.007c.043.636.04 1.275-.007 1.91Z"/><path fill="#fff" d="m7.727 34.787-1.914-.01c.148-.093.312-.038.468-.041.477-.012.955-.01 1.433-.014.552 0 1.105-.008 1.658.005.206.005.263-.062.258-.263-.013-.534-.006-1.07-.008-1.603-.017-.013-.022-.025-.015-.035.007-.01.013-.015.02-.015l.007-4.072v-7.16c0-.103-.044-.218.04-.312 0 3.725.002 7.45.004 11.175 0 .127.007.254.01.382-.004.571-.015 1.142-.007 1.713 0 .19-.055.248-.246.246-.566-.007-1.137.004-1.708.004ZM21.222 1.975c.087.08.05.187.05.282.005.526 0 1.051.004 1.577.02.013.025.025.019.037-.007.012-.014.017-.02.017l-.013 5.434c0 .106.037.22-.035.318l-.038-.036c-.078-.145-.055-.302-.055-.455V4.512c0-.09-.003-.182 0-.273.004-.183-.08-.262-.264-.262h-1.172a.896.896 0 0 1-.298-.03.346.346 0 0 1-.088-.054l-.009.01a.039.039 0 0 1-.012-.038c.003-.013.006-.02.01-.02l.011-.013c.11-.092.24-.078.366-.08.382-.002.765 0 1.148 0 .285-.003.307-.025.31-.317.005-.364 0-.729 0-1.093 0-.134-.008-.265.086-.367ZM17.378 9.63c-.05-.052-.04-.118-.04-.18V4.005a.912.912 0 0 1 .013-.11c.007-.024.02-.028.038-.009l.002 5.58c0 .055-.008.11-.012.165Z"/><path fill="#fff" d="M19.308 3.889a.043.043 0 0 0 .04.01c.11.096.1.228.1.354.002 1.679.002 3.358 0 5.038a.65.65 0 0 1-.044.293.071.071 0 0 1-.089.04l-.007-5.735ZM3.888 25.104v1.95l-.012 3.789c-.013.025-.028.025-.042 0L3.83 27.07v-.051c.023-.64.029-1.28-.003-1.919l.012-.005c.016-.018.03-.016.04.006l.01.003ZM21.273 3.885v-.054H23.181c1.276.024 2.554.024 3.832 0 .015.008.02.017.016.027-.004.01-.008.015-.012.015l-3.463.01c-.127 0-.253.008-.382.012-.631-.002-1.264-.005-1.899-.01Z"/><path fill="#fff" d="M3.836 30.843h.042l.01.055.009 1.924-.026 1.901a.289.289 0 0 0-.038-.002c-.082-.087-.085-.198-.085-.307 0-.507-.01-1.014.004-1.521v-.106c-.014-.527-.004-1.055-.004-1.583 0-.11.006-.219.084-.309a.45.45 0 0 1 .004-.052Zm1.955 7.817-3.815-.005v-.035l3.736-.012c.038 0 .07.007.079.052Zm11.6-34.771a.074.074 0 0 1-.04.01l-1.88-.01c.3-.084.608-.023.911-.039.334-.017.67.026 1.003-.023l1.914.014.003.055-1.912-.007Zm.006 48.225c-.106-.085-.055-.203-.055-.305-.004-1.174-.004-2.349-.004-3.523.117.068.054.18.054.267.004 1.187.003 2.374.005 3.561Zm1.958-36.695a.17.17 0 0 0-.047.01v-3.616c0-.07-.05-.164.052-.211 0 1.272-.002 2.544-.005 3.816Zm-7.761 5.796 1.908.005c-.15.094-.313.038-.469.041-.478.012-.958.01-1.436.014-.014.025-.03.028-.048.003l-1.87-.008c.068-.093.167-.047.251-.047.552-.007 1.106-.006 1.664-.008Zm11.545 1.919-.004-3.632c0-.068-.025-.15.062-.192l-.009 3.525c0 .1-.01.199-.014.298h-.035Zm-1.928-3.812c-.438.087-.884.026-1.326.036-.524.012-.515.003-.527.534-.01.443.052.887-.037 1.328l-.012-1.914-.005.005a.266.266 0 0 1 .171-.078c.553-.006 1.106-.044 1.659.022.032.013.06.036.077.067Zm1.973-5.829a.073.073 0 0 1-.073.067c-.609.002-1.218.002-1.827 0-.008 0-.02-.01-.02-.015 0-.015.002-.03.006-.044l1.914-.008Zm-5.848.014v-1.905c.044.006.054.037.054.075v1.754c0 .039-.009.07-.054.076ZM5.808 36.64l1.907-.005c0 .02 0 .04.002.061-.557 0-1.115 0-1.672-.007-.078 0-.179.06-.237-.05Zm-.066-3.826c0-.636.001-1.272.004-1.909.044.007.054.038.054.077v1.728c0 .044.002.091-.058.104Z"/><path fill="#fff" d="M1.976 38.62a.194.194 0 0 1 0 .035c0 .535 0 1.07-.004 1.604 0 .088.025.182-.036.263l-.015-1.823a.07.07 0 0 1 .055-.08Zm17.383-9.693 1.877.003c-.065.099-.164.05-.247.052-.56.004-1.122.003-1.682.003a.131.131 0 0 0-.007-.046l.013-.009c.012-.027.027-.027.047-.003Zm-.043-19.304h.037a.228.228 0 0 1 .095-.051 9.804 9.804 0 0 1 1.676 0 .17.17 0 0 1 .092.054l.012.014c-.179.092-.37.037-.555.041-.372.01-.744.007-1.115 0-.08-.004-.183.052-.242-.058Zm-5.808 9.738h-1.905c.006-.044.036-.055.075-.055h1.754c.039 0 .069.01.076.055Zm11.59-11.59h-1.91c.054-.109.16-.054.238-.054.56-.005 1.119 0 1.678 0l-.005-.003c.016.013.02.025.015.038-.005.012-.012.02-.016.02ZM17.376 21.22c-.083-.356-.023-.716-.036-1.074-.01-.261 0-.524 0-.785-.019-.01-.025-.02-.019-.031.006-.01.012-.016.019-.016l.059-.006-.005-.005-.018 1.917Zm9.64-1.91c-.06.084-.149.05-.225.05H25.11l-.005-.054-.003.005a.358.358 0 0 1 .25-.088c.472-.007.943-.007 1.415 0 .09 0 .183.01.249.088ZM1.914 17.393c.1.076.055.184.058.277.004.544 0 1.088 0 1.631-.11-.06-.051-.164-.055-.242-.003-.555-.003-1.11-.003-1.666Zm19.32 9.678-1.878.003c-.014.024-.027.023-.04 0a6.63 6.63 0 0 1 1.918-.003Zm-3.889.006c-.53 0-1.06 0-1.59-.005-.093 0-.2.038-.277-.055.553 0 1.107 0 1.66.005.08 0 .183-.055.242.055h-.035ZM19.3 52.168c-.543 0-1.087 0-1.63-.003-.094 0-.203.041-.278-.059.555 0 1.11 0 1.666.01.083 0 .182-.056.242.052Zm-5.738-27.06v1.657c0 .084.042.184-.054.248-.144-.63-.126-1.26-.008-1.891.006-.035 0 .01.015-.022l-.005.003.052.004Zm-9.679-.006a.168.168 0 0 1-.041-.006l-.013-1.91c.097.038.055.123.055.187.004.576-.001 1.153-.001 1.73Zm19.256-1.968h.035c-.018.054-.065.054-.11.054l-1.786-.012v-.036l1.861-.006Zm-7.662-5.756c.482-.09.97-.026 1.454-.035.15-.002.323-.082.456.063l-1.91-.028Zm-3.875-.04h1.906c-.008.015-.015.044-.023.044-.62.002-1.24.002-1.86 0-.008 0-.015-.029-.023-.044Z"/><path fill="#fff" d="M21.28 23.139v.036c-.105-.061-.054-.164-.054-.245-.006-.552-.004-1.104-.005-1.657.094.08.055.187.055.281l.004 1.585Zm-9.734-1.86.049-.003.018 1.91c-.11-.04-.068-.136-.068-.207-.003-.568 0-1.134.001-1.7Zm-5.762 5.733c-.082-.356-.023-.717-.036-1.075-.009-.262 0-.524 0-.786a.081.081 0 0 1 .052.086l-.016 1.775Zm11.562.064a.146.146 0 0 0 .035 0l.01 1.86-.011-.004-.02.019-.019-.019.005-1.856Zm1.97 0a.236.236 0 0 0 .04 0v1.854c-.016 0-.032 0-.047.003l.007-1.857Zm-1.98-7.762a.335.335 0 0 0 0 .047h-1.6c-.087 0-.182.032-.26-.04l1.86-.007ZM9.629 32.813c0 .016-.003.033-.004.05-.552 0-1.103 0-1.654.002-.071 0-.147.015-.206-.043l1.864-.009ZM38.6 19.311c-1.581 0-3.163-.003-4.744.004-.332 0-.77-.147-.968.062-.197.209-.04.64-.057.975-.015.29.03.58-.026.868-.639.043-1.28.044-1.919.004-.089-.11-.076-.24-.076-.366-.002-1.685-.002-3.37 0-5.055 0-.402.062-.465.458-.465.482 0 .965-.022 1.446.014.125-.045.072-.153.073-.232.006-.415 0-.83.004-1.244 0-.115-.016-.237.075-.334.106-.068.225-.052.341-.054.405-.003.81-.003 1.216 0 .098 0 .2-.01.288.05.077.104.034.225.04.338.024.516-.044 1.034.037 1.55 1.193 0 2.386.006 3.579 0 .207 0 .264.054.258.26-.015.492 0 .984-.008 1.476 0 .164.042.227.215.224.5-.01 1.001-.01 1.502 0 .164.003.199-.062.197-.21-.007-.5 0-1.001-.005-1.502 0-.164.026-.25.221-.246.528.011 1.057.004 1.586.004.052 0 .11-.014.143.048-.03.616-.006 1.23-.013 1.845 0 .033.022.047.04.066 1.182 0 2.365-.01 3.547-.004.209 0 .285-.044.276-.268-.018-.481 0-.964-.008-1.446-.003-.164.029-.246.219-.245 1.8.006 3.602.004 5.403.004.103 0 .212-.01.209.141-.014.589.039 1.178-.03 1.766-.093.055-.195.026-.293.026-1.084.003-2.168 0-3.252.004-.097 0-.2-.032-.292.03l.007-.005c-.072.284-.018.572-.033.858-.018.35.031.701-.027 1.05-.527.005-1.054.024-1.58.005-.253-.009-.303.077-.294.307.018.454-.006.91.01 1.363.008.225-.058.295-.288.294-1.727-.01-3.455-.006-5.182-.005-.11 0-.219.01-.328.015-.055.516-.009 1.033-.025 1.549-.003.11.025.219-.025.322a.301.301 0 0 1-.203.059 80.39 80.39 0 0 1-1.457 0 .291.291 0 0 1-.202-.061c-.045-.096-.023-.198-.023-.296 0-1.084 0-2.167-.002-3.25.003-.1.038-.204-.03-.293Z"/><path fill="#fff" d="M40.518 23.131c0-.523 0-1.047.005-1.57 0-.095-.037-.2.048-.283 0 .565.005 1.128-.004 1.693 0 .155.049.201.202.201.554 0 1.108.01 1.663.016.054.64.034 1.281.01 1.923a.265.265 0 0 1-.173.068c-.517.02-1.034.016-1.55.003-.173-.005-.274-.1-.274-.274-.006-.56-.042-1.123.02-1.684a.415.415 0 0 1 .053-.093Zm3.885 3.881.013.065-.012-.01a.328.328 0 0 1-.223.084 29.09 29.09 0 0 1-1.515-.004.324.324 0 0 1-.154-.046.209.209 0 0 1-.069-.08c-.054-.626-.078-1.251.012-1.876l.033-.041h1.918l-.004-.005.001 1.913Zm.058-3.824c.582-.006 1.164-.011 1.746-.02.12 0 .158.055.157.165 0 .537-.005 1.074 0 1.611 0 .147-.073.16-.188.159-.573-.006-1.148-.007-1.72-.01a13.396 13.396 0 0 1 .005-1.905Zm-9.673-7.76c-.13-.026-.055-.128-.058-.186-.01-.56-.008-1.12-.008-1.68a.303.303 0 0 1-.055-.087c-.036-.613-.062-1.225.014-1.837a.096.096 0 0 1 .083-.054l.02 1.935.004 1.909Zm13.495 1.968c.085-.106.203-.054.304-.054 1.178-.005 2.356-.003 3.534-.004-.07.11-.181.055-.273.055-1.186.003-2.376.003-3.565.003Zm1.926 1.962c.04-.1.126-.05.187-.05 1.21-.002 2.42-.002 3.63 0l-.006.015a.084.084 0 0 1-.05.083.612.612 0 0 1-.268.04 757.97 757.97 0 0 1-3.163 0 .742.742 0 0 1-.242-.027.252.252 0 0 1-.088-.06ZM36.695 11.6c.029-.019.055-.055.086-.055.583-.003 1.165-.003 1.745 0 .029 0 .055.035.085.055h-1.916Z"/><path fill="#fff" d="M48.231 19.3c0-.544-.002-1.088 0-1.632 0-.093-.042-.201.055-.277 0 .556 0 1.112-.008 1.668.003.079.063.181-.047.241Zm-11.59-5.793v-1.663c0-.084-.043-.185.054-.249 0 .558 0 1.116-.007 1.674.001.08.062.18-.047.238Zm1.962-1.911c.1.075.054.184.054.277.005.544.003 1.089.003 1.634-.11-.058-.05-.16-.055-.238-.002-.558 0-1.116-.002-1.673Zm5.858 11.592-.003 1.908h-.055l.004.005c0-.569-.003-1.137 0-1.706 0-.067-.051-.16.054-.207Zm-2.024 1.909-.003-1.909c.105.047.055.14.055.21.004.568 0 1.137 0 1.706l.003-.005a.03.03 0 0 1-.012.01.03.03 0 0 1-.016.004.031.031 0 0 1-.027-.016Zm.065-7.709c-.07-.019-.066-.077-.066-.13v-1.682a.3.3 0 0 1 .038-.098l.028 1.91Zm7.707 1.97c.016 0 .032.003.047.009.13.27.121 1.604-.011 1.845a.182.182 0 0 0-.03.007l-.006-1.86ZM38.664 5.795c.112-.093.246-.05.367-.045.496.018.994-.059 1.488.039l-1.855.006Z"/><path fill="#071E44" d="M44.41 6.756c0-1.512.005-3.024-.004-4.536 0-.219.062-.273.273-.273 3.034.006 6.067.006 9.1 0 .219 0 .274.064.274.276-.007 3.033-.007 6.067 0 9.1 0 .219-.066.273-.278.273-3.033-.006-6.067-.006-9.1 0-.218 0-.273-.061-.273-.273.012-1.524.009-3.046.009-4.567ZM1.952 49.213c0-1.503.004-3.008-.004-4.509 0-.211.034-.3.277-.299 3.033.008 6.066.008 9.1 0 .219 0 .27.063.27.273-.007 3.034-.007 6.068 0 9.1 0 .22-.063.274-.274.274a2123.34 2123.34 0 0 0-9.1 0c-.218 0-.273-.065-.273-.277.008-1.52.004-3.04.004-4.562ZM6.757 11.59c-1.513 0-3.025-.004-4.536.005-.219 0-.274-.06-.274-.273.007-3.034.007-6.067 0-9.1 0-.219.063-.274.274-.274 3.033.007 6.066.007 9.1 0 .218 0 .273.065.273.277-.007 3.034-.007 6.067 0 9.1 0 .219-.06.274-.274.274-1.52-.013-3.042-.009-4.563-.009Z"/><path fill="#fff" d="M28.937 5.793a.354.354 0 0 0 .047.01c.573 0 1.146 0 1.719-.009.155 0 .2.044.199.2-.007.572 0 1.147 0 1.718.359.068.721.017 1.082.03.263.008.527 0 .79.004a.11.11 0 0 1 .08.059c.093.405.033.815.042 1.223.012.513.003.513.508.514h2.867c.143 0 .294-.024.42.078-.085.11-.203.059-.306.06-1.173.004-2.346.006-3.518.006a.371.371 0 0 1-.094.054.836.836 0 0 1-.27.028c-1.045 0-2.09.003-3.136 0-.448 0-.522-.076-.524-.527a535.943 535.943 0 0 1 0-3.053c0-.135-.012-.274.088-.39l.006-.005Z"/><path fill="#071E44" d="M36.69 9.621c-1.236.005-2.472.01-3.707.018-.176 0-.151-.113-.152-.219l-.016-1.634a.164.164 0 0 1 .09-.116c.429-.08.862-.019 1.294-.039.143-.006.29.023.425-.041.098-.07.078-.176.079-.274v-1.19c0-.098-.01-.199.04-.291a.11.11 0 0 1 .077-.059c.605.009 1.21-.025 1.815.019.096.078.049.187.049.28.006 1.181.005 2.364.006 3.546Zm-1.912-7.646c.47-.05.94-.018 1.41-.02.804 0 1.61.009 2.415.014.047.622.049 1.247.006 1.87-.234.043-.471.017-.707.018-.974.004-1.948 0-2.923.005-.176 0-.239-.045-.23-.228.026-.554-.027-1.109.029-1.66Z"/><path fill="#fff" d="M34.778 1.975v1.66c0 .109-.025.218.153.215 1.223-.01 2.447-.014 3.671-.02.017.01.024.02.021.033-.003.013-.006.02-.01.02-1.184 0-2.367.01-3.55 0-.226 0-.298.06-.29.289.018.527.01 1.055.013 1.583.013.012.016.024.01.033-.007.01-.012.014-.017.014h.002l-.033.018-.03-.023.006-1.914c-.02-.011-.028-.023-.022-.036.007-.012.013-.018.02-.018 0-.526 0-1.052.003-1.577.002-.093-.035-.199.053-.277Z"/><path fill="#fff" d="M34.726 3.834v.055h-3.605c-.07 0-.164.054-.215-.055h3.82Zm3.888.047a.167.167 0 0 0-.01-.055v-1.86c.055-.027.059.013.059.048v1.775c-.005.031-.033.061-.049.092Zm-3.85 7.702a.066.066 0 0 0-.042.016.173.173 0 0 1-.092.055c-.578.035-1.156.072-1.732-.021a.063.063 0 0 1-.038-.063c0-.009.003-.017.007-.025h1.664c.079 0 .165-.03.234.038Z"/><path fill="#fff" d="M32.867 11.545v.046a.08.08 0 0 1-.09-.037c-.1-.282-.039-.574-.05-.861-.01-.244-.005-.489 0-.733a.43.43 0 0 1 .08-.28l.06.006v1.859Zm-.059-9.634v.06h-1.904c.06-.11.161-.05.241-.051.556-.007 1.11-.007 1.663-.01Zm1.973 3.892c0-.016.005-.032.007-.047l1.674-.008c.062 0 .127-.008.175.048l-1.856.007Zm15.417 46.31c0 .014-.002.03-.005.045l-1.908.011c.06-.109.16-.054.24-.054.558-.005 1.115-.003 1.673-.003Zm-.001-1.917.054.01a.262.262 0 0 1 .058.09c.06.53.02 1.06.022 1.592a.267.267 0 0 1-.09.219c-.015 0-.029.003-.042.006 0-.639 0-1.277-.002-1.917Z"/><path fill="#071E44" d="M32.808 9.679v1.92a1.3 1.3 0 0 0-.037.034c-.383.1-.776.037-1.163.045-.703.015-.62-.059-.625.633-.003.28.005.562 0 .843-.005.2.084.273.277.273.383-.003.762 0 1.143 0 .127 0 .255-.01.376.042a.113.113 0 0 1 .06.079v1.62c0 .086.032.18-.033.26-.535 0-1.072.017-1.607-.006-.264-.011-.306.084-.305.32.01 1.825.005 3.65.006 5.476-.047.038-.103.029-.157.029h-3.515a.262.262 0 0 1-.159-.026 21.067 21.067 0 0 1 0-1.914l.036-.035c.219-.09.446-.037.669-.05.35-.02.703.04 1.05-.038.08-.052.082-.133.082-.216v-1.243c0-.083 0-.164-.084-.214-.554-.048-1.107-.07-1.658.015-.09.076-.073.18-.073.279v1.168c0 .116.015.238-.08.333l.005.005h-1.914c0-2.57 0-5.141.003-7.711a13.35 13.35 0 0 1 1.914-.004l-.006.003c.11.113.08.255.08.388v2.998c0 .11-.019.22.034.32.054.077.134.09.218.09.438.003.875.003 1.313 0 .083 0 .164-.01.218-.085.05-.095.032-.197.032-.295v-2.959c0-.114.031-.239-.076-.328-.164-.082-.34-.036-.508-.047-.405-.027-.813.055-1.214-.052l-.035-.036c-.007-.554-.024-1.11-.016-1.664.003-.219-.048-.306-.285-.296-.473.018-.947-.007-1.422.01-.212.008-.257-.063-.253-.261.012-.537 0-1.075 0-1.612v-.055c.602.006 1.199.01 1.798.02.173 0 .155-.11.155-.22 0-.492.01-.984-.004-1.473-.006-.194.055-.245.245-.24.547.012 1.094.004 1.637.004l.018 2.643c0 .328.011.656-.004.985-.01.197.06.252.264.252 1.198-.011 2.401-.007 3.6-.007Z"/><path fill="#fff" d="M27.02 3.876a.279.279 0 0 0-.004-.043l-.005-1.866c.082-.02.059.045.059.08v1.684c0 .054.007.11-.05.145Zm7.702 3.84c-.616.03-1.233.021-1.85.006-.071-.285-.029-.573-.029-.86 0-.35-.035-.702.022-1.051l1.856-.01.008.007c.04.636.038 1.274-.007 1.909Z"/><path fill="#fff" d="m32.867 5.808.007 1.912-.057.065a.06.06 0 0 0-.008-.043l.006-.02c0-.568-.003-1.135 0-1.703-.003-.07-.049-.161.052-.21Z"/><path fill="#fff" d="m32.812 7.721-.006.022c-.615.054-1.23.02-1.845.017-.02 0-.04-.032-.061-.048l1.912.01Z"/><path fill="#071E44" d="M21.222 1.975c0 .543-.009 1.086 0 1.629.003.18-.03.256-.233.25-.56-.02-1.121-.018-1.682-.024 0-.556.003-1.112 0-1.667 0-.119 0-.215.164-.21.586.013 1.17-.028 1.75.022ZM54.046 52.11H52.35c-.098 0-.204.024-.2-.139.01-.59.013-1.182.02-1.773.555 0 1.11.008 1.665 0 .17 0 .219.054.216.218-.009.565-.005 1.13-.005 1.694Z"/><path fill="#fff" d="m52.112 50.197-.005-1.909a.277.277 0 0 1 .055 0v1.904a.189.189 0 0 1-.05.005ZM1.97 23.193l.004 1.9c-.109-.06-.05-.164-.05-.24-.007-.556-.005-1.11-.006-1.665.017 0 .034.002.052.005Z"/><path fill="#071E44" d="M3.831 30.896c.03.64.026 1.28 0 1.92a.297.297 0 0 1-.2.069c-.53-.004-1.061.025-1.592-.017a.18.18 0 0 1-.085-.058c0-.638-.03-1.275.018-1.914h1.86Z"/><path fill="#fff" d="m1.926 30.9-.012-1.917c.066.04.06.106.06.169l-.011 1.736-.037.012Zm52.099-11.542c0-.012 0-.023-.005-.035l.055-.019.006 1.914a.24.24 0 0 0-.05-.006.328.328 0 0 1-.09-.248 39.755 39.755 0 0 1 0-1.355.374.374 0 0 1 .084-.25ZM1.973 34.723H1.92l-.013-1.914a.09.09 0 0 0 .049-.003l.014.009a.288.288 0 0 1 .059.088c.06.539.022 1.08.021 1.62a.284.284 0 0 1-.076.2Zm48.23 13.508c0-.62-.001-1.24-.004-1.86.538 0 1.076.008 1.613-.005.219-.005.313.055.306.293-.017.527-.012 1.056-.016 1.586-.631.011-1.264.038-1.899-.014Z"/><path fill="#fff" d="m50.203 48.23 1.899.014a.148.148 0 0 0 .01.04l-1.915.004.006-.057Zm.04 3.876.01-1.852c.618-.054 1.235-.029 1.852-.012.003.561.004 1.123.012 1.684 0 .14-.051.193-.191.19-.561-.007-1.121-.007-1.684-.01Z"/><path fill="#fff" d="m52.105 50.242-1.851.013v-.048l1.86-.006-.009.041Zm1.92-30.884.008 1.855h-3.788l.01-1.845 3.77-.01ZM1.973 34.723v-1.86a13.952 13.952 0 0 1 1.856 0l.003 1.86H1.973Zm32.754-5.739c-.08-.092-.187-.054-.282-.054-.526-.005-1.053-.003-1.58-.004-.038-.619-.04-1.24-.005-1.859.097-.043.198-.021.297-.021 1.081 0 2.163 0 3.245-.004.096 0 .2.039.288-.036 0-.535-.012-1.07.004-1.605.008-.23-.04-.307-.292-.304-1.179.013-2.357 0-3.536-.003a13.359 13.359 0 0 1 .004-1.906c.543-.006 1.087-.02 1.63-.014.193 0 .241-.06.243-.247.004-.551-.042-1.103.024-1.652.621-.052 1.244-.025 1.866-.015.074.304.017.614.032.92.017.318-.027.637.025.953.375.084.756.015 1.133.036.262.015.526-.026.787.023l.035.04c.064.127.049.264.049.4v2.91c0 .126-.02.255.048.372.091.11.219.079.332.08h3.002c.126 0 .258-.024.368.065a.31.31 0 0 1 .061.178c.008.519.013 1.04 0 1.555a.252.252 0 0 1-.042.129c-.09.097-.213.081-.328.082-.378.004-.755 0-1.133 0-.106 0-.22-.023-.297.082-.088.514-.03 1.03-.034 1.545 0 .165.13.175.252.177.383.006.763 0 1.143.003.135 0 .274-.015.391.08.055.08.055.172.055.263.002.464.002.928 0 1.393 0 .09 0 .182-.055.263a.244.244 0 0 1-.171.073c-.572.008-1.144.047-1.715-.02-.104.225-.037.464-.047.696-.012.31-.01.62 0 .93.007.175-.045.242-.23.239-.546-.012-1.093-.008-1.64-.01-.045-.55-.005-1.102-.021-1.653-.003-.083.047-.181-.045-.25l-3.798.01c-.072-.089-.035-.193-.035-.288-.004-1.088 0-2.176-.004-3.264 0-.097.031-.2-.03-.291l.006.003Z"/><path fill="#fff" d="M34.721 28.983c.101.087.055.204.055.307.007 1.178.011 2.357.013 3.536l-.028 1.898a.084.084 0 0 1-.08-.05c-.073-.591-.052-1.183-.013-1.775a.361.361 0 0 1 .055-.086c0-1.276 0-2.553-.002-3.83Z"/><path fill="#fff" d="M34.727 34.722h.038a.11.11 0 0 1-.113.055h-1.719c-.045 0-.091-.004-.11-.058a.234.234 0 0 1 .089-.054c.538-.052 1.076-.02 1.614-.018a.29.29 0 0 1 .2.075Zm3.862-1.904c.101.03.072.116.072.183 0 .573-.004 1.148-.006 1.72h-.036l-.03-1.903Zm-3.862-.005c0 .017 0 .034-.003.051a.283.283 0 0 1-.196.08c-.538 0-1.076.035-1.614-.018a.218.218 0 0 1-.087-.06c.055-.097.146-.052.22-.055l1.68.002Z"/><path fill="#fff" d="M32.826 32.866h.034a.383.383 0 0 1 .091.273c.005.435.005.869 0 1.302 0 .101-.014.2-.091.274h-.036c-.02-.612-.023-1.23.002-1.85Zm-3.842-5.81-.042-.042c0-.563.01-1.127 0-1.69-.002-.182.055-.23.233-.226.508.012 1.018.01 1.526 0 .156 0 .201.043.199.199a39.642 39.642 0 0 0 0 1.553c.004.185-.076.205-.227.204-.56-.005-1.125 0-1.689.001ZM27.07 21.22l3.828-.003h1.908c-.13.094-.277.038-.415.042-.497.012-.994.01-1.492.015-1.172 0-2.345-.001-3.518-.004-.106.001-.222.044-.31-.05Zm9.62 5.785c-.08.116-.2.061-.3.061-1.177.006-2.352.005-3.53.006h-.034c.072-.109.182-.054.273-.054 1.196-.008 2.393-.01 3.59-.013Zm-9.625-3.813c.029-.119.125-.054.183-.054 1.213-.005 2.427-.003 3.64 0-.071.112-.182.048-.27.049-1.184.005-2.369.005-3.553.005ZM38.6 19.31c.104.061.06.165.06.247.002 1.192.002 2.384 0 3.576a.026.026 0 0 1-.01.01.026.026 0 0 1-.026 0 .027.027 0 0 1-.01-.01l-.014-3.822Zm-5.733 3.877c0 .636-.001 1.271-.004 1.907-.017-.017-.048-.033-.048-.05-.003-.593-.003-1.187-.003-1.78a.067.067 0 0 1 .055-.077Z"/><path fill="#fff" d="M38.615 23.133h1.904l.008.058c-.269.127-1.662.125-1.921-.003l.003.005c0-.021.004-.04.006-.06Zm-1.97-1.854-1.88-.006c.039-.073.11-.054.165-.054h1.595c.054 0 .13-.033.157.057-.01.025-.024.025-.037.003Z"/><path fill="#fff" d="M36.645 21.28h.04c0 .62 0 1.237.004 1.853-.095-.09-.047-.205-.047-.307-.001-.516-.001-1.031.003-1.547Zm-3.82 5.792a.24.24 0 0 0 .035 0l.005 1.855a.337.337 0 0 0-.047.003l.008-1.858Zm9.654 16.352c0-.246.007-.492 0-.737-.004-.142.022-.214.19-.211.52.01 1.04.007 1.557 0 .14 0 .192.037.19.184a59.258 59.258 0 0 0 0 1.583c0 .135-.051.17-.177.168a69.874 69.874 0 0 0-1.586 0c-.155.003-.178-.068-.175-.197.006-.262.002-.526.002-.79Zm-28.96-8.637-.011 1.852c-.635.044-1.272.044-1.907 0-.012-.62-.03-1.24.01-1.86a12.49 12.49 0 0 1 1.907.008Zm3.872-1.978c0 .02-.005.038-.006.058a.288.288 0 0 1-.09.058 1.142 1.142 0 0 1-.35.027h-2.988a1.16 1.16 0 0 1-.35-.027.273.273 0 0 1-.09-.058c0-.02-.004-.039-.005-.058l-.005.005c.105-.093.235-.09.362-.09h3.164c.127 0 .257-.004.362.09l-.004-.005Z"/><path fill="#fff" d="m13.518 34.787-1.909-.006c.149-.094.313-.038.469-.041.478-.012.957-.01 1.435-.014a.34.34 0 0 1 .09-.054c.54-.06 1.084-.026 1.626-.02.084 0 .19.008.196.137l-1.907-.002ZM11.6 36.638h1.908c-.058.11-.16.05-.237.052-.559.007-1.118.006-1.676.007l.005-.059Z"/><path fill="#fff" d="M13.562 34.722c-.016 0-.032 0-.048.003l.005-1.859h.045c.129.263.128 1.599-.002 1.856Z"/><path fill="#fff" d="M13.562 34.722v-1.855h3.778a.22.22 0 0 1 .023.077c-.004 1.228.012 2.457-.009 3.685-.2.078-.407.027-.61.035-.423.015-.845-.018-1.268.017-.09-.069-.044-.165-.045-.25-.006-.546-.005-1.096-.006-1.645-.076-.1-.185-.058-.28-.059-.527-.005-1.055-.004-1.583-.005Z"/><path fill="#fff" d="m17.336 36.639.003-3.774h.045l.01 3.828-.058-.01c-.019-.01-.025-.021-.019-.032.006-.01.014-.012.019-.012Z"/><path fill="#fff" d="M17.336 36.639a.369.369 0 0 0 0 .047l-1.86-.006c.263-.09.535-.03.802-.038.354-.012.706-.003 1.058-.003Z"/><path fill="#071E44" d="M42.437 30.904c-.536-.003-1.072-.014-1.608-.005-.193.004-.27-.032-.263-.248.018-.554.008-1.109.01-1.663.532-.07 1.067-.01 1.6-.033.094-.005.2.044.283-.043.012-.588 0-1.175.005-1.762a.114.114 0 0 1 .033-.092l1.908.009v9.374c0 .08-.06.182.055.24h3.77c.113-.054.054-.16.054-.239.006-.554.004-1.109.004-1.663h1.908v3.828h-7.704l-.017-3.82c-.156-.11-.331-.04-.497-.045a20.752 20.752 0 0 0-1.197 0c-.168.005-.215-.048-.212-.215.009-.553 0-1.106 0-1.66.41-.078.826-.014 1.24-.033.206-.01.414-.013.621-.02.071-.337.024-.68.027-1.019.004-.298.038-.595-.02-.89Z"/><path fill="#fff" d="M21.223 15.47c.07.065.051.15.051.23v3.37c0 .087.022.184-.063.251l.008-.017c-.095-.104-.087-.235-.087-.361a729.159 729.159 0 0 1 0-3.102c0-.127-.007-.256.084-.362l.007-.01Zm5.815-.042c-.05-.397-.017-.795-.02-1.193-.007-.878-.005-1.757-.007-2.635l.062-.006c.09.106.083.236.083.363 0 1.035.004 2.07 0 3.105 0 .13.031.28-.118.366Zm-.022-3.832-1.914.004c.027-.018.054-.055.084-.055.58-.003 1.159-.003 1.738 0 .037 0 .064.034.092.05Z"/><path fill="#071E44" d="M17.395 32.813h-3.887c.004-.579 0-1.157.016-1.736.004-.174-.079-.185-.214-.184-.57.005-1.14 0-1.71 0-.05-.637-.05-1.277 0-1.914l-.005.007c.064-.051.14-.03.21-.03h5.377c.07 0 .147-.025.207.035-.014 1.276-.022 2.55.006 3.822Zm-3.881-7.712-.008 1.914.005-.003c-.322.07-.648.027-.971.028-.314 0-.631.04-.944-.028l.005.007c-.068-.358-.025-.719-.027-1.078 0-.278-.039-.558.025-.835l1.915-.005Z"/><path fill="#fff" d="m17.39 28.994-5.796-.005c.086-.104.204-.057.306-.057 1.813-.004 3.626-.005 5.438-.005h.039l.014.067Z"/><path fill="#fff" d="M11.601 28.982v1.914c-.018-.028-.054-.055-.054-.085-.004-.58-.004-1.161 0-1.741 0-.031.036-.06.054-.088Zm-.005-1.971h1.914a.145.145 0 0 1-.142.059h-1.63a.146.146 0 0 1-.142-.06Z"/><path fill="#fff" d="M11.6 25.108v1.913c-.019-.028-.055-.054-.055-.085-.003-.581-.003-1.162 0-1.742.002-.032.037-.06.055-.086Zm15.41-5.804c0-.556 0-1.111.009-1.667 0-.08-.055-.183.055-.242.059.07.088.16.082.25.007.47.007.94 0 1.41a.371.371 0 0 1-.082.252l-.063-.003Z"/><path fill="#071E44" d="M21.219 15.479c0 1.276 0 2.55.002 3.825l-1.916.007c0-1.192.01-2.384 0-3.575 0-.219.061-.273.273-.268.547.014 1.094.008 1.64.01Z"/><path fill="#fff" d="M21.215 9.624h-1.862l-.005-5.725c.554-.004 1.11 0 1.664-.014.177-.003.211.073.21.229-.005 1.836-.007 3.673-.007 5.51ZM3.828 32.864H1.974a.324.324 0 0 0-.005-.046l1.862-.002c0 .015 0 .032-.003.048Zm28.975-17.436c0-.64.002-1.28.004-1.92a.068.068 0 0 1 .065-.004.043.043 0 0 1-.005.06v1.817a.067.067 0 0 1-.017.046c-.01.007-.032 0-.047 0Z"/><path fill="#fff" d="M32.867 13.563a.313.313 0 0 0 0-.045c.064-.08.157-.089.247-.09.453-.01.907-.009 1.36 0a.36.36 0 0 1 .253.086c0 .016 0 .033-.004.048l-1.856.001Z"/><path fill="#071E44" d="m38.605 23.186 1.921.003c0 .572.006 1.143 0 1.715 0 .15.038.206.196.203.571-.011 1.143-.008 1.714-.01h.055v1.914c-.055.048-.12.03-.183.031h-3.491c-.068 0-.148.034-.202-.042l-.01-3.814Z"/><path fill="#fff" d="M38.613 26.998c.827.006 1.655.014 2.483.017.465 0 .93-.003 1.393-.005a.15.15 0 0 0 .006.05l-.01.01c-.014.027-.03.026-.047.002-1.178 0-2.352 0-3.532-.005-.098 0-.221.06-.293-.069Z"/><path fill="#071E44" d="m34.727 13.514-1.86.005-.06-.01.007.005a.4.4 0 0 1-.088-.28 60.455 60.455 0 0 1 0-1.36c-.007-.1.024-.2.088-.279l-.006.006.06-.01 1.854.01.005 1.913Z"/><path fill="#fff" d="M49.242 9.68c-.893 0-1.786-.005-2.68.004-.192 0-.248-.055-.247-.248.006-1.787.006-3.573 0-5.36 0-.184.06-.234.234-.233a1106 1106 0 0 0 5.385 0c.166 0 .219.055.219.219-.005 1.794-.005 3.59 0 5.384 0 .175-.05.236-.235.235-.89-.006-1.783 0-2.676 0ZM6.759 46.32c.884 0 1.768.004 2.651-.004.19 0 .274.03.274.25a547.111 547.111 0 0 0 0 5.36c0 .183-.062.232-.237.231-1.794-.004-3.59-.004-5.384 0-.17 0-.219-.058-.219-.222.005-1.795.005-3.59 0-5.385 0-.177.055-.234.236-.232.896.008 1.786.002 2.679.002Zm0-36.64c-.884 0-1.768-.006-2.652.005-.204 0-.264-.055-.264-.26.007-1.777.007-3.554 0-5.33 0-.19.055-.252.247-.251 1.777.006 3.554.006 5.33 0 .201 0 .265.055.264.26a618.09 618.09 0 0 0 0 5.33c0 .19-.055.252-.246.25-.893-.009-1.786-.004-2.679-.004Zm27.963-1.963.008-1.909a.294.294 0 0 1 .054 0c0 .556 0 1.112-.006 1.667-.002.078.052.179-.056.242Zm-7.684 7.71c.054-.092.03-.194.03-.292.004-1.18.006-2.36.006-3.54l1.855.005c.052.093.025.195.026.293.008 1.176-.01 2.351.01 3.53-.102.092-.226.047-.337.043-.53-.018-1.063.064-1.59-.038Zm5.774-3.833c.029.64.029 1.28 0 1.919-.571.002-1.143 0-1.714.01-.147 0-.21-.03-.206-.192.009-.518.009-1.035 0-1.552-.004-.164.06-.195.205-.192.573.008 1.145.006 1.715.007Zm-5.74 7.713v-1.914c.62-.025 1.24-.025 1.857 0 .045.635.045 1.272 0 1.906l-1.856.008Z"/><path fill="#fff" d="M28.965 15.428c-.06-.092-.034-.194-.034-.292l-.002-3.536c.09.027.055.104.055.159a958.99 958.99 0 0 1 0 3.558.65.65 0 0 1-.019.11ZM28.93 19.3v-1.906c.015.009.043.017.043.026.003.62.003 1.238 0 1.855 0 .009-.029.017-.043.025Zm13.507 11.604c.046.007.055.038.055.076v1.73c0 .043.006.091-.055.1-.002-.634-.002-1.27 0-1.906Zm.04-1.977c-.058.11-.163.055-.24.055-.554.006-1.108.006-1.662.007.075-.098.182-.055.273-.058.53-.005 1.061-.004 1.591-.005h.039Z"/><path fill="#fff" d="M42.478 28.927h-.037l-.004-1.855a.314.314 0 0 0 .047-.003l-.006 1.858Zm-9.618 5.792v-1.853h1.862v1.86l-1.862-.007Z"/></g></svg>